G04*
G04 #@! TF.GenerationSoftware,Altium Limited,Altium Designer,21.2.2 (38)*
G04*
G04 Layer_Physical_Order=2*
G04 Layer_Color=16711680*
%FSLAX44Y44*%
%MOMM*%
G71*
G04*
G04 #@! TF.SameCoordinates,11E53DB6-EA1C-46B5-B3C1-A0E245133AF0*
G04*
G04*
G04 #@! TF.FilePolarity,Positive*
G04*
G01*
G75*
G04:AMPARAMS|DCode=16|XSize=1.6002mm|YSize=1.6002mm|CornerRadius=0.4001mm|HoleSize=0mm|Usage=FLASHONLY|Rotation=0.000|XOffset=0mm|YOffset=0mm|HoleType=Round|Shape=RoundedRectangle|*
%AMROUNDEDRECTD16*
21,1,1.6002,0.8001,0,0,0.0*
21,1,0.8001,1.6002,0,0,0.0*
1,1,0.8001,0.4001,-0.4001*
1,1,0.8001,-0.4001,-0.4001*
1,1,0.8001,-0.4001,0.4001*
1,1,0.8001,0.4001,0.4001*
%
%ADD16ROUNDEDRECTD16*%
G04:AMPARAMS|DCode=17|XSize=1.6002mm|YSize=1.6002mm|CornerRadius=0mm|HoleSize=0mm|Usage=FLASHONLY|Rotation=0.000|XOffset=0mm|YOffset=0mm|HoleType=Round|Shape=Octagon|*
%AMOCTAGOND17*
4,1,8,0.8001,-0.4001,0.8001,0.4001,0.4001,0.8001,-0.4001,0.8001,-0.8001,0.4001,-0.8001,-0.4001,-0.4001,-0.8001,0.4001,-0.8001,0.8001,-0.4001,0.0*
%
%ADD17OCTAGOND17*%

G04:AMPARAMS|DCode=18|XSize=1.4mm|YSize=1.4mm|CornerRadius=0mm|HoleSize=0mm|Usage=FLASHONLY|Rotation=270.000|XOffset=0mm|YOffset=0mm|HoleType=Round|Shape=Octagon|*
%AMOCTAGOND18*
4,1,8,-0.3500,-0.7000,0.3500,-0.7000,0.7000,-0.3500,0.7000,0.3500,0.3500,0.7000,-0.3500,0.7000,-0.7000,0.3500,-0.7000,-0.3500,-0.3500,-0.7000,0.0*
%
%ADD18OCTAGOND18*%

G04:AMPARAMS|DCode=19|XSize=1.4mm|YSize=1.4mm|CornerRadius=0.35mm|HoleSize=0mm|Usage=FLASHONLY|Rotation=0.000|XOffset=0mm|YOffset=0mm|HoleType=Round|Shape=RoundedRectangle|*
%AMROUNDEDRECTD19*
21,1,1.4000,0.7000,0,0,0.0*
21,1,0.7000,1.4000,0,0,0.0*
1,1,0.7000,0.3500,-0.3500*
1,1,0.7000,-0.3500,-0.3500*
1,1,0.7000,-0.3500,0.3500*
1,1,0.7000,0.3500,0.3500*
%
%ADD19ROUNDEDRECTD19*%
G04:AMPARAMS|DCode=20|XSize=1.397mm|YSize=2.794mm|CornerRadius=0mm|HoleSize=0mm|Usage=FLASHONLY|Rotation=0.000|XOffset=0mm|YOffset=0mm|HoleType=Round|Shape=Octagon|*
%AMOCTAGOND20*
4,1,8,-0.3493,1.3970,0.3493,1.3970,0.6985,1.0478,0.6985,-1.0478,0.3493,-1.3970,-0.3493,-1.3970,-0.6985,-1.0478,-0.6985,1.0478,-0.3493,1.3970,0.0*
%
%ADD20OCTAGOND20*%

G04:AMPARAMS|DCode=21|XSize=1.397mm|YSize=2.794mm|CornerRadius=0.3493mm|HoleSize=0mm|Usage=FLASHONLY|Rotation=0.000|XOffset=0mm|YOffset=0mm|HoleType=Round|Shape=RoundedRectangle|*
%AMROUNDEDRECTD21*
21,1,1.3970,2.0955,0,0,0.0*
21,1,0.6985,2.7940,0,0,0.0*
1,1,0.6985,0.3493,-1.0478*
1,1,0.6985,-0.3493,-1.0478*
1,1,0.6985,-0.3493,1.0478*
1,1,0.6985,0.3493,1.0478*
%
%ADD21ROUNDEDRECTD21*%
G04:AMPARAMS|DCode=22|XSize=1.6002mm|YSize=1.6002mm|CornerRadius=0.4001mm|HoleSize=0mm|Usage=FLASHONLY|Rotation=90.000|XOffset=0mm|YOffset=0mm|HoleType=Round|Shape=RoundedRectangle|*
%AMROUNDEDRECTD22*
21,1,1.6002,0.8001,0,0,90.0*
21,1,0.8001,1.6002,0,0,90.0*
1,1,0.8001,0.4001,0.4001*
1,1,0.8001,0.4001,-0.4001*
1,1,0.8001,-0.4001,-0.4001*
1,1,0.8001,-0.4001,0.4001*
%
%ADD22ROUNDEDRECTD22*%
G04:AMPARAMS|DCode=23|XSize=1.6002mm|YSize=1.6002mm|CornerRadius=0mm|HoleSize=0mm|Usage=FLASHONLY|Rotation=90.000|XOffset=0mm|YOffset=0mm|HoleType=Round|Shape=Octagon|*
%AMOCTAGOND23*
4,1,8,0.4001,0.8001,-0.4001,0.8001,-0.8001,0.4001,-0.8001,-0.4001,-0.4001,-0.8001,0.4001,-0.8001,0.8001,-0.4001,0.8001,0.4001,0.4001,0.8001,0.0*
%
%ADD23OCTAGOND23*%

%ADD24C,1.1000*%
G04:AMPARAMS|DCode=25|XSize=1.6mm|YSize=1.6mm|CornerRadius=0.4mm|HoleSize=0mm|Usage=FLASHONLY|Rotation=90.000|XOffset=0mm|YOffset=0mm|HoleType=Round|Shape=RoundedRectangle|*
%AMROUNDEDRECTD25*
21,1,1.6000,0.8000,0,0,90.0*
21,1,0.8000,1.6000,0,0,90.0*
1,1,0.8000,0.4000,0.4000*
1,1,0.8000,0.4000,-0.4000*
1,1,0.8000,-0.4000,-0.4000*
1,1,0.8000,-0.4000,0.4000*
%
%ADD25ROUNDEDRECTD25*%
%ADD26C,1.0000*%
G04:AMPARAMS|DCode=27|XSize=1.4mm|YSize=1.4mm|CornerRadius=0.35mm|HoleSize=0mm|Usage=FLASHONLY|Rotation=90.000|XOffset=0mm|YOffset=0mm|HoleType=Round|Shape=RoundedRectangle|*
%AMROUNDEDRECTD27*
21,1,1.4000,0.7000,0,0,90.0*
21,1,0.7000,1.4000,0,0,90.0*
1,1,0.7000,0.3500,0.3500*
1,1,0.7000,0.3500,-0.3500*
1,1,0.7000,-0.3500,-0.3500*
1,1,0.7000,-0.3500,0.3500*
%
%ADD27ROUNDEDRECTD27*%
%ADD28C,0.4000*%
D16*
X368300Y311123D02*
D03*
X342900D02*
D03*
X317500D02*
D03*
X292100D02*
D03*
X266700D02*
D03*
X241300D02*
D03*
X215900D02*
D03*
X190500D02*
D03*
X165100D02*
D03*
X139700D02*
D03*
X114300D02*
D03*
X88900D02*
D03*
X63500D02*
D03*
X139700Y57150D02*
D03*
Y31750D02*
D03*
X114300Y57150D02*
D03*
Y31750D02*
D03*
X88900Y57150D02*
D03*
Y31750D02*
D03*
X63500Y57150D02*
D03*
Y31750D02*
D03*
X38100Y57150D02*
D03*
X361950D02*
D03*
Y31750D02*
D03*
X336550Y57150D02*
D03*
Y31750D02*
D03*
X311150Y57150D02*
D03*
Y31750D02*
D03*
X285750Y57150D02*
D03*
Y31750D02*
D03*
X260350Y57150D02*
D03*
D17*
X38100Y311123D02*
D03*
Y31750D02*
D03*
X260350D02*
D03*
D18*
X2540Y287020D02*
D03*
Y312420D02*
D03*
X26670Y289560D02*
D03*
Y264160D02*
D03*
X27940Y104140D02*
D03*
Y129540D02*
D03*
D19*
X312420Y109220D02*
D03*
X287020D02*
D03*
D20*
X63500Y200660D02*
D03*
D21*
X88900D02*
D03*
X114300D02*
D03*
X139700D02*
D03*
X165100D02*
D03*
X190500D02*
D03*
X215900D02*
D03*
X241300D02*
D03*
X266700D02*
D03*
X292100D02*
D03*
X317500D02*
D03*
X342900D02*
D03*
X368300D02*
D03*
X393700D02*
D03*
Y276860D02*
D03*
X368300D02*
D03*
X342900D02*
D03*
X317500D02*
D03*
X292100D02*
D03*
X266700D02*
D03*
X241300D02*
D03*
X215900D02*
D03*
X190500D02*
D03*
X165100D02*
D03*
X139700D02*
D03*
X114300D02*
D03*
X88900D02*
D03*
X63500D02*
D03*
D22*
X-1270Y259080D02*
D03*
Y233680D02*
D03*
Y208280D02*
D03*
Y182880D02*
D03*
D23*
Y157480D02*
D03*
D24*
X372655Y163830D02*
D03*
Y113030D02*
D03*
X400550Y164080D02*
D03*
Y113280D02*
D03*
X106680Y154940D02*
D03*
X55880D02*
D03*
Y125730D02*
D03*
X106680D02*
D03*
D25*
X200660Y110490D02*
D03*
Y154940D02*
D03*
X137160Y110490D02*
D03*
Y154940D02*
D03*
D26*
X276860Y151130D02*
D03*
X325120D02*
D03*
D27*
X5080Y109220D02*
D03*
Y134620D02*
D03*
D28*
X126176Y322999D02*
X327946D01*
X114300Y311123D02*
X126176Y322999D01*
X327946D02*
X330289Y320656D01*
Y301984D02*
Y320656D01*
X44344Y296363D02*
X74140D01*
X44344Y296256D02*
Y296363D01*
Y240362D02*
Y296256D01*
X41272Y299328D02*
X44344Y296256D01*
X38100Y311123D02*
X41272Y307951D01*
Y299328D02*
Y307951D01*
X44344Y240362D02*
X186387D01*
X33429D02*
X44344D01*
X324980Y296363D02*
X329766Y291578D01*
Y246814D02*
X349300Y227280D01*
X329766Y246814D02*
Y291578D01*
X308738Y296363D02*
X324980D01*
X335093Y297180D02*
X391357D01*
X330289Y301984D02*
X335093Y297180D01*
X159008Y12700D02*
X279455Y133147D01*
X393014D02*
X410456Y150588D01*
X279455Y133147D02*
X393014D01*
X287020Y109220D02*
X301257Y123457D01*
X390373D01*
X400550Y113280D01*
X312420Y109220D02*
X366951D01*
X370761Y113030D02*
X372655D01*
X366951Y109220D02*
X370761Y113030D01*
X-1270Y182880D02*
X39742Y223892D01*
X148853D02*
X165100Y207645D01*
X39742Y223892D02*
X148853D01*
X137499Y178233D02*
X223444D01*
X228518Y183307D02*
Y220820D01*
X223444Y178233D02*
X228518Y183307D01*
Y220820D02*
X241300Y233603D01*
X114575Y155309D02*
X137499Y178233D01*
X136525Y154940D02*
X171161D01*
X184894Y168673D02*
X227567D01*
X171161Y154940D02*
X184894Y168673D01*
X239633Y151031D02*
X262592Y173990D01*
X323473D02*
X330289Y180806D01*
X262592Y173990D02*
X323473D01*
X239633Y116206D02*
Y151031D01*
X139700Y57150D02*
X180577D01*
X239633Y116206D01*
X330289Y180806D02*
Y218598D01*
X317500Y231388D02*
X330289Y218598D01*
X410456Y150588D02*
Y217374D01*
X367968Y240362D02*
X387468D01*
X410456Y217374D01*
X304421Y265322D02*
Y292046D01*
X308738Y296363D01*
X276898Y237799D02*
X304421Y265322D01*
X107950Y12700D02*
X159008D01*
X88900Y31750D02*
X107950Y12700D01*
X5892Y134620D02*
X14790Y143518D01*
X38092D02*
X55880Y125730D01*
X14790Y143518D02*
X38092D01*
X55880Y125730D02*
X71120Y110490D01*
X5080Y134620D02*
X5892D01*
X107049Y155309D02*
X114575D01*
X106680Y154940D02*
X107049Y155309D01*
X12731Y233603D02*
X26670D01*
X74140Y296363D02*
X88900Y311123D01*
X26670Y233603D02*
X33429Y240362D01*
X186387D02*
X215900Y269875D01*
X391357Y297180D02*
X393700Y294837D01*
Y276860D02*
Y294837D01*
X346882Y261448D02*
X367968Y240362D01*
X349300Y227280D02*
X371388D01*
X381302Y165213D02*
Y217365D01*
X371388Y227280D02*
X381302Y217365D01*
X382561Y163955D02*
X400425D01*
X372780D02*
X382561D01*
X381302Y165213D02*
X382561Y163955D01*
X342900Y276860D02*
X346882Y272878D01*
Y261448D02*
Y272878D01*
X-1270Y157480D02*
X16887Y175637D01*
X-1270Y259080D02*
X3260Y263610D01*
X165100Y200660D02*
Y207645D01*
X5080Y109220D02*
X5892D01*
X107315Y125730D02*
X136525Y154940D01*
X227567Y168673D02*
X241300Y182407D01*
X271455Y237799D02*
X276898D01*
X241300Y207645D02*
X271455Y237799D01*
X241300Y182407D02*
Y207645D01*
X-1270Y233680D02*
X12731D01*
X106680Y125730D02*
X107315D01*
X26212Y129540D02*
X27940D01*
X13282Y264160D02*
X26670D01*
X317500Y231388D02*
Y276860D01*
X71120Y110490D02*
X137160D01*
X77470Y154940D02*
X106680Y125730D01*
X55880Y154940D02*
X77470D01*
X400425Y163955D02*
X400550Y164080D01*
X372655Y163830D02*
X372780Y163955D01*
X16887Y175637D02*
X121662D01*
X139700Y193675D02*
Y200660D01*
X121662Y175637D02*
X139700Y193675D01*
X241300Y233603D02*
Y276860D01*
X215900Y269875D02*
Y276860D01*
X3260Y263610D02*
X12731D01*
X13282Y264160D01*
X5892Y109220D02*
X26212Y129540D01*
M02*
