G04*
G04 #@! TF.GenerationSoftware,Altium Limited,Altium Designer,21.6.4 (81)*
G04*
G04 Layer_Color=15790320*
%FSLAX44Y44*%
%MOMM*%
G71*
G04*
G04 #@! TF.SameCoordinates,CA9C2751-F2D4-4D48-97C2-B87B39E443D5*
G04*
G04*
G04 #@! TF.FilePolarity,Positive*
G04*
G01*
G75*
%ADD10C,0.2500*%
%ADD11C,0.2000*%
%ADD12C,0.1270*%
%ADD13C,0.4064*%
%ADD14C,0.2540*%
%ADD15C,0.0508*%
G36*
X21042Y303035D02*
X21126Y303026D01*
X21329Y303008D01*
X21551Y302971D01*
X21773Y302924D01*
X21985Y302850D01*
X22087Y302804D01*
X22170Y302758D01*
X22180Y302749D01*
X22216Y302730D01*
X22272Y302693D01*
X22346Y302638D01*
X22411Y302573D01*
X22494Y302490D01*
X22559Y302397D01*
X22623Y302296D01*
Y302286D01*
X22633Y302249D01*
X22642Y302194D01*
Y302129D01*
Y302046D01*
X22633Y301963D01*
X22605Y301880D01*
X22568Y301796D01*
X22559Y301787D01*
X22540Y301778D01*
X22512Y301750D01*
X22475Y301732D01*
X22364Y301676D01*
X22300Y301667D01*
X22235Y301658D01*
X22198D01*
X22161Y301667D01*
X22115Y301676D01*
X22059Y301695D01*
X22004Y301722D01*
X21958Y301759D01*
X21911Y301805D01*
X21902Y301815D01*
X21893Y301833D01*
X21856Y301870D01*
X21819Y301907D01*
X21717Y302009D01*
X21588Y302111D01*
X21579Y302120D01*
X21542Y302138D01*
X21477Y302157D01*
X21394Y302185D01*
X21283Y302212D01*
X21153Y302231D01*
X21005Y302249D01*
X20783D01*
X20746Y302240D01*
X20645Y302231D01*
X20524Y302203D01*
X20386Y302166D01*
X20247Y302111D01*
X20118Y302046D01*
X19998Y301954D01*
X19988Y301944D01*
X19961Y301907D01*
X19924Y301842D01*
X19877Y301769D01*
X19840Y301676D01*
X19803Y301565D01*
X19776Y301445D01*
X19766Y301315D01*
Y301306D01*
Y301297D01*
X19785Y301242D01*
X19803Y301158D01*
X19831Y301066D01*
X19868Y300964D01*
X19914Y300872D01*
X19970Y300788D01*
X20044Y300724D01*
X20053Y300715D01*
X20090Y300696D01*
X20155Y300668D01*
X20192Y300659D01*
X20247Y300641D01*
X20312Y300622D01*
X20386Y300613D01*
X20469Y300594D01*
X20561Y300585D01*
X20663Y300576D01*
X21190D01*
X21255Y300567D01*
X21320D01*
X21495Y300548D01*
X21680Y300511D01*
X21865Y300456D01*
X22050Y300391D01*
X22207Y300289D01*
X22216D01*
X22226Y300271D01*
X22253Y300252D01*
X22290Y300224D01*
X22327Y300178D01*
X22374Y300132D01*
X22420Y300077D01*
X22466Y300003D01*
X22512Y299919D01*
X22559Y299827D01*
X22605Y299716D01*
X22642Y299596D01*
X22669Y299457D01*
X22697Y299319D01*
X22716Y299152D01*
Y298976D01*
Y298967D01*
Y298939D01*
X22706Y298902D01*
X22697Y298847D01*
X22688Y298773D01*
X22669Y298699D01*
X22633Y298514D01*
X22559Y298320D01*
X22457Y298107D01*
X22392Y298006D01*
X22327Y297904D01*
X22244Y297811D01*
X22152Y297719D01*
X22143Y297710D01*
X22133Y297701D01*
X22106Y297682D01*
X22059Y297645D01*
X22013Y297617D01*
X21948Y297580D01*
X21884Y297534D01*
X21800Y297497D01*
X21708Y297451D01*
X21606Y297405D01*
X21495Y297368D01*
X21384Y297331D01*
X21116Y297266D01*
X20968Y297248D01*
X20811Y297238D01*
X20478D01*
X20321Y297248D01*
X20155Y297266D01*
X19988Y297284D01*
X19822Y297312D01*
X19813D01*
X19785Y297321D01*
X19739Y297340D01*
X19683Y297358D01*
X19600Y297386D01*
X19517Y297432D01*
X19424Y297479D01*
X19313Y297543D01*
X19304Y297553D01*
X19267Y297580D01*
X19212Y297617D01*
X19147Y297673D01*
X19082Y297738D01*
X19008Y297811D01*
X18944Y297895D01*
X18897Y297987D01*
Y297996D01*
X18888Y298024D01*
X18879Y298070D01*
Y298135D01*
X18888Y298200D01*
X18907Y298274D01*
X18934Y298357D01*
X18990Y298440D01*
X18999Y298449D01*
X19008Y298459D01*
X19064Y298505D01*
X19156Y298560D01*
X19267Y298597D01*
X19276D01*
X19295Y298607D01*
X19332D01*
X19378Y298597D01*
X19433Y298588D01*
X19498Y298570D01*
X19563Y298533D01*
X19628Y298477D01*
X19637Y298468D01*
X19655Y298449D01*
X19683Y298422D01*
X19729Y298385D01*
X19785Y298338D01*
X19840Y298302D01*
X19988Y298218D01*
X20007Y298209D01*
X20053Y298190D01*
X20127Y298163D01*
X20219Y298135D01*
X20340Y298107D01*
X20469Y298080D01*
X20626Y298061D01*
X20802D01*
X20857Y298070D01*
X20931Y298080D01*
X21033Y298098D01*
X21144Y298135D01*
X21264Y298172D01*
X21375Y298228D01*
X21486Y298302D01*
X21505Y298311D01*
X21542Y298357D01*
X21597Y298412D01*
X21662Y298496D01*
X21726Y298588D01*
X21782Y298708D01*
X21828Y298838D01*
X21847Y298976D01*
Y298986D01*
Y298995D01*
Y299050D01*
Y299124D01*
X21828Y299217D01*
X21800Y299319D01*
X21763Y299420D01*
X21708Y299513D01*
X21625Y299596D01*
X21616Y299605D01*
X21588Y299624D01*
X21560Y299633D01*
X21523Y299651D01*
X21486Y299670D01*
X21431Y299688D01*
X21357Y299707D01*
X21283Y299725D01*
X21181Y299734D01*
X21079Y299753D01*
X20950Y299762D01*
X20802Y299781D01*
X20645D01*
X20460Y299790D01*
X20423D01*
X20386Y299799D01*
X20330Y299809D01*
X20266Y299818D01*
X20192Y299836D01*
X20025Y299883D01*
X19840Y299947D01*
X19637Y300040D01*
X19452Y300169D01*
X19369Y300252D01*
X19286Y300336D01*
X19267Y300354D01*
X19230Y300400D01*
X19184Y300483D01*
X19119Y300594D01*
X19064Y300733D01*
X19008Y300890D01*
X18971Y301066D01*
X18962Y301269D01*
Y301278D01*
Y301306D01*
Y301353D01*
X18971Y301417D01*
Y301491D01*
X18980Y301574D01*
X19017Y301769D01*
X19082Y301981D01*
X19119Y302092D01*
X19165Y302203D01*
X19230Y302314D01*
X19295Y302416D01*
X19378Y302518D01*
X19470Y302610D01*
X19480Y302619D01*
X19498Y302628D01*
X19526Y302647D01*
X19563Y302675D01*
X19609Y302712D01*
X19674Y302749D01*
X19748Y302786D01*
X19822Y302832D01*
X19914Y302869D01*
X20016Y302906D01*
X20127Y302943D01*
X20247Y302980D01*
X20515Y303026D01*
X20654Y303044D01*
X20959D01*
X21042Y303035D01*
D02*
G37*
G36*
X25443Y303008D02*
X25554Y302998D01*
X25785Y302961D01*
X26016Y302906D01*
X26238Y302823D01*
X26340Y302767D01*
X26432Y302702D01*
X26442Y302693D01*
X26460Y302684D01*
X26488Y302656D01*
X26525Y302619D01*
X26562Y302573D01*
X26608Y302508D01*
X26719Y302369D01*
X26830Y302194D01*
X26923Y301991D01*
X26996Y301750D01*
X27024Y301630D01*
X27043Y301491D01*
Y301353D01*
Y301343D01*
Y301315D01*
X27033Y301278D01*
Y301223D01*
X27024Y301158D01*
X27006Y301084D01*
X26969Y300909D01*
X26904Y300715D01*
X26802Y300511D01*
X26747Y300419D01*
X26673Y300326D01*
X26599Y300243D01*
X26506Y300160D01*
X26516Y300151D01*
X26543Y300132D01*
X26590Y300086D01*
X26645Y300030D01*
X26701Y299956D01*
X26765Y299873D01*
X26830Y299771D01*
X26895Y299651D01*
X26904Y299642D01*
X26923Y299596D01*
X26950Y299531D01*
X26978Y299439D01*
X27006Y299328D01*
X27033Y299198D01*
X27043Y299041D01*
Y298865D01*
Y298829D01*
Y298810D01*
X27033Y298764D01*
X27024Y298690D01*
X26996Y298588D01*
X26960Y298477D01*
X26913Y298348D01*
X26848Y298209D01*
X26765Y298061D01*
X26664Y297913D01*
X26543Y297775D01*
X26395Y297645D01*
X26220Y297525D01*
X26007Y297423D01*
X25776Y297340D01*
X25508Y297284D01*
X25360Y297266D01*
X25203Y297257D01*
X23622D01*
X23585Y297266D01*
X23539Y297275D01*
X23437Y297312D01*
X23391Y297340D01*
X23335Y297386D01*
X23326Y297395D01*
X23317Y297414D01*
X23289Y297442D01*
X23270Y297479D01*
X23215Y297580D01*
X23206Y297636D01*
X23196Y297710D01*
Y302564D01*
Y302573D01*
Y302591D01*
X23206Y302628D01*
X23215Y302675D01*
X23233Y302721D01*
X23252Y302776D01*
X23289Y302832D01*
X23335Y302887D01*
X23344Y302896D01*
X23363Y302906D01*
X23391Y302924D01*
X23428Y302952D01*
X23520Y302998D01*
X23585Y303008D01*
X23649Y303017D01*
X25351D01*
X25443Y303008D01*
D02*
G37*
G36*
X29779Y303026D02*
X29844Y303008D01*
X29853D01*
X29872Y302989D01*
X29900Y302971D01*
X29936Y302943D01*
X29973Y302906D01*
X30010Y302859D01*
X30048Y302804D01*
X30075Y302739D01*
Y302730D01*
X30085Y302712D01*
X30094Y302675D01*
X30103Y302619D01*
Y302499D01*
X30094Y302434D01*
X30075Y302360D01*
X28762Y299032D01*
X29604Y299041D01*
Y299975D01*
Y299984D01*
Y300012D01*
X29613Y300040D01*
X29622Y300086D01*
X29659Y300197D01*
X29687Y300252D01*
X29733Y300308D01*
X29742Y300317D01*
X29761Y300326D01*
X29779Y300345D01*
X29816Y300373D01*
X29918Y300419D01*
X29973Y300428D01*
X30038Y300437D01*
X30057D01*
X30094Y300419D01*
X30122Y300400D01*
X30158Y300382D01*
X30195Y300345D01*
X30242Y300299D01*
X30251Y300289D01*
X30260Y300280D01*
X30279Y300243D01*
X30306Y300206D01*
X30334Y300160D01*
X30353Y300104D01*
X30362Y300040D01*
X30371Y299966D01*
Y299032D01*
X30704D01*
X30741Y299023D01*
X30778Y299013D01*
X30824Y298995D01*
X30880Y298976D01*
X30926Y298939D01*
X30972Y298893D01*
X30981Y298884D01*
X30991Y298875D01*
X31009Y298847D01*
X31037Y298810D01*
X31074Y298708D01*
X31083Y298643D01*
X31092Y298579D01*
Y298570D01*
Y298551D01*
X31083Y298514D01*
X31074Y298468D01*
X31046Y298366D01*
X31009Y298311D01*
X30972Y298265D01*
X30963Y298255D01*
X30954Y298246D01*
X30926Y298218D01*
X30889Y298200D01*
X30796Y298144D01*
X30741Y298135D01*
X30676Y298126D01*
X30371D01*
Y297710D01*
Y297701D01*
Y297673D01*
X30362Y297636D01*
X30353Y297589D01*
X30316Y297479D01*
X30288Y297423D01*
X30242Y297368D01*
X30232Y297358D01*
X30223Y297349D01*
X30168Y297303D01*
X30103Y297257D01*
X30066Y297238D01*
X30010D01*
X29973Y297248D01*
X29936Y297257D01*
X29890Y297275D01*
X29835Y297294D01*
X29779Y297331D01*
X29733Y297377D01*
X29724Y297386D01*
X29715Y297405D01*
X29696Y297432D01*
X29668Y297479D01*
X29622Y297580D01*
X29613Y297645D01*
X29604Y297719D01*
Y298135D01*
X28060Y298126D01*
X28032D01*
X28004Y298135D01*
X27958Y298144D01*
X27866Y298181D01*
X27819Y298209D01*
X27773Y298255D01*
X27764Y298265D01*
X27755Y298274D01*
X27736Y298302D01*
X27718Y298338D01*
X27690Y298385D01*
X27671Y298440D01*
X27662Y298505D01*
X27653Y298579D01*
Y298597D01*
X27671Y298643D01*
X27708Y298717D01*
X27736Y298764D01*
X27782Y298810D01*
X29326Y302749D01*
Y302758D01*
Y302776D01*
X29336Y302813D01*
X29354Y302850D01*
X29373Y302896D01*
X29400Y302943D01*
X29446Y302980D01*
X29502Y303008D01*
X29511D01*
X29530Y303017D01*
X29567Y303026D01*
X29604Y303035D01*
X29715D01*
X29779Y303026D01*
D02*
G37*
G36*
X47163Y289482D02*
X47228Y289473D01*
X47394Y289445D01*
X47570Y289399D01*
X47755Y289325D01*
X47940Y289214D01*
X48023Y289150D01*
X48106Y289076D01*
X48116Y289066D01*
X48125Y289057D01*
X48153Y289029D01*
X48180Y288983D01*
X48217Y288937D01*
X48264Y288881D01*
X48310Y288808D01*
X48356Y288734D01*
X48448Y288558D01*
X48532Y288345D01*
X48587Y288105D01*
X48596Y287975D01*
X48606Y287837D01*
Y287809D01*
X48596Y287772D01*
X48587Y287717D01*
X48578Y287661D01*
X48559Y287587D01*
X48522Y287421D01*
X48448Y287245D01*
X48356Y287051D01*
X48291Y286958D01*
X48217Y286866D01*
X48143Y286783D01*
X48051Y286700D01*
X48042Y286690D01*
X48014Y286672D01*
X47968Y286644D01*
X47912Y286607D01*
X47838Y286570D01*
X47764Y286533D01*
X47672Y286505D01*
X47579Y286487D01*
X47570D01*
X47552D01*
X47515Y286496D01*
X47478Y286505D01*
X47376Y286542D01*
X47330Y286570D01*
X47293Y286607D01*
X47284Y286616D01*
X47274Y286625D01*
X47237Y286681D01*
X47200Y286764D01*
X47182Y286820D01*
Y286921D01*
X47191Y286977D01*
X47210Y287042D01*
X47237Y287116D01*
X47284Y287180D01*
X47348Y287245D01*
X47431Y287291D01*
X47450Y287300D01*
X47496Y287337D01*
X47561Y287393D01*
X47635Y287458D01*
X47709Y287550D01*
X47773Y287652D01*
X47811Y287772D01*
X47829Y287837D01*
Y287948D01*
X47820Y288003D01*
X47801Y288068D01*
X47783Y288142D01*
X47746Y288225D01*
X47699Y288299D01*
X47635Y288382D01*
X47616Y288391D01*
X47579Y288428D01*
X47505Y288475D01*
X47413Y288530D01*
X47302Y288576D01*
X47172Y288613D01*
X47025Y288623D01*
X46941Y288613D01*
X46858Y288604D01*
X46849D01*
X46821Y288595D01*
X46793Y288576D01*
X46738Y288549D01*
X46627Y288484D01*
X46488Y288401D01*
X46359Y288281D01*
X46294Y288207D01*
X46239Y288133D01*
X46202Y288059D01*
X46165Y287966D01*
X46146Y287874D01*
Y287754D01*
X46137Y287707D01*
X46118Y287652D01*
X46082Y287578D01*
X46026Y287513D01*
X45952Y287448D01*
X45860Y287411D01*
X45795Y287393D01*
X45730D01*
X45721D01*
X45712D01*
X45656D01*
X45573Y287402D01*
X45481Y287421D01*
X45388Y287476D01*
X45342Y287513D01*
X45305Y287550D01*
X45268Y287606D01*
X45231Y287670D01*
X45212Y287744D01*
X45194Y287837D01*
Y287864D01*
X45185Y287901D01*
X45175Y287948D01*
X45148Y288059D01*
X45120Y288123D01*
X45083Y288188D01*
X45037Y288253D01*
X44972Y288308D01*
X44907Y288373D01*
X44815Y288419D01*
X44722Y288465D01*
X44602Y288502D01*
X44473Y288521D01*
X44316Y288530D01*
X44306D01*
X44288D01*
X44260D01*
X44223D01*
X44121Y288512D01*
X43992Y288484D01*
X43863Y288428D01*
X43742Y288345D01*
X43687Y288290D01*
X43632Y288234D01*
X43594Y288160D01*
X43558Y288077D01*
Y288049D01*
X43548Y288022D01*
Y287985D01*
X43558Y287883D01*
X43576Y287754D01*
X43622Y287615D01*
X43650Y287550D01*
X43696Y287476D01*
X43752Y287411D01*
X43816Y287347D01*
X43900Y287291D01*
X43992Y287236D01*
X44011Y287227D01*
X44047Y287208D01*
X44103Y287162D01*
X44168Y287106D01*
X44223Y287032D01*
X44260Y286940D01*
X44279Y286820D01*
Y286755D01*
X44260Y286690D01*
X44251Y286681D01*
X44242Y286644D01*
X44205Y286598D01*
X44159Y286542D01*
X44094Y286487D01*
X44011Y286450D01*
X43900Y286431D01*
X43770D01*
X43761D01*
X43733Y286441D01*
X43696Y286459D01*
X43641Y286478D01*
X43576Y286505D01*
X43502Y286552D01*
X43428Y286598D01*
X43345Y286663D01*
X43336Y286672D01*
X43317Y286681D01*
X43289Y286700D01*
X43252Y286737D01*
X43206Y286783D01*
X43160Y286829D01*
X43105Y286894D01*
X43049Y286968D01*
X43003Y287051D01*
X42947Y287143D01*
X42901Y287245D01*
X42864Y287365D01*
X42827Y287495D01*
X42799Y287633D01*
X42790Y287781D01*
Y288012D01*
X42799Y288068D01*
X42809Y288123D01*
X42818Y288188D01*
X42855Y288354D01*
X42910Y288530D01*
X43003Y288724D01*
X43058Y288817D01*
X43132Y288909D01*
X43206Y289002D01*
X43299Y289085D01*
X43317Y289094D01*
X43373Y289131D01*
X43465Y289177D01*
X43585Y289233D01*
X43733Y289288D01*
X43900Y289335D01*
X44103Y289371D01*
X44316Y289381D01*
X44325D01*
X44362D01*
X44417D01*
X44482Y289371D01*
X44565Y289362D01*
X44658Y289344D01*
X44769Y289316D01*
X44880Y289288D01*
X44991Y289251D01*
X45111Y289196D01*
X45222Y289131D01*
X45333Y289057D01*
X45434Y288965D01*
X45536Y288854D01*
X45619Y288724D01*
X45693Y288586D01*
Y288595D01*
X45712Y288623D01*
X45730Y288669D01*
X45758Y288734D01*
X45795Y288798D01*
X45841Y288881D01*
X45906Y288965D01*
X45971Y289048D01*
X46054Y289131D01*
X46146Y289214D01*
X46257Y289288D01*
X46368Y289362D01*
X46507Y289418D01*
X46655Y289455D01*
X46812Y289482D01*
X46988Y289492D01*
X46997D01*
X47015D01*
X47052D01*
X47108D01*
X47163Y289482D01*
D02*
G37*
G36*
X47080Y285673D02*
X47154Y285664D01*
X47256Y285636D01*
X47367Y285599D01*
X47496Y285553D01*
X47635Y285488D01*
X47783Y285405D01*
X47931Y285303D01*
X48069Y285183D01*
X48199Y285035D01*
X48319Y284860D01*
X48421Y284647D01*
X48504Y284416D01*
X48559Y284148D01*
X48578Y284000D01*
X48587Y283843D01*
Y282262D01*
X48578Y282225D01*
X48569Y282178D01*
X48532Y282077D01*
X48504Y282031D01*
X48458Y281975D01*
X48448Y281966D01*
X48430Y281957D01*
X48402Y281929D01*
X48365Y281910D01*
X48264Y281855D01*
X48208Y281846D01*
X48134Y281836D01*
X43280D01*
X43271D01*
X43252D01*
X43215Y281846D01*
X43169Y281855D01*
X43123Y281873D01*
X43067Y281892D01*
X43012Y281929D01*
X42957Y281975D01*
X42947Y281984D01*
X42938Y282003D01*
X42920Y282031D01*
X42892Y282068D01*
X42846Y282160D01*
X42836Y282225D01*
X42827Y282289D01*
Y283990D01*
X42836Y284083D01*
X42846Y284194D01*
X42883Y284425D01*
X42938Y284656D01*
X43021Y284878D01*
X43077Y284980D01*
X43141Y285072D01*
X43151Y285082D01*
X43160Y285100D01*
X43188Y285128D01*
X43225Y285165D01*
X43271Y285202D01*
X43336Y285248D01*
X43474Y285359D01*
X43650Y285470D01*
X43853Y285562D01*
X44094Y285636D01*
X44214Y285664D01*
X44353Y285683D01*
X44491D01*
X44500D01*
X44528D01*
X44565Y285673D01*
X44621D01*
X44686Y285664D01*
X44759Y285646D01*
X44935Y285609D01*
X45129Y285544D01*
X45333Y285442D01*
X45425Y285387D01*
X45518Y285313D01*
X45601Y285239D01*
X45684Y285146D01*
X45693Y285156D01*
X45712Y285183D01*
X45758Y285229D01*
X45813Y285285D01*
X45887Y285340D01*
X45971Y285405D01*
X46072Y285470D01*
X46192Y285535D01*
X46202Y285544D01*
X46248Y285562D01*
X46313Y285590D01*
X46405Y285618D01*
X46516Y285646D01*
X46645Y285673D01*
X46803Y285683D01*
X46978D01*
X47015D01*
X47034D01*
X47080Y285673D01*
D02*
G37*
G36*
X46941Y281346D02*
X46997Y281337D01*
X47071Y281328D01*
X47145Y281309D01*
X47330Y281272D01*
X47524Y281198D01*
X47737Y281097D01*
X47838Y281032D01*
X47940Y280967D01*
X48032Y280884D01*
X48125Y280792D01*
X48134Y280782D01*
X48143Y280773D01*
X48162Y280745D01*
X48199Y280699D01*
X48226Y280653D01*
X48264Y280588D01*
X48310Y280523D01*
X48347Y280440D01*
X48393Y280348D01*
X48439Y280246D01*
X48476Y280135D01*
X48513Y280024D01*
X48578Y279756D01*
X48596Y279608D01*
X48606Y279451D01*
Y279118D01*
X48596Y278961D01*
X48578Y278794D01*
X48559Y278628D01*
X48532Y278462D01*
Y278452D01*
X48522Y278425D01*
X48504Y278379D01*
X48485Y278323D01*
X48458Y278240D01*
X48411Y278157D01*
X48365Y278064D01*
X48300Y277953D01*
X48291Y277944D01*
X48264Y277907D01*
X48226Y277852D01*
X48171Y277787D01*
X48106Y277722D01*
X48032Y277648D01*
X47949Y277583D01*
X47857Y277537D01*
X47847D01*
X47820Y277528D01*
X47773Y277519D01*
X47709D01*
X47644Y277528D01*
X47570Y277546D01*
X47487Y277574D01*
X47404Y277630D01*
X47394Y277639D01*
X47385Y277648D01*
X47339Y277703D01*
X47284Y277796D01*
X47246Y277907D01*
Y277916D01*
X47237Y277935D01*
Y277972D01*
X47246Y278018D01*
X47256Y278073D01*
X47274Y278138D01*
X47311Y278203D01*
X47367Y278267D01*
X47376Y278277D01*
X47394Y278295D01*
X47422Y278323D01*
X47459Y278369D01*
X47505Y278425D01*
X47542Y278480D01*
X47626Y278628D01*
X47635Y278647D01*
X47653Y278693D01*
X47681Y278767D01*
X47709Y278859D01*
X47737Y278979D01*
X47764Y279109D01*
X47783Y279266D01*
Y279442D01*
X47773Y279497D01*
X47764Y279571D01*
X47746Y279673D01*
X47709Y279784D01*
X47672Y279904D01*
X47616Y280015D01*
X47542Y280126D01*
X47533Y280144D01*
X47487Y280181D01*
X47431Y280237D01*
X47348Y280301D01*
X47256Y280366D01*
X47136Y280422D01*
X47006Y280468D01*
X46867Y280487D01*
X46858D01*
X46849D01*
X46793D01*
X46719D01*
X46627Y280468D01*
X46525Y280440D01*
X46424Y280403D01*
X46331Y280348D01*
X46248Y280265D01*
X46239Y280255D01*
X46220Y280228D01*
X46211Y280200D01*
X46192Y280163D01*
X46174Y280126D01*
X46156Y280070D01*
X46137Y279996D01*
X46118Y279923D01*
X46109Y279821D01*
X46091Y279719D01*
X46082Y279590D01*
X46063Y279442D01*
Y279284D01*
X46054Y279100D01*
Y279063D01*
X46045Y279026D01*
X46035Y278970D01*
X46026Y278906D01*
X46008Y278832D01*
X45961Y278665D01*
X45897Y278480D01*
X45804Y278277D01*
X45675Y278092D01*
X45592Y278009D01*
X45508Y277925D01*
X45490Y277907D01*
X45444Y277870D01*
X45360Y277824D01*
X45249Y277759D01*
X45111Y277703D01*
X44954Y277648D01*
X44778Y277611D01*
X44574Y277602D01*
X44565D01*
X44538D01*
X44491D01*
X44427Y277611D01*
X44353D01*
X44269Y277620D01*
X44075Y277657D01*
X43863Y277722D01*
X43752Y277759D01*
X43641Y277805D01*
X43530Y277870D01*
X43428Y277935D01*
X43326Y278018D01*
X43234Y278110D01*
X43225Y278120D01*
X43215Y278138D01*
X43197Y278166D01*
X43169Y278203D01*
X43132Y278249D01*
X43095Y278314D01*
X43058Y278388D01*
X43012Y278462D01*
X42975Y278554D01*
X42938Y278656D01*
X42901Y278767D01*
X42864Y278887D01*
X42818Y279155D01*
X42799Y279294D01*
Y279599D01*
X42809Y279682D01*
X42818Y279765D01*
X42836Y279969D01*
X42873Y280191D01*
X42920Y280413D01*
X42993Y280625D01*
X43040Y280727D01*
X43086Y280810D01*
X43095Y280819D01*
X43114Y280856D01*
X43151Y280912D01*
X43206Y280986D01*
X43271Y281050D01*
X43354Y281134D01*
X43446Y281198D01*
X43548Y281263D01*
X43558D01*
X43594Y281272D01*
X43650Y281282D01*
X43715D01*
X43798D01*
X43881Y281272D01*
X43964Y281245D01*
X44047Y281208D01*
X44057Y281198D01*
X44066Y281180D01*
X44094Y281152D01*
X44112Y281115D01*
X44168Y281004D01*
X44177Y280940D01*
X44186Y280875D01*
Y280838D01*
X44177Y280801D01*
X44168Y280755D01*
X44149Y280699D01*
X44121Y280644D01*
X44085Y280597D01*
X44038Y280551D01*
X44029Y280542D01*
X44011Y280533D01*
X43973Y280496D01*
X43937Y280459D01*
X43835Y280357D01*
X43733Y280228D01*
X43724Y280218D01*
X43705Y280181D01*
X43687Y280117D01*
X43659Y280033D01*
X43632Y279923D01*
X43613Y279793D01*
X43594Y279645D01*
Y279423D01*
X43604Y279386D01*
X43613Y279284D01*
X43641Y279164D01*
X43678Y279026D01*
X43733Y278887D01*
X43798Y278757D01*
X43890Y278637D01*
X43900Y278628D01*
X43937Y278600D01*
X44001Y278563D01*
X44075Y278517D01*
X44168Y278480D01*
X44279Y278443D01*
X44399Y278415D01*
X44528Y278406D01*
X44538D01*
X44547D01*
X44602Y278425D01*
X44686Y278443D01*
X44778Y278471D01*
X44880Y278508D01*
X44972Y278554D01*
X45055Y278610D01*
X45120Y278684D01*
X45129Y278693D01*
X45148Y278730D01*
X45175Y278794D01*
X45185Y278832D01*
X45203Y278887D01*
X45222Y278952D01*
X45231Y279026D01*
X45249Y279109D01*
X45259Y279201D01*
X45268Y279303D01*
Y279830D01*
X45277Y279895D01*
Y279960D01*
X45296Y280135D01*
X45333Y280320D01*
X45388Y280505D01*
X45453Y280690D01*
X45554Y280847D01*
Y280856D01*
X45573Y280865D01*
X45592Y280893D01*
X45619Y280930D01*
X45665Y280967D01*
X45712Y281014D01*
X45767Y281060D01*
X45841Y281106D01*
X45924Y281152D01*
X46017Y281198D01*
X46128Y281245D01*
X46248Y281282D01*
X46387Y281309D01*
X46525Y281337D01*
X46692Y281355D01*
X46867D01*
X46877D01*
X46904D01*
X46941Y281346D01*
D02*
G37*
G36*
X4458Y303176D02*
X4541Y303166D01*
X4744Y303148D01*
X4966Y303111D01*
X5188Y303064D01*
X5401Y302991D01*
X5502Y302944D01*
X5586Y302898D01*
X5595Y302889D01*
X5632Y302870D01*
X5687Y302833D01*
X5761Y302778D01*
X5826Y302713D01*
X5909Y302630D01*
X5974Y302537D01*
X6039Y302436D01*
Y302427D01*
X6048Y302390D01*
X6057Y302334D01*
Y302269D01*
Y302186D01*
X6048Y302103D01*
X6020Y302020D01*
X5983Y301937D01*
X5974Y301927D01*
X5955Y301918D01*
X5928Y301890D01*
X5891Y301872D01*
X5780Y301816D01*
X5715Y301807D01*
X5650Y301798D01*
X5613D01*
X5576Y301807D01*
X5530Y301816D01*
X5475Y301835D01*
X5419Y301863D01*
X5373Y301900D01*
X5327Y301946D01*
X5317Y301955D01*
X5308Y301973D01*
X5271Y302010D01*
X5234Y302048D01*
X5132Y302149D01*
X5003Y302251D01*
X4994Y302260D01*
X4957Y302279D01*
X4892Y302297D01*
X4809Y302325D01*
X4698Y302353D01*
X4568Y302371D01*
X4421Y302390D01*
X4199D01*
X4162Y302380D01*
X4060Y302371D01*
X3940Y302343D01*
X3801Y302306D01*
X3663Y302251D01*
X3533Y302186D01*
X3413Y302094D01*
X3404Y302085D01*
X3376Y302048D01*
X3339Y301983D01*
X3293Y301909D01*
X3256Y301816D01*
X3219Y301705D01*
X3191Y301585D01*
X3182Y301456D01*
Y301446D01*
Y301437D01*
X3200Y301382D01*
X3219Y301299D01*
X3246Y301206D01*
X3283Y301105D01*
X3330Y301012D01*
X3385Y300929D01*
X3459Y300864D01*
X3468Y300855D01*
X3505Y300836D01*
X3570Y300809D01*
X3607Y300799D01*
X3663Y300781D01*
X3727Y300762D01*
X3801Y300753D01*
X3884Y300735D01*
X3977Y300725D01*
X4078Y300716D01*
X4606D01*
X4670Y300707D01*
X4735D01*
X4911Y300688D01*
X5095Y300651D01*
X5281Y300596D01*
X5465Y300531D01*
X5623Y300429D01*
X5632D01*
X5641Y300411D01*
X5669Y300392D01*
X5706Y300365D01*
X5743Y300319D01*
X5789Y300272D01*
X5835Y300217D01*
X5881Y300143D01*
X5928Y300060D01*
X5974Y299967D01*
X6020Y299856D01*
X6057Y299736D01*
X6085Y299597D01*
X6113Y299459D01*
X6131Y299292D01*
Y299117D01*
Y299107D01*
Y299080D01*
X6122Y299043D01*
X6113Y298987D01*
X6103Y298913D01*
X6085Y298839D01*
X6048Y298654D01*
X5974Y298460D01*
X5872Y298248D01*
X5807Y298146D01*
X5743Y298044D01*
X5659Y297952D01*
X5567Y297859D01*
X5558Y297850D01*
X5549Y297841D01*
X5521Y297822D01*
X5475Y297785D01*
X5428Y297757D01*
X5364Y297721D01*
X5299Y297674D01*
X5216Y297637D01*
X5123Y297591D01*
X5022Y297545D01*
X4911Y297508D01*
X4800Y297471D01*
X4532Y297406D01*
X4384Y297388D01*
X4227Y297379D01*
X3894D01*
X3736Y297388D01*
X3570Y297406D01*
X3404Y297425D01*
X3237Y297452D01*
X3228D01*
X3200Y297462D01*
X3154Y297480D01*
X3099Y297499D01*
X3015Y297526D01*
X2932Y297573D01*
X2840Y297619D01*
X2729Y297684D01*
X2719Y297693D01*
X2682Y297721D01*
X2627Y297757D01*
X2562Y297813D01*
X2498Y297878D01*
X2424Y297952D01*
X2359Y298035D01*
X2313Y298127D01*
Y298137D01*
X2303Y298164D01*
X2294Y298211D01*
Y298275D01*
X2303Y298340D01*
X2322Y298414D01*
X2350Y298497D01*
X2405Y298580D01*
X2414Y298590D01*
X2424Y298599D01*
X2479Y298645D01*
X2571Y298701D01*
X2682Y298738D01*
X2692D01*
X2710Y298747D01*
X2747D01*
X2793Y298738D01*
X2849Y298728D01*
X2914Y298710D01*
X2978Y298673D01*
X3043Y298617D01*
X3052Y298608D01*
X3071Y298590D01*
X3099Y298562D01*
X3145Y298525D01*
X3200Y298479D01*
X3256Y298442D01*
X3404Y298358D01*
X3422Y298349D01*
X3468Y298331D01*
X3542Y298303D01*
X3635Y298275D01*
X3755Y298248D01*
X3884Y298220D01*
X4042Y298201D01*
X4217D01*
X4273Y298211D01*
X4347Y298220D01*
X4448Y298238D01*
X4559Y298275D01*
X4679Y298312D01*
X4790Y298368D01*
X4901Y298442D01*
X4920Y298451D01*
X4957Y298497D01*
X5012Y298553D01*
X5077Y298636D01*
X5142Y298728D01*
X5197Y298848D01*
X5243Y298978D01*
X5262Y299117D01*
Y299126D01*
Y299135D01*
Y299191D01*
Y299265D01*
X5243Y299357D01*
X5216Y299459D01*
X5179Y299560D01*
X5123Y299653D01*
X5040Y299736D01*
X5031Y299745D01*
X5003Y299764D01*
X4975Y299773D01*
X4938Y299792D01*
X4901Y299810D01*
X4846Y299829D01*
X4772Y299847D01*
X4698Y299865D01*
X4596Y299875D01*
X4495Y299893D01*
X4365Y299902D01*
X4217Y299921D01*
X4060D01*
X3875Y299930D01*
X3838D01*
X3801Y299939D01*
X3746Y299949D01*
X3681Y299958D01*
X3607Y299977D01*
X3441Y300023D01*
X3256Y300087D01*
X3052Y300180D01*
X2867Y300309D01*
X2784Y300392D01*
X2701Y300476D01*
X2682Y300494D01*
X2646Y300541D01*
X2599Y300624D01*
X2535Y300735D01*
X2479Y300873D01*
X2424Y301031D01*
X2387Y301206D01*
X2377Y301410D01*
Y301419D01*
Y301446D01*
Y301493D01*
X2387Y301558D01*
Y301632D01*
X2396Y301715D01*
X2433Y301909D01*
X2498Y302122D01*
X2535Y302232D01*
X2581Y302343D01*
X2646Y302454D01*
X2710Y302556D01*
X2793Y302658D01*
X2886Y302750D01*
X2895Y302759D01*
X2914Y302769D01*
X2941Y302787D01*
X2978Y302815D01*
X3025Y302852D01*
X3089Y302889D01*
X3163Y302926D01*
X3237Y302972D01*
X3330Y303009D01*
X3431Y303046D01*
X3542Y303083D01*
X3663Y303120D01*
X3931Y303166D01*
X4069Y303185D01*
X4374D01*
X4458Y303176D01*
D02*
G37*
G36*
X8859Y303148D02*
X8970Y303139D01*
X9201Y303102D01*
X9432Y303046D01*
X9654Y302963D01*
X9755Y302907D01*
X9848Y302843D01*
X9857Y302833D01*
X9876Y302824D01*
X9903Y302796D01*
X9940Y302759D01*
X9977Y302713D01*
X10023Y302649D01*
X10134Y302510D01*
X10245Y302334D01*
X10338Y302131D01*
X10412Y301890D01*
X10439Y301770D01*
X10458Y301632D01*
Y301493D01*
Y301483D01*
Y301456D01*
X10449Y301419D01*
Y301363D01*
X10439Y301299D01*
X10421Y301225D01*
X10384Y301049D01*
X10319Y300855D01*
X10218Y300651D01*
X10162Y300559D01*
X10088Y300466D01*
X10014Y300383D01*
X9922Y300300D01*
X9931Y300291D01*
X9959Y300272D01*
X10005Y300226D01*
X10060Y300171D01*
X10116Y300097D01*
X10181Y300014D01*
X10245Y299912D01*
X10310Y299792D01*
X10319Y299782D01*
X10338Y299736D01*
X10366Y299671D01*
X10393Y299579D01*
X10421Y299468D01*
X10449Y299338D01*
X10458Y299181D01*
Y299006D01*
Y298969D01*
Y298950D01*
X10449Y298904D01*
X10439Y298830D01*
X10412Y298728D01*
X10375Y298617D01*
X10329Y298488D01*
X10264Y298349D01*
X10181Y298201D01*
X10079Y298053D01*
X9959Y297915D01*
X9811Y297785D01*
X9635Y297665D01*
X9423Y297563D01*
X9191Y297480D01*
X8923Y297425D01*
X8775Y297406D01*
X8618Y297397D01*
X7037D01*
X7000Y297406D01*
X6954Y297416D01*
X6852Y297452D01*
X6806Y297480D01*
X6751Y297526D01*
X6741Y297536D01*
X6732Y297554D01*
X6704Y297582D01*
X6686Y297619D01*
X6630Y297721D01*
X6621Y297776D01*
X6612Y297850D01*
Y302704D01*
Y302713D01*
Y302732D01*
X6621Y302769D01*
X6630Y302815D01*
X6649Y302861D01*
X6667Y302917D01*
X6704Y302972D01*
X6751Y303027D01*
X6760Y303037D01*
X6778Y303046D01*
X6806Y303064D01*
X6843Y303092D01*
X6935Y303139D01*
X7000Y303148D01*
X7065Y303157D01*
X8766D01*
X8859Y303148D01*
D02*
G37*
G36*
X12945Y303185D02*
X13019Y303176D01*
X13195Y303157D01*
X13389Y303111D01*
X13592Y303037D01*
X13786Y302935D01*
X13879Y302880D01*
X13971Y302806D01*
X13981Y302796D01*
X13999Y302778D01*
X14036Y302741D01*
X14073Y302685D01*
X14129Y302621D01*
X14175Y302547D01*
X14230Y302454D01*
X14286Y302353D01*
X14332Y302242D01*
X14369Y302112D01*
X14397Y301973D01*
X14415Y301826D01*
Y301659D01*
X14406Y301493D01*
X14369Y301317D01*
X14313Y301123D01*
Y301114D01*
X14304Y301105D01*
X14295Y301077D01*
X14267Y301040D01*
X14249Y300984D01*
X14212Y300919D01*
X14166Y300846D01*
X14119Y300762D01*
X14054Y300661D01*
X13990Y300550D01*
X13907Y300420D01*
X13814Y300272D01*
X13712Y300124D01*
X13601Y299949D01*
X13472Y299764D01*
X13333Y299560D01*
Y299551D01*
X13315Y299533D01*
X13296Y299505D01*
X13269Y299468D01*
X13241Y299412D01*
X13195Y299348D01*
X13148Y299274D01*
X13093Y299181D01*
X13028Y299089D01*
X12954Y298987D01*
X12871Y298867D01*
X12788Y298747D01*
X12594Y298470D01*
X12372Y298164D01*
X13407Y298155D01*
X14027D01*
X14110Y298146D01*
X14193Y298118D01*
X14286Y298081D01*
X14350Y298016D01*
X14406Y297924D01*
X14415Y297859D01*
Y297794D01*
Y297776D01*
X14406Y297739D01*
X14387Y297674D01*
X14350Y297600D01*
X14304Y297526D01*
X14221Y297462D01*
X14119Y297406D01*
X14054Y297388D01*
X13981Y297379D01*
X11494D01*
X11466Y297388D01*
X11429Y297406D01*
X11392Y297434D01*
X11346Y297471D01*
X11309Y297526D01*
X11272Y297591D01*
X11253Y297674D01*
Y297684D01*
X11244Y297721D01*
Y297785D01*
X11253Y297868D01*
X11281Y297970D01*
X11336Y298100D01*
X11373Y298164D01*
X11420Y298238D01*
X11475Y298321D01*
X11540Y298405D01*
X11549Y298414D01*
X11558Y298433D01*
X11586Y298470D01*
X11623Y298516D01*
X11660Y298571D01*
X11706Y298636D01*
X11817Y298784D01*
X11937Y298969D01*
X12076Y299154D01*
X12205Y299357D01*
X12335Y299551D01*
X12344Y299560D01*
X12353Y299579D01*
X12372Y299607D01*
X12400Y299653D01*
X12437Y299708D01*
X12473Y299764D01*
X12566Y299902D01*
X12668Y300060D01*
X12779Y300226D01*
X12880Y300383D01*
X12982Y300531D01*
X12991Y300541D01*
X13001Y300559D01*
X13028Y300596D01*
X13065Y300642D01*
X13102Y300707D01*
X13148Y300772D01*
X13250Y300919D01*
X13352Y301077D01*
X13454Y301243D01*
X13537Y301391D01*
X13564Y301456D01*
X13592Y301511D01*
Y301521D01*
Y301530D01*
X13601Y301576D01*
X13611Y301650D01*
Y301752D01*
X13592Y301853D01*
X13555Y301973D01*
X13491Y302094D01*
X13454Y302159D01*
X13398Y302214D01*
X13389Y302223D01*
X13343Y302251D01*
X13278Y302297D01*
X13195Y302334D01*
X13075Y302371D01*
X12945Y302408D01*
X12797Y302417D01*
X12622Y302408D01*
X12603D01*
X12548Y302399D01*
X12473Y302362D01*
X12381Y302306D01*
X12326Y302269D01*
X12270Y302223D01*
X12224Y302159D01*
X12168Y302085D01*
X12122Y302001D01*
X12076Y301909D01*
X12030Y301798D01*
X11993Y301668D01*
X11983Y301659D01*
X11965Y301622D01*
X11937Y301576D01*
X11891Y301530D01*
X11826Y301474D01*
X11752Y301437D01*
X11669Y301410D01*
X11567Y301400D01*
X11549Y301410D01*
X11512Y301419D01*
X11466Y301446D01*
X11401Y301483D01*
X11336Y301530D01*
X11281Y301595D01*
X11244Y301668D01*
X11225Y301761D01*
Y301770D01*
Y301798D01*
Y301844D01*
Y301909D01*
X11235Y301983D01*
X11253Y302066D01*
X11272Y302159D01*
X11309Y302260D01*
X11318Y302269D01*
X11327Y302306D01*
X11355Y302362D01*
X11401Y302436D01*
X11457Y302519D01*
X11530Y302612D01*
X11623Y302722D01*
X11743Y302824D01*
X11762Y302843D01*
X11817Y302880D01*
X11900Y302935D01*
X12011Y303000D01*
X12159Y303064D01*
X12335Y303129D01*
X12529Y303166D01*
X12751Y303194D01*
X12880D01*
X12945Y303185D01*
D02*
G37*
G36*
X-3598Y308288D02*
X-3506Y308260D01*
X-3413Y308205D01*
X-3404Y308195D01*
X-3395Y308186D01*
X-3377Y308158D01*
X-3349Y308121D01*
X-3321Y308075D01*
X-3302Y308011D01*
X-3293Y307946D01*
X-3284Y307863D01*
Y307816D01*
X-3293Y307770D01*
X-3302Y307715D01*
X-3340Y307585D01*
X-3367Y307530D01*
X-3413Y307484D01*
X-3432Y307474D01*
X-3478Y307446D01*
X-3561Y307419D01*
X-3672Y307400D01*
X-7888D01*
X-7519Y306799D01*
Y306790D01*
X-7500Y306772D01*
X-7491Y306744D01*
X-7472Y306707D01*
X-7444Y306605D01*
Y306550D01*
X-7454Y306485D01*
Y306476D01*
X-7463Y306457D01*
X-7472Y306420D01*
X-7491Y306383D01*
X-7509Y306346D01*
X-7546Y306300D01*
X-7583Y306254D01*
X-7639Y306217D01*
X-7648D01*
X-7666Y306198D01*
X-7694Y306189D01*
X-7731Y306171D01*
X-7833Y306143D01*
X-7898D01*
X-7962Y306152D01*
X-7972D01*
X-7990Y306161D01*
X-8018Y306171D01*
X-8055Y306189D01*
X-8101Y306208D01*
X-8147Y306245D01*
X-8193Y306282D01*
X-8230Y306337D01*
X-9025Y307585D01*
Y307595D01*
X-9035Y307604D01*
X-9072Y307659D01*
X-9100Y307742D01*
X-9109Y307853D01*
Y307881D01*
X-9100Y307918D01*
X-9090Y307955D01*
X-9053Y308057D01*
X-9025Y308112D01*
X-8979Y308168D01*
X-8970Y308177D01*
X-8952Y308186D01*
X-8924Y308205D01*
X-8887Y308232D01*
X-8785Y308279D01*
X-8730Y308288D01*
X-8665Y308297D01*
X-3691D01*
X-3682D01*
X-3663D01*
X-3635D01*
X-3598Y308288D01*
D02*
G37*
G36*
X-4819Y305422D02*
X-4745Y305413D01*
X-4643Y305385D01*
X-4532Y305348D01*
X-4403Y305301D01*
X-4264Y305237D01*
X-4116Y305154D01*
X-3968Y305052D01*
X-3830Y304932D01*
X-3700Y304784D01*
X-3580Y304608D01*
X-3478Y304396D01*
X-3395Y304164D01*
X-3340Y303896D01*
X-3321Y303748D01*
X-3312Y303591D01*
Y302010D01*
X-3321Y301973D01*
X-3330Y301927D01*
X-3367Y301825D01*
X-3395Y301779D01*
X-3441Y301723D01*
X-3450Y301714D01*
X-3469Y301705D01*
X-3497Y301677D01*
X-3534Y301659D01*
X-3635Y301603D01*
X-3691Y301594D01*
X-3765Y301585D01*
X-8619D01*
X-8628D01*
X-8647D01*
X-8683Y301594D01*
X-8730Y301603D01*
X-8776Y301622D01*
X-8831Y301640D01*
X-8887Y301677D01*
X-8942Y301723D01*
X-8952Y301733D01*
X-8961Y301751D01*
X-8979Y301779D01*
X-9007Y301816D01*
X-9053Y301908D01*
X-9062Y301973D01*
X-9072Y302038D01*
Y303739D01*
X-9062Y303832D01*
X-9053Y303942D01*
X-9016Y304174D01*
X-8961Y304405D01*
X-8878Y304627D01*
X-8822Y304728D01*
X-8757Y304821D01*
X-8748Y304830D01*
X-8739Y304848D01*
X-8711Y304876D01*
X-8674Y304913D01*
X-8628Y304950D01*
X-8563Y304996D01*
X-8425Y305107D01*
X-8249Y305218D01*
X-8045Y305311D01*
X-7805Y305385D01*
X-7685Y305413D01*
X-7546Y305431D01*
X-7408D01*
X-7398D01*
X-7371D01*
X-7334Y305422D01*
X-7278D01*
X-7213Y305413D01*
X-7139Y305394D01*
X-6964Y305357D01*
X-6770Y305292D01*
X-6566Y305191D01*
X-6474Y305135D01*
X-6381Y305061D01*
X-6298Y304987D01*
X-6215Y304895D01*
X-6206Y304904D01*
X-6187Y304932D01*
X-6141Y304978D01*
X-6085Y305033D01*
X-6011Y305089D01*
X-5928Y305154D01*
X-5827Y305218D01*
X-5706Y305283D01*
X-5697Y305292D01*
X-5651Y305311D01*
X-5586Y305338D01*
X-5494Y305366D01*
X-5383Y305394D01*
X-5253Y305422D01*
X-5096Y305431D01*
X-4920D01*
X-4884D01*
X-4865D01*
X-4819Y305422D01*
D02*
G37*
G36*
X-4958Y301095D02*
X-4902Y301086D01*
X-4828Y301076D01*
X-4754Y301058D01*
X-4569Y301021D01*
X-4375Y300947D01*
X-4162Y300845D01*
X-4061Y300780D01*
X-3959Y300716D01*
X-3866Y300632D01*
X-3774Y300540D01*
X-3765Y300531D01*
X-3756Y300522D01*
X-3737Y300494D01*
X-3700Y300448D01*
X-3672Y300401D01*
X-3635Y300337D01*
X-3589Y300272D01*
X-3552Y300189D01*
X-3506Y300096D01*
X-3460Y299995D01*
X-3423Y299884D01*
X-3386Y299773D01*
X-3321Y299505D01*
X-3302Y299357D01*
X-3293Y299200D01*
Y298867D01*
X-3302Y298709D01*
X-3321Y298543D01*
X-3340Y298377D01*
X-3367Y298210D01*
Y298201D01*
X-3377Y298173D01*
X-3395Y298127D01*
X-3413Y298071D01*
X-3441Y297988D01*
X-3487Y297905D01*
X-3534Y297813D01*
X-3598Y297702D01*
X-3608Y297692D01*
X-3635Y297655D01*
X-3672Y297600D01*
X-3728Y297535D01*
X-3792Y297470D01*
X-3866Y297397D01*
X-3950Y297332D01*
X-4042Y297286D01*
X-4051D01*
X-4079Y297276D01*
X-4125Y297267D01*
X-4190D01*
X-4255Y297276D01*
X-4329Y297295D01*
X-4412Y297323D01*
X-4495Y297378D01*
X-4504Y297387D01*
X-4514Y297397D01*
X-4560Y297452D01*
X-4615Y297544D01*
X-4652Y297655D01*
Y297665D01*
X-4662Y297683D01*
Y297720D01*
X-4652Y297766D01*
X-4643Y297822D01*
X-4625Y297887D01*
X-4588Y297951D01*
X-4532Y298016D01*
X-4523Y298025D01*
X-4504Y298044D01*
X-4477Y298071D01*
X-4440Y298118D01*
X-4394Y298173D01*
X-4356Y298229D01*
X-4273Y298377D01*
X-4264Y298395D01*
X-4246Y298441D01*
X-4218Y298515D01*
X-4190Y298608D01*
X-4162Y298728D01*
X-4135Y298857D01*
X-4116Y299014D01*
Y299190D01*
X-4125Y299246D01*
X-4135Y299320D01*
X-4153Y299421D01*
X-4190Y299532D01*
X-4227Y299653D01*
X-4283Y299763D01*
X-4356Y299874D01*
X-4366Y299893D01*
X-4412Y299930D01*
X-4467Y299985D01*
X-4551Y300050D01*
X-4643Y300115D01*
X-4763Y300170D01*
X-4893Y300217D01*
X-5031Y300235D01*
X-5041D01*
X-5050D01*
X-5105D01*
X-5179D01*
X-5272Y300217D01*
X-5373Y300189D01*
X-5475Y300152D01*
X-5568Y300096D01*
X-5651Y300013D01*
X-5660Y300004D01*
X-5679Y299976D01*
X-5688Y299948D01*
X-5706Y299911D01*
X-5725Y299874D01*
X-5743Y299819D01*
X-5762Y299745D01*
X-5780Y299671D01*
X-5790Y299569D01*
X-5808Y299468D01*
X-5817Y299338D01*
X-5836Y299190D01*
Y299033D01*
X-5845Y298848D01*
Y298811D01*
X-5854Y298774D01*
X-5864Y298719D01*
X-5873Y298654D01*
X-5891Y298580D01*
X-5938Y298414D01*
X-6002Y298229D01*
X-6095Y298025D01*
X-6224Y297840D01*
X-6307Y297757D01*
X-6391Y297674D01*
X-6409Y297655D01*
X-6455Y297619D01*
X-6539Y297572D01*
X-6649Y297507D01*
X-6788Y297452D01*
X-6945Y297397D01*
X-7121Y297360D01*
X-7324Y297350D01*
X-7334D01*
X-7361D01*
X-7408D01*
X-7472Y297360D01*
X-7546D01*
X-7629Y297369D01*
X-7824Y297406D01*
X-8036Y297470D01*
X-8147Y297507D01*
X-8258Y297554D01*
X-8369Y297619D01*
X-8471Y297683D01*
X-8572Y297766D01*
X-8665Y297859D01*
X-8674Y297868D01*
X-8683Y297887D01*
X-8702Y297914D01*
X-8730Y297951D01*
X-8767Y297997D01*
X-8804Y298062D01*
X-8841Y298136D01*
X-8887Y298210D01*
X-8924Y298303D01*
X-8961Y298404D01*
X-8998Y298515D01*
X-9035Y298636D01*
X-9081Y298904D01*
X-9100Y299042D01*
Y299347D01*
X-9090Y299431D01*
X-9081Y299514D01*
X-9062Y299717D01*
X-9025Y299939D01*
X-8979Y300161D01*
X-8905Y300374D01*
X-8859Y300475D01*
X-8813Y300559D01*
X-8804Y300568D01*
X-8785Y300605D01*
X-8748Y300660D01*
X-8693Y300734D01*
X-8628Y300799D01*
X-8545Y300882D01*
X-8452Y300947D01*
X-8351Y301012D01*
X-8341D01*
X-8304Y301021D01*
X-8249Y301030D01*
X-8184D01*
X-8101D01*
X-8018Y301021D01*
X-7935Y300993D01*
X-7851Y300956D01*
X-7842Y300947D01*
X-7833Y300928D01*
X-7805Y300901D01*
X-7787Y300864D01*
X-7731Y300753D01*
X-7722Y300688D01*
X-7713Y300623D01*
Y300586D01*
X-7722Y300549D01*
X-7731Y300503D01*
X-7750Y300448D01*
X-7777Y300392D01*
X-7814Y300346D01*
X-7861Y300300D01*
X-7870Y300290D01*
X-7888Y300281D01*
X-7925Y300244D01*
X-7962Y300207D01*
X-8064Y300105D01*
X-8166Y299976D01*
X-8175Y299967D01*
X-8193Y299930D01*
X-8212Y299865D01*
X-8240Y299782D01*
X-8267Y299671D01*
X-8286Y299541D01*
X-8304Y299394D01*
Y299172D01*
X-8295Y299135D01*
X-8286Y299033D01*
X-8258Y298913D01*
X-8221Y298774D01*
X-8166Y298636D01*
X-8101Y298506D01*
X-8008Y298386D01*
X-7999Y298377D01*
X-7962Y298349D01*
X-7898Y298312D01*
X-7824Y298266D01*
X-7731Y298229D01*
X-7620Y298192D01*
X-7500Y298164D01*
X-7371Y298155D01*
X-7361D01*
X-7352D01*
X-7297Y298173D01*
X-7213Y298192D01*
X-7121Y298219D01*
X-7019Y298256D01*
X-6927Y298303D01*
X-6844Y298358D01*
X-6779Y298432D01*
X-6770Y298441D01*
X-6751Y298478D01*
X-6723Y298543D01*
X-6714Y298580D01*
X-6696Y298636D01*
X-6677Y298700D01*
X-6668Y298774D01*
X-6649Y298857D01*
X-6640Y298950D01*
X-6631Y299051D01*
Y299578D01*
X-6622Y299643D01*
Y299708D01*
X-6603Y299884D01*
X-6566Y300068D01*
X-6511Y300254D01*
X-6446Y300438D01*
X-6344Y300595D01*
Y300605D01*
X-6326Y300614D01*
X-6307Y300642D01*
X-6280Y300679D01*
X-6233Y300716D01*
X-6187Y300762D01*
X-6132Y300808D01*
X-6058Y300854D01*
X-5975Y300901D01*
X-5882Y300947D01*
X-5771Y300993D01*
X-5651Y301030D01*
X-5512Y301058D01*
X-5373Y301086D01*
X-5207Y301104D01*
X-5031D01*
X-5022D01*
X-4994D01*
X-4958Y301095D01*
D02*
G37*
G36*
X9488Y240284D02*
X9613D01*
X9738Y240270D01*
X9890Y240242D01*
X10057Y240229D01*
X10404Y240159D01*
X10764Y240048D01*
X11111Y239896D01*
X11277Y239812D01*
X11430Y239701D01*
X11444D01*
X11458Y239674D01*
X11499Y239632D01*
X11541Y239591D01*
X11596Y239521D01*
X11652Y239452D01*
X11721Y239355D01*
X11790Y239244D01*
X11860Y239119D01*
X11915Y238980D01*
X11985Y238828D01*
X12040Y238661D01*
X12082Y238467D01*
X12123Y238273D01*
X12151Y238051D01*
X12165Y237815D01*
Y237691D01*
Y237677D01*
Y237607D01*
X12151Y237524D01*
X12137Y237399D01*
X12109Y237247D01*
X12068Y237080D01*
X12012Y236900D01*
X11943Y236706D01*
X11846Y236512D01*
X11735Y236318D01*
X11610Y236124D01*
X11444Y235929D01*
X11250Y235763D01*
X11028Y235597D01*
X10764Y235472D01*
X10473Y235361D01*
X10487Y235347D01*
X10515Y235291D01*
X10570Y235208D01*
X10639Y235097D01*
X10709Y234958D01*
X10806Y234792D01*
X10917Y234612D01*
X11028Y234418D01*
X11152Y234196D01*
X11277Y233974D01*
X11541Y233489D01*
X11804Y233003D01*
X12040Y232504D01*
X12054Y232490D01*
X12068Y232435D01*
X12082Y232365D01*
X12109Y232268D01*
X12123Y232157D01*
X12109Y232046D01*
X12082Y231908D01*
X12026Y231783D01*
X12012Y231769D01*
X11985Y231741D01*
X11943Y231713D01*
X11888Y231672D01*
X11804Y231630D01*
X11721Y231588D01*
X11610Y231561D01*
X11444D01*
X11374Y231588D01*
X11291Y231616D01*
X11194Y231658D01*
X11097Y231727D01*
X11000Y231824D01*
X10917Y231949D01*
X10903Y231963D01*
X10875Y232018D01*
X10834Y232088D01*
X10778Y232199D01*
X10709Y232323D01*
X10625Y232490D01*
X10515Y232670D01*
X10404Y232864D01*
X10279Y233100D01*
X10154Y233336D01*
X10001Y233599D01*
X9849Y233877D01*
X9696Y234168D01*
X9530Y234473D01*
X9169Y235111D01*
X7034D01*
Y232213D01*
Y232199D01*
Y232171D01*
X7020Y232115D01*
X7006Y232046D01*
X6950Y231894D01*
X6909Y231824D01*
X6840Y231741D01*
X6826Y231727D01*
X6812Y231713D01*
X6756Y231686D01*
X6701Y231658D01*
X6548Y231588D01*
X6465Y231575D01*
X6354Y231561D01*
X6313D01*
X6257Y231575D01*
X6202Y231588D01*
X6049Y231644D01*
X5966Y231686D01*
X5882Y231741D01*
X5869Y231755D01*
X5855Y231783D01*
X5813Y231824D01*
X5785Y231880D01*
X5702Y232018D01*
X5688Y232115D01*
X5674Y232213D01*
Y239618D01*
Y239632D01*
Y239660D01*
X5688Y239715D01*
X5702Y239785D01*
X5730Y239854D01*
X5758Y239937D01*
X5813Y240021D01*
X5882Y240090D01*
X5896Y240104D01*
X5924Y240118D01*
X5966Y240159D01*
X6021Y240201D01*
X6174Y240270D01*
X6257Y240284D01*
X6354Y240298D01*
X9405D01*
X9488Y240284D01*
D02*
G37*
G36*
X18003Y240187D02*
X18059Y240173D01*
X18211Y240118D01*
X18281Y240076D01*
X18350Y240007D01*
X18364Y239993D01*
X18378Y239979D01*
X18406Y239937D01*
X18447Y239882D01*
X18517Y239743D01*
X18530Y239660D01*
X18544Y239563D01*
Y239549D01*
Y239535D01*
X18530Y239452D01*
X18517Y239327D01*
X18461Y239188D01*
X15618Y231880D01*
Y231866D01*
X15604Y231838D01*
X15577Y231796D01*
X15549Y231741D01*
X15493Y231686D01*
X15438Y231616D01*
X15368Y231561D01*
X15271Y231519D01*
X15258D01*
X15230Y231505D01*
X15174Y231491D01*
X15119Y231478D01*
X14952Y231464D01*
X14855Y231478D01*
X14758Y231505D01*
X14744D01*
X14717Y231519D01*
X14661Y231547D01*
X14606Y231575D01*
X14550Y231630D01*
X14481Y231686D01*
X14425Y231769D01*
X14384Y231852D01*
Y231866D01*
X14370Y231894D01*
X14356Y231949D01*
X14342Y232005D01*
X14328Y232171D01*
X14342Y232268D01*
X14370Y232365D01*
X16977Y238911D01*
X13593D01*
X13538Y238925D01*
X13482Y238939D01*
X13330Y238994D01*
X13247Y239036D01*
X13177Y239105D01*
X13163Y239119D01*
X13150Y239147D01*
X13122Y239174D01*
X13094Y239230D01*
X13025Y239382D01*
X13011Y239466D01*
X12997Y239563D01*
Y239577D01*
Y239604D01*
X13011Y239646D01*
X13025Y239715D01*
X13080Y239854D01*
X13122Y239937D01*
X13177Y240007D01*
X13191Y240021D01*
X13219Y240034D01*
X13247Y240062D01*
X13302Y240104D01*
X13455Y240173D01*
X13538Y240187D01*
X13635Y240201D01*
X17948D01*
X18003Y240187D01*
D02*
G37*
G36*
X-2321Y241104D02*
X-2224Y241090D01*
X-2113Y241076D01*
X-1988Y241063D01*
X-1711Y240993D01*
X-1406Y240896D01*
X-1087Y240771D01*
X-796Y240591D01*
X-671Y240480D01*
X-560Y240355D01*
X-546Y240341D01*
X-504Y240300D01*
X-449Y240230D01*
X-393Y240133D01*
X-324Y240022D01*
X-255Y239898D01*
X-185Y239759D01*
X-144Y239606D01*
Y239592D01*
X-130Y239537D01*
Y239454D01*
Y239357D01*
X-158Y239260D01*
X-185Y239149D01*
X-255Y239038D01*
X-352Y238941D01*
X-366Y238927D01*
X-393Y238913D01*
X-449Y238885D01*
X-518Y238857D01*
X-601Y238830D01*
X-712Y238802D01*
X-823D01*
X-948Y238816D01*
X-962D01*
X-990Y238830D01*
X-1045Y238857D01*
X-1101Y238885D01*
X-1226Y238968D01*
X-1281Y239038D01*
X-1337Y239121D01*
Y239135D01*
X-1364Y239176D01*
X-1392Y239246D01*
X-1434Y239315D01*
X-1544Y239482D01*
X-1614Y239551D01*
X-1683Y239620D01*
X-1697Y239634D01*
X-1752Y239676D01*
X-1836Y239717D01*
X-1947Y239773D01*
X-2085Y239828D01*
X-2238Y239870D01*
X-2432Y239898D01*
X-2682D01*
X-2723Y239884D01*
X-2793D01*
X-2945Y239842D01*
X-3126Y239773D01*
X-3306Y239662D01*
X-3486Y239509D01*
X-3555Y239412D01*
X-3611Y239301D01*
X-3666Y239176D01*
X-3694Y239038D01*
Y239024D01*
Y239010D01*
Y238968D01*
X-3708Y238913D01*
Y238774D01*
X-3722Y238594D01*
X-3736Y238386D01*
X-3750Y238178D01*
Y237970D01*
Y237762D01*
X-3736D01*
X-3722Y237776D01*
X-3680Y237803D01*
X-3625Y237831D01*
X-3486Y237887D01*
X-3306Y237956D01*
X-3084Y238039D01*
X-2820Y238095D01*
X-2529Y238136D01*
X-2210Y238150D01*
X-2169D01*
X-2127Y238136D01*
X-2071D01*
X-1905Y238095D01*
X-1711Y238053D01*
X-1489Y237970D01*
X-1267Y237859D01*
X-1031Y237693D01*
X-823Y237498D01*
X-809Y237484D01*
X-796Y237457D01*
X-754Y237415D01*
X-712Y237346D01*
X-657Y237276D01*
X-601Y237179D01*
X-532Y237055D01*
X-463Y236930D01*
X-393Y236791D01*
X-338Y236625D01*
X-269Y236458D01*
X-213Y236264D01*
X-130Y235862D01*
X-102Y235640D01*
X-88Y235404D01*
Y235390D01*
Y235335D01*
Y235252D01*
X-102Y235141D01*
X-116Y235002D01*
X-130Y234849D01*
X-158Y234669D01*
X-199Y234489D01*
X-296Y234087D01*
X-366Y233892D01*
X-463Y233685D01*
X-560Y233490D01*
X-685Y233296D01*
X-823Y233130D01*
X-976Y232963D01*
X-990D01*
X-1004Y232936D01*
X-1045Y232922D01*
X-1101Y232880D01*
X-1239Y232797D01*
X-1420Y232700D01*
X-1642Y232603D01*
X-1891Y232506D01*
X-2155Y232436D01*
X-2432Y232395D01*
X-2557D01*
X-2640Y232409D01*
X-2737Y232423D01*
X-2862Y232450D01*
X-3139Y232506D01*
X-3458Y232617D01*
X-3625Y232686D01*
X-3791Y232783D01*
X-3958Y232880D01*
X-4110Y233005D01*
X-4263Y233144D01*
X-4401Y233310D01*
X-4415Y233324D01*
X-4429Y233352D01*
X-4471Y233393D01*
X-4512Y233463D01*
X-4568Y233546D01*
X-4623Y233657D01*
X-4679Y233782D01*
X-4748Y233920D01*
X-4817Y234073D01*
X-4873Y234239D01*
X-4928Y234419D01*
X-4984Y234628D01*
X-5026Y234836D01*
X-5067Y235071D01*
X-5081Y235321D01*
X-5095Y235571D01*
Y235585D01*
Y235598D01*
Y235682D01*
Y235820D01*
Y235987D01*
Y236209D01*
Y236444D01*
X-5081Y236708D01*
Y236985D01*
Y237568D01*
X-5067Y237859D01*
X-5053Y238136D01*
Y238400D01*
X-5039Y238636D01*
X-5026Y238857D01*
X-5012Y239038D01*
Y239052D01*
Y239079D01*
Y239121D01*
X-4998Y239176D01*
X-4970Y239343D01*
X-4928Y239537D01*
X-4845Y239759D01*
X-4748Y240009D01*
X-4595Y240244D01*
X-4401Y240480D01*
X-4387Y240494D01*
X-4360Y240508D01*
X-4318Y240536D01*
X-4263Y240577D01*
X-4193Y240633D01*
X-4096Y240688D01*
X-3999Y240744D01*
X-3874Y240799D01*
X-3736Y240854D01*
X-3597Y240910D01*
X-3264Y241021D01*
X-2876Y241090D01*
X-2668Y241118D01*
X-2391D01*
X-2321Y241104D01*
D02*
G37*
G36*
X-8659D02*
X-8534D01*
X-8409Y241090D01*
X-8257Y241063D01*
X-8090Y241049D01*
X-7744Y240979D01*
X-7383Y240868D01*
X-7036Y240716D01*
X-6870Y240633D01*
X-6717Y240522D01*
X-6704D01*
X-6690Y240494D01*
X-6648Y240452D01*
X-6607Y240411D01*
X-6551Y240341D01*
X-6496Y240272D01*
X-6426Y240175D01*
X-6357Y240064D01*
X-6288Y239939D01*
X-6232Y239800D01*
X-6163Y239648D01*
X-6107Y239482D01*
X-6066Y239287D01*
X-6024Y239093D01*
X-5996Y238871D01*
X-5982Y238636D01*
Y238511D01*
Y238497D01*
Y238428D01*
X-5996Y238344D01*
X-6010Y238220D01*
X-6038Y238067D01*
X-6079Y237901D01*
X-6135Y237720D01*
X-6204Y237526D01*
X-6301Y237332D01*
X-6412Y237138D01*
X-6537Y236944D01*
X-6704Y236749D01*
X-6898Y236583D01*
X-7120Y236417D01*
X-7383Y236292D01*
X-7674Y236181D01*
X-7660Y236167D01*
X-7633Y236112D01*
X-7577Y236028D01*
X-7508Y235917D01*
X-7439Y235779D01*
X-7341Y235612D01*
X-7230Y235432D01*
X-7120Y235238D01*
X-6995Y235016D01*
X-6870Y234794D01*
X-6607Y234309D01*
X-6343Y233823D01*
X-6107Y233324D01*
X-6093Y233310D01*
X-6079Y233255D01*
X-6066Y233185D01*
X-6038Y233088D01*
X-6024Y232977D01*
X-6038Y232866D01*
X-6066Y232728D01*
X-6121Y232603D01*
X-6135Y232589D01*
X-6163Y232561D01*
X-6204Y232533D01*
X-6260Y232492D01*
X-6343Y232450D01*
X-6426Y232409D01*
X-6537Y232381D01*
X-6704D01*
X-6773Y232409D01*
X-6856Y232436D01*
X-6953Y232478D01*
X-7050Y232547D01*
X-7147Y232644D01*
X-7230Y232769D01*
X-7244Y232783D01*
X-7272Y232838D01*
X-7314Y232908D01*
X-7369Y233019D01*
X-7439Y233144D01*
X-7522Y233310D01*
X-7633Y233490D01*
X-7744Y233685D01*
X-7868Y233920D01*
X-7993Y234156D01*
X-8146Y234419D01*
X-8298Y234697D01*
X-8451Y234988D01*
X-8617Y235293D01*
X-8978Y235931D01*
X-11114D01*
Y233033D01*
Y233019D01*
Y232991D01*
X-11128Y232936D01*
X-11141Y232866D01*
X-11197Y232714D01*
X-11238Y232644D01*
X-11308Y232561D01*
X-11322Y232547D01*
X-11336Y232533D01*
X-11391Y232506D01*
X-11446Y232478D01*
X-11599Y232409D01*
X-11682Y232395D01*
X-11793Y232381D01*
X-11835D01*
X-11890Y232395D01*
X-11946Y232409D01*
X-12098Y232464D01*
X-12182Y232506D01*
X-12265Y232561D01*
X-12279Y232575D01*
X-12292Y232603D01*
X-12334Y232644D01*
X-12362Y232700D01*
X-12445Y232838D01*
X-12459Y232936D01*
X-12473Y233033D01*
Y240438D01*
Y240452D01*
Y240480D01*
X-12459Y240536D01*
X-12445Y240605D01*
X-12417Y240674D01*
X-12390Y240757D01*
X-12334Y240841D01*
X-12265Y240910D01*
X-12251Y240924D01*
X-12223Y240938D01*
X-12182Y240979D01*
X-12126Y241021D01*
X-11974Y241090D01*
X-11890Y241104D01*
X-11793Y241118D01*
X-8742D01*
X-8659Y241104D01*
D02*
G37*
G36*
X81550Y180321D02*
X81647D01*
X81758Y180307D01*
X82036Y180252D01*
X82341Y180168D01*
X82660Y180057D01*
X82979Y179891D01*
X83131Y179780D01*
X83284Y179669D01*
X83298Y179655D01*
X83325Y179641D01*
X83367Y179586D01*
X83408Y179530D01*
X83478Y179447D01*
X83547Y179364D01*
X83630Y179253D01*
X83700Y179128D01*
X83783Y178976D01*
X83866Y178823D01*
X83935Y178643D01*
X83991Y178449D01*
X84046Y178241D01*
X84088Y178019D01*
X84116Y177783D01*
X84130Y177533D01*
Y177422D01*
X84116Y177339D01*
Y177242D01*
X84102Y177131D01*
X84060Y176854D01*
X84005Y176549D01*
X83922Y176230D01*
X83797Y175911D01*
X83630Y175620D01*
X83617Y175606D01*
X83589Y175564D01*
X83533Y175522D01*
X83464Y175467D01*
X83381Y175398D01*
X83284Y175356D01*
X83187Y175314D01*
X83062Y175301D01*
X83048D01*
X83020D01*
X82979Y175314D01*
X82909Y175328D01*
X82771Y175370D01*
X82687Y175411D01*
X82618Y175467D01*
X82604Y175481D01*
X82590Y175495D01*
X82549Y175536D01*
X82507Y175592D01*
X82438Y175730D01*
X82424Y175814D01*
X82410Y175911D01*
Y175952D01*
X82424Y176035D01*
X82465Y176160D01*
X82535Y176285D01*
Y176299D01*
X82549Y176313D01*
X82604Y176382D01*
X82660Y176507D01*
X82743Y176660D01*
X82812Y176854D01*
X82881Y177062D01*
X82937Y177298D01*
X82951Y177533D01*
Y177603D01*
X82937Y177658D01*
X82923Y177797D01*
X82895Y177949D01*
X82840Y178144D01*
X82757Y178324D01*
X82632Y178504D01*
X82479Y178657D01*
X82465Y178671D01*
X82396Y178712D01*
X82313Y178768D01*
X82188Y178823D01*
X82022Y178879D01*
X81827Y178934D01*
X81606Y178976D01*
X81356Y178990D01*
X81342D01*
X81287D01*
X81217Y178976D01*
X81120D01*
X80995Y178948D01*
X80871Y178920D01*
X80732Y178879D01*
X80593Y178837D01*
X80455Y178768D01*
X80316Y178684D01*
X80177Y178573D01*
X80066Y178463D01*
X79969Y178310D01*
X79900Y178144D01*
X79844Y177949D01*
X79830Y177728D01*
Y177644D01*
X79844Y177547D01*
X79872Y177422D01*
X79900Y177284D01*
X79955Y177131D01*
X80038Y176965D01*
X80136Y176812D01*
X80149Y176784D01*
X80191Y176729D01*
X80260Y176632D01*
X80330Y176521D01*
X80399Y176410D01*
X80468Y176299D01*
X80510Y176216D01*
X80524Y176160D01*
Y176119D01*
X80510Y176063D01*
X80496Y175994D01*
X80441Y175841D01*
X80399Y175772D01*
X80330Y175703D01*
X80316Y175689D01*
X80288Y175675D01*
X80246Y175647D01*
X80191Y175606D01*
X80038Y175550D01*
X79955Y175522D01*
X79844D01*
X76031Y175647D01*
X76017D01*
X75989D01*
X75933Y175661D01*
X75864Y175675D01*
X75725Y175744D01*
X75642Y175786D01*
X75573Y175855D01*
X75559Y175869D01*
X75545Y175883D01*
X75517Y175925D01*
X75476Y175980D01*
X75420Y176119D01*
X75406Y176202D01*
X75393Y176299D01*
Y179322D01*
X75406Y179378D01*
X75420Y179433D01*
X75476Y179586D01*
X75517Y179655D01*
X75587Y179725D01*
X75601Y179738D01*
X75615Y179752D01*
X75656Y179780D01*
X75712Y179822D01*
X75850Y179891D01*
X75933Y179905D01*
X76031Y179919D01*
X76044D01*
X76072D01*
X76128Y179905D01*
X76183Y179891D01*
X76336Y179835D01*
X76419Y179794D01*
X76488Y179725D01*
X76502Y179711D01*
X76516Y179697D01*
X76544Y179655D01*
X76585Y179600D01*
X76655Y179461D01*
X76669Y179378D01*
X76682Y179281D01*
Y176868D01*
X78929Y176784D01*
X78915Y176798D01*
X78887Y176868D01*
X78846Y176951D01*
X78790Y177076D01*
X78749Y177228D01*
X78707Y177409D01*
X78679Y177603D01*
X78665Y177825D01*
Y177936D01*
X78679Y178019D01*
X78693Y178116D01*
X78707Y178227D01*
X78749Y178490D01*
X78832Y178782D01*
X78957Y179087D01*
X79040Y179239D01*
X79137Y179392D01*
X79248Y179530D01*
X79373Y179655D01*
X79387Y179669D01*
X79401Y179683D01*
X79442Y179725D01*
X79498Y179766D01*
X79581Y179808D01*
X79664Y179877D01*
X79761Y179933D01*
X79886Y180002D01*
X80025Y180057D01*
X80163Y180127D01*
X80330Y180182D01*
X80510Y180224D01*
X80704Y180279D01*
X80898Y180307D01*
X81120Y180321D01*
X81356Y180335D01*
X81370D01*
X81412D01*
X81467D01*
X81550Y180321D01*
D02*
G37*
G36*
X78069Y174122D02*
X78194Y174108D01*
X78347Y174080D01*
X78513Y174039D01*
X78693Y173983D01*
X78887Y173914D01*
X79082Y173817D01*
X79276Y173706D01*
X79470Y173581D01*
X79664Y173414D01*
X79830Y173220D01*
X79997Y172998D01*
X80122Y172735D01*
X80233Y172444D01*
X80246Y172458D01*
X80302Y172485D01*
X80385Y172541D01*
X80496Y172610D01*
X80635Y172679D01*
X80801Y172777D01*
X80982Y172887D01*
X81176Y172998D01*
X81398Y173123D01*
X81620Y173248D01*
X82105Y173512D01*
X82590Y173775D01*
X83090Y174011D01*
X83103Y174025D01*
X83159Y174039D01*
X83228Y174052D01*
X83325Y174080D01*
X83436Y174094D01*
X83547Y174080D01*
X83686Y174052D01*
X83811Y173997D01*
X83825Y173983D01*
X83852Y173955D01*
X83880Y173914D01*
X83922Y173858D01*
X83963Y173775D01*
X84005Y173692D01*
X84033Y173581D01*
Y173414D01*
X84005Y173345D01*
X83977Y173262D01*
X83935Y173165D01*
X83866Y173068D01*
X83769Y172971D01*
X83644Y172887D01*
X83630Y172873D01*
X83575Y172846D01*
X83506Y172804D01*
X83395Y172749D01*
X83270Y172679D01*
X83103Y172596D01*
X82923Y172485D01*
X82729Y172374D01*
X82493Y172250D01*
X82257Y172125D01*
X81994Y171972D01*
X81717Y171819D01*
X81425Y171667D01*
X81120Y171501D01*
X80482Y171140D01*
Y169004D01*
X83381D01*
X83395D01*
X83422D01*
X83478Y168990D01*
X83547Y168976D01*
X83700Y168921D01*
X83769Y168879D01*
X83852Y168810D01*
X83866Y168796D01*
X83880Y168782D01*
X83908Y168727D01*
X83935Y168671D01*
X84005Y168519D01*
X84019Y168436D01*
X84033Y168325D01*
Y168283D01*
X84019Y168228D01*
X84005Y168172D01*
X83949Y168020D01*
X83908Y167936D01*
X83852Y167853D01*
X83838Y167839D01*
X83811Y167825D01*
X83769Y167784D01*
X83714Y167756D01*
X83575Y167673D01*
X83478Y167659D01*
X83381Y167645D01*
X75975D01*
X75961D01*
X75933D01*
X75878Y167659D01*
X75809Y167673D01*
X75739Y167701D01*
X75656Y167728D01*
X75573Y167784D01*
X75504Y167853D01*
X75490Y167867D01*
X75476Y167895D01*
X75434Y167936D01*
X75393Y167992D01*
X75323Y168144D01*
X75309Y168228D01*
X75296Y168325D01*
Y171376D01*
X75309Y171459D01*
Y171584D01*
X75323Y171709D01*
X75351Y171861D01*
X75365Y172028D01*
X75434Y172374D01*
X75545Y172735D01*
X75698Y173082D01*
X75781Y173248D01*
X75892Y173400D01*
Y173414D01*
X75920Y173428D01*
X75961Y173470D01*
X76003Y173512D01*
X76072Y173567D01*
X76142Y173622D01*
X76239Y173692D01*
X76350Y173761D01*
X76474Y173831D01*
X76613Y173886D01*
X76766Y173955D01*
X76932Y174011D01*
X77126Y174052D01*
X77320Y174094D01*
X77542Y174122D01*
X77778Y174136D01*
X77903D01*
X77917D01*
X77986D01*
X78069Y174122D01*
D02*
G37*
G36*
X23016Y147175D02*
X23113Y147147D01*
X23126D01*
X23154Y147119D01*
X23196Y147091D01*
X23251Y147050D01*
X23307Y146994D01*
X23362Y146925D01*
X23418Y146842D01*
X23459Y146745D01*
Y146731D01*
X23473Y146703D01*
X23487Y146648D01*
X23501Y146564D01*
Y146384D01*
X23487Y146287D01*
X23459Y146176D01*
X21490Y141184D01*
X22752Y141197D01*
Y142598D01*
Y142612D01*
Y142654D01*
X22766Y142695D01*
X22780Y142765D01*
X22835Y142931D01*
X22877Y143014D01*
X22946Y143097D01*
X22960Y143111D01*
X22988Y143125D01*
X23016Y143153D01*
X23071Y143194D01*
X23224Y143264D01*
X23307Y143278D01*
X23404Y143292D01*
X23432D01*
X23487Y143264D01*
X23529Y143236D01*
X23584Y143208D01*
X23640Y143153D01*
X23709Y143083D01*
X23723Y143070D01*
X23737Y143056D01*
X23765Y143000D01*
X23806Y142945D01*
X23848Y142875D01*
X23875Y142792D01*
X23889Y142695D01*
X23903Y142584D01*
Y141184D01*
X24402D01*
X24458Y141170D01*
X24513Y141156D01*
X24583Y141128D01*
X24666Y141100D01*
X24735Y141045D01*
X24805Y140975D01*
X24818Y140962D01*
X24832Y140948D01*
X24860Y140906D01*
X24902Y140851D01*
X24957Y140698D01*
X24971Y140601D01*
X24985Y140504D01*
Y140490D01*
Y140462D01*
X24971Y140407D01*
X24957Y140337D01*
X24916Y140185D01*
X24860Y140102D01*
X24805Y140032D01*
X24791Y140019D01*
X24777Y140005D01*
X24735Y139963D01*
X24680Y139935D01*
X24541Y139852D01*
X24458Y139838D01*
X24361Y139824D01*
X23903D01*
Y139200D01*
Y139186D01*
Y139145D01*
X23889Y139089D01*
X23875Y139020D01*
X23820Y138854D01*
X23778Y138770D01*
X23709Y138687D01*
X23695Y138673D01*
X23681Y138659D01*
X23598Y138590D01*
X23501Y138521D01*
X23445Y138493D01*
X23362D01*
X23307Y138507D01*
X23251Y138521D01*
X23182Y138548D01*
X23099Y138576D01*
X23016Y138632D01*
X22946Y138701D01*
X22932Y138715D01*
X22919Y138743D01*
X22891Y138784D01*
X22849Y138854D01*
X22780Y139006D01*
X22766Y139103D01*
X22752Y139214D01*
Y139838D01*
X20436Y139824D01*
X20394D01*
X20353Y139838D01*
X20284Y139852D01*
X20145Y139908D01*
X20076Y139949D01*
X20006Y140019D01*
X19992Y140032D01*
X19978Y140046D01*
X19951Y140088D01*
X19923Y140143D01*
X19881Y140213D01*
X19854Y140296D01*
X19840Y140393D01*
X19826Y140504D01*
Y140532D01*
X19854Y140601D01*
X19909Y140712D01*
X19951Y140781D01*
X20020Y140851D01*
X22336Y146759D01*
Y146772D01*
Y146800D01*
X22350Y146856D01*
X22378Y146911D01*
X22405Y146980D01*
X22447Y147050D01*
X22516Y147105D01*
X22599Y147147D01*
X22613D01*
X22641Y147161D01*
X22697Y147175D01*
X22752Y147189D01*
X22919D01*
X23016Y147175D01*
D02*
G37*
G36*
X16511Y147202D02*
X16636D01*
X16761Y147189D01*
X16913Y147161D01*
X17080Y147147D01*
X17427Y147078D01*
X17787Y146967D01*
X18134Y146814D01*
X18300Y146731D01*
X18453Y146620D01*
X18467D01*
X18481Y146592D01*
X18522Y146551D01*
X18564Y146509D01*
X18619Y146440D01*
X18675Y146370D01*
X18744Y146273D01*
X18814Y146162D01*
X18883Y146037D01*
X18938Y145899D01*
X19008Y145746D01*
X19063Y145580D01*
X19105Y145386D01*
X19146Y145191D01*
X19174Y144970D01*
X19188Y144734D01*
Y144609D01*
Y144595D01*
Y144526D01*
X19174Y144443D01*
X19160Y144318D01*
X19132Y144165D01*
X19091Y143999D01*
X19035Y143819D01*
X18966Y143624D01*
X18869Y143430D01*
X18758Y143236D01*
X18633Y143042D01*
X18467Y142848D01*
X18273Y142681D01*
X18051Y142515D01*
X17787Y142390D01*
X17496Y142279D01*
X17510Y142265D01*
X17538Y142210D01*
X17593Y142127D01*
X17662Y142016D01*
X17732Y141877D01*
X17829Y141711D01*
X17940Y141530D01*
X18051Y141336D01*
X18175Y141114D01*
X18300Y140892D01*
X18564Y140407D01*
X18827Y139921D01*
X19063Y139422D01*
X19077Y139408D01*
X19091Y139353D01*
X19105Y139284D01*
X19132Y139186D01*
X19146Y139075D01*
X19132Y138965D01*
X19105Y138826D01*
X19049Y138701D01*
X19035Y138687D01*
X19008Y138659D01*
X18966Y138632D01*
X18911Y138590D01*
X18827Y138548D01*
X18744Y138507D01*
X18633Y138479D01*
X18467D01*
X18397Y138507D01*
X18314Y138535D01*
X18217Y138576D01*
X18120Y138645D01*
X18023Y138743D01*
X17940Y138867D01*
X17926Y138881D01*
X17898Y138937D01*
X17857Y139006D01*
X17801Y139117D01*
X17732Y139242D01*
X17649Y139408D01*
X17538Y139589D01*
X17427Y139783D01*
X17302Y140019D01*
X17177Y140254D01*
X17025Y140518D01*
X16872Y140795D01*
X16719Y141086D01*
X16553Y141391D01*
X16192Y142029D01*
X14057D01*
Y139131D01*
Y139117D01*
Y139089D01*
X14043Y139034D01*
X14029Y138965D01*
X13973Y138812D01*
X13932Y138743D01*
X13863Y138659D01*
X13849Y138645D01*
X13835Y138632D01*
X13779Y138604D01*
X13724Y138576D01*
X13571Y138507D01*
X13488Y138493D01*
X13377Y138479D01*
X13335D01*
X13280Y138493D01*
X13225Y138507D01*
X13072Y138562D01*
X12989Y138604D01*
X12905Y138659D01*
X12892Y138673D01*
X12878Y138701D01*
X12836Y138743D01*
X12809Y138798D01*
X12725Y138937D01*
X12711Y139034D01*
X12697Y139131D01*
Y146537D01*
Y146551D01*
Y146578D01*
X12711Y146634D01*
X12725Y146703D01*
X12753Y146772D01*
X12781Y146856D01*
X12836Y146939D01*
X12905Y147008D01*
X12919Y147022D01*
X12947Y147036D01*
X12989Y147078D01*
X13044Y147119D01*
X13197Y147189D01*
X13280Y147202D01*
X13377Y147216D01*
X16428D01*
X16511Y147202D01*
D02*
G37*
G36*
X77573Y110451D02*
X77656Y110437D01*
X77753Y110423D01*
X78003Y110367D01*
X78266Y110284D01*
X78558Y110146D01*
X78696Y110062D01*
X78835Y109951D01*
X78974Y109840D01*
X79098Y109702D01*
X79112Y109674D01*
X79168Y109591D01*
X79237Y109452D01*
X79320Y109272D01*
X79404Y109050D01*
X79473Y108800D01*
X79528Y108495D01*
X79542Y108176D01*
Y108162D01*
Y108107D01*
Y108024D01*
X79528Y107927D01*
X79514Y107802D01*
X79487Y107663D01*
X79445Y107497D01*
X79404Y107330D01*
X79348Y107164D01*
X79265Y106984D01*
X79168Y106817D01*
X79057Y106651D01*
X78918Y106498D01*
X78752Y106346D01*
X78558Y106221D01*
X78350Y106110D01*
X78363D01*
X78405Y106082D01*
X78474Y106054D01*
X78571Y106013D01*
X78668Y105957D01*
X78793Y105888D01*
X78918Y105791D01*
X79043Y105694D01*
X79168Y105569D01*
X79293Y105430D01*
X79404Y105264D01*
X79514Y105098D01*
X79598Y104889D01*
X79653Y104668D01*
X79695Y104432D01*
X79709Y104168D01*
Y104154D01*
Y104127D01*
Y104071D01*
Y103988D01*
X79695Y103905D01*
X79681Y103808D01*
X79639Y103558D01*
X79570Y103295D01*
X79459Y103017D01*
X79293Y102740D01*
X79195Y102615D01*
X79085Y102490D01*
X79071Y102476D01*
X79057Y102463D01*
X79015Y102421D01*
X78946Y102379D01*
X78877Y102324D01*
X78793Y102254D01*
X78682Y102185D01*
X78571Y102116D01*
X78308Y101977D01*
X77989Y101852D01*
X77628Y101769D01*
X77434Y101755D01*
X77226Y101741D01*
X77185D01*
X77129Y101755D01*
X77046Y101769D01*
X76963Y101783D01*
X76852Y101811D01*
X76602Y101866D01*
X76339Y101977D01*
X76047Y102116D01*
X75909Y102213D01*
X75770Y102324D01*
X75645Y102435D01*
X75520Y102573D01*
X75507Y102587D01*
X75479Y102629D01*
X75437Y102698D01*
X75382Y102781D01*
X75326Y102892D01*
X75271Y103003D01*
X75229Y103142D01*
X75201Y103281D01*
Y103295D01*
Y103322D01*
X75215Y103378D01*
X75229Y103433D01*
X75285Y103586D01*
X75326Y103655D01*
X75382Y103711D01*
X75396Y103724D01*
X75409Y103738D01*
X75493Y103794D01*
X75617Y103849D01*
X75701Y103877D01*
X75853D01*
X75936Y103863D01*
X76034Y103835D01*
X76144Y103794D01*
X76242Y103724D01*
X76339Y103627D01*
X76408Y103503D01*
X76422Y103475D01*
X76477Y103406D01*
X76561Y103308D01*
X76658Y103197D01*
X76796Y103087D01*
X76949Y102990D01*
X77129Y102934D01*
X77226Y102906D01*
X77393D01*
X77476Y102920D01*
X77573Y102948D01*
X77684Y102976D01*
X77809Y103031D01*
X77920Y103100D01*
X78044Y103197D01*
X78058Y103225D01*
X78114Y103281D01*
X78183Y103392D01*
X78266Y103530D01*
X78336Y103697D01*
X78391Y103891D01*
X78405Y104113D01*
X78391Y104238D01*
X78377Y104362D01*
Y104376D01*
X78363Y104418D01*
X78336Y104459D01*
X78294Y104543D01*
X78197Y104709D01*
X78072Y104917D01*
X77892Y105111D01*
X77781Y105208D01*
X77670Y105292D01*
X77559Y105347D01*
X77420Y105403D01*
X77282Y105430D01*
X77101D01*
X77032Y105444D01*
X76949Y105472D01*
X76838Y105527D01*
X76741Y105611D01*
X76644Y105722D01*
X76588Y105860D01*
X76561Y105957D01*
Y106054D01*
Y106068D01*
Y106082D01*
Y106165D01*
X76574Y106290D01*
X76602Y106429D01*
X76685Y106567D01*
X76741Y106637D01*
X76796Y106692D01*
X76880Y106748D01*
X76977Y106803D01*
X77087Y106831D01*
X77226Y106859D01*
X77268D01*
X77323Y106873D01*
X77393Y106887D01*
X77559Y106928D01*
X77656Y106970D01*
X77753Y107025D01*
X77850Y107094D01*
X77934Y107192D01*
X78031Y107289D01*
X78100Y107427D01*
X78169Y107566D01*
X78225Y107746D01*
X78253Y107941D01*
X78266Y108176D01*
Y108190D01*
Y108218D01*
Y108259D01*
Y108315D01*
X78239Y108468D01*
X78197Y108662D01*
X78114Y108856D01*
X77989Y109036D01*
X77906Y109119D01*
X77823Y109202D01*
X77712Y109258D01*
X77587Y109313D01*
X77545D01*
X77504Y109327D01*
X77448D01*
X77296Y109313D01*
X77101Y109286D01*
X76893Y109216D01*
X76796Y109175D01*
X76685Y109105D01*
X76588Y109022D01*
X76491Y108925D01*
X76408Y108800D01*
X76325Y108662D01*
X76311Y108634D01*
X76283Y108578D01*
X76214Y108495D01*
X76131Y108398D01*
X76020Y108315D01*
X75881Y108259D01*
X75701Y108232D01*
X75604D01*
X75507Y108259D01*
X75493Y108273D01*
X75437Y108287D01*
X75368Y108343D01*
X75285Y108412D01*
X75201Y108509D01*
X75146Y108634D01*
X75118Y108800D01*
Y108995D01*
Y109008D01*
X75132Y109050D01*
X75160Y109105D01*
X75188Y109189D01*
X75229Y109286D01*
X75299Y109397D01*
X75368Y109508D01*
X75465Y109632D01*
X75479Y109646D01*
X75493Y109674D01*
X75520Y109716D01*
X75576Y109771D01*
X75645Y109840D01*
X75715Y109910D01*
X75812Y109993D01*
X75923Y110076D01*
X76047Y110146D01*
X76186Y110229D01*
X76339Y110298D01*
X76519Y110354D01*
X76713Y110409D01*
X76921Y110451D01*
X77143Y110464D01*
X77490D01*
X77573Y110451D01*
D02*
G37*
G36*
X71596D02*
X71720D01*
X71845Y110437D01*
X71998Y110409D01*
X72164Y110395D01*
X72511Y110326D01*
X72871Y110215D01*
X73218Y110062D01*
X73385Y109979D01*
X73537Y109868D01*
X73551D01*
X73565Y109840D01*
X73607Y109799D01*
X73648Y109757D01*
X73704Y109688D01*
X73759Y109619D01*
X73829Y109522D01*
X73898Y109411D01*
X73967Y109286D01*
X74023Y109147D01*
X74092Y108995D01*
X74147Y108828D01*
X74189Y108634D01*
X74231Y108440D01*
X74258Y108218D01*
X74272Y107982D01*
Y107857D01*
Y107843D01*
Y107774D01*
X74258Y107691D01*
X74244Y107566D01*
X74217Y107414D01*
X74175Y107247D01*
X74120Y107067D01*
X74050Y106873D01*
X73953Y106678D01*
X73842Y106484D01*
X73717Y106290D01*
X73551Y106096D01*
X73357Y105930D01*
X73135Y105763D01*
X72871Y105638D01*
X72580Y105527D01*
X72594Y105513D01*
X72622Y105458D01*
X72677Y105375D01*
X72747Y105264D01*
X72816Y105125D01*
X72913Y104959D01*
X73024Y104778D01*
X73135Y104584D01*
X73260Y104362D01*
X73385Y104141D01*
X73648Y103655D01*
X73912Y103170D01*
X74147Y102670D01*
X74161Y102657D01*
X74175Y102601D01*
X74189Y102532D01*
X74217Y102435D01*
X74231Y102324D01*
X74217Y102213D01*
X74189Y102074D01*
X74134Y101949D01*
X74120Y101936D01*
X74092Y101908D01*
X74050Y101880D01*
X73995Y101838D01*
X73912Y101797D01*
X73829Y101755D01*
X73717Y101728D01*
X73551D01*
X73482Y101755D01*
X73398Y101783D01*
X73302Y101825D01*
X73204Y101894D01*
X73107Y101991D01*
X73024Y102116D01*
X73010Y102130D01*
X72983Y102185D01*
X72941Y102254D01*
X72885Y102365D01*
X72816Y102490D01*
X72733Y102657D01*
X72622Y102837D01*
X72511Y103031D01*
X72386Y103267D01*
X72261Y103503D01*
X72109Y103766D01*
X71956Y104044D01*
X71804Y104335D01*
X71637Y104640D01*
X71277Y105278D01*
X69141D01*
Y102379D01*
Y102365D01*
Y102338D01*
X69127Y102282D01*
X69113Y102213D01*
X69058Y102060D01*
X69016Y101991D01*
X68947Y101908D01*
X68933Y101894D01*
X68919Y101880D01*
X68864Y101852D01*
X68808Y101825D01*
X68656Y101755D01*
X68572Y101741D01*
X68461Y101728D01*
X68420D01*
X68364Y101741D01*
X68309Y101755D01*
X68156Y101811D01*
X68073Y101852D01*
X67990Y101908D01*
X67976Y101922D01*
X67962Y101949D01*
X67920Y101991D01*
X67893Y102046D01*
X67810Y102185D01*
X67796Y102282D01*
X67782Y102379D01*
Y109785D01*
Y109799D01*
Y109827D01*
X67796Y109882D01*
X67810Y109951D01*
X67837Y110021D01*
X67865Y110104D01*
X67920Y110187D01*
X67990Y110257D01*
X68004Y110270D01*
X68032Y110284D01*
X68073Y110326D01*
X68128Y110367D01*
X68281Y110437D01*
X68364Y110451D01*
X68461Y110464D01*
X71512D01*
X71596Y110451D01*
D02*
G37*
G36*
X361773Y178345D02*
X361828Y178331D01*
X361981Y178275D01*
X362064Y178234D01*
X362147Y178165D01*
X362161Y178151D01*
X362175Y178123D01*
X362203Y178081D01*
X362244Y178026D01*
X362314Y177873D01*
X362327Y177790D01*
X362341Y177693D01*
Y170232D01*
Y170218D01*
Y170190D01*
Y170149D01*
X362327Y170093D01*
X362286Y169954D01*
X362203Y169816D01*
X362189Y169802D01*
X362175Y169788D01*
X362133Y169760D01*
X362078Y169719D01*
X362008Y169677D01*
X361911Y169649D01*
X361814Y169635D01*
X361689Y169622D01*
X361620D01*
X361551Y169635D01*
X361468Y169649D01*
X361273Y169705D01*
X361190Y169746D01*
X361121Y169816D01*
X361107Y169843D01*
X361065Y169913D01*
X361024Y170038D01*
X360996Y170204D01*
Y176528D01*
X360095Y175973D01*
X360081D01*
X360053Y175945D01*
X360011Y175932D01*
X359956Y175904D01*
X359803Y175862D01*
X359720D01*
X359623Y175876D01*
X359609D01*
X359581Y175890D01*
X359526Y175904D01*
X359470Y175932D01*
X359415Y175959D01*
X359346Y176015D01*
X359276Y176070D01*
X359221Y176154D01*
Y176167D01*
X359193Y176195D01*
X359179Y176237D01*
X359152Y176292D01*
X359110Y176445D01*
Y176542D01*
X359124Y176639D01*
Y176653D01*
X359138Y176681D01*
X359152Y176722D01*
X359179Y176778D01*
X359207Y176847D01*
X359263Y176916D01*
X359318Y176986D01*
X359401Y177041D01*
X361273Y178234D01*
X361287D01*
X361301Y178248D01*
X361384Y178303D01*
X361509Y178345D01*
X361676Y178359D01*
X361717D01*
X361773Y178345D01*
D02*
G37*
G36*
X352231D02*
X352314Y178317D01*
X352425Y178262D01*
X352523Y178192D01*
X352620Y178095D01*
X352703Y177970D01*
X352717Y177957D01*
X352744Y177901D01*
X352800Y177832D01*
X352883Y177721D01*
X352980Y177596D01*
X353091Y177430D01*
X353230Y177249D01*
X353368Y177055D01*
X353535Y176833D01*
X353701Y176583D01*
X353895Y176334D01*
X354090Y176056D01*
X354506Y175474D01*
X354963Y174850D01*
X354977Y174878D01*
X355019Y174933D01*
X355074Y175030D01*
X355158Y175155D01*
X355255Y175308D01*
X355379Y175488D01*
X355518Y175696D01*
X355657Y175918D01*
X355809Y176154D01*
X355976Y176403D01*
X356322Y176944D01*
X356669Y177485D01*
X357016Y178012D01*
X357030Y178026D01*
X357057Y178067D01*
X357099Y178123D01*
X357168Y178178D01*
X357252Y178234D01*
X357349Y178289D01*
X357460Y178331D01*
X357598Y178345D01*
X357640D01*
X357695Y178331D01*
X357765Y178317D01*
X357917Y178275D01*
X358000Y178220D01*
X358070Y178165D01*
X358084Y178151D01*
X358098Y178137D01*
X358139Y178095D01*
X358181Y178040D01*
X358250Y177901D01*
X358264Y177804D01*
X358278Y177707D01*
Y177693D01*
X358264Y177638D01*
X358250Y177554D01*
X358209Y177443D01*
X358195Y177430D01*
X358167Y177374D01*
X358111Y177291D01*
X358028Y177166D01*
X357931Y177013D01*
X357820Y176833D01*
X357682Y176611D01*
X357529Y176362D01*
X357349Y176084D01*
X357155Y175779D01*
X356933Y175446D01*
X356711Y175086D01*
X356461Y174683D01*
X356184Y174268D01*
X355906Y173838D01*
X355601Y173366D01*
Y170287D01*
Y170273D01*
Y170246D01*
X355587Y170190D01*
X355574Y170121D01*
X355532Y169982D01*
X355476Y169899D01*
X355421Y169830D01*
X355407Y169816D01*
X355379Y169802D01*
X355338Y169760D01*
X355282Y169732D01*
X355130Y169649D01*
X355033Y169635D01*
X354936Y169622D01*
X354894D01*
X354838Y169635D01*
X354783Y169649D01*
X354700Y169677D01*
X354631Y169705D01*
X354547Y169760D01*
X354464Y169830D01*
X354450Y169843D01*
X354436Y169857D01*
X354409Y169899D01*
X354381Y169954D01*
X354311Y170093D01*
X354298Y170190D01*
X354284Y170287D01*
Y173366D01*
Y173380D01*
X354270Y173394D01*
X354214Y173477D01*
X354117Y173602D01*
X354006Y173768D01*
X353868Y173976D01*
X353701Y174212D01*
X353507Y174475D01*
X353313Y174767D01*
X353091Y175086D01*
X352869Y175405D01*
X352398Y176084D01*
X351926Y176778D01*
X351690Y177111D01*
X351469Y177430D01*
Y177443D01*
X351455Y177457D01*
X351441Y177526D01*
X351413Y177624D01*
X351399Y177707D01*
Y177721D01*
Y177748D01*
X351413Y177804D01*
X351427Y177873D01*
X351455Y177943D01*
X351496Y178026D01*
X351552Y178109D01*
X351621Y178178D01*
X351635Y178192D01*
X351663Y178206D01*
X351704Y178234D01*
X351760Y178275D01*
X351898Y178331D01*
X351996Y178345D01*
X352093Y178359D01*
X352162D01*
X352231Y178345D01*
D02*
G37*
G36*
X42802Y267248D02*
X42941Y267207D01*
X43079Y267124D01*
X43093Y267110D01*
X43107Y267096D01*
X43135Y267054D01*
X43176Y266999D01*
X43218Y266929D01*
X43246Y266832D01*
X43260Y266735D01*
X43274Y266611D01*
Y266541D01*
X43260Y266472D01*
X43246Y266389D01*
X43190Y266194D01*
X43149Y266111D01*
X43079Y266042D01*
X43052Y266028D01*
X42982Y265986D01*
X42857Y265945D01*
X42691Y265917D01*
X36367D01*
X36922Y265016D01*
Y265002D01*
X36950Y264974D01*
X36963Y264932D01*
X36991Y264877D01*
X37033Y264724D01*
Y264641D01*
X37019Y264544D01*
Y264530D01*
X37005Y264503D01*
X36991Y264447D01*
X36963Y264391D01*
X36936Y264336D01*
X36880Y264267D01*
X36825Y264197D01*
X36741Y264142D01*
X36728D01*
X36700Y264114D01*
X36658Y264100D01*
X36603Y264072D01*
X36450Y264031D01*
X36353D01*
X36256Y264045D01*
X36242D01*
X36214Y264059D01*
X36173Y264072D01*
X36117Y264100D01*
X36048Y264128D01*
X35979Y264184D01*
X35909Y264239D01*
X35854Y264322D01*
X34661Y266194D01*
Y266208D01*
X34647Y266222D01*
X34592Y266305D01*
X34550Y266430D01*
X34536Y266597D01*
Y266638D01*
X34550Y266694D01*
X34564Y266749D01*
X34620Y266902D01*
X34661Y266985D01*
X34731Y267068D01*
X34744Y267082D01*
X34772Y267096D01*
X34814Y267124D01*
X34869Y267165D01*
X35022Y267234D01*
X35105Y267248D01*
X35202Y267262D01*
X42663D01*
X42677D01*
X42705D01*
X42747D01*
X42802Y267248D01*
D02*
G37*
G36*
X40652Y263074D02*
X40763Y263060D01*
X40888Y263046D01*
X41027Y263032D01*
X41193Y263005D01*
X41526Y262908D01*
X41859Y262783D01*
X42039Y262700D01*
X42192Y262603D01*
X42358Y262492D01*
X42497Y262367D01*
X42511Y262353D01*
X42525Y262325D01*
X42566Y262270D01*
X42622Y262200D01*
X42677Y262117D01*
X42747Y262006D01*
X42816Y261895D01*
X42885Y261756D01*
X42955Y261590D01*
X43024Y261424D01*
X43093Y261243D01*
X43149Y261049D01*
X43246Y260619D01*
X43260Y260384D01*
X43274Y260134D01*
Y259995D01*
X43260Y259898D01*
X43246Y259773D01*
X43232Y259635D01*
X43204Y259482D01*
X43176Y259316D01*
X43079Y258955D01*
X42941Y258581D01*
X42857Y258400D01*
X42747Y258234D01*
X42636Y258067D01*
X42497Y257915D01*
X42483Y257901D01*
X42455Y257887D01*
X42414Y257846D01*
X42344Y257804D01*
X42261Y257749D01*
X42164Y257679D01*
X42039Y257624D01*
X41914Y257554D01*
X41762Y257485D01*
X41609Y257416D01*
X41249Y257305D01*
X40833Y257235D01*
X40611Y257208D01*
X40375D01*
X35230D01*
X35216D01*
X35174D01*
X35119D01*
X35050Y257222D01*
X34883Y257277D01*
X34800Y257319D01*
X34717Y257374D01*
X34703Y257388D01*
X34689Y257416D01*
X34647Y257457D01*
X34620Y257527D01*
X34578Y257610D01*
X34550Y257707D01*
X34523Y257818D01*
Y257998D01*
X34536Y258067D01*
X34550Y258151D01*
X34578Y258248D01*
X34606Y258345D01*
X34661Y258442D01*
X34731Y258525D01*
X34744Y258539D01*
X34772Y258553D01*
X34814Y258581D01*
X34869Y258622D01*
X34952Y258664D01*
X35050Y258692D01*
X35147Y258706D01*
X35271Y258719D01*
X40403D01*
X40417D01*
X40472D01*
X40541Y258733D01*
X40638Y258747D01*
X40749Y258761D01*
X40874Y258789D01*
X40999Y258830D01*
X41138Y258900D01*
X41276Y258969D01*
X41415Y259052D01*
X41540Y259163D01*
X41651Y259288D01*
X41748Y259440D01*
X41817Y259621D01*
X41873Y259829D01*
X41887Y260065D01*
Y260134D01*
X41873Y260203D01*
X41859Y260300D01*
X41831Y260411D01*
X41790Y260536D01*
X41748Y260661D01*
X41679Y260814D01*
X41595Y260952D01*
X41498Y261077D01*
X41387Y261216D01*
X41249Y261327D01*
X41082Y261424D01*
X40888Y261507D01*
X40666Y261562D01*
X40417Y261590D01*
X35258D01*
X35244D01*
X35202D01*
X35133D01*
X35063Y261604D01*
X34897Y261646D01*
X34814Y261687D01*
X34744Y261743D01*
X34731Y261756D01*
X34703Y261784D01*
X34675Y261826D01*
X34634Y261881D01*
X34592Y261965D01*
X34550Y262076D01*
X34536Y262200D01*
X34523Y262353D01*
Y262408D01*
X34536Y262464D01*
X34550Y262533D01*
X34592Y262700D01*
X34647Y262783D01*
X34703Y262866D01*
X34717Y262880D01*
X34744Y262894D01*
X34786Y262935D01*
X34841Y262977D01*
X34925Y263018D01*
X35022Y263046D01*
X35133Y263074D01*
X35258Y263088D01*
X40430D01*
X40444D01*
X40486D01*
X40555D01*
X40652Y263074D01*
D02*
G37*
G36*
X246443Y129636D02*
X246582Y129595D01*
X246721Y129511D01*
X246735Y129498D01*
X246748Y129484D01*
X246776Y129442D01*
X246818Y129387D01*
X246859Y129317D01*
X246887Y129220D01*
X246901Y129123D01*
X246915Y128998D01*
Y128929D01*
X246901Y128860D01*
X246887Y128777D01*
X246832Y128582D01*
X246790Y128499D01*
X246721Y128430D01*
X246693Y128416D01*
X246624Y128374D01*
X246499Y128333D01*
X246332Y128305D01*
X240008D01*
X240563Y127403D01*
Y127390D01*
X240591Y127362D01*
X240605Y127320D01*
X240632Y127265D01*
X240674Y127112D01*
Y127029D01*
X240660Y126932D01*
Y126918D01*
X240646Y126890D01*
X240632Y126835D01*
X240605Y126779D01*
X240577Y126724D01*
X240522Y126655D01*
X240466Y126585D01*
X240383Y126530D01*
X240369D01*
X240341Y126502D01*
X240300Y126488D01*
X240244Y126461D01*
X240092Y126419D01*
X239995D01*
X239897Y126433D01*
X239884D01*
X239856Y126447D01*
X239814Y126461D01*
X239759Y126488D01*
X239689Y126516D01*
X239620Y126571D01*
X239551Y126627D01*
X239495Y126710D01*
X238303Y128582D01*
Y128596D01*
X238289Y128610D01*
X238233Y128693D01*
X238192Y128818D01*
X238178Y128984D01*
Y129026D01*
X238192Y129082D01*
X238206Y129137D01*
X238261Y129290D01*
X238303Y129373D01*
X238372Y129456D01*
X238386Y129470D01*
X238414Y129484D01*
X238455Y129511D01*
X238511Y129553D01*
X238663Y129622D01*
X238746Y129636D01*
X238843Y129650D01*
X246305D01*
X246318D01*
X246346D01*
X246388D01*
X246443Y129636D01*
D02*
G37*
G36*
X238954Y125712D02*
X239038Y125698D01*
X239051D01*
X239079Y125684D01*
X239121D01*
X239190Y125670D01*
X239273Y125642D01*
X239370Y125615D01*
X239495Y125601D01*
X239620Y125559D01*
X239773Y125531D01*
X239939Y125490D01*
X240119Y125448D01*
X240313Y125393D01*
X240522Y125351D01*
X240743Y125295D01*
X241229Y125171D01*
X241756Y125046D01*
X242324Y124893D01*
X242948Y124741D01*
X243600Y124560D01*
X244294Y124380D01*
X245001Y124186D01*
X245750Y123978D01*
X246513Y123756D01*
X246527Y123742D01*
X246568Y123728D01*
X246637Y123687D01*
X246707Y123631D01*
X246790Y123548D01*
X246845Y123451D01*
X246901Y123340D01*
X246915Y123201D01*
Y123132D01*
X246901Y123049D01*
X246873Y122952D01*
X246818Y122841D01*
X246762Y122730D01*
X246665Y122633D01*
X246540Y122563D01*
X246527D01*
X246513Y122550D01*
X246471Y122536D01*
X246416Y122522D01*
X246277Y122466D01*
X246083Y122397D01*
X245847Y122314D01*
X245583Y122231D01*
X245306Y122120D01*
X244987Y122023D01*
X244349Y121787D01*
X244030Y121676D01*
X243711Y121551D01*
X243406Y121454D01*
X243129Y121343D01*
X242879Y121260D01*
X242657Y121177D01*
X242671D01*
X242699Y121163D01*
X242754Y121135D01*
X242838Y121107D01*
X242935Y121080D01*
X243073Y121024D01*
X243240Y120969D01*
X243448Y120899D01*
X243683Y120816D01*
X243961Y120719D01*
X244280Y120608D01*
X244640Y120497D01*
X245043Y120358D01*
X245500Y120206D01*
X246000Y120053D01*
X246554Y119873D01*
X246568Y119859D01*
X246610Y119845D01*
X246665Y119804D01*
X246735Y119734D01*
X246804Y119651D01*
X246859Y119554D01*
X246901Y119415D01*
X246915Y119263D01*
Y119193D01*
X246901Y119124D01*
X246873Y119027D01*
X246818Y118930D01*
X246762Y118847D01*
X246665Y118777D01*
X246540Y118722D01*
X246527D01*
X246499Y118708D01*
X246443Y118694D01*
X246360Y118680D01*
X246263Y118666D01*
X246152Y118639D01*
X246013Y118597D01*
X245861Y118569D01*
X245694Y118528D01*
X245500Y118486D01*
X245306Y118431D01*
X245084Y118375D01*
X244613Y118264D01*
X244100Y118139D01*
X243545Y117987D01*
X242962Y117834D01*
X242338Y117668D01*
X241700Y117488D01*
X240411Y117099D01*
X239759Y116891D01*
X239107Y116683D01*
X239093D01*
X239065Y116669D01*
X239010Y116656D01*
X238954D01*
X238802Y116642D01*
X238649Y116656D01*
X238635D01*
X238608Y116669D01*
X238552Y116683D01*
X238497Y116697D01*
X238441Y116739D01*
X238372Y116780D01*
X238303Y116850D01*
X238247Y116933D01*
Y116947D01*
X238233Y116974D01*
X238219Y117016D01*
X238206Y117058D01*
X238178Y117196D01*
Y117349D01*
X238192Y117404D01*
X238206Y117474D01*
X238247Y117571D01*
X238316Y117668D01*
X238414Y117765D01*
X238538Y117848D01*
X238719Y117931D01*
X238746Y117945D01*
X238816Y117959D01*
X238941Y118001D01*
X239107Y118056D01*
X239315Y118112D01*
X239551Y118181D01*
X239828Y118264D01*
X240133Y118361D01*
X240452Y118458D01*
X240813Y118569D01*
X241173Y118680D01*
X241562Y118791D01*
X242380Y119041D01*
X243212Y119291D01*
X243184Y119304D01*
X243115Y119318D01*
X243004Y119360D01*
X242851Y119402D01*
X242657Y119457D01*
X242421Y119526D01*
X242172Y119596D01*
X241881Y119679D01*
X241576Y119762D01*
X241243Y119859D01*
X240882Y119956D01*
X240522Y120053D01*
X239759Y120261D01*
X238968Y120456D01*
X238954D01*
X238941Y120469D01*
X238899D01*
X238843Y120483D01*
X238719Y120539D01*
X238566Y120608D01*
X238427Y120691D01*
X238303Y120816D01*
X238247Y120885D01*
X238206Y120955D01*
X238192Y121038D01*
X238178Y121135D01*
Y121163D01*
X238192Y121218D01*
X238219Y121301D01*
X238275Y121398D01*
X238372Y121510D01*
X238511Y121620D01*
X238594Y121676D01*
X238691Y121731D01*
X238816Y121787D01*
X238954Y121828D01*
X238982Y121842D01*
X239038Y121856D01*
X239149Y121884D01*
X239301Y121925D01*
X239481Y121981D01*
X239703Y122050D01*
X239967Y122134D01*
X240244Y122217D01*
X240549Y122314D01*
X240882Y122411D01*
X241243Y122522D01*
X241617Y122647D01*
X242005Y122772D01*
X242421Y122896D01*
X243267Y123174D01*
X243240Y123188D01*
X243170Y123201D01*
X243046Y123243D01*
X242879Y123285D01*
X242671Y123340D01*
X242421Y123409D01*
X242144Y123493D01*
X241825Y123576D01*
X241492Y123659D01*
X241132Y123756D01*
X240757Y123867D01*
X240355Y123964D01*
X239939Y124075D01*
X239523Y124186D01*
X238649Y124408D01*
X238635D01*
X238580Y124436D01*
X238511Y124477D01*
X238427Y124519D01*
X238344Y124602D01*
X238275Y124699D01*
X238206Y124810D01*
X238178Y124963D01*
Y125004D01*
X238164Y125060D01*
Y125115D01*
X238192Y125268D01*
X238206Y125351D01*
X238247Y125434D01*
Y125448D01*
X238275Y125490D01*
X238316Y125531D01*
X238372Y125601D01*
X238455Y125656D01*
X238552Y125698D01*
X238691Y125725D01*
X238857D01*
X238871D01*
X238899D01*
X238954Y125712D01*
D02*
G37*
G36*
X244405Y115990D02*
X244488Y115976D01*
X244599Y115962D01*
X244710Y115934D01*
X244987Y115879D01*
X245278Y115768D01*
X245597Y115615D01*
X245750Y115518D01*
X245903Y115421D01*
X246041Y115296D01*
X246180Y115158D01*
X246194Y115144D01*
X246208Y115130D01*
X246235Y115088D01*
X246291Y115019D01*
X246332Y114950D01*
X246388Y114853D01*
X246457Y114755D01*
X246513Y114631D01*
X246582Y114492D01*
X246651Y114340D01*
X246707Y114173D01*
X246762Y114007D01*
X246859Y113604D01*
X246887Y113383D01*
X246901Y113147D01*
Y112648D01*
X246887Y112412D01*
X246859Y112162D01*
X246832Y111912D01*
X246790Y111663D01*
Y111649D01*
X246776Y111607D01*
X246748Y111538D01*
X246721Y111455D01*
X246679Y111330D01*
X246610Y111205D01*
X246540Y111067D01*
X246443Y110900D01*
X246430Y110886D01*
X246388Y110831D01*
X246332Y110748D01*
X246249Y110651D01*
X246152Y110553D01*
X246041Y110442D01*
X245916Y110345D01*
X245778Y110276D01*
X245764D01*
X245722Y110262D01*
X245653Y110248D01*
X245556D01*
X245459Y110262D01*
X245348Y110290D01*
X245223Y110331D01*
X245098Y110415D01*
X245084Y110429D01*
X245070Y110442D01*
X245001Y110526D01*
X244918Y110664D01*
X244862Y110831D01*
Y110845D01*
X244848Y110872D01*
Y110928D01*
X244862Y110997D01*
X244876Y111080D01*
X244904Y111178D01*
X244959Y111275D01*
X245043Y111372D01*
X245056Y111385D01*
X245084Y111413D01*
X245126Y111455D01*
X245181Y111524D01*
X245251Y111607D01*
X245306Y111691D01*
X245431Y111912D01*
X245445Y111940D01*
X245473Y112010D01*
X245514Y112121D01*
X245556Y112259D01*
X245597Y112439D01*
X245639Y112634D01*
X245667Y112869D01*
Y113133D01*
X245653Y113216D01*
X245639Y113327D01*
X245611Y113480D01*
X245556Y113646D01*
X245500Y113826D01*
X245417Y113993D01*
X245306Y114159D01*
X245292Y114187D01*
X245223Y114242D01*
X245140Y114326D01*
X245015Y114423D01*
X244876Y114520D01*
X244696Y114603D01*
X244502Y114672D01*
X244294Y114700D01*
X244280D01*
X244266D01*
X244183D01*
X244072D01*
X243933Y114672D01*
X243781Y114631D01*
X243628Y114575D01*
X243489Y114492D01*
X243365Y114367D01*
X243351Y114353D01*
X243323Y114312D01*
X243309Y114270D01*
X243281Y114215D01*
X243254Y114159D01*
X243226Y114076D01*
X243198Y113965D01*
X243170Y113854D01*
X243157Y113702D01*
X243129Y113549D01*
X243115Y113355D01*
X243087Y113133D01*
Y112897D01*
X243073Y112620D01*
Y112564D01*
X243059Y112509D01*
X243046Y112426D01*
X243032Y112329D01*
X243004Y112218D01*
X242935Y111968D01*
X242838Y111691D01*
X242699Y111385D01*
X242505Y111108D01*
X242380Y110983D01*
X242255Y110858D01*
X242227Y110831D01*
X242158Y110775D01*
X242033Y110706D01*
X241867Y110609D01*
X241659Y110526D01*
X241423Y110442D01*
X241159Y110387D01*
X240854Y110373D01*
X240840D01*
X240799D01*
X240730D01*
X240632Y110387D01*
X240522D01*
X240397Y110401D01*
X240105Y110456D01*
X239786Y110553D01*
X239620Y110609D01*
X239454Y110678D01*
X239287Y110775D01*
X239135Y110872D01*
X238982Y110997D01*
X238843Y111136D01*
X238830Y111150D01*
X238816Y111178D01*
X238788Y111219D01*
X238746Y111275D01*
X238691Y111344D01*
X238635Y111441D01*
X238580Y111552D01*
X238511Y111663D01*
X238455Y111802D01*
X238400Y111954D01*
X238344Y112121D01*
X238289Y112301D01*
X238219Y112703D01*
X238192Y112911D01*
Y113369D01*
X238206Y113493D01*
X238219Y113618D01*
X238247Y113923D01*
X238303Y114256D01*
X238372Y114589D01*
X238483Y114908D01*
X238552Y115061D01*
X238622Y115185D01*
X238635Y115199D01*
X238663Y115255D01*
X238719Y115338D01*
X238802Y115449D01*
X238899Y115546D01*
X239024Y115671D01*
X239162Y115768D01*
X239315Y115865D01*
X239329D01*
X239384Y115879D01*
X239468Y115893D01*
X239565D01*
X239689D01*
X239814Y115879D01*
X239939Y115837D01*
X240064Y115782D01*
X240078Y115768D01*
X240092Y115740D01*
X240133Y115699D01*
X240161Y115643D01*
X240244Y115477D01*
X240258Y115380D01*
X240272Y115282D01*
Y115227D01*
X240258Y115172D01*
X240244Y115102D01*
X240216Y115019D01*
X240175Y114936D01*
X240119Y114867D01*
X240050Y114797D01*
X240036Y114783D01*
X240008Y114769D01*
X239953Y114714D01*
X239897Y114658D01*
X239745Y114506D01*
X239592Y114312D01*
X239578Y114298D01*
X239551Y114242D01*
X239523Y114145D01*
X239481Y114021D01*
X239440Y113854D01*
X239412Y113660D01*
X239384Y113438D01*
Y113105D01*
X239398Y113050D01*
X239412Y112897D01*
X239454Y112717D01*
X239509Y112509D01*
X239592Y112301D01*
X239689Y112107D01*
X239828Y111926D01*
X239842Y111912D01*
X239897Y111871D01*
X239995Y111815D01*
X240105Y111746D01*
X240244Y111691D01*
X240411Y111635D01*
X240591Y111594D01*
X240785Y111580D01*
X240799D01*
X240813D01*
X240896Y111607D01*
X241021Y111635D01*
X241159Y111677D01*
X241312Y111732D01*
X241451Y111802D01*
X241576Y111885D01*
X241673Y111996D01*
X241686Y112010D01*
X241714Y112065D01*
X241756Y112162D01*
X241770Y112218D01*
X241797Y112301D01*
X241825Y112398D01*
X241839Y112509D01*
X241867Y112634D01*
X241881Y112772D01*
X241894Y112925D01*
Y113715D01*
X241908Y113813D01*
Y113910D01*
X241936Y114173D01*
X241992Y114450D01*
X242075Y114728D01*
X242172Y115005D01*
X242324Y115241D01*
Y115255D01*
X242352Y115269D01*
X242380Y115310D01*
X242421Y115366D01*
X242491Y115421D01*
X242560Y115491D01*
X242643Y115560D01*
X242754Y115629D01*
X242879Y115699D01*
X243018Y115768D01*
X243184Y115837D01*
X243365Y115893D01*
X243573Y115934D01*
X243781Y115976D01*
X244030Y116004D01*
X244294D01*
X244308D01*
X244349D01*
X244405Y115990D01*
D02*
G37*
G36*
X267651Y109781D02*
X267762Y109767D01*
X268026Y109740D01*
X268317Y109670D01*
X268622Y109559D01*
X268913Y109407D01*
X269052Y109324D01*
X269191Y109213D01*
X269205Y109199D01*
X269232Y109171D01*
X269288Y109116D01*
X269343Y109032D01*
X269426Y108935D01*
X269496Y108824D01*
X269579Y108686D01*
X269662Y108533D01*
X269732Y108367D01*
X269787Y108173D01*
X269829Y107964D01*
X269856Y107743D01*
Y107493D01*
X269842Y107243D01*
X269787Y106980D01*
X269704Y106689D01*
Y106675D01*
X269690Y106661D01*
X269676Y106619D01*
X269634Y106564D01*
X269607Y106481D01*
X269551Y106383D01*
X269482Y106272D01*
X269412Y106148D01*
X269315Y105995D01*
X269218Y105829D01*
X269093Y105635D01*
X268955Y105413D01*
X268802Y105191D01*
X268636Y104927D01*
X268442Y104650D01*
X268234Y104345D01*
Y104331D01*
X268206Y104303D01*
X268178Y104262D01*
X268137Y104206D01*
X268095Y104123D01*
X268026Y104026D01*
X267956Y103915D01*
X267873Y103776D01*
X267776Y103638D01*
X267665Y103485D01*
X267540Y103305D01*
X267416Y103124D01*
X267124Y102708D01*
X266791Y102251D01*
X268345Y102237D01*
X269274D01*
X269399Y102223D01*
X269524Y102181D01*
X269662Y102126D01*
X269759Y102029D01*
X269842Y101890D01*
X269856Y101793D01*
Y101696D01*
Y101668D01*
X269842Y101613D01*
X269815Y101516D01*
X269759Y101405D01*
X269690Y101294D01*
X269565Y101197D01*
X269412Y101114D01*
X269315Y101086D01*
X269205Y101072D01*
X265474D01*
X265432Y101086D01*
X265377Y101114D01*
X265321Y101155D01*
X265252Y101211D01*
X265196Y101294D01*
X265141Y101391D01*
X265113Y101516D01*
Y101530D01*
X265099Y101585D01*
Y101682D01*
X265113Y101807D01*
X265155Y101959D01*
X265238Y102154D01*
X265294Y102251D01*
X265363Y102362D01*
X265446Y102486D01*
X265543Y102611D01*
X265557Y102625D01*
X265571Y102653D01*
X265613Y102708D01*
X265668Y102778D01*
X265723Y102861D01*
X265793Y102958D01*
X265959Y103180D01*
X266140Y103457D01*
X266348Y103735D01*
X266542Y104040D01*
X266736Y104331D01*
X266750Y104345D01*
X266764Y104373D01*
X266791Y104414D01*
X266833Y104483D01*
X266889Y104567D01*
X266944Y104650D01*
X267083Y104858D01*
X267235Y105094D01*
X267402Y105343D01*
X267554Y105579D01*
X267707Y105801D01*
X267721Y105815D01*
X267734Y105843D01*
X267776Y105898D01*
X267831Y105967D01*
X267887Y106065D01*
X267956Y106162D01*
X268109Y106383D01*
X268261Y106619D01*
X268414Y106869D01*
X268539Y107091D01*
X268580Y107188D01*
X268622Y107271D01*
Y107285D01*
Y107299D01*
X268636Y107368D01*
X268650Y107479D01*
Y107632D01*
X268622Y107784D01*
X268566Y107964D01*
X268470Y108145D01*
X268414Y108242D01*
X268331Y108325D01*
X268317Y108339D01*
X268248Y108380D01*
X268151Y108450D01*
X268026Y108505D01*
X267845Y108561D01*
X267651Y108616D01*
X267429Y108630D01*
X267166Y108616D01*
X267138D01*
X267055Y108602D01*
X266944Y108547D01*
X266805Y108464D01*
X266722Y108408D01*
X266639Y108339D01*
X266569Y108242D01*
X266486Y108131D01*
X266417Y108006D01*
X266348Y107867D01*
X266278Y107701D01*
X266223Y107507D01*
X266209Y107493D01*
X266181Y107437D01*
X266140Y107368D01*
X266070Y107299D01*
X265973Y107216D01*
X265862Y107160D01*
X265737Y107119D01*
X265585Y107105D01*
X265557Y107119D01*
X265502Y107132D01*
X265432Y107174D01*
X265335Y107229D01*
X265238Y107299D01*
X265155Y107396D01*
X265099Y107507D01*
X265072Y107646D01*
Y107659D01*
Y107701D01*
Y107770D01*
Y107867D01*
X265086Y107978D01*
X265113Y108103D01*
X265141Y108242D01*
X265196Y108394D01*
X265210Y108408D01*
X265224Y108464D01*
X265266Y108547D01*
X265335Y108658D01*
X265418Y108783D01*
X265529Y108921D01*
X265668Y109088D01*
X265848Y109240D01*
X265876Y109268D01*
X265959Y109324D01*
X266084Y109407D01*
X266250Y109504D01*
X266472Y109601D01*
X266736Y109698D01*
X267027Y109754D01*
X267360Y109795D01*
X267554D01*
X267651Y109781D01*
D02*
G37*
G36*
X261521D02*
X261646D01*
X261771Y109767D01*
X261924Y109740D01*
X262090Y109726D01*
X262437Y109656D01*
X262797Y109545D01*
X263144Y109393D01*
X263310Y109310D01*
X263463Y109199D01*
X263477D01*
X263491Y109171D01*
X263532Y109129D01*
X263574Y109088D01*
X263629Y109018D01*
X263685Y108949D01*
X263754Y108852D01*
X263824Y108741D01*
X263893Y108616D01*
X263948Y108478D01*
X264018Y108325D01*
X264073Y108159D01*
X264115Y107964D01*
X264156Y107770D01*
X264184Y107548D01*
X264198Y107313D01*
Y107188D01*
Y107174D01*
Y107105D01*
X264184Y107021D01*
X264170Y106897D01*
X264142Y106744D01*
X264101Y106578D01*
X264045Y106397D01*
X263976Y106203D01*
X263879Y106009D01*
X263768Y105815D01*
X263643Y105621D01*
X263477Y105427D01*
X263283Y105260D01*
X263061Y105094D01*
X262797Y104969D01*
X262506Y104858D01*
X262520Y104844D01*
X262548Y104789D01*
X262603Y104705D01*
X262673Y104594D01*
X262742Y104456D01*
X262839Y104289D01*
X262950Y104109D01*
X263061Y103915D01*
X263186Y103693D01*
X263310Y103471D01*
X263574Y102986D01*
X263837Y102500D01*
X264073Y102001D01*
X264087Y101987D01*
X264101Y101932D01*
X264115Y101862D01*
X264142Y101765D01*
X264156Y101654D01*
X264142Y101543D01*
X264115Y101405D01*
X264059Y101280D01*
X264045Y101266D01*
X264018Y101238D01*
X263976Y101211D01*
X263921Y101169D01*
X263837Y101127D01*
X263754Y101086D01*
X263643Y101058D01*
X263477D01*
X263407Y101086D01*
X263324Y101114D01*
X263227Y101155D01*
X263130Y101224D01*
X263033Y101321D01*
X262950Y101446D01*
X262936Y101460D01*
X262908Y101516D01*
X262867Y101585D01*
X262811Y101696D01*
X262742Y101821D01*
X262659Y101987D01*
X262548Y102168D01*
X262437Y102362D01*
X262312Y102597D01*
X262187Y102833D01*
X262034Y103097D01*
X261882Y103374D01*
X261729Y103665D01*
X261563Y103970D01*
X261202Y104608D01*
X259067D01*
Y101710D01*
Y101696D01*
Y101668D01*
X259053Y101613D01*
X259039Y101543D01*
X258983Y101391D01*
X258942Y101321D01*
X258873Y101238D01*
X258859Y101224D01*
X258845Y101211D01*
X258789Y101183D01*
X258734Y101155D01*
X258581Y101086D01*
X258498Y101072D01*
X258387Y101058D01*
X258346D01*
X258290Y101072D01*
X258235Y101086D01*
X258082Y101141D01*
X257999Y101183D01*
X257916Y101238D01*
X257902Y101252D01*
X257888Y101280D01*
X257846Y101321D01*
X257819Y101377D01*
X257735Y101516D01*
X257722Y101613D01*
X257708Y101710D01*
Y109116D01*
Y109129D01*
Y109157D01*
X257722Y109213D01*
X257735Y109282D01*
X257763Y109351D01*
X257791Y109434D01*
X257846Y109518D01*
X257916Y109587D01*
X257929Y109601D01*
X257957Y109615D01*
X257999Y109656D01*
X258054Y109698D01*
X258207Y109767D01*
X258290Y109781D01*
X258387Y109795D01*
X261438D01*
X261521Y109781D01*
D02*
G37*
G36*
X21453Y124851D02*
X21591Y124809D01*
X21730Y124726D01*
X21744Y124712D01*
X21758Y124698D01*
X21786Y124657D01*
X21827Y124601D01*
X21869Y124532D01*
X21897Y124435D01*
X21910Y124338D01*
X21924Y124213D01*
Y124144D01*
X21910Y124074D01*
X21897Y123991D01*
X21841Y123797D01*
X21799Y123714D01*
X21730Y123644D01*
X21702Y123630D01*
X21633Y123589D01*
X21508Y123547D01*
X21342Y123519D01*
X15018D01*
X15573Y122618D01*
Y122604D01*
X15600Y122576D01*
X15614Y122535D01*
X15642Y122479D01*
X15683Y122327D01*
Y122244D01*
X15670Y122147D01*
Y122133D01*
X15656Y122105D01*
X15642Y122049D01*
X15614Y121994D01*
X15586Y121938D01*
X15531Y121869D01*
X15475Y121800D01*
X15392Y121744D01*
X15378D01*
X15351Y121717D01*
X15309Y121703D01*
X15253Y121675D01*
X15101Y121633D01*
X15004D01*
X14907Y121647D01*
X14893D01*
X14865Y121661D01*
X14824Y121675D01*
X14768Y121703D01*
X14699Y121730D01*
X14629Y121786D01*
X14560Y121841D01*
X14505Y121925D01*
X13312Y123797D01*
Y123811D01*
X13298Y123825D01*
X13243Y123908D01*
X13201Y124033D01*
X13187Y124199D01*
Y124241D01*
X13201Y124296D01*
X13215Y124352D01*
X13270Y124504D01*
X13312Y124587D01*
X13381Y124671D01*
X13395Y124684D01*
X13423Y124698D01*
X13464Y124726D01*
X13520Y124768D01*
X13672Y124837D01*
X13756Y124851D01*
X13853Y124865D01*
X21314D01*
X21328D01*
X21356D01*
X21397D01*
X21453Y124851D01*
D02*
G37*
G36*
X15961Y120829D02*
X16086Y120815D01*
X16238Y120787D01*
X16405Y120746D01*
X16585Y120690D01*
X16779Y120621D01*
X16973Y120524D01*
X17167Y120413D01*
X17362Y120288D01*
X17556Y120122D01*
X17722Y119928D01*
X17888Y119706D01*
X18013Y119442D01*
X18124Y119151D01*
X18138Y119165D01*
X18194Y119192D01*
X18277Y119248D01*
X18388Y119317D01*
X18527Y119387D01*
X18693Y119484D01*
X18873Y119595D01*
X19067Y119706D01*
X19289Y119831D01*
X19511Y119955D01*
X19997Y120219D01*
X20482Y120482D01*
X20981Y120718D01*
X20995Y120732D01*
X21051Y120746D01*
X21120Y120760D01*
X21217Y120787D01*
X21328Y120801D01*
X21439Y120787D01*
X21577Y120760D01*
X21702Y120704D01*
X21716Y120690D01*
X21744Y120663D01*
X21772Y120621D01*
X21813Y120566D01*
X21855Y120482D01*
X21897Y120399D01*
X21924Y120288D01*
Y120122D01*
X21897Y120052D01*
X21869Y119969D01*
X21827Y119872D01*
X21758Y119775D01*
X21661Y119678D01*
X21536Y119595D01*
X21522Y119581D01*
X21467Y119553D01*
X21397Y119511D01*
X21286Y119456D01*
X21161Y119387D01*
X20995Y119304D01*
X20815Y119192D01*
X20621Y119082D01*
X20385Y118957D01*
X20149Y118832D01*
X19886Y118679D01*
X19608Y118527D01*
X19317Y118374D01*
X19012Y118208D01*
X18374Y117847D01*
Y115712D01*
X21272D01*
X21286D01*
X21314D01*
X21370Y115698D01*
X21439Y115684D01*
X21591Y115628D01*
X21661Y115587D01*
X21744Y115517D01*
X21758Y115504D01*
X21772Y115490D01*
X21799Y115434D01*
X21827Y115379D01*
X21897Y115226D01*
X21910Y115143D01*
X21924Y115032D01*
Y114990D01*
X21910Y114935D01*
X21897Y114880D01*
X21841Y114727D01*
X21799Y114644D01*
X21744Y114560D01*
X21730Y114547D01*
X21702Y114533D01*
X21661Y114491D01*
X21605Y114463D01*
X21467Y114380D01*
X21370Y114366D01*
X21272Y114353D01*
X13867D01*
X13853D01*
X13825D01*
X13770Y114366D01*
X13700Y114380D01*
X13631Y114408D01*
X13548Y114436D01*
X13464Y114491D01*
X13395Y114560D01*
X13381Y114574D01*
X13367Y114602D01*
X13326Y114644D01*
X13284Y114699D01*
X13215Y114852D01*
X13201Y114935D01*
X13187Y115032D01*
Y118083D01*
X13201Y118166D01*
Y118291D01*
X13215Y118416D01*
X13243Y118568D01*
X13256Y118735D01*
X13326Y119082D01*
X13437Y119442D01*
X13589Y119789D01*
X13672Y119955D01*
X13784Y120108D01*
Y120122D01*
X13811Y120136D01*
X13853Y120177D01*
X13894Y120219D01*
X13964Y120274D01*
X14033Y120330D01*
X14130Y120399D01*
X14241Y120468D01*
X14366Y120538D01*
X14505Y120593D01*
X14657Y120663D01*
X14824Y120718D01*
X15018Y120760D01*
X15212Y120801D01*
X15434Y120829D01*
X15670Y120843D01*
X15794D01*
X15808D01*
X15878D01*
X15961Y120829D01*
D02*
G37*
G36*
X346424Y106378D02*
X346507Y106365D01*
X346604Y106351D01*
X346854Y106295D01*
X347118Y106212D01*
X347409Y106073D01*
X347547Y105990D01*
X347686Y105879D01*
X347825Y105768D01*
X347950Y105630D01*
X347964Y105602D01*
X348019Y105519D01*
X348088Y105380D01*
X348172Y105200D01*
X348255Y104978D01*
X348324Y104728D01*
X348380Y104423D01*
X348394Y104104D01*
Y104090D01*
Y104035D01*
Y103952D01*
X348380Y103854D01*
X348366Y103730D01*
X348338Y103591D01*
X348296Y103425D01*
X348255Y103258D01*
X348199Y103092D01*
X348116Y102911D01*
X348019Y102745D01*
X347908Y102578D01*
X347769Y102426D01*
X347603Y102273D01*
X347409Y102149D01*
X347201Y102038D01*
X347215D01*
X347256Y102010D01*
X347326Y101982D01*
X347423Y101940D01*
X347520Y101885D01*
X347645Y101816D01*
X347769Y101719D01*
X347894Y101622D01*
X348019Y101497D01*
X348144Y101358D01*
X348255Y101192D01*
X348366Y101025D01*
X348449Y100817D01*
X348504Y100595D01*
X348546Y100359D01*
X348560Y100096D01*
Y100082D01*
Y100054D01*
Y99999D01*
Y99916D01*
X348546Y99832D01*
X348532Y99735D01*
X348491Y99486D01*
X348421Y99222D01*
X348310Y98945D01*
X348144Y98668D01*
X348047Y98543D01*
X347936Y98418D01*
X347922Y98404D01*
X347908Y98390D01*
X347867Y98349D01*
X347797Y98307D01*
X347728Y98251D01*
X347645Y98182D01*
X347534Y98113D01*
X347423Y98043D01*
X347159Y97905D01*
X346840Y97780D01*
X346480Y97697D01*
X346286Y97683D01*
X346077Y97669D01*
X346036D01*
X345980Y97683D01*
X345897Y97697D01*
X345814Y97711D01*
X345703Y97738D01*
X345453Y97794D01*
X345190Y97905D01*
X344899Y98043D01*
X344760Y98141D01*
X344621Y98251D01*
X344496Y98363D01*
X344372Y98501D01*
X344358Y98515D01*
X344330Y98557D01*
X344288Y98626D01*
X344233Y98709D01*
X344178Y98820D01*
X344122Y98931D01*
X344080Y99070D01*
X344053Y99208D01*
Y99222D01*
Y99250D01*
X344067Y99305D01*
X344080Y99361D01*
X344136Y99514D01*
X344178Y99583D01*
X344233Y99638D01*
X344247Y99652D01*
X344261Y99666D01*
X344344Y99722D01*
X344469Y99777D01*
X344552Y99805D01*
X344705D01*
X344788Y99791D01*
X344885Y99763D01*
X344996Y99722D01*
X345093Y99652D01*
X345190Y99555D01*
X345259Y99430D01*
X345273Y99403D01*
X345329Y99333D01*
X345412Y99236D01*
X345509Y99125D01*
X345648Y99014D01*
X345800Y98917D01*
X345980Y98862D01*
X346077Y98834D01*
X346244D01*
X346327Y98848D01*
X346424Y98876D01*
X346535Y98903D01*
X346660Y98959D01*
X346771Y99028D01*
X346896Y99125D01*
X346910Y99153D01*
X346965Y99208D01*
X347034Y99319D01*
X347118Y99458D01*
X347187Y99625D01*
X347242Y99819D01*
X347256Y100041D01*
X347242Y100165D01*
X347229Y100290D01*
Y100304D01*
X347215Y100346D01*
X347187Y100387D01*
X347145Y100471D01*
X347048Y100637D01*
X346923Y100845D01*
X346743Y101039D01*
X346632Y101136D01*
X346521Y101219D01*
X346410Y101275D01*
X346272Y101330D01*
X346133Y101358D01*
X345953D01*
X345883Y101372D01*
X345800Y101400D01*
X345689Y101455D01*
X345592Y101538D01*
X345495Y101649D01*
X345439Y101788D01*
X345412Y101885D01*
Y101982D01*
Y101996D01*
Y102010D01*
Y102093D01*
X345426Y102218D01*
X345453Y102357D01*
X345537Y102495D01*
X345592Y102565D01*
X345648Y102620D01*
X345731Y102676D01*
X345828Y102731D01*
X345939Y102759D01*
X346077Y102787D01*
X346119D01*
X346175Y102800D01*
X346244Y102814D01*
X346410Y102856D01*
X346507Y102898D01*
X346604Y102953D01*
X346702Y103022D01*
X346785Y103119D01*
X346882Y103216D01*
X346951Y103355D01*
X347020Y103494D01*
X347076Y103674D01*
X347104Y103868D01*
X347118Y104104D01*
Y104118D01*
Y104146D01*
Y104187D01*
Y104243D01*
X347090Y104395D01*
X347048Y104589D01*
X346965Y104784D01*
X346840Y104964D01*
X346757Y105047D01*
X346674Y105130D01*
X346563Y105186D01*
X346438Y105241D01*
X346396D01*
X346355Y105255D01*
X346299D01*
X346147Y105241D01*
X345953Y105213D01*
X345745Y105144D01*
X345648Y105103D01*
X345537Y105033D01*
X345439Y104950D01*
X345342Y104853D01*
X345259Y104728D01*
X345176Y104589D01*
X345162Y104562D01*
X345134Y104506D01*
X345065Y104423D01*
X344982Y104326D01*
X344871Y104243D01*
X344732Y104187D01*
X344552Y104159D01*
X344455D01*
X344358Y104187D01*
X344344Y104201D01*
X344288Y104215D01*
X344219Y104270D01*
X344136Y104340D01*
X344053Y104437D01*
X343997Y104562D01*
X343969Y104728D01*
Y104922D01*
Y104936D01*
X343983Y104978D01*
X344011Y105033D01*
X344039Y105116D01*
X344080Y105213D01*
X344150Y105324D01*
X344219Y105435D01*
X344316Y105560D01*
X344330Y105574D01*
X344344Y105602D01*
X344372Y105643D01*
X344427Y105699D01*
X344496Y105768D01*
X344566Y105838D01*
X344663Y105921D01*
X344774Y106004D01*
X344899Y106073D01*
X345037Y106157D01*
X345190Y106226D01*
X345370Y106281D01*
X345564Y106337D01*
X345772Y106378D01*
X345994Y106392D01*
X346341D01*
X346424Y106378D01*
D02*
G37*
G36*
X342070D02*
X342139Y106365D01*
X342291Y106309D01*
X342375Y106267D01*
X342444Y106198D01*
X342458Y106184D01*
X342472Y106157D01*
X342513Y106115D01*
X342555Y106060D01*
X342624Y105907D01*
X342638Y105824D01*
X342652Y105727D01*
Y100776D01*
Y100762D01*
Y100734D01*
Y100692D01*
Y100637D01*
X342638Y100568D01*
Y100484D01*
X342610Y100276D01*
X342569Y100027D01*
X342499Y99763D01*
X342402Y99472D01*
X342277Y99167D01*
X342125Y98862D01*
X341931Y98570D01*
X341695Y98307D01*
X341404Y98057D01*
X341237Y97946D01*
X341071Y97849D01*
X340877Y97766D01*
X340669Y97697D01*
X340447Y97641D01*
X340225Y97600D01*
X339962Y97572D01*
X339698Y97558D01*
X339532D01*
X339407Y97572D01*
X339254D01*
X339088Y97600D01*
X338894Y97614D01*
X338686Y97641D01*
X338658D01*
X338602Y97669D01*
X338519Y97697D01*
X338422Y97752D01*
X338311Y97822D01*
X338228Y97933D01*
X338172Y98071D01*
X338145Y98238D01*
Y98251D01*
Y98265D01*
X338159Y98335D01*
X338172Y98446D01*
X338228Y98570D01*
X338297Y98681D01*
X338408Y98792D01*
X338561Y98862D01*
X338658Y98890D01*
X338769D01*
X339157Y98848D01*
X339199D01*
X339254Y98834D01*
X339324D01*
X339504Y98820D01*
X339698Y98806D01*
X339781D01*
X339837Y98820D01*
X340003Y98834D01*
X340183Y98862D01*
X340391Y98917D01*
X340599Y99000D01*
X340794Y99111D01*
X340946Y99264D01*
X340960Y99292D01*
X341002Y99347D01*
X341057Y99458D01*
X341126Y99625D01*
X341196Y99832D01*
X341251Y100096D01*
X341279Y100235D01*
X341293Y100401D01*
X341307Y100581D01*
Y100776D01*
Y105727D01*
Y105740D01*
Y105768D01*
X341321Y105824D01*
X341334Y105879D01*
X341390Y106032D01*
X341432Y106115D01*
X341501Y106198D01*
X341515Y106212D01*
X341543Y106226D01*
X341584Y106254D01*
X341640Y106295D01*
X341792Y106365D01*
X341875Y106378D01*
X341972Y106392D01*
X342014D01*
X342070Y106378D01*
D02*
G37*
G36*
X93514Y104521D02*
X93583Y104507D01*
X93736Y104451D01*
X93819Y104410D01*
X93888Y104340D01*
X93902Y104327D01*
X93916Y104299D01*
X93958Y104257D01*
X93999Y104202D01*
X94069Y104049D01*
X94082Y103966D01*
X94096Y103869D01*
Y98918D01*
Y98904D01*
Y98876D01*
Y98835D01*
Y98779D01*
X94082Y98710D01*
Y98627D01*
X94055Y98419D01*
X94013Y98169D01*
X93944Y97906D01*
X93847Y97614D01*
X93722Y97309D01*
X93569Y97004D01*
X93375Y96713D01*
X93139Y96449D01*
X92848Y96200D01*
X92682Y96089D01*
X92515Y95992D01*
X92321Y95908D01*
X92113Y95839D01*
X91891Y95784D01*
X91669Y95742D01*
X91406Y95714D01*
X91142Y95701D01*
X90976D01*
X90851Y95714D01*
X90698D01*
X90532Y95742D01*
X90338Y95756D01*
X90130Y95784D01*
X90102D01*
X90047Y95811D01*
X89964Y95839D01*
X89866Y95895D01*
X89755Y95964D01*
X89672Y96075D01*
X89617Y96214D01*
X89589Y96380D01*
Y96394D01*
Y96408D01*
X89603Y96477D01*
X89617Y96588D01*
X89672Y96713D01*
X89742Y96824D01*
X89853Y96935D01*
X90005Y97004D01*
X90102Y97032D01*
X90213D01*
X90602Y96990D01*
X90643D01*
X90698Y96976D01*
X90768D01*
X90948Y96962D01*
X91142Y96949D01*
X91226D01*
X91281Y96962D01*
X91447Y96976D01*
X91628Y97004D01*
X91836Y97060D01*
X92044Y97143D01*
X92238Y97254D01*
X92390Y97406D01*
X92404Y97434D01*
X92446Y97490D01*
X92501Y97600D01*
X92571Y97767D01*
X92640Y97975D01*
X92696Y98238D01*
X92723Y98377D01*
X92737Y98544D01*
X92751Y98724D01*
Y98918D01*
Y103869D01*
Y103883D01*
Y103911D01*
X92765Y103966D01*
X92779Y104022D01*
X92834Y104174D01*
X92876Y104257D01*
X92945Y104340D01*
X92959Y104354D01*
X92987Y104368D01*
X93028Y104396D01*
X93084Y104438D01*
X93237Y104507D01*
X93320Y104521D01*
X93417Y104535D01*
X93458D01*
X93514Y104521D01*
D02*
G37*
G36*
X98021D02*
X98132Y104507D01*
X98396Y104479D01*
X98687Y104410D01*
X98992Y104299D01*
X99283Y104146D01*
X99422Y104063D01*
X99560Y103952D01*
X99574Y103938D01*
X99602Y103911D01*
X99657Y103855D01*
X99713Y103772D01*
X99796Y103675D01*
X99866Y103564D01*
X99949Y103425D01*
X100032Y103273D01*
X100101Y103106D01*
X100157Y102912D01*
X100198Y102704D01*
X100226Y102482D01*
Y102233D01*
X100212Y101983D01*
X100157Y101719D01*
X100074Y101428D01*
Y101414D01*
X100060Y101400D01*
X100046Y101359D01*
X100004Y101303D01*
X99977Y101220D01*
X99921Y101123D01*
X99852Y101012D01*
X99782Y100887D01*
X99685Y100735D01*
X99588Y100568D01*
X99463Y100374D01*
X99325Y100152D01*
X99172Y99930D01*
X99006Y99667D01*
X98812Y99389D01*
X98603Y99084D01*
Y99071D01*
X98576Y99043D01*
X98548Y99001D01*
X98506Y98946D01*
X98465Y98862D01*
X98396Y98765D01*
X98326Y98654D01*
X98243Y98516D01*
X98146Y98377D01*
X98035Y98224D01*
X97910Y98044D01*
X97785Y97864D01*
X97494Y97448D01*
X97161Y96990D01*
X98715Y96976D01*
X99644D01*
X99768Y96962D01*
X99893Y96921D01*
X100032Y96865D01*
X100129Y96768D01*
X100212Y96630D01*
X100226Y96533D01*
Y96435D01*
Y96408D01*
X100212Y96352D01*
X100184Y96255D01*
X100129Y96144D01*
X100060Y96033D01*
X99935Y95936D01*
X99782Y95853D01*
X99685Y95825D01*
X99574Y95811D01*
X95844D01*
X95802Y95825D01*
X95747Y95853D01*
X95691Y95895D01*
X95622Y95950D01*
X95566Y96033D01*
X95511Y96130D01*
X95483Y96255D01*
Y96269D01*
X95469Y96325D01*
Y96422D01*
X95483Y96546D01*
X95525Y96699D01*
X95608Y96893D01*
X95663Y96990D01*
X95733Y97101D01*
X95816Y97226D01*
X95913Y97351D01*
X95927Y97365D01*
X95941Y97392D01*
X95982Y97448D01*
X96038Y97517D01*
X96093Y97600D01*
X96163Y97697D01*
X96329Y97919D01*
X96509Y98197D01*
X96717Y98474D01*
X96912Y98779D01*
X97106Y99071D01*
X97120Y99084D01*
X97134Y99112D01*
X97161Y99154D01*
X97203Y99223D01*
X97258Y99306D01*
X97314Y99389D01*
X97452Y99598D01*
X97605Y99833D01*
X97771Y100083D01*
X97924Y100319D01*
X98076Y100541D01*
X98090Y100554D01*
X98104Y100582D01*
X98146Y100638D01*
X98201Y100707D01*
X98257Y100804D01*
X98326Y100901D01*
X98479Y101123D01*
X98631Y101359D01*
X98784Y101608D01*
X98909Y101830D01*
X98950Y101927D01*
X98992Y102011D01*
Y102024D01*
Y102038D01*
X99006Y102108D01*
X99020Y102219D01*
Y102371D01*
X98992Y102524D01*
X98936Y102704D01*
X98839Y102884D01*
X98784Y102981D01*
X98701Y103065D01*
X98687Y103078D01*
X98617Y103120D01*
X98520Y103189D01*
X98396Y103245D01*
X98215Y103300D01*
X98021Y103356D01*
X97799Y103370D01*
X97536Y103356D01*
X97508D01*
X97425Y103342D01*
X97314Y103287D01*
X97175Y103203D01*
X97092Y103148D01*
X97009Y103078D01*
X96939Y102981D01*
X96856Y102870D01*
X96787Y102746D01*
X96717Y102607D01*
X96648Y102441D01*
X96593Y102246D01*
X96579Y102233D01*
X96551Y102177D01*
X96509Y102108D01*
X96440Y102038D01*
X96343Y101955D01*
X96232Y101900D01*
X96107Y101858D01*
X95955Y101844D01*
X95927Y101858D01*
X95871Y101872D01*
X95802Y101913D01*
X95705Y101969D01*
X95608Y102038D01*
X95525Y102135D01*
X95469Y102246D01*
X95442Y102385D01*
Y102399D01*
Y102441D01*
Y102510D01*
Y102607D01*
X95455Y102718D01*
X95483Y102843D01*
X95511Y102981D01*
X95566Y103134D01*
X95580Y103148D01*
X95594Y103203D01*
X95636Y103287D01*
X95705Y103397D01*
X95788Y103522D01*
X95899Y103661D01*
X96038Y103827D01*
X96218Y103980D01*
X96246Y104008D01*
X96329Y104063D01*
X96454Y104146D01*
X96620Y104243D01*
X96842Y104340D01*
X97106Y104438D01*
X97397Y104493D01*
X97730Y104535D01*
X97924D01*
X98021Y104521D01*
D02*
G37*
G36*
X19875Y185918D02*
X19945Y185904D01*
X20097Y185862D01*
X20180Y185807D01*
X20250Y185751D01*
X20264Y185737D01*
X20278Y185724D01*
X20319Y185682D01*
X20347Y185627D01*
X20430Y185488D01*
X20444Y185405D01*
X20458Y185308D01*
Y184850D01*
X21082D01*
X21096D01*
X21137D01*
X21193Y184836D01*
X21262Y184822D01*
X21428Y184767D01*
X21512Y184725D01*
X21595Y184656D01*
X21609Y184642D01*
X21623Y184628D01*
X21692Y184545D01*
X21761Y184448D01*
X21789Y184392D01*
Y184309D01*
X21775Y184254D01*
X21761Y184198D01*
X21734Y184129D01*
X21706Y184046D01*
X21650Y183962D01*
X21581Y183893D01*
X21567Y183879D01*
X21539Y183865D01*
X21498Y183838D01*
X21428Y183796D01*
X21276Y183727D01*
X21179Y183713D01*
X21068Y183699D01*
X20444D01*
X20458Y181383D01*
Y181341D01*
X20444Y181300D01*
X20430Y181230D01*
X20375Y181092D01*
X20333Y181022D01*
X20264Y180953D01*
X20250Y180939D01*
X20236Y180925D01*
X20194Y180898D01*
X20139Y180870D01*
X20069Y180828D01*
X19986Y180800D01*
X19889Y180786D01*
X19778Y180773D01*
X19750D01*
X19681Y180800D01*
X19570Y180856D01*
X19501Y180898D01*
X19432Y180967D01*
X13523Y183283D01*
X13510D01*
X13482D01*
X13427Y183297D01*
X13371Y183324D01*
X13302Y183352D01*
X13232Y183394D01*
X13177Y183463D01*
X13135Y183546D01*
Y183560D01*
X13121Y183588D01*
X13108Y183643D01*
X13094Y183699D01*
Y183865D01*
X13108Y183962D01*
X13135Y184059D01*
Y184073D01*
X13163Y184101D01*
X13191Y184143D01*
X13232Y184198D01*
X13288Y184254D01*
X13357Y184309D01*
X13440Y184365D01*
X13537Y184406D01*
X13551D01*
X13579Y184420D01*
X13635Y184434D01*
X13718Y184448D01*
X13898D01*
X13995Y184434D01*
X14106Y184406D01*
X19099Y182437D01*
X19085Y183699D01*
X17684D01*
X17670D01*
X17629D01*
X17587Y183713D01*
X17518Y183727D01*
X17351Y183782D01*
X17268Y183824D01*
X17185Y183893D01*
X17171Y183907D01*
X17157Y183935D01*
X17129Y183962D01*
X17088Y184018D01*
X17018Y184170D01*
X17004Y184254D01*
X16991Y184351D01*
Y184378D01*
X17018Y184434D01*
X17046Y184475D01*
X17074Y184531D01*
X17129Y184586D01*
X17199Y184656D01*
X17213Y184670D01*
X17226Y184683D01*
X17282Y184711D01*
X17337Y184753D01*
X17407Y184795D01*
X17490Y184822D01*
X17587Y184836D01*
X17698Y184850D01*
X19099D01*
Y185349D01*
X19112Y185405D01*
X19126Y185460D01*
X19154Y185529D01*
X19182Y185613D01*
X19237Y185682D01*
X19307Y185751D01*
X19320Y185765D01*
X19334Y185779D01*
X19376Y185807D01*
X19432Y185849D01*
X19584Y185904D01*
X19681Y185918D01*
X19778Y185932D01*
X19792D01*
X19820D01*
X19875Y185918D01*
D02*
G37*
G36*
X18891Y179649D02*
X18974D01*
X19182Y179622D01*
X19432Y179580D01*
X19695Y179511D01*
X19986Y179414D01*
X20291Y179289D01*
X20596Y179136D01*
X20888Y178942D01*
X21151Y178706D01*
X21401Y178415D01*
X21512Y178249D01*
X21609Y178082D01*
X21692Y177888D01*
X21761Y177680D01*
X21817Y177458D01*
X21858Y177236D01*
X21886Y176973D01*
X21900Y176709D01*
Y176543D01*
X21886Y176418D01*
Y176265D01*
X21858Y176099D01*
X21845Y175905D01*
X21817Y175697D01*
Y175669D01*
X21789Y175614D01*
X21761Y175530D01*
X21706Y175433D01*
X21637Y175322D01*
X21526Y175239D01*
X21387Y175184D01*
X21221Y175156D01*
X21207D01*
X21193D01*
X21123Y175170D01*
X21012Y175184D01*
X20888Y175239D01*
X20777Y175308D01*
X20666Y175419D01*
X20596Y175572D01*
X20569Y175669D01*
Y175780D01*
X20610Y176168D01*
Y176210D01*
X20624Y176265D01*
Y176335D01*
X20638Y176515D01*
X20652Y176709D01*
Y176792D01*
X20638Y176848D01*
X20624Y177014D01*
X20596Y177195D01*
X20541Y177403D01*
X20458Y177611D01*
X20347Y177805D01*
X20194Y177957D01*
X20166Y177971D01*
X20111Y178013D01*
X20000Y178068D01*
X19834Y178138D01*
X19626Y178207D01*
X19362Y178263D01*
X19224Y178290D01*
X19057Y178304D01*
X18877Y178318D01*
X18683D01*
X13732D01*
X13718D01*
X13690D01*
X13635Y178332D01*
X13579Y178346D01*
X13427Y178401D01*
X13343Y178443D01*
X13260Y178512D01*
X13246Y178526D01*
X13232Y178554D01*
X13205Y178595D01*
X13163Y178651D01*
X13094Y178803D01*
X13080Y178887D01*
X13066Y178984D01*
Y179025D01*
X13080Y179081D01*
X13094Y179150D01*
X13149Y179303D01*
X13191Y179386D01*
X13260Y179455D01*
X13274Y179469D01*
X13302Y179483D01*
X13343Y179524D01*
X13399Y179566D01*
X13551Y179635D01*
X13635Y179649D01*
X13732Y179663D01*
X18683D01*
X18697D01*
X18724D01*
X18766D01*
X18821D01*
X18891Y179649D01*
D02*
G37*
G36*
X362888Y120383D02*
X362957Y120369D01*
X363110Y120328D01*
X363193Y120272D01*
X363262Y120217D01*
X363276Y120203D01*
X363290Y120189D01*
X363332Y120147D01*
X363359Y120092D01*
X363443Y119953D01*
X363457Y119870D01*
X363470Y119773D01*
Y119315D01*
X364095D01*
X364108D01*
X364150D01*
X364205Y119301D01*
X364275Y119287D01*
X364441Y119232D01*
X364524Y119190D01*
X364608Y119121D01*
X364622Y119107D01*
X364635Y119093D01*
X364705Y119010D01*
X364774Y118913D01*
X364802Y118857D01*
Y118774D01*
X364788Y118719D01*
X364774Y118663D01*
X364746Y118594D01*
X364719Y118511D01*
X364663Y118428D01*
X364594Y118358D01*
X364580Y118344D01*
X364552Y118330D01*
X364510Y118303D01*
X364441Y118261D01*
X364289Y118192D01*
X364192Y118178D01*
X364081Y118164D01*
X363457D01*
X363470Y115848D01*
Y115807D01*
X363457Y115765D01*
X363443Y115695D01*
X363387Y115557D01*
X363346Y115487D01*
X363276Y115418D01*
X363262Y115404D01*
X363248Y115390D01*
X363207Y115363D01*
X363151Y115335D01*
X363082Y115293D01*
X362999Y115266D01*
X362902Y115252D01*
X362791Y115238D01*
X362763D01*
X362694Y115266D01*
X362583Y115321D01*
X362514Y115363D01*
X362444Y115432D01*
X356536Y117748D01*
X356522D01*
X356495D01*
X356439Y117762D01*
X356384Y117790D01*
X356314Y117817D01*
X356245Y117859D01*
X356189Y117928D01*
X356148Y118012D01*
Y118025D01*
X356134Y118053D01*
X356120Y118109D01*
X356106Y118164D01*
Y118330D01*
X356120Y118428D01*
X356148Y118525D01*
Y118539D01*
X356176Y118566D01*
X356203Y118608D01*
X356245Y118663D01*
X356301Y118719D01*
X356370Y118774D01*
X356453Y118830D01*
X356550Y118871D01*
X356564D01*
X356592Y118885D01*
X356647Y118899D01*
X356730Y118913D01*
X356911D01*
X357008Y118899D01*
X357119Y118871D01*
X362111Y116902D01*
X362097Y118164D01*
X360697D01*
X360683D01*
X360641D01*
X360600Y118178D01*
X360530Y118192D01*
X360364Y118247D01*
X360281Y118289D01*
X360197Y118358D01*
X360184Y118372D01*
X360170Y118400D01*
X360142Y118428D01*
X360100Y118483D01*
X360031Y118636D01*
X360017Y118719D01*
X360003Y118816D01*
Y118844D01*
X360031Y118899D01*
X360059Y118941D01*
X360087Y118996D01*
X360142Y119052D01*
X360211Y119121D01*
X360225Y119135D01*
X360239Y119149D01*
X360295Y119177D01*
X360350Y119218D01*
X360419Y119260D01*
X360503Y119287D01*
X360600Y119301D01*
X360711Y119315D01*
X362111D01*
Y119814D01*
X362125Y119870D01*
X362139Y119925D01*
X362167Y119995D01*
X362195Y120078D01*
X362250Y120147D01*
X362319Y120217D01*
X362333Y120231D01*
X362347Y120244D01*
X362389Y120272D01*
X362444Y120314D01*
X362597Y120369D01*
X362694Y120383D01*
X362791Y120397D01*
X362805D01*
X362832D01*
X362888Y120383D01*
D02*
G37*
G36*
X363692Y114461D02*
X363845Y114406D01*
X363928Y114364D01*
X364011Y114309D01*
X364025Y114295D01*
X364081Y114226D01*
X364164Y114142D01*
X364247Y114017D01*
X364358Y113865D01*
X364469Y113685D01*
X364566Y113477D01*
X364663Y113255D01*
X364677Y113227D01*
X364691Y113144D01*
X364719Y113005D01*
X364760Y112825D01*
X364788Y112589D01*
X364816Y112312D01*
Y111590D01*
X364802Y111507D01*
X364788Y111396D01*
X364746Y111230D01*
X364691Y111050D01*
X364608Y110842D01*
X364497Y110606D01*
X364358Y110384D01*
X364178Y110148D01*
X363970Y109926D01*
X363706Y109718D01*
X363401Y109538D01*
X363221Y109455D01*
X363041Y109385D01*
X362846Y109316D01*
X362624Y109261D01*
X362389Y109219D01*
X362153Y109191D01*
X361889Y109164D01*
X361612D01*
X359185Y109150D01*
X359171D01*
X359143D01*
X359102D01*
X359046D01*
X358894Y109164D01*
X358700Y109177D01*
X358464Y109219D01*
X358200Y109275D01*
X357923Y109358D01*
X357632Y109469D01*
X357341Y109607D01*
X357063Y109774D01*
X356800Y109996D01*
X356564Y110259D01*
X356370Y110578D01*
X356287Y110744D01*
X356217Y110939D01*
X356162Y111147D01*
X356106Y111369D01*
X356092Y111604D01*
X356079Y111854D01*
Y112020D01*
X356092Y112104D01*
Y112201D01*
X356120Y112423D01*
X356148Y112672D01*
X356189Y112936D01*
X356245Y113172D01*
X356328Y113393D01*
Y113407D01*
X356342Y113421D01*
X356384Y113504D01*
X356453Y113615D01*
X356550Y113754D01*
X356661Y113893D01*
X356786Y114045D01*
X356938Y114170D01*
X357105Y114281D01*
X357119Y114295D01*
X357160Y114323D01*
X357230Y114350D01*
X357313Y114378D01*
X357424Y114392D01*
X357535D01*
X357660Y114350D01*
X357798Y114281D01*
X357812Y114267D01*
X357854Y114226D01*
X357895Y114156D01*
X357951Y114073D01*
X357992Y113962D01*
X358020Y113837D01*
Y113699D01*
X357979Y113546D01*
X357840Y113296D01*
X357826Y113282D01*
X357784Y113241D01*
X357729Y113172D01*
X357660Y113088D01*
X357590Y112977D01*
X357507Y112852D01*
X357438Y112714D01*
X357382Y112561D01*
Y112534D01*
X357368Y112464D01*
X357341Y112339D01*
Y112187D01*
X357327Y112007D01*
X357341Y111812D01*
X357368Y111590D01*
X357424Y111355D01*
Y111341D01*
X357438Y111313D01*
X357452Y111258D01*
X357493Y111202D01*
X357535Y111119D01*
X357590Y111036D01*
X357660Y110953D01*
X357743Y110856D01*
X357840Y110772D01*
X357965Y110675D01*
X358103Y110606D01*
X358270Y110536D01*
X358450Y110467D01*
X358658Y110439D01*
X358880Y110412D01*
X359143D01*
X361557Y110426D01*
X361584D01*
X361654D01*
X361765D01*
X361931D01*
X362111Y110453D01*
X362333Y110495D01*
X362583Y110550D01*
X362860Y110634D01*
X362874Y110647D01*
X362916Y110675D01*
X362985Y110717D01*
X363068Y110772D01*
X363165Y110856D01*
X363248Y110966D01*
X363318Y111091D01*
X363387Y111230D01*
Y111244D01*
X363401Y111258D01*
X363429Y111341D01*
X363457Y111452D01*
X363498Y111604D01*
X363540Y111798D01*
X363568Y111993D01*
X363595Y112215D01*
X363581Y112437D01*
Y112450D01*
X363568Y112506D01*
X363540Y112589D01*
X363512Y112686D01*
X363470Y112811D01*
X363415Y112936D01*
X363346Y113061D01*
X363262Y113199D01*
X363013Y113546D01*
X362999Y113560D01*
X362985Y113615D01*
X362971Y113699D01*
X362957Y113809D01*
Y113920D01*
X362985Y114059D01*
X363054Y114212D01*
X363151Y114350D01*
X363165Y114364D01*
X363221Y114392D01*
X363304Y114433D01*
X363415Y114461D01*
X363554Y114475D01*
X363692Y114461D01*
D02*
G37*
G36*
X404228Y101993D02*
X404325D01*
X404547Y101966D01*
X404797Y101938D01*
X405060Y101896D01*
X405296Y101841D01*
X405518Y101758D01*
X405532D01*
X405546Y101744D01*
X405629Y101702D01*
X405740Y101633D01*
X405879Y101536D01*
X406017Y101425D01*
X406170Y101300D01*
X406295Y101147D01*
X406406Y100981D01*
X406419Y100967D01*
X406447Y100926D01*
X406475Y100856D01*
X406503Y100773D01*
X406516Y100662D01*
Y100551D01*
X406475Y100426D01*
X406406Y100288D01*
X406392Y100274D01*
X406350Y100232D01*
X406281Y100190D01*
X406198Y100135D01*
X406087Y100093D01*
X405962Y100066D01*
X405823D01*
X405671Y100107D01*
X405421Y100246D01*
X405407Y100260D01*
X405365Y100302D01*
X405296Y100357D01*
X405213Y100426D01*
X405102Y100496D01*
X404977Y100579D01*
X404838Y100648D01*
X404686Y100704D01*
X404658D01*
X404589Y100717D01*
X404464Y100745D01*
X404311D01*
X404131Y100759D01*
X403937Y100745D01*
X403715Y100717D01*
X403479Y100662D01*
X403465D01*
X403438Y100648D01*
X403382Y100634D01*
X403327Y100593D01*
X403244Y100551D01*
X403160Y100496D01*
X403077Y100426D01*
X402980Y100343D01*
X402897Y100246D01*
X402800Y100121D01*
X402730Y99983D01*
X402661Y99816D01*
X402592Y99636D01*
X402564Y99428D01*
X402536Y99206D01*
Y98942D01*
X402550Y96529D01*
Y96502D01*
Y96432D01*
Y96321D01*
Y96155D01*
X402578Y95975D01*
X402620Y95753D01*
X402675Y95503D01*
X402758Y95226D01*
X402772Y95212D01*
X402800Y95170D01*
X402841Y95101D01*
X402897Y95018D01*
X402980Y94921D01*
X403091Y94837D01*
X403216Y94768D01*
X403354Y94699D01*
X403368D01*
X403382Y94685D01*
X403465Y94657D01*
X403576Y94629D01*
X403729Y94588D01*
X403923Y94546D01*
X404117Y94518D01*
X404339Y94491D01*
X404561Y94504D01*
X404575D01*
X404630Y94518D01*
X404714Y94546D01*
X404811Y94574D01*
X404935Y94615D01*
X405060Y94671D01*
X405185Y94740D01*
X405324Y94823D01*
X405671Y95073D01*
X405684Y95087D01*
X405740Y95101D01*
X405823Y95115D01*
X405934Y95128D01*
X406045D01*
X406184Y95101D01*
X406336Y95031D01*
X406475Y94934D01*
X406489Y94921D01*
X406516Y94865D01*
X406558Y94782D01*
X406586Y94671D01*
X406600Y94532D01*
X406586Y94394D01*
X406530Y94241D01*
X406489Y94158D01*
X406433Y94074D01*
X406419Y94061D01*
X406350Y94005D01*
X406267Y93922D01*
X406142Y93839D01*
X405989Y93728D01*
X405809Y93617D01*
X405601Y93520D01*
X405379Y93423D01*
X405352Y93409D01*
X405268Y93395D01*
X405130Y93367D01*
X404949Y93326D01*
X404714Y93298D01*
X404436Y93270D01*
X403715D01*
X403632Y93284D01*
X403521Y93298D01*
X403354Y93340D01*
X403174Y93395D01*
X402966Y93478D01*
X402730Y93589D01*
X402509Y93728D01*
X402273Y93908D01*
X402051Y94116D01*
X401843Y94380D01*
X401663Y94685D01*
X401579Y94865D01*
X401510Y95045D01*
X401441Y95239D01*
X401385Y95461D01*
X401344Y95697D01*
X401316Y95933D01*
X401288Y96196D01*
Y96474D01*
X401274Y98901D01*
Y98915D01*
Y98942D01*
Y98984D01*
Y99039D01*
X401288Y99192D01*
X401302Y99386D01*
X401344Y99622D01*
X401399Y99885D01*
X401482Y100163D01*
X401593Y100454D01*
X401732Y100745D01*
X401898Y101023D01*
X402120Y101286D01*
X402384Y101522D01*
X402703Y101716D01*
X402869Y101799D01*
X403063Y101869D01*
X403271Y101924D01*
X403493Y101980D01*
X403729Y101993D01*
X403979Y102007D01*
X404145D01*
X404228Y101993D01*
D02*
G37*
G36*
X410178D02*
X410289Y101980D01*
X410552Y101952D01*
X410844Y101882D01*
X411149Y101771D01*
X411440Y101619D01*
X411578Y101536D01*
X411717Y101425D01*
X411731Y101411D01*
X411759Y101383D01*
X411814Y101328D01*
X411870Y101244D01*
X411953Y101147D01*
X412022Y101037D01*
X412105Y100898D01*
X412189Y100745D01*
X412258Y100579D01*
X412313Y100385D01*
X412355Y100177D01*
X412383Y99955D01*
Y99705D01*
X412369Y99455D01*
X412313Y99192D01*
X412230Y98901D01*
Y98887D01*
X412216Y98873D01*
X412203Y98831D01*
X412161Y98776D01*
X412133Y98693D01*
X412078Y98596D01*
X412008Y98485D01*
X411939Y98360D01*
X411842Y98207D01*
X411745Y98041D01*
X411620Y97847D01*
X411481Y97625D01*
X411329Y97403D01*
X411162Y97140D01*
X410968Y96862D01*
X410760Y96557D01*
Y96543D01*
X410732Y96515D01*
X410705Y96474D01*
X410663Y96418D01*
X410622Y96335D01*
X410552Y96238D01*
X410483Y96127D01*
X410400Y95988D01*
X410303Y95850D01*
X410192Y95697D01*
X410067Y95517D01*
X409942Y95337D01*
X409651Y94921D01*
X409318Y94463D01*
X410871Y94449D01*
X411800D01*
X411925Y94435D01*
X412050Y94394D01*
X412189Y94338D01*
X412286Y94241D01*
X412369Y94102D01*
X412383Y94005D01*
Y93908D01*
Y93880D01*
X412369Y93825D01*
X412341Y93728D01*
X412286Y93617D01*
X412216Y93506D01*
X412092Y93409D01*
X411939Y93326D01*
X411842Y93298D01*
X411731Y93284D01*
X408000D01*
X407959Y93298D01*
X407903Y93326D01*
X407848Y93367D01*
X407779Y93423D01*
X407723Y93506D01*
X407668Y93603D01*
X407640Y93728D01*
Y93742D01*
X407626Y93797D01*
Y93894D01*
X407640Y94019D01*
X407682Y94172D01*
X407765Y94366D01*
X407820Y94463D01*
X407890Y94574D01*
X407973Y94699D01*
X408070Y94823D01*
X408084Y94837D01*
X408097Y94865D01*
X408139Y94921D01*
X408195Y94990D01*
X408250Y95073D01*
X408319Y95170D01*
X408486Y95392D01*
X408666Y95669D01*
X408874Y95947D01*
X409068Y96252D01*
X409263Y96543D01*
X409276Y96557D01*
X409290Y96585D01*
X409318Y96626D01*
X409360Y96696D01*
X409415Y96779D01*
X409470Y96862D01*
X409609Y97070D01*
X409762Y97306D01*
X409928Y97556D01*
X410081Y97791D01*
X410233Y98013D01*
X410247Y98027D01*
X410261Y98055D01*
X410303Y98110D01*
X410358Y98180D01*
X410414Y98277D01*
X410483Y98374D01*
X410635Y98596D01*
X410788Y98831D01*
X410941Y99081D01*
X411065Y99303D01*
X411107Y99400D01*
X411149Y99483D01*
Y99497D01*
Y99511D01*
X411162Y99580D01*
X411176Y99691D01*
Y99844D01*
X411149Y99996D01*
X411093Y100177D01*
X410996Y100357D01*
X410941Y100454D01*
X410857Y100537D01*
X410844Y100551D01*
X410774Y100593D01*
X410677Y100662D01*
X410552Y100717D01*
X410372Y100773D01*
X410178Y100828D01*
X409956Y100842D01*
X409692Y100828D01*
X409665D01*
X409581Y100815D01*
X409470Y100759D01*
X409332Y100676D01*
X409249Y100620D01*
X409165Y100551D01*
X409096Y100454D01*
X409013Y100343D01*
X408943Y100218D01*
X408874Y100080D01*
X408805Y99913D01*
X408749Y99719D01*
X408736Y99705D01*
X408708Y99650D01*
X408666Y99580D01*
X408597Y99511D01*
X408500Y99428D01*
X408389Y99372D01*
X408264Y99331D01*
X408111Y99317D01*
X408084Y99331D01*
X408028Y99345D01*
X407959Y99386D01*
X407862Y99442D01*
X407765Y99511D01*
X407682Y99608D01*
X407626Y99719D01*
X407598Y99858D01*
Y99872D01*
Y99913D01*
Y99983D01*
Y100080D01*
X407612Y100190D01*
X407640Y100315D01*
X407668Y100454D01*
X407723Y100607D01*
X407737Y100620D01*
X407751Y100676D01*
X407792Y100759D01*
X407862Y100870D01*
X407945Y100995D01*
X408056Y101134D01*
X408195Y101300D01*
X408375Y101453D01*
X408403Y101480D01*
X408486Y101536D01*
X408611Y101619D01*
X408777Y101716D01*
X408999Y101813D01*
X409263Y101910D01*
X409554Y101966D01*
X409887Y102007D01*
X410081D01*
X410178Y101993D01*
D02*
G37*
G36*
X112557Y174259D02*
X112654D01*
X112876Y174232D01*
X113126Y174204D01*
X113390Y174162D01*
X113625Y174107D01*
X113847Y174024D01*
X113861D01*
X113875Y174010D01*
X113958Y173968D01*
X114069Y173899D01*
X114208Y173802D01*
X114346Y173691D01*
X114499Y173566D01*
X114624Y173413D01*
X114735Y173247D01*
X114749Y173233D01*
X114776Y173192D01*
X114804Y173122D01*
X114832Y173039D01*
X114846Y172928D01*
Y172817D01*
X114804Y172692D01*
X114735Y172554D01*
X114721Y172540D01*
X114679Y172498D01*
X114610Y172456D01*
X114527Y172401D01*
X114416Y172359D01*
X114291Y172332D01*
X114152D01*
X114000Y172373D01*
X113750Y172512D01*
X113736Y172526D01*
X113695Y172567D01*
X113625Y172623D01*
X113542Y172692D01*
X113431Y172762D01*
X113306Y172845D01*
X113168Y172914D01*
X113015Y172970D01*
X112987D01*
X112918Y172983D01*
X112793Y173011D01*
X112641D01*
X112460Y173025D01*
X112266Y173011D01*
X112044Y172983D01*
X111809Y172928D01*
X111795D01*
X111767Y172914D01*
X111711Y172900D01*
X111656Y172859D01*
X111573Y172817D01*
X111489Y172762D01*
X111406Y172692D01*
X111309Y172609D01*
X111226Y172512D01*
X111129Y172387D01*
X111060Y172248D01*
X110990Y172082D01*
X110921Y171902D01*
X110893Y171694D01*
X110865Y171472D01*
Y171208D01*
X110879Y168795D01*
Y168768D01*
Y168698D01*
Y168587D01*
Y168421D01*
X110907Y168241D01*
X110949Y168019D01*
X111004Y167769D01*
X111087Y167492D01*
X111101Y167478D01*
X111129Y167436D01*
X111171Y167367D01*
X111226Y167284D01*
X111309Y167187D01*
X111420Y167103D01*
X111545Y167034D01*
X111684Y166965D01*
X111698D01*
X111711Y166951D01*
X111795Y166923D01*
X111906Y166895D01*
X112058Y166854D01*
X112252Y166812D01*
X112446Y166784D01*
X112668Y166757D01*
X112890Y166770D01*
X112904D01*
X112960Y166784D01*
X113043Y166812D01*
X113140Y166840D01*
X113265Y166881D01*
X113390Y166937D01*
X113514Y167006D01*
X113653Y167089D01*
X114000Y167339D01*
X114014Y167353D01*
X114069Y167367D01*
X114152Y167381D01*
X114263Y167395D01*
X114374D01*
X114513Y167367D01*
X114665Y167297D01*
X114804Y167200D01*
X114818Y167187D01*
X114846Y167131D01*
X114887Y167048D01*
X114915Y166937D01*
X114929Y166798D01*
X114915Y166660D01*
X114860Y166507D01*
X114818Y166424D01*
X114762Y166341D01*
X114749Y166327D01*
X114679Y166271D01*
X114596Y166188D01*
X114471Y166105D01*
X114319Y165994D01*
X114138Y165883D01*
X113930Y165786D01*
X113708Y165689D01*
X113681Y165675D01*
X113597Y165661D01*
X113459Y165633D01*
X113279Y165592D01*
X113043Y165564D01*
X112765Y165536D01*
X112044D01*
X111961Y165550D01*
X111850Y165564D01*
X111684Y165606D01*
X111503Y165661D01*
X111295Y165744D01*
X111060Y165855D01*
X110838Y165994D01*
X110602Y166174D01*
X110380Y166382D01*
X110172Y166646D01*
X109992Y166951D01*
X109909Y167131D01*
X109839Y167311D01*
X109770Y167505D01*
X109714Y167727D01*
X109673Y167963D01*
X109645Y168199D01*
X109617Y168462D01*
Y168740D01*
X109603Y171167D01*
Y171181D01*
Y171208D01*
Y171250D01*
Y171305D01*
X109617Y171458D01*
X109631Y171652D01*
X109673Y171888D01*
X109728Y172151D01*
X109811Y172429D01*
X109922Y172720D01*
X110061Y173011D01*
X110227Y173289D01*
X110449Y173552D01*
X110713Y173788D01*
X111032Y173982D01*
X111198Y174065D01*
X111392Y174135D01*
X111601Y174190D01*
X111822Y174245D01*
X112058Y174259D01*
X112308Y174273D01*
X112474D01*
X112557Y174259D01*
D02*
G37*
G36*
X118354D02*
X118438Y174245D01*
X118535Y174232D01*
X118784Y174176D01*
X119048Y174093D01*
X119339Y173954D01*
X119478Y173871D01*
X119616Y173760D01*
X119755Y173649D01*
X119880Y173510D01*
X119894Y173483D01*
X119949Y173400D01*
X120019Y173261D01*
X120102Y173081D01*
X120185Y172859D01*
X120254Y172609D01*
X120310Y172304D01*
X120324Y171985D01*
Y171971D01*
Y171916D01*
Y171832D01*
X120310Y171735D01*
X120296Y171611D01*
X120268Y171472D01*
X120227Y171305D01*
X120185Y171139D01*
X120130Y170973D01*
X120046Y170792D01*
X119949Y170626D01*
X119838Y170459D01*
X119700Y170307D01*
X119533Y170154D01*
X119339Y170030D01*
X119131Y169919D01*
X119145D01*
X119186Y169891D01*
X119256Y169863D01*
X119353Y169821D01*
X119450Y169766D01*
X119575Y169697D01*
X119700Y169600D01*
X119824Y169503D01*
X119949Y169378D01*
X120074Y169239D01*
X120185Y169073D01*
X120296Y168906D01*
X120379Y168698D01*
X120435Y168476D01*
X120476Y168241D01*
X120490Y167977D01*
Y167963D01*
Y167935D01*
Y167880D01*
Y167797D01*
X120476Y167714D01*
X120462Y167616D01*
X120421Y167367D01*
X120351Y167103D01*
X120240Y166826D01*
X120074Y166549D01*
X119977Y166424D01*
X119866Y166299D01*
X119852Y166285D01*
X119838Y166271D01*
X119797Y166230D01*
X119727Y166188D01*
X119658Y166133D01*
X119575Y166063D01*
X119464Y165994D01*
X119353Y165924D01*
X119089Y165786D01*
X118771Y165661D01*
X118410Y165578D01*
X118216Y165564D01*
X118008Y165550D01*
X117966D01*
X117911Y165564D01*
X117827Y165578D01*
X117744Y165592D01*
X117633Y165619D01*
X117384Y165675D01*
X117120Y165786D01*
X116829Y165924D01*
X116690Y166022D01*
X116552Y166133D01*
X116427Y166243D01*
X116302Y166382D01*
X116288Y166396D01*
X116260Y166438D01*
X116219Y166507D01*
X116163Y166590D01*
X116108Y166701D01*
X116052Y166812D01*
X116011Y166951D01*
X115983Y167089D01*
Y167103D01*
Y167131D01*
X115997Y167187D01*
X116011Y167242D01*
X116066Y167395D01*
X116108Y167464D01*
X116163Y167519D01*
X116177Y167533D01*
X116191Y167547D01*
X116274Y167603D01*
X116399Y167658D01*
X116482Y167686D01*
X116635D01*
X116718Y167672D01*
X116815Y167644D01*
X116926Y167603D01*
X117023Y167533D01*
X117120Y167436D01*
X117190Y167311D01*
X117203Y167284D01*
X117259Y167214D01*
X117342Y167117D01*
X117439Y167006D01*
X117578Y166895D01*
X117730Y166798D01*
X117911Y166743D01*
X118008Y166715D01*
X118174D01*
X118257Y166729D01*
X118354Y166757D01*
X118465Y166784D01*
X118590Y166840D01*
X118701Y166909D01*
X118826Y167006D01*
X118840Y167034D01*
X118895Y167089D01*
X118965Y167200D01*
X119048Y167339D01*
X119117Y167505D01*
X119173Y167700D01*
X119186Y167922D01*
X119173Y168046D01*
X119159Y168171D01*
Y168185D01*
X119145Y168227D01*
X119117Y168268D01*
X119076Y168351D01*
X118979Y168518D01*
X118854Y168726D01*
X118673Y168920D01*
X118562Y169017D01*
X118451Y169100D01*
X118341Y169156D01*
X118202Y169211D01*
X118063Y169239D01*
X117883D01*
X117814Y169253D01*
X117730Y169281D01*
X117619Y169336D01*
X117522Y169419D01*
X117425Y169530D01*
X117370Y169669D01*
X117342Y169766D01*
Y169863D01*
Y169877D01*
Y169891D01*
Y169974D01*
X117356Y170099D01*
X117384Y170238D01*
X117467Y170376D01*
X117522Y170446D01*
X117578Y170501D01*
X117661Y170557D01*
X117758Y170612D01*
X117869Y170640D01*
X118008Y170667D01*
X118049D01*
X118105Y170681D01*
X118174Y170695D01*
X118341Y170737D01*
X118438Y170778D01*
X118535Y170834D01*
X118632Y170903D01*
X118715Y171000D01*
X118812Y171097D01*
X118881Y171236D01*
X118951Y171375D01*
X119006Y171555D01*
X119034Y171749D01*
X119048Y171985D01*
Y171999D01*
Y172027D01*
Y172068D01*
Y172124D01*
X119020Y172276D01*
X118979Y172470D01*
X118895Y172665D01*
X118771Y172845D01*
X118687Y172928D01*
X118604Y173011D01*
X118493Y173067D01*
X118368Y173122D01*
X118327D01*
X118285Y173136D01*
X118230D01*
X118077Y173122D01*
X117883Y173094D01*
X117675Y173025D01*
X117578Y172983D01*
X117467Y172914D01*
X117370Y172831D01*
X117273Y172734D01*
X117190Y172609D01*
X117106Y172470D01*
X117092Y172443D01*
X117065Y172387D01*
X116995Y172304D01*
X116912Y172207D01*
X116801Y172124D01*
X116663Y172068D01*
X116482Y172040D01*
X116385D01*
X116288Y172068D01*
X116274Y172082D01*
X116219Y172096D01*
X116149Y172151D01*
X116066Y172221D01*
X115983Y172318D01*
X115927Y172443D01*
X115900Y172609D01*
Y172803D01*
Y172817D01*
X115914Y172859D01*
X115941Y172914D01*
X115969Y172997D01*
X116011Y173094D01*
X116080Y173205D01*
X116149Y173316D01*
X116246Y173441D01*
X116260Y173455D01*
X116274Y173483D01*
X116302Y173524D01*
X116357Y173580D01*
X116427Y173649D01*
X116496Y173718D01*
X116593Y173802D01*
X116704Y173885D01*
X116829Y173954D01*
X116968Y174037D01*
X117120Y174107D01*
X117300Y174162D01*
X117495Y174218D01*
X117703Y174259D01*
X117924Y174273D01*
X118271D01*
X118354Y174259D01*
D02*
G37*
G36*
X128236Y109044D02*
X128333D01*
X128555Y109016D01*
X128805Y108988D01*
X129068Y108947D01*
X129304Y108891D01*
X129526Y108808D01*
X129540D01*
X129554Y108794D01*
X129637Y108753D01*
X129748Y108683D01*
X129887Y108586D01*
X130025Y108475D01*
X130178Y108350D01*
X130303Y108198D01*
X130414Y108031D01*
X130428Y108018D01*
X130455Y107976D01*
X130483Y107907D01*
X130511Y107823D01*
X130525Y107712D01*
Y107601D01*
X130483Y107477D01*
X130414Y107338D01*
X130400Y107324D01*
X130358Y107282D01*
X130289Y107241D01*
X130206Y107185D01*
X130095Y107144D01*
X129970Y107116D01*
X129831D01*
X129679Y107158D01*
X129429Y107296D01*
X129415Y107310D01*
X129374Y107352D01*
X129304Y107407D01*
X129221Y107477D01*
X129110Y107546D01*
X128985Y107629D01*
X128847Y107699D01*
X128694Y107754D01*
X128666D01*
X128597Y107768D01*
X128472Y107796D01*
X128320D01*
X128139Y107809D01*
X127945Y107796D01*
X127723Y107768D01*
X127487Y107712D01*
X127474D01*
X127446Y107699D01*
X127390Y107685D01*
X127335Y107643D01*
X127252Y107601D01*
X127169Y107546D01*
X127085Y107477D01*
X126988Y107394D01*
X126905Y107296D01*
X126808Y107172D01*
X126739Y107033D01*
X126669Y106867D01*
X126600Y106686D01*
X126572Y106478D01*
X126544Y106256D01*
Y105993D01*
X126558Y103580D01*
Y103552D01*
Y103483D01*
Y103372D01*
Y103205D01*
X126586Y103025D01*
X126628Y102803D01*
X126683Y102553D01*
X126766Y102276D01*
X126780Y102262D01*
X126808Y102221D01*
X126849Y102151D01*
X126905Y102068D01*
X126988Y101971D01*
X127099Y101888D01*
X127224Y101818D01*
X127363Y101749D01*
X127376D01*
X127390Y101735D01*
X127474Y101707D01*
X127585Y101680D01*
X127737Y101638D01*
X127931Y101596D01*
X128125Y101569D01*
X128347Y101541D01*
X128569Y101555D01*
X128583D01*
X128639Y101569D01*
X128722Y101596D01*
X128819Y101624D01*
X128944Y101666D01*
X129068Y101721D01*
X129193Y101791D01*
X129332Y101874D01*
X129679Y102123D01*
X129693Y102137D01*
X129748Y102151D01*
X129831Y102165D01*
X129942Y102179D01*
X130053D01*
X130192Y102151D01*
X130344Y102082D01*
X130483Y101985D01*
X130497Y101971D01*
X130525Y101916D01*
X130566Y101832D01*
X130594Y101721D01*
X130608Y101583D01*
X130594Y101444D01*
X130539Y101291D01*
X130497Y101208D01*
X130441Y101125D01*
X130428Y101111D01*
X130358Y101056D01*
X130275Y100972D01*
X130150Y100889D01*
X129998Y100778D01*
X129817Y100667D01*
X129609Y100570D01*
X129387Y100473D01*
X129360Y100459D01*
X129277Y100445D01*
X129138Y100418D01*
X128958Y100376D01*
X128722Y100348D01*
X128444Y100321D01*
X127723D01*
X127640Y100335D01*
X127529Y100348D01*
X127363Y100390D01*
X127182Y100445D01*
X126974Y100529D01*
X126739Y100640D01*
X126517Y100778D01*
X126281Y100958D01*
X126059Y101167D01*
X125851Y101430D01*
X125671Y101735D01*
X125588Y101916D01*
X125518Y102096D01*
X125449Y102290D01*
X125393Y102512D01*
X125352Y102748D01*
X125324Y102983D01*
X125296Y103247D01*
Y103524D01*
X125282Y105951D01*
Y105965D01*
Y105993D01*
Y106034D01*
Y106090D01*
X125296Y106242D01*
X125310Y106437D01*
X125352Y106672D01*
X125407Y106936D01*
X125490Y107213D01*
X125601Y107504D01*
X125740Y107796D01*
X125906Y108073D01*
X126128Y108336D01*
X126392Y108572D01*
X126711Y108766D01*
X126877Y108850D01*
X127071Y108919D01*
X127280Y108975D01*
X127501Y109030D01*
X127737Y109044D01*
X127987Y109058D01*
X128153D01*
X128236Y109044D01*
D02*
G37*
G36*
X134186D02*
X134241Y109030D01*
X134394Y108975D01*
X134477Y108933D01*
X134560Y108863D01*
X134574Y108850D01*
X134588Y108822D01*
X134616Y108780D01*
X134657Y108725D01*
X134727Y108572D01*
X134741Y108489D01*
X134754Y108392D01*
Y100931D01*
Y100917D01*
Y100889D01*
Y100848D01*
X134741Y100792D01*
X134699Y100653D01*
X134616Y100515D01*
X134602Y100501D01*
X134588Y100487D01*
X134546Y100459D01*
X134491Y100418D01*
X134422Y100376D01*
X134325Y100348D01*
X134228Y100335D01*
X134103Y100321D01*
X134033D01*
X133964Y100335D01*
X133881Y100348D01*
X133687Y100404D01*
X133603Y100445D01*
X133534Y100515D01*
X133520Y100542D01*
X133479Y100612D01*
X133437Y100737D01*
X133409Y100903D01*
Y107227D01*
X132508Y106672D01*
X132494D01*
X132466Y106645D01*
X132425Y106631D01*
X132369Y106603D01*
X132217Y106561D01*
X132133D01*
X132036Y106575D01*
X132022D01*
X131995Y106589D01*
X131939Y106603D01*
X131884Y106631D01*
X131828Y106658D01*
X131759Y106714D01*
X131690Y106769D01*
X131634Y106853D01*
Y106867D01*
X131606Y106894D01*
X131593Y106936D01*
X131565Y106991D01*
X131523Y107144D01*
Y107241D01*
X131537Y107338D01*
Y107352D01*
X131551Y107380D01*
X131565Y107421D01*
X131593Y107477D01*
X131620Y107546D01*
X131676Y107615D01*
X131731Y107685D01*
X131814Y107740D01*
X133687Y108933D01*
X133701D01*
X133714Y108947D01*
X133798Y109002D01*
X133922Y109044D01*
X134089Y109058D01*
X134130D01*
X134186Y109044D01*
D02*
G37*
%LPC*%
G36*
X25258Y302185D02*
X24093D01*
Y300641D01*
X25360D01*
X25415Y300650D01*
X25480D01*
X25554Y300668D01*
X25702Y300705D01*
X25785Y300742D01*
X25859Y300779D01*
X25933Y300835D01*
X25998Y300900D01*
X26053Y300973D01*
X26100Y301066D01*
X26127Y301168D01*
X26146Y301288D01*
Y301464D01*
Y301473D01*
Y301491D01*
Y301528D01*
X26137Y301574D01*
X26100Y301695D01*
X26081Y301759D01*
X26044Y301824D01*
X25998Y301889D01*
X25933Y301954D01*
X25868Y302018D01*
X25776Y302074D01*
X25674Y302120D01*
X25554Y302157D01*
X25415Y302175D01*
X25258Y302185D01*
D02*
G37*
G36*
X25471Y299670D02*
X24093D01*
X24084Y298172D01*
X25397Y298163D01*
X25425D01*
X25462Y298172D01*
X25508Y298181D01*
X25628Y298209D01*
X25767Y298265D01*
X25841Y298302D01*
X25905Y298348D01*
X25970Y298403D01*
X26035Y298468D01*
X26090Y298542D01*
X26127Y298634D01*
X26164Y298736D01*
X26183Y298847D01*
Y298893D01*
Y298902D01*
Y298921D01*
Y298949D01*
X26174Y298995D01*
X26164Y299097D01*
X26127Y299217D01*
X26072Y299346D01*
X25979Y299466D01*
X25924Y299531D01*
X25859Y299577D01*
X25785Y299614D01*
X25693Y299651D01*
X25665D01*
X25628Y299661D01*
X25582D01*
X25471Y299670D01*
D02*
G37*
G36*
X44556Y284786D02*
X44380D01*
X44371D01*
X44353D01*
X44316D01*
X44269Y284776D01*
X44149Y284739D01*
X44085Y284721D01*
X44020Y284684D01*
X43955Y284638D01*
X43890Y284573D01*
X43826Y284508D01*
X43770Y284416D01*
X43724Y284314D01*
X43687Y284194D01*
X43668Y284055D01*
X43659Y283898D01*
Y282733D01*
X45203D01*
Y284000D01*
X45194Y284055D01*
Y284120D01*
X45175Y284194D01*
X45139Y284342D01*
X45101Y284425D01*
X45065Y284499D01*
X45009Y284573D01*
X44944Y284638D01*
X44870Y284693D01*
X44778Y284739D01*
X44676Y284767D01*
X44556Y284786D01*
D02*
G37*
G36*
X46997Y284823D02*
X46951D01*
X46941D01*
X46923D01*
X46895D01*
X46849Y284813D01*
X46747Y284804D01*
X46627Y284767D01*
X46498Y284712D01*
X46377Y284619D01*
X46313Y284564D01*
X46266Y284499D01*
X46230Y284425D01*
X46192Y284333D01*
Y284305D01*
X46183Y284268D01*
Y284222D01*
X46174Y284111D01*
Y282733D01*
X47672Y282724D01*
X47681Y284037D01*
Y284065D01*
X47672Y284102D01*
X47663Y284148D01*
X47635Y284268D01*
X47579Y284407D01*
X47542Y284481D01*
X47496Y284545D01*
X47441Y284610D01*
X47376Y284675D01*
X47302Y284730D01*
X47210Y284767D01*
X47108Y284804D01*
X46997Y284823D01*
D02*
G37*
G36*
X8674Y302325D02*
X7509D01*
Y300781D01*
X8775D01*
X8831Y300790D01*
X8895D01*
X8970Y300809D01*
X9117Y300846D01*
X9201Y300883D01*
X9275Y300919D01*
X9348Y300975D01*
X9413Y301040D01*
X9469Y301114D01*
X9515Y301206D01*
X9543Y301308D01*
X9561Y301428D01*
Y301604D01*
Y301613D01*
Y301632D01*
Y301668D01*
X9552Y301715D01*
X9515Y301835D01*
X9496Y301900D01*
X9459Y301964D01*
X9413Y302029D01*
X9348Y302094D01*
X9284Y302159D01*
X9191Y302214D01*
X9090Y302260D01*
X8970Y302297D01*
X8831Y302316D01*
X8674Y302325D01*
D02*
G37*
G36*
X8886Y299810D02*
X7509D01*
X7499Y298312D01*
X8812Y298303D01*
X8840D01*
X8877Y298312D01*
X8923Y298321D01*
X9043Y298349D01*
X9182Y298405D01*
X9256Y298442D01*
X9321Y298488D01*
X9385Y298543D01*
X9450Y298608D01*
X9506Y298682D01*
X9543Y298775D01*
X9580Y298876D01*
X9598Y298987D01*
Y299033D01*
Y299043D01*
Y299061D01*
Y299089D01*
X9589Y299135D01*
X9580Y299237D01*
X9543Y299357D01*
X9487Y299487D01*
X9395Y299607D01*
X9339Y299671D01*
X9275Y299718D01*
X9201Y299755D01*
X9108Y299792D01*
X9080D01*
X9043Y299801D01*
X8997D01*
X8886Y299810D01*
D02*
G37*
G36*
X-7343Y304534D02*
X-7519D01*
X-7528D01*
X-7546D01*
X-7583D01*
X-7629Y304525D01*
X-7750Y304488D01*
X-7814Y304469D01*
X-7879Y304433D01*
X-7944Y304386D01*
X-8008Y304321D01*
X-8073Y304257D01*
X-8129Y304164D01*
X-8175Y304063D01*
X-8212Y303942D01*
X-8230Y303804D01*
X-8240Y303647D01*
Y302482D01*
X-6696D01*
Y303748D01*
X-6705Y303804D01*
Y303869D01*
X-6723Y303942D01*
X-6760Y304090D01*
X-6797Y304174D01*
X-6834Y304247D01*
X-6890Y304321D01*
X-6955Y304386D01*
X-7028Y304442D01*
X-7121Y304488D01*
X-7223Y304516D01*
X-7343Y304534D01*
D02*
G37*
G36*
X-4902Y304571D02*
X-4948D01*
X-4958D01*
X-4976D01*
X-5004D01*
X-5050Y304562D01*
X-5152Y304553D01*
X-5272Y304516D01*
X-5401Y304460D01*
X-5522Y304368D01*
X-5586Y304312D01*
X-5632Y304247D01*
X-5669Y304174D01*
X-5706Y304081D01*
Y304053D01*
X-5716Y304016D01*
Y303970D01*
X-5725Y303859D01*
Y302482D01*
X-4227Y302472D01*
X-4218Y303785D01*
Y303813D01*
X-4227Y303850D01*
X-4236Y303896D01*
X-4264Y304016D01*
X-4320Y304155D01*
X-4356Y304229D01*
X-4403Y304294D01*
X-4458Y304359D01*
X-4523Y304423D01*
X-4597Y304479D01*
X-4689Y304516D01*
X-4791Y304553D01*
X-4902Y304571D01*
D02*
G37*
G36*
X9253Y238925D02*
X7034D01*
Y236539D01*
X9322D01*
X9433Y236553D01*
X9585Y236567D01*
X9766Y236609D01*
X9946Y236664D01*
X10140Y236747D01*
X10320Y236859D01*
X10334Y236872D01*
X10390Y236914D01*
X10459Y236983D01*
X10542Y237066D01*
X10625Y237191D01*
X10695Y237330D01*
X10737Y237510D01*
X10750Y237705D01*
Y237774D01*
Y237788D01*
Y237829D01*
Y237885D01*
X10737Y237954D01*
X10681Y238148D01*
X10639Y238245D01*
X10584Y238356D01*
X10501Y238467D01*
X10404Y238564D01*
X10279Y238661D01*
X10140Y238745D01*
X9960Y238828D01*
X9766Y238883D01*
X9530Y238911D01*
X9253Y238925D01*
D02*
G37*
G36*
X-2418Y236791D02*
X-2612Y236777D01*
X-2640D01*
X-2709Y236763D01*
X-2820Y236736D01*
X-2945Y236694D01*
X-3084Y236625D01*
X-3236Y236541D01*
X-3375Y236417D01*
X-3500Y236278D01*
X-3514Y236264D01*
X-3541Y236209D01*
X-3583Y236112D01*
X-3625Y236000D01*
X-3666Y235848D01*
X-3708Y235682D01*
X-3736Y235501D01*
Y235293D01*
Y235279D01*
Y235266D01*
Y235224D01*
Y235168D01*
X-3722Y235044D01*
X-3680Y234877D01*
X-3639Y234683D01*
X-3555Y234475D01*
X-3444Y234267D01*
X-3306Y234073D01*
X-3292Y234059D01*
X-3250Y234017D01*
X-3195Y233962D01*
X-3098Y233892D01*
X-2987Y233823D01*
X-2848Y233754D01*
X-2696Y233712D01*
X-2515Y233685D01*
X-2488D01*
X-2432Y233698D01*
X-2335Y233726D01*
X-2224Y233768D01*
X-2085Y233823D01*
X-1947Y233892D01*
X-1808Y234004D01*
X-1683Y234128D01*
X-1669Y234142D01*
X-1628Y234198D01*
X-1572Y234295D01*
X-1503Y234406D01*
X-1447Y234558D01*
X-1378Y234725D01*
X-1323Y234933D01*
X-1295Y235155D01*
Y235168D01*
Y235196D01*
Y235238D01*
Y235293D01*
Y235446D01*
X-1323Y235626D01*
X-1364Y235834D01*
X-1434Y236056D01*
X-1531Y236278D01*
X-1683Y236472D01*
X-1697Y236486D01*
X-1752Y236528D01*
X-1836Y236583D01*
X-1947Y236652D01*
X-2085Y236708D01*
X-2238Y236763D01*
X-2418Y236791D01*
D02*
G37*
G36*
X-8895Y239745D02*
X-11114D01*
Y237360D01*
X-8825D01*
X-8715Y237374D01*
X-8562Y237387D01*
X-8382Y237429D01*
X-8201Y237484D01*
X-8007Y237568D01*
X-7827Y237679D01*
X-7813Y237693D01*
X-7757Y237734D01*
X-7688Y237803D01*
X-7605Y237887D01*
X-7522Y238011D01*
X-7452Y238150D01*
X-7411Y238330D01*
X-7397Y238525D01*
Y238594D01*
Y238608D01*
Y238649D01*
Y238705D01*
X-7411Y238774D01*
X-7466Y238968D01*
X-7508Y239065D01*
X-7563Y239176D01*
X-7647Y239287D01*
X-7744Y239384D01*
X-7868Y239482D01*
X-8007Y239565D01*
X-8188Y239648D01*
X-8382Y239703D01*
X-8617Y239731D01*
X-8895Y239745D01*
D02*
G37*
G36*
X77889Y172721D02*
X77820D01*
X77806D01*
X77764D01*
X77709D01*
X77639Y172707D01*
X77445Y172652D01*
X77348Y172610D01*
X77237Y172555D01*
X77126Y172471D01*
X77029Y172374D01*
X76932Y172250D01*
X76849Y172111D01*
X76766Y171931D01*
X76710Y171736D01*
X76682Y171501D01*
X76669Y171223D01*
Y169004D01*
X79054D01*
Y171292D01*
X79040Y171404D01*
X79026Y171556D01*
X78984Y171736D01*
X78929Y171917D01*
X78846Y172111D01*
X78735Y172291D01*
X78721Y172305D01*
X78679Y172360D01*
X78610Y172430D01*
X78527Y172513D01*
X78402Y172596D01*
X78263Y172666D01*
X78083Y172707D01*
X77889Y172721D01*
D02*
G37*
G36*
X16276Y145843D02*
X14057D01*
Y143458D01*
X16345D01*
X16456Y143472D01*
X16608Y143486D01*
X16789Y143527D01*
X16969Y143583D01*
X17163Y143666D01*
X17343Y143777D01*
X17357Y143791D01*
X17413Y143832D01*
X17482Y143902D01*
X17565Y143985D01*
X17649Y144110D01*
X17718Y144248D01*
X17759Y144429D01*
X17773Y144623D01*
Y144692D01*
Y144706D01*
Y144748D01*
Y144803D01*
X17759Y144873D01*
X17704Y145067D01*
X17662Y145164D01*
X17607Y145275D01*
X17524Y145386D01*
X17427Y145483D01*
X17302Y145580D01*
X17163Y145663D01*
X16983Y145746D01*
X16789Y145802D01*
X16553Y145829D01*
X16276Y145843D01*
D02*
G37*
G36*
X71360Y109092D02*
X69141D01*
Y106706D01*
X71429D01*
X71540Y106720D01*
X71693Y106734D01*
X71873Y106776D01*
X72053Y106831D01*
X72248Y106914D01*
X72428Y107025D01*
X72442Y107039D01*
X72497Y107081D01*
X72566Y107150D01*
X72650Y107233D01*
X72733Y107358D01*
X72802Y107497D01*
X72844Y107677D01*
X72858Y107871D01*
Y107941D01*
Y107954D01*
Y107996D01*
Y108051D01*
X72844Y108121D01*
X72788Y108315D01*
X72747Y108412D01*
X72691Y108523D01*
X72608Y108634D01*
X72511Y108731D01*
X72386Y108828D01*
X72248Y108911D01*
X72067Y108995D01*
X71873Y109050D01*
X71637Y109078D01*
X71360Y109092D01*
D02*
G37*
G36*
X261286Y108422D02*
X259067D01*
Y106037D01*
X261355D01*
X261466Y106051D01*
X261618Y106065D01*
X261799Y106106D01*
X261979Y106162D01*
X262173Y106245D01*
X262353Y106356D01*
X262367Y106370D01*
X262423Y106411D01*
X262492Y106481D01*
X262575Y106564D01*
X262659Y106689D01*
X262728Y106827D01*
X262770Y107008D01*
X262783Y107202D01*
Y107271D01*
Y107285D01*
Y107326D01*
Y107382D01*
X262770Y107451D01*
X262714Y107646D01*
X262673Y107743D01*
X262617Y107853D01*
X262534Y107964D01*
X262437Y108062D01*
X262312Y108159D01*
X262173Y108242D01*
X261993Y108325D01*
X261799Y108380D01*
X261563Y108408D01*
X261286Y108422D01*
D02*
G37*
G36*
X15781Y119428D02*
X15711D01*
X15697D01*
X15656D01*
X15600D01*
X15531Y119414D01*
X15337Y119359D01*
X15240Y119317D01*
X15129Y119262D01*
X15018Y119179D01*
X14921Y119082D01*
X14824Y118957D01*
X14740Y118818D01*
X14657Y118638D01*
X14602Y118444D01*
X14574Y118208D01*
X14560Y117930D01*
Y115712D01*
X16946D01*
Y118000D01*
X16932Y118111D01*
X16918Y118263D01*
X16876Y118444D01*
X16821Y118624D01*
X16737Y118818D01*
X16626Y118998D01*
X16613Y119012D01*
X16571Y119068D01*
X16502Y119137D01*
X16418Y119220D01*
X16294Y119304D01*
X16155Y119373D01*
X15975Y119414D01*
X15781Y119428D01*
D02*
G37*
%LPD*%
D10*
X14181Y253099D02*
G03*
X14181Y253099I-12700J0D01*
G01*
X28171Y215000D02*
G03*
X28171Y215000I0J12700D01*
G01*
X59204Y155144D02*
G03*
X59204Y155144I0J12700D01*
G01*
X30710Y171450D02*
G03*
X30710Y171450I0J-12700D01*
G01*
X299720Y109220D02*
G03*
X299720Y109220I-12700J0D01*
G01*
X60158Y108436D02*
G03*
X60158Y108436I0J12700D01*
G01*
X30782Y117790D02*
G03*
X30783Y117790I0J-12700D01*
G01*
X15082Y24466D02*
Y37166D01*
Y24466D02*
X21432Y30816D01*
X15082Y37166D02*
X21432Y30816D01*
X242920Y23747D02*
Y36447D01*
Y23747D02*
X249270Y30097D01*
X242920Y36447D02*
X249270Y30097D01*
D11*
X191370Y152712D02*
G03*
X191370Y152712I0J-17000D01*
G01*
X412496Y104597D02*
Y173177D01*
X392430Y104597D02*
X412496D01*
X392430D02*
Y173177D01*
X412496D01*
X148190Y102184D02*
Y169240D01*
Y102184D02*
X234550D01*
Y169240D01*
X148190D02*
X234550D01*
X388005Y104822D02*
Y173402D01*
X367939Y104822D02*
X388005D01*
X367939D02*
Y173402D01*
X388005D01*
X144964Y140963D02*
Y161029D01*
X76384D02*
X144964D01*
X76384Y140963D02*
Y161029D01*
Y140963D02*
X144964D01*
X75777Y112214D02*
Y132280D01*
Y112214D02*
X144357D01*
Y132280D01*
X75777D02*
X144357D01*
D12*
X271780Y168910D02*
G03*
X271780Y133350I0J-17780D01*
G01*
X330200D02*
G03*
X330200Y168910I0J17780D01*
G01*
X271780Y168910D02*
X330200D01*
X271780Y133350D02*
X330200D01*
X12490Y212294D02*
Y224994D01*
X6140Y205944D02*
X12490Y212294D01*
X-12910D02*
X-6560Y205944D01*
X6140Y231344D02*
X12490Y224994D01*
X-6560Y231344D02*
X6140D01*
X-12910Y224994D02*
X-6560Y231344D01*
X-12910Y212294D02*
Y224994D01*
X12490Y110694D02*
Y123394D01*
X6140Y104344D02*
X12490Y110694D01*
X-12910D02*
X-6560Y104344D01*
X6140D01*
Y129744D02*
X12490Y136094D01*
Y148794D01*
X6140Y155144D02*
X12490Y148794D01*
X-6560Y155144D02*
X6140D01*
X-12910Y148794D02*
X-6560Y155144D01*
X-12910Y136094D02*
Y148794D01*
Y136094D02*
X-6560Y129744D01*
X6140D02*
X12490Y123394D01*
X-6560Y129744D02*
X6140D01*
X-12910Y123394D02*
X-6560Y129744D01*
X-12910Y110694D02*
Y123394D01*
X12490Y186894D02*
Y199594D01*
X6140Y180544D02*
X12490Y186894D01*
X-12910D02*
X-6560Y180544D01*
X6140Y155144D02*
X12490Y161494D01*
Y174194D01*
X6140Y180544D02*
X12490Y174194D01*
X-6560Y180544D02*
X6140D01*
X-12910Y174194D02*
X-6560Y180544D01*
X-12910Y161494D02*
Y174194D01*
Y161494D02*
X-6560Y155144D01*
X6140Y205944D02*
X12490Y199594D01*
X-6560Y205944D02*
X6140D01*
X-12910Y199594D02*
X-6560Y205944D01*
X-12910Y186894D02*
Y199594D01*
X-14128Y-934D02*
X30322D01*
Y336D01*
X43022D01*
Y-934D02*
Y336D01*
Y-934D02*
X67152D01*
X117952Y11766D02*
X133192D01*
X107792D02*
X117952D01*
X67152Y-934D02*
X107792D01*
X11272Y87966D02*
X81122D01*
X11272D02*
Y90506D01*
X-1428Y87966D02*
Y90506D01*
X11272D01*
X81122Y87966D02*
Y90506D01*
X93822Y87966D02*
X163672D01*
X93822D02*
Y90506D01*
X81122D02*
X93822D01*
X176372Y87966D02*
X189072D01*
X163672D02*
Y90506D01*
X176372D01*
Y87966D02*
Y90506D01*
X-1428Y11766D02*
X67152D01*
X133192D02*
X176372D01*
X-14128Y-934D02*
Y87966D01*
X189072Y-934D02*
Y87966D01*
X106522Y-934D02*
X189072D01*
X-14128Y87966D02*
X-1428D01*
Y11766D02*
Y75266D01*
X176372Y11766D02*
Y75266D01*
X-1428D02*
X176372D01*
X67152Y9226D02*
Y11766D01*
X107792Y9226D02*
Y11766D01*
Y-934D02*
Y9226D01*
Y11766D02*
Y19386D01*
X67152Y-934D02*
Y9226D01*
Y11766D02*
Y19386D01*
X107792D01*
X213710Y-1653D02*
X258160D01*
Y-383D01*
X270860D01*
Y-1653D02*
Y-383D01*
Y-1653D02*
X294990D01*
X345790Y11047D02*
X361030D01*
X335630D02*
X345790D01*
X294990Y-1653D02*
X335630D01*
X239110Y87247D02*
X308960D01*
X239110D02*
Y89787D01*
X226410Y87247D02*
Y89787D01*
X239110D01*
X308960Y87247D02*
Y89787D01*
X321660Y87247D02*
X391510D01*
X321660D02*
Y89787D01*
X308960D02*
X321660D01*
X404210Y87247D02*
X416910D01*
X391510D02*
Y89787D01*
X404210D01*
Y87247D02*
Y89787D01*
X226410Y11047D02*
X294990D01*
X361030D02*
X404210D01*
X213710Y-1653D02*
Y87247D01*
X416910Y-1653D02*
Y87247D01*
X334360Y-1653D02*
X416910D01*
X213710Y87247D02*
X226410D01*
Y11047D02*
Y74547D01*
X404210Y11047D02*
Y74547D01*
X226410D02*
X404210D01*
X294990Y8507D02*
Y11047D01*
X335630Y8507D02*
Y11047D01*
Y-1653D02*
Y8507D01*
Y11047D02*
Y18667D01*
X294990Y-1653D02*
Y8507D01*
Y11047D02*
Y18667D01*
X335630D01*
D13*
X271780Y173990D02*
G03*
X271780Y128270I0J-22860D01*
G01*
X330200D02*
G03*
X330200Y173990I0J22860D01*
G01*
X273050Y173990D02*
X331470D01*
X271780Y128270D02*
X330200D01*
D14*
X191370Y135712D02*
Y157302D01*
X179940Y135712D02*
X191370Y124282D01*
Y114122D02*
Y124282D01*
X172370Y157712D02*
X210420D01*
X172370Y113712D02*
X210420D01*
X43380Y186440D02*
X414220D01*
Y298200D01*
X43380D02*
X414220D01*
X57690Y225790D02*
Y251190D01*
X43720D02*
X57690D01*
X43380Y186440D02*
Y298200D01*
X43720Y225790D02*
X57690D01*
D15*
X-3968Y9226D02*
X67152D01*
X-3968D02*
Y77806D01*
X178912D01*
Y9226D02*
Y77806D01*
X107792Y9226D02*
X117952D01*
X178912D01*
X223870Y8507D02*
X294990D01*
X223870D02*
Y77087D01*
X406750D01*
Y8507D02*
Y77087D01*
X335630Y8507D02*
X345790D01*
X406750D01*
M02*
