G04*
G04 #@! TF.GenerationSoftware,Altium Limited,Altium Designer,21.2.2 (38)*
G04*
G04 Layer_Color=15790320*
%FSLAX44Y44*%
%MOMM*%
G71*
G04*
G04 #@! TF.SameCoordinates,11E53DB6-EA1C-46B5-B3C1-A0E245133AF0*
G04*
G04*
G04 #@! TF.FilePolarity,Positive*
G04*
G01*
G75*
%ADD10C,0.2500*%
%ADD11C,0.2000*%
%ADD12C,0.1270*%
%ADD13C,0.4064*%
%ADD14C,0.2540*%
%ADD15C,0.0508*%
G36*
X23428Y320021D02*
X23525D01*
X23635Y320007D01*
X23913Y319952D01*
X24218Y319868D01*
X24537Y319757D01*
X24856Y319591D01*
X25008Y319480D01*
X25161Y319369D01*
X25175Y319355D01*
X25203Y319341D01*
X25244Y319286D01*
X25286Y319230D01*
X25355Y319147D01*
X25425Y319064D01*
X25508Y318953D01*
X25577Y318828D01*
X25660Y318676D01*
X25744Y318523D01*
X25813Y318343D01*
X25868Y318149D01*
X25924Y317941D01*
X25965Y317719D01*
X25993Y317483D01*
X26007Y317233D01*
Y317122D01*
X25993Y317039D01*
Y316942D01*
X25979Y316831D01*
X25938Y316554D01*
X25882Y316249D01*
X25799Y315930D01*
X25674Y315611D01*
X25508Y315319D01*
X25494Y315306D01*
X25466Y315264D01*
X25411Y315222D01*
X25341Y315167D01*
X25258Y315098D01*
X25161Y315056D01*
X25064Y315014D01*
X24939Y315001D01*
X24925D01*
X24898D01*
X24856Y315014D01*
X24787Y315028D01*
X24648Y315070D01*
X24565Y315112D01*
X24495Y315167D01*
X24481Y315181D01*
X24468Y315195D01*
X24426Y315236D01*
X24384Y315292D01*
X24315Y315431D01*
X24301Y315514D01*
X24287Y315611D01*
Y315652D01*
X24301Y315736D01*
X24343Y315860D01*
X24412Y315985D01*
Y315999D01*
X24426Y316013D01*
X24481Y316082D01*
X24537Y316207D01*
X24620Y316360D01*
X24690Y316554D01*
X24759Y316762D01*
X24814Y316998D01*
X24828Y317233D01*
Y317303D01*
X24814Y317358D01*
X24801Y317497D01*
X24773Y317649D01*
X24717Y317844D01*
X24634Y318024D01*
X24509Y318204D01*
X24357Y318357D01*
X24343Y318371D01*
X24274Y318412D01*
X24190Y318468D01*
X24065Y318523D01*
X23899Y318579D01*
X23705Y318634D01*
X23483Y318676D01*
X23233Y318690D01*
X23219D01*
X23164D01*
X23095Y318676D01*
X22998D01*
X22873Y318648D01*
X22748Y318620D01*
X22609Y318579D01*
X22471Y318537D01*
X22332Y318468D01*
X22193Y318384D01*
X22055Y318274D01*
X21944Y318163D01*
X21846Y318010D01*
X21777Y317844D01*
X21722Y317649D01*
X21708Y317428D01*
Y317344D01*
X21722Y317247D01*
X21749Y317122D01*
X21777Y316984D01*
X21833Y316831D01*
X21916Y316665D01*
X22013Y316512D01*
X22027Y316485D01*
X22068Y316429D01*
X22138Y316332D01*
X22207Y316221D01*
X22276Y316110D01*
X22346Y315999D01*
X22387Y315916D01*
X22401Y315860D01*
Y315819D01*
X22387Y315763D01*
X22373Y315694D01*
X22318Y315541D01*
X22276Y315472D01*
X22207Y315403D01*
X22193Y315389D01*
X22166Y315375D01*
X22124Y315347D01*
X22068Y315306D01*
X21916Y315250D01*
X21833Y315222D01*
X21722D01*
X17908Y315347D01*
X17894D01*
X17866D01*
X17811Y315361D01*
X17742Y315375D01*
X17603Y315444D01*
X17520Y315486D01*
X17450Y315555D01*
X17436Y315569D01*
X17422Y315583D01*
X17395Y315625D01*
X17353Y315680D01*
X17298Y315819D01*
X17284Y315902D01*
X17270Y315999D01*
Y319022D01*
X17284Y319078D01*
X17298Y319133D01*
X17353Y319286D01*
X17395Y319355D01*
X17464Y319425D01*
X17478Y319438D01*
X17492Y319452D01*
X17533Y319480D01*
X17589Y319522D01*
X17728Y319591D01*
X17811Y319605D01*
X17908Y319619D01*
X17922D01*
X17950D01*
X18005Y319605D01*
X18060Y319591D01*
X18213Y319536D01*
X18296Y319494D01*
X18365Y319425D01*
X18379Y319411D01*
X18393Y319397D01*
X18421Y319355D01*
X18463Y319300D01*
X18532Y319161D01*
X18546Y319078D01*
X18560Y318981D01*
Y316568D01*
X20806Y316485D01*
X20793Y316498D01*
X20765Y316568D01*
X20723Y316651D01*
X20668Y316776D01*
X20626Y316928D01*
X20584Y317109D01*
X20557Y317303D01*
X20543Y317525D01*
Y317636D01*
X20557Y317719D01*
X20571Y317816D01*
X20584Y317927D01*
X20626Y318190D01*
X20709Y318482D01*
X20834Y318787D01*
X20917Y318939D01*
X21014Y319092D01*
X21125Y319230D01*
X21250Y319355D01*
X21264Y319369D01*
X21278Y319383D01*
X21319Y319425D01*
X21375Y319466D01*
X21458Y319508D01*
X21541Y319577D01*
X21639Y319633D01*
X21763Y319702D01*
X21902Y319757D01*
X22041Y319827D01*
X22207Y319882D01*
X22387Y319924D01*
X22582Y319979D01*
X22776Y320007D01*
X22998Y320021D01*
X23233Y320035D01*
X23247D01*
X23289D01*
X23344D01*
X23428Y320021D01*
D02*
G37*
G36*
X19947Y313822D02*
X20071Y313808D01*
X20224Y313780D01*
X20390Y313738D01*
X20571Y313683D01*
X20765Y313614D01*
X20959Y313517D01*
X21153Y313406D01*
X21347Y313281D01*
X21541Y313114D01*
X21708Y312920D01*
X21874Y312698D01*
X21999Y312435D01*
X22110Y312144D01*
X22124Y312157D01*
X22179Y312185D01*
X22263Y312241D01*
X22373Y312310D01*
X22512Y312379D01*
X22679Y312477D01*
X22859Y312588D01*
X23053Y312698D01*
X23275Y312823D01*
X23497Y312948D01*
X23982Y313211D01*
X24468Y313475D01*
X24967Y313711D01*
X24981Y313725D01*
X25036Y313738D01*
X25106Y313752D01*
X25203Y313780D01*
X25314Y313794D01*
X25425Y313780D01*
X25563Y313752D01*
X25688Y313697D01*
X25702Y313683D01*
X25730Y313655D01*
X25757Y313614D01*
X25799Y313558D01*
X25841Y313475D01*
X25882Y313392D01*
X25910Y313281D01*
Y313114D01*
X25882Y313045D01*
X25854Y312962D01*
X25813Y312865D01*
X25744Y312768D01*
X25647Y312671D01*
X25522Y312588D01*
X25508Y312574D01*
X25452Y312546D01*
X25383Y312504D01*
X25272Y312449D01*
X25147Y312379D01*
X24981Y312296D01*
X24801Y312185D01*
X24606Y312074D01*
X24371Y311950D01*
X24135Y311825D01*
X23871Y311672D01*
X23594Y311520D01*
X23303Y311367D01*
X22998Y311201D01*
X22360Y310840D01*
Y308704D01*
X25258D01*
X25272D01*
X25300D01*
X25355Y308690D01*
X25425Y308677D01*
X25577Y308621D01*
X25647Y308580D01*
X25730Y308510D01*
X25744Y308496D01*
X25757Y308482D01*
X25785Y308427D01*
X25813Y308372D01*
X25882Y308219D01*
X25896Y308136D01*
X25910Y308025D01*
Y307983D01*
X25896Y307928D01*
X25882Y307872D01*
X25827Y307720D01*
X25785Y307636D01*
X25730Y307553D01*
X25716Y307539D01*
X25688Y307526D01*
X25647Y307484D01*
X25591Y307456D01*
X25452Y307373D01*
X25355Y307359D01*
X25258Y307345D01*
X17852D01*
X17838D01*
X17811D01*
X17755Y307359D01*
X17686Y307373D01*
X17617Y307401D01*
X17533Y307428D01*
X17450Y307484D01*
X17381Y307553D01*
X17367Y307567D01*
X17353Y307595D01*
X17312Y307636D01*
X17270Y307692D01*
X17201Y307845D01*
X17187Y307928D01*
X17173Y308025D01*
Y311076D01*
X17187Y311159D01*
Y311284D01*
X17201Y311409D01*
X17228Y311561D01*
X17242Y311728D01*
X17312Y312074D01*
X17422Y312435D01*
X17575Y312782D01*
X17658Y312948D01*
X17769Y313101D01*
Y313114D01*
X17797Y313128D01*
X17838Y313170D01*
X17880Y313211D01*
X17950Y313267D01*
X18019Y313323D01*
X18116Y313392D01*
X18227Y313461D01*
X18352Y313531D01*
X18490Y313586D01*
X18643Y313655D01*
X18809Y313711D01*
X19003Y313752D01*
X19198Y313794D01*
X19419Y313822D01*
X19655Y313836D01*
X19780D01*
X19794D01*
X19863D01*
X19947Y313822D01*
D02*
G37*
G36*
X32114Y246897D02*
X32211Y246869D01*
X32225D01*
X32253Y246842D01*
X32295Y246814D01*
X32350Y246772D01*
X32406Y246717D01*
X32461Y246647D01*
X32517Y246564D01*
X32558Y246467D01*
Y246453D01*
X32572Y246425D01*
X32586Y246370D01*
X32600Y246287D01*
Y246106D01*
X32586Y246009D01*
X32558Y245898D01*
X30589Y240906D01*
X31851Y240920D01*
Y242320D01*
Y242334D01*
Y242376D01*
X31865Y242417D01*
X31879Y242487D01*
X31934Y242653D01*
X31976Y242736D01*
X32045Y242820D01*
X32059Y242833D01*
X32087Y242847D01*
X32114Y242875D01*
X32170Y242917D01*
X32322Y242986D01*
X32406Y243000D01*
X32503Y243014D01*
X32530D01*
X32586Y242986D01*
X32627Y242958D01*
X32683Y242931D01*
X32738Y242875D01*
X32808Y242806D01*
X32822Y242792D01*
X32836Y242778D01*
X32863Y242723D01*
X32905Y242667D01*
X32947Y242598D01*
X32974Y242514D01*
X32988Y242417D01*
X33002Y242306D01*
Y240906D01*
X33501D01*
X33557Y240892D01*
X33612Y240878D01*
X33681Y240850D01*
X33765Y240823D01*
X33834Y240767D01*
X33903Y240698D01*
X33917Y240684D01*
X33931Y240670D01*
X33959Y240628D01*
X34000Y240573D01*
X34056Y240420D01*
X34070Y240323D01*
X34084Y240226D01*
Y240212D01*
Y240185D01*
X34070Y240129D01*
X34056Y240060D01*
X34014Y239907D01*
X33959Y239824D01*
X33903Y239755D01*
X33890Y239741D01*
X33876Y239727D01*
X33834Y239685D01*
X33779Y239658D01*
X33640Y239574D01*
X33557Y239561D01*
X33460Y239547D01*
X33002D01*
Y238923D01*
Y238909D01*
Y238867D01*
X32988Y238812D01*
X32974Y238742D01*
X32919Y238576D01*
X32877Y238493D01*
X32808Y238410D01*
X32794Y238396D01*
X32780Y238382D01*
X32697Y238312D01*
X32600Y238243D01*
X32544Y238215D01*
X32461D01*
X32406Y238229D01*
X32350Y238243D01*
X32281Y238271D01*
X32198Y238298D01*
X32114Y238354D01*
X32045Y238423D01*
X32031Y238437D01*
X32017Y238465D01*
X31990Y238507D01*
X31948Y238576D01*
X31879Y238729D01*
X31865Y238825D01*
X31851Y238937D01*
Y239561D01*
X29535Y239547D01*
X29493D01*
X29452Y239561D01*
X29382Y239574D01*
X29244Y239630D01*
X29174Y239671D01*
X29105Y239741D01*
X29091Y239755D01*
X29077Y239769D01*
X29049Y239810D01*
X29022Y239866D01*
X28980Y239935D01*
X28952Y240018D01*
X28939Y240115D01*
X28925Y240226D01*
Y240254D01*
X28952Y240323D01*
X29008Y240434D01*
X29049Y240504D01*
X29119Y240573D01*
X31435Y246481D01*
Y246495D01*
Y246523D01*
X31449Y246578D01*
X31476Y246633D01*
X31504Y246703D01*
X31546Y246772D01*
X31615Y246828D01*
X31698Y246869D01*
X31712D01*
X31740Y246883D01*
X31795Y246897D01*
X31851Y246911D01*
X32017D01*
X32114Y246897D01*
D02*
G37*
G36*
X25610Y246925D02*
X25735D01*
X25860Y246911D01*
X26012Y246883D01*
X26179Y246869D01*
X26525Y246800D01*
X26886Y246689D01*
X27233Y246536D01*
X27399Y246453D01*
X27552Y246342D01*
X27566D01*
X27579Y246315D01*
X27621Y246273D01*
X27663Y246231D01*
X27718Y246162D01*
X27774Y246093D01*
X27843Y245996D01*
X27912Y245884D01*
X27982Y245760D01*
X28037Y245621D01*
X28106Y245469D01*
X28162Y245302D01*
X28203Y245108D01*
X28245Y244914D01*
X28273Y244692D01*
X28287Y244456D01*
Y244331D01*
Y244317D01*
Y244248D01*
X28273Y244165D01*
X28259Y244040D01*
X28231Y243888D01*
X28190Y243721D01*
X28134Y243541D01*
X28065Y243347D01*
X27968Y243153D01*
X27857Y242958D01*
X27732Y242764D01*
X27566Y242570D01*
X27371Y242404D01*
X27150Y242237D01*
X26886Y242112D01*
X26595Y242001D01*
X26609Y241987D01*
X26636Y241932D01*
X26692Y241849D01*
X26761Y241738D01*
X26830Y241599D01*
X26928Y241433D01*
X27039Y241252D01*
X27150Y241058D01*
X27274Y240836D01*
X27399Y240615D01*
X27663Y240129D01*
X27926Y239644D01*
X28162Y239144D01*
X28176Y239131D01*
X28190Y239075D01*
X28203Y239006D01*
X28231Y238909D01*
X28245Y238798D01*
X28231Y238687D01*
X28203Y238548D01*
X28148Y238423D01*
X28134Y238410D01*
X28106Y238382D01*
X28065Y238354D01*
X28009Y238312D01*
X27926Y238271D01*
X27843Y238229D01*
X27732Y238202D01*
X27566D01*
X27496Y238229D01*
X27413Y238257D01*
X27316Y238298D01*
X27219Y238368D01*
X27122Y238465D01*
X27039Y238590D01*
X27025Y238604D01*
X26997Y238659D01*
X26955Y238729D01*
X26900Y238839D01*
X26830Y238964D01*
X26747Y239131D01*
X26636Y239311D01*
X26525Y239505D01*
X26401Y239741D01*
X26276Y239977D01*
X26123Y240240D01*
X25971Y240518D01*
X25818Y240809D01*
X25652Y241114D01*
X25291Y241752D01*
X23155D01*
Y238853D01*
Y238839D01*
Y238812D01*
X23142Y238756D01*
X23128Y238687D01*
X23072Y238534D01*
X23031Y238465D01*
X22961Y238382D01*
X22947Y238368D01*
X22933Y238354D01*
X22878Y238326D01*
X22823Y238298D01*
X22670Y238229D01*
X22587Y238215D01*
X22476Y238202D01*
X22434D01*
X22379Y238215D01*
X22323Y238229D01*
X22171Y238285D01*
X22088Y238326D01*
X22004Y238382D01*
X21990Y238396D01*
X21977Y238423D01*
X21935Y238465D01*
X21907Y238520D01*
X21824Y238659D01*
X21810Y238756D01*
X21796Y238853D01*
Y246259D01*
Y246273D01*
Y246301D01*
X21810Y246356D01*
X21824Y246425D01*
X21852Y246495D01*
X21879Y246578D01*
X21935Y246661D01*
X22004Y246730D01*
X22018Y246744D01*
X22046Y246758D01*
X22088Y246800D01*
X22143Y246842D01*
X22296Y246911D01*
X22379Y246925D01*
X22476Y246938D01*
X25527D01*
X25610Y246925D01*
D02*
G37*
G36*
X34308Y152945D02*
X34391Y152931D01*
X34488Y152917D01*
X34738Y152861D01*
X35001Y152778D01*
X35292Y152640D01*
X35431Y152556D01*
X35570Y152445D01*
X35708Y152334D01*
X35833Y152196D01*
X35847Y152168D01*
X35903Y152085D01*
X35972Y151946D01*
X36055Y151766D01*
X36138Y151544D01*
X36208Y151294D01*
X36263Y150989D01*
X36277Y150670D01*
Y150656D01*
Y150601D01*
Y150518D01*
X36263Y150421D01*
X36249Y150296D01*
X36221Y150157D01*
X36180Y149991D01*
X36138Y149824D01*
X36083Y149658D01*
X36000Y149478D01*
X35903Y149311D01*
X35792Y149145D01*
X35653Y148992D01*
X35487Y148840D01*
X35292Y148715D01*
X35084Y148604D01*
X35098D01*
X35140Y148576D01*
X35209Y148548D01*
X35306Y148507D01*
X35403Y148451D01*
X35528Y148382D01*
X35653Y148285D01*
X35778Y148188D01*
X35903Y148063D01*
X36027Y147924D01*
X36138Y147758D01*
X36249Y147591D01*
X36332Y147383D01*
X36388Y147162D01*
X36430Y146926D01*
X36443Y146662D01*
Y146648D01*
Y146621D01*
Y146565D01*
Y146482D01*
X36430Y146399D01*
X36416Y146302D01*
X36374Y146052D01*
X36305Y145789D01*
X36194Y145511D01*
X36027Y145234D01*
X35930Y145109D01*
X35819Y144984D01*
X35805Y144970D01*
X35792Y144957D01*
X35750Y144915D01*
X35681Y144873D01*
X35611Y144818D01*
X35528Y144748D01*
X35417Y144679D01*
X35306Y144610D01*
X35043Y144471D01*
X34724Y144346D01*
X34363Y144263D01*
X34169Y144249D01*
X33961Y144235D01*
X33919D01*
X33864Y144249D01*
X33781Y144263D01*
X33698Y144277D01*
X33586Y144305D01*
X33337Y144360D01*
X33073Y144471D01*
X32782Y144610D01*
X32643Y144707D01*
X32505Y144818D01*
X32380Y144929D01*
X32255Y145067D01*
X32241Y145081D01*
X32213Y145123D01*
X32172Y145192D01*
X32116Y145275D01*
X32061Y145386D01*
X32006Y145497D01*
X31964Y145636D01*
X31936Y145775D01*
Y145789D01*
Y145816D01*
X31950Y145872D01*
X31964Y145927D01*
X32019Y146080D01*
X32061Y146149D01*
X32116Y146205D01*
X32130Y146219D01*
X32144Y146232D01*
X32227Y146288D01*
X32352Y146343D01*
X32435Y146371D01*
X32588D01*
X32671Y146357D01*
X32768Y146329D01*
X32879Y146288D01*
X32976Y146219D01*
X33073Y146121D01*
X33143Y145997D01*
X33157Y145969D01*
X33212Y145899D01*
X33295Y145802D01*
X33392Y145691D01*
X33531Y145581D01*
X33684Y145484D01*
X33864Y145428D01*
X33961Y145400D01*
X34127D01*
X34211Y145414D01*
X34308Y145442D01*
X34419Y145470D01*
X34543Y145525D01*
X34654Y145594D01*
X34779Y145691D01*
X34793Y145719D01*
X34848Y145775D01*
X34918Y145886D01*
X35001Y146024D01*
X35070Y146191D01*
X35126Y146385D01*
X35140Y146607D01*
X35126Y146732D01*
X35112Y146856D01*
Y146870D01*
X35098Y146912D01*
X35070Y146953D01*
X35029Y147037D01*
X34932Y147203D01*
X34807Y147411D01*
X34627Y147605D01*
X34516Y147702D01*
X34405Y147786D01*
X34294Y147841D01*
X34155Y147897D01*
X34016Y147924D01*
X33836D01*
X33767Y147938D01*
X33684Y147966D01*
X33573Y148021D01*
X33476Y148105D01*
X33379Y148216D01*
X33323Y148354D01*
X33295Y148451D01*
Y148548D01*
Y148562D01*
Y148576D01*
Y148659D01*
X33309Y148784D01*
X33337Y148923D01*
X33420Y149061D01*
X33476Y149131D01*
X33531Y149186D01*
X33614Y149242D01*
X33711Y149297D01*
X33822Y149325D01*
X33961Y149353D01*
X34003D01*
X34058Y149367D01*
X34127Y149381D01*
X34294Y149422D01*
X34391Y149464D01*
X34488Y149519D01*
X34585Y149588D01*
X34668Y149686D01*
X34765Y149783D01*
X34835Y149921D01*
X34904Y150060D01*
X34959Y150240D01*
X34987Y150435D01*
X35001Y150670D01*
Y150684D01*
Y150712D01*
Y150753D01*
Y150809D01*
X34973Y150962D01*
X34932Y151156D01*
X34848Y151350D01*
X34724Y151530D01*
X34641Y151613D01*
X34557Y151697D01*
X34446Y151752D01*
X34321Y151807D01*
X34280D01*
X34238Y151821D01*
X34183D01*
X34030Y151807D01*
X33836Y151780D01*
X33628Y151710D01*
X33531Y151669D01*
X33420Y151599D01*
X33323Y151516D01*
X33226Y151419D01*
X33143Y151294D01*
X33059Y151156D01*
X33046Y151128D01*
X33018Y151072D01*
X32949Y150989D01*
X32865Y150892D01*
X32754Y150809D01*
X32616Y150753D01*
X32435Y150726D01*
X32338D01*
X32241Y150753D01*
X32227Y150767D01*
X32172Y150781D01*
X32103Y150837D01*
X32019Y150906D01*
X31936Y151003D01*
X31881Y151128D01*
X31853Y151294D01*
Y151489D01*
Y151502D01*
X31867Y151544D01*
X31895Y151599D01*
X31922Y151683D01*
X31964Y151780D01*
X32033Y151891D01*
X32103Y152002D01*
X32200Y152126D01*
X32213Y152140D01*
X32227Y152168D01*
X32255Y152210D01*
X32311Y152265D01*
X32380Y152334D01*
X32449Y152404D01*
X32546Y152487D01*
X32657Y152570D01*
X32782Y152640D01*
X32921Y152723D01*
X33073Y152792D01*
X33254Y152848D01*
X33448Y152903D01*
X33656Y152945D01*
X33878Y152958D01*
X34225D01*
X34308Y152945D01*
D02*
G37*
G36*
X28330D02*
X28455D01*
X28580Y152931D01*
X28733Y152903D01*
X28899Y152889D01*
X29246Y152820D01*
X29606Y152709D01*
X29953Y152556D01*
X30119Y152473D01*
X30272Y152362D01*
X30286D01*
X30300Y152334D01*
X30341Y152293D01*
X30383Y152251D01*
X30438Y152182D01*
X30494Y152113D01*
X30563Y152015D01*
X30633Y151904D01*
X30702Y151780D01*
X30757Y151641D01*
X30827Y151489D01*
X30882Y151322D01*
X30924Y151128D01*
X30965Y150934D01*
X30993Y150712D01*
X31007Y150476D01*
Y150351D01*
Y150337D01*
Y150268D01*
X30993Y150185D01*
X30979Y150060D01*
X30951Y149908D01*
X30910Y149741D01*
X30854Y149561D01*
X30785Y149367D01*
X30688Y149172D01*
X30577Y148978D01*
X30452Y148784D01*
X30286Y148590D01*
X30092Y148424D01*
X29870Y148257D01*
X29606Y148132D01*
X29315Y148021D01*
X29329Y148007D01*
X29357Y147952D01*
X29412Y147869D01*
X29481Y147758D01*
X29551Y147619D01*
X29648Y147453D01*
X29759Y147273D01*
X29870Y147078D01*
X29995Y146856D01*
X30119Y146635D01*
X30383Y146149D01*
X30646Y145664D01*
X30882Y145164D01*
X30896Y145151D01*
X30910Y145095D01*
X30924Y145026D01*
X30951Y144929D01*
X30965Y144818D01*
X30951Y144707D01*
X30924Y144568D01*
X30868Y144443D01*
X30854Y144430D01*
X30827Y144402D01*
X30785Y144374D01*
X30730Y144332D01*
X30646Y144291D01*
X30563Y144249D01*
X30452Y144221D01*
X30286D01*
X30217Y144249D01*
X30133Y144277D01*
X30036Y144319D01*
X29939Y144388D01*
X29842Y144485D01*
X29759Y144610D01*
X29745Y144624D01*
X29717Y144679D01*
X29676Y144748D01*
X29620Y144859D01*
X29551Y144984D01*
X29468Y145151D01*
X29357Y145331D01*
X29246Y145525D01*
X29121Y145761D01*
X28996Y145997D01*
X28844Y146260D01*
X28691Y146538D01*
X28538Y146829D01*
X28372Y147134D01*
X28011Y147772D01*
X25876D01*
Y144873D01*
Y144859D01*
Y144832D01*
X25862Y144776D01*
X25848Y144707D01*
X25793Y144554D01*
X25751Y144485D01*
X25682Y144402D01*
X25668Y144388D01*
X25654Y144374D01*
X25598Y144346D01*
X25543Y144319D01*
X25390Y144249D01*
X25307Y144235D01*
X25196Y144221D01*
X25155D01*
X25099Y144235D01*
X25044Y144249D01*
X24891Y144305D01*
X24808Y144346D01*
X24725Y144402D01*
X24711Y144416D01*
X24697Y144443D01*
X24655Y144485D01*
X24627Y144540D01*
X24544Y144679D01*
X24530Y144776D01*
X24517Y144873D01*
Y152279D01*
Y152293D01*
Y152321D01*
X24530Y152376D01*
X24544Y152445D01*
X24572Y152515D01*
X24600Y152598D01*
X24655Y152681D01*
X24725Y152751D01*
X24739Y152764D01*
X24766Y152778D01*
X24808Y152820D01*
X24863Y152861D01*
X25016Y152931D01*
X25099Y152945D01*
X25196Y152958D01*
X28247D01*
X28330Y152945D01*
D02*
G37*
G36*
X248319Y133745D02*
X248374Y133731D01*
X248526Y133675D01*
X248610Y133634D01*
X248693Y133564D01*
X248707Y133551D01*
X248721Y133523D01*
X248748Y133481D01*
X248790Y133426D01*
X248859Y133273D01*
X248873Y133190D01*
X248887Y133093D01*
Y125632D01*
Y125618D01*
Y125590D01*
Y125548D01*
X248873Y125493D01*
X248832Y125354D01*
X248748Y125216D01*
X248734Y125202D01*
X248721Y125188D01*
X248679Y125160D01*
X248624Y125119D01*
X248554Y125077D01*
X248457Y125049D01*
X248360Y125035D01*
X248235Y125021D01*
X248166D01*
X248097Y125035D01*
X248013Y125049D01*
X247819Y125105D01*
X247736Y125146D01*
X247667Y125216D01*
X247653Y125243D01*
X247611Y125313D01*
X247570Y125437D01*
X247542Y125604D01*
Y131928D01*
X246640Y131373D01*
X246626D01*
X246599Y131345D01*
X246557Y131332D01*
X246502Y131304D01*
X246349Y131262D01*
X246266D01*
X246169Y131276D01*
X246155D01*
X246127Y131290D01*
X246072Y131304D01*
X246016Y131332D01*
X245961Y131359D01*
X245891Y131415D01*
X245822Y131470D01*
X245767Y131553D01*
Y131567D01*
X245739Y131595D01*
X245725Y131637D01*
X245697Y131692D01*
X245656Y131845D01*
Y131942D01*
X245670Y132039D01*
Y132053D01*
X245683Y132080D01*
X245697Y132122D01*
X245725Y132177D01*
X245753Y132247D01*
X245808Y132316D01*
X245864Y132386D01*
X245947Y132441D01*
X247819Y133634D01*
X247833D01*
X247847Y133648D01*
X247930Y133703D01*
X248055Y133745D01*
X248221Y133758D01*
X248263D01*
X248319Y133745D01*
D02*
G37*
G36*
X238777D02*
X238860Y133717D01*
X238971Y133661D01*
X239068Y133592D01*
X239165Y133495D01*
X239249Y133370D01*
X239262Y133356D01*
X239290Y133301D01*
X239346Y133231D01*
X239429Y133121D01*
X239526Y132996D01*
X239637Y132829D01*
X239776Y132649D01*
X239914Y132455D01*
X240081Y132233D01*
X240247Y131983D01*
X240441Y131734D01*
X240635Y131456D01*
X241051Y130874D01*
X241509Y130250D01*
X241523Y130278D01*
X241565Y130333D01*
X241620Y130430D01*
X241703Y130555D01*
X241800Y130708D01*
X241925Y130888D01*
X242064Y131096D01*
X242202Y131318D01*
X242355Y131553D01*
X242521Y131803D01*
X242868Y132344D01*
X243215Y132885D01*
X243562Y133412D01*
X243575Y133426D01*
X243603Y133467D01*
X243645Y133523D01*
X243714Y133578D01*
X243797Y133634D01*
X243895Y133689D01*
X244005Y133731D01*
X244144Y133745D01*
X244186D01*
X244241Y133731D01*
X244310Y133717D01*
X244463Y133675D01*
X244546Y133620D01*
X244616Y133564D01*
X244629Y133551D01*
X244643Y133537D01*
X244685Y133495D01*
X244727Y133440D01*
X244796Y133301D01*
X244810Y133204D01*
X244824Y133107D01*
Y133093D01*
X244810Y133037D01*
X244796Y132954D01*
X244754Y132843D01*
X244740Y132829D01*
X244713Y132774D01*
X244657Y132691D01*
X244574Y132566D01*
X244477Y132413D01*
X244366Y132233D01*
X244227Y132011D01*
X244075Y131762D01*
X243895Y131484D01*
X243700Y131179D01*
X243478Y130846D01*
X243256Y130486D01*
X243007Y130083D01*
X242729Y129667D01*
X242452Y129237D01*
X242147Y128766D01*
Y125687D01*
Y125673D01*
Y125646D01*
X242133Y125590D01*
X242119Y125521D01*
X242078Y125382D01*
X242022Y125299D01*
X241967Y125230D01*
X241953Y125216D01*
X241925Y125202D01*
X241884Y125160D01*
X241828Y125132D01*
X241675Y125049D01*
X241578Y125035D01*
X241481Y125021D01*
X241440D01*
X241384Y125035D01*
X241329Y125049D01*
X241246Y125077D01*
X241176Y125105D01*
X241093Y125160D01*
X241010Y125230D01*
X240996Y125243D01*
X240982Y125257D01*
X240954Y125299D01*
X240927Y125354D01*
X240857Y125493D01*
X240843Y125590D01*
X240830Y125687D01*
Y128766D01*
Y128780D01*
X240816Y128794D01*
X240760Y128877D01*
X240663Y129002D01*
X240552Y129168D01*
X240413Y129376D01*
X240247Y129612D01*
X240053Y129875D01*
X239859Y130167D01*
X239637Y130486D01*
X239415Y130805D01*
X238943Y131484D01*
X238472Y132177D01*
X238236Y132510D01*
X238014Y132829D01*
Y132843D01*
X238000Y132857D01*
X237987Y132926D01*
X237959Y133024D01*
X237945Y133107D01*
Y133121D01*
Y133148D01*
X237959Y133204D01*
X237973Y133273D01*
X238000Y133343D01*
X238042Y133426D01*
X238097Y133509D01*
X238167Y133578D01*
X238181Y133592D01*
X238208Y133606D01*
X238250Y133634D01*
X238305Y133675D01*
X238444Y133731D01*
X238541Y133745D01*
X238638Y133758D01*
X238708D01*
X238777Y133745D01*
D02*
G37*
G36*
X39464Y201863D02*
X39603Y201822D01*
X39741Y201739D01*
X39755Y201725D01*
X39769Y201711D01*
X39797Y201669D01*
X39838Y201614D01*
X39880Y201544D01*
X39908Y201447D01*
X39922Y201350D01*
X39935Y201225D01*
Y201156D01*
X39922Y201087D01*
X39908Y201004D01*
X39852Y200809D01*
X39811Y200726D01*
X39741Y200657D01*
X39713Y200643D01*
X39644Y200601D01*
X39519Y200560D01*
X39353Y200532D01*
X33029D01*
X33584Y199631D01*
Y199617D01*
X33611Y199589D01*
X33625Y199547D01*
X33653Y199492D01*
X33695Y199339D01*
Y199256D01*
X33681Y199159D01*
Y199145D01*
X33667Y199118D01*
X33653Y199062D01*
X33625Y199007D01*
X33598Y198951D01*
X33542Y198882D01*
X33487Y198812D01*
X33403Y198757D01*
X33389D01*
X33362Y198729D01*
X33320Y198715D01*
X33265Y198688D01*
X33112Y198646D01*
X33015D01*
X32918Y198660D01*
X32904D01*
X32876Y198674D01*
X32835Y198688D01*
X32779Y198715D01*
X32710Y198743D01*
X32641Y198799D01*
X32571Y198854D01*
X32516Y198937D01*
X31323Y200809D01*
Y200823D01*
X31309Y200837D01*
X31254Y200920D01*
X31212Y201045D01*
X31198Y201212D01*
Y201253D01*
X31212Y201309D01*
X31226Y201364D01*
X31281Y201517D01*
X31323Y201600D01*
X31393Y201683D01*
X31406Y201697D01*
X31434Y201711D01*
X31476Y201739D01*
X31531Y201780D01*
X31684Y201850D01*
X31767Y201863D01*
X31864Y201877D01*
X39325D01*
X39339D01*
X39367D01*
X39408D01*
X39464Y201863D01*
D02*
G37*
G36*
X37314Y197689D02*
X37425Y197675D01*
X37550Y197661D01*
X37689Y197647D01*
X37855Y197620D01*
X38188Y197523D01*
X38521Y197398D01*
X38701Y197315D01*
X38854Y197218D01*
X39020Y197107D01*
X39159Y196982D01*
X39173Y196968D01*
X39186Y196940D01*
X39228Y196885D01*
X39284Y196815D01*
X39339Y196732D01*
X39408Y196621D01*
X39478Y196510D01*
X39547Y196371D01*
X39616Y196205D01*
X39686Y196039D01*
X39755Y195858D01*
X39811Y195664D01*
X39908Y195234D01*
X39922Y194999D01*
X39935Y194749D01*
Y194610D01*
X39922Y194513D01*
X39908Y194388D01*
X39894Y194250D01*
X39866Y194097D01*
X39838Y193931D01*
X39741Y193570D01*
X39603Y193196D01*
X39519Y193015D01*
X39408Y192849D01*
X39297Y192682D01*
X39159Y192530D01*
X39145Y192516D01*
X39117Y192502D01*
X39076Y192461D01*
X39006Y192419D01*
X38923Y192364D01*
X38826Y192294D01*
X38701Y192239D01*
X38576Y192169D01*
X38424Y192100D01*
X38271Y192031D01*
X37911Y191920D01*
X37495Y191850D01*
X37273Y191823D01*
X37037D01*
X31892D01*
X31878D01*
X31836D01*
X31781D01*
X31711Y191837D01*
X31545Y191892D01*
X31462Y191934D01*
X31379Y191989D01*
X31365Y192003D01*
X31351Y192031D01*
X31309Y192072D01*
X31281Y192142D01*
X31240Y192225D01*
X31212Y192322D01*
X31184Y192433D01*
Y192613D01*
X31198Y192682D01*
X31212Y192766D01*
X31240Y192863D01*
X31268Y192960D01*
X31323Y193057D01*
X31393Y193140D01*
X31406Y193154D01*
X31434Y193168D01*
X31476Y193196D01*
X31531Y193237D01*
X31614Y193279D01*
X31711Y193307D01*
X31809Y193321D01*
X31933Y193334D01*
X37065D01*
X37078D01*
X37134D01*
X37203Y193348D01*
X37300Y193362D01*
X37411Y193376D01*
X37536Y193404D01*
X37661Y193445D01*
X37800Y193515D01*
X37938Y193584D01*
X38077Y193667D01*
X38202Y193778D01*
X38313Y193903D01*
X38410Y194056D01*
X38479Y194236D01*
X38535Y194444D01*
X38549Y194680D01*
Y194749D01*
X38535Y194818D01*
X38521Y194915D01*
X38493Y195026D01*
X38451Y195151D01*
X38410Y195276D01*
X38341Y195429D01*
X38257Y195567D01*
X38160Y195692D01*
X38049Y195831D01*
X37911Y195942D01*
X37744Y196039D01*
X37550Y196122D01*
X37328Y196177D01*
X37078Y196205D01*
X31920D01*
X31906D01*
X31864D01*
X31795D01*
X31725Y196219D01*
X31559Y196261D01*
X31476Y196302D01*
X31406Y196358D01*
X31393Y196371D01*
X31365Y196399D01*
X31337Y196441D01*
X31295Y196496D01*
X31254Y196580D01*
X31212Y196691D01*
X31198Y196815D01*
X31184Y196968D01*
Y197023D01*
X31198Y197079D01*
X31212Y197148D01*
X31254Y197315D01*
X31309Y197398D01*
X31365Y197481D01*
X31379Y197495D01*
X31406Y197509D01*
X31448Y197550D01*
X31503Y197592D01*
X31587Y197634D01*
X31684Y197661D01*
X31795Y197689D01*
X31920Y197703D01*
X37092D01*
X37106D01*
X37148D01*
X37217D01*
X37314Y197689D01*
D02*
G37*
G36*
X223614Y143037D02*
X223753Y142996D01*
X223891Y142912D01*
X223905Y142898D01*
X223919Y142885D01*
X223947Y142843D01*
X223988Y142787D01*
X224030Y142718D01*
X224058Y142621D01*
X224072Y142524D01*
X224085Y142399D01*
Y142330D01*
X224072Y142260D01*
X224058Y142177D01*
X224002Y141983D01*
X223961Y141900D01*
X223891Y141831D01*
X223864Y141817D01*
X223794Y141775D01*
X223669Y141733D01*
X223503Y141706D01*
X217179D01*
X217734Y140804D01*
Y140790D01*
X217761Y140763D01*
X217775Y140721D01*
X217803Y140666D01*
X217845Y140513D01*
Y140430D01*
X217831Y140333D01*
Y140319D01*
X217817Y140291D01*
X217803Y140236D01*
X217775Y140180D01*
X217748Y140125D01*
X217692Y140055D01*
X217637Y139986D01*
X217553Y139931D01*
X217540D01*
X217512Y139903D01*
X217470Y139889D01*
X217415Y139861D01*
X217262Y139820D01*
X217165D01*
X217068Y139833D01*
X217054D01*
X217026Y139847D01*
X216985Y139861D01*
X216929Y139889D01*
X216860Y139917D01*
X216791Y139972D01*
X216721Y140028D01*
X216666Y140111D01*
X215473Y141983D01*
Y141997D01*
X215459Y142011D01*
X215404Y142094D01*
X215362Y142219D01*
X215348Y142385D01*
Y142427D01*
X215362Y142482D01*
X215376Y142538D01*
X215431Y142690D01*
X215473Y142774D01*
X215543Y142857D01*
X215556Y142871D01*
X215584Y142885D01*
X215626Y142912D01*
X215681Y142954D01*
X215834Y143023D01*
X215917Y143037D01*
X216014Y143051D01*
X223475D01*
X223489D01*
X223517D01*
X223558D01*
X223614Y143037D01*
D02*
G37*
G36*
X216125Y139112D02*
X216208Y139099D01*
X216222D01*
X216250Y139085D01*
X216291D01*
X216361Y139071D01*
X216444Y139043D01*
X216541Y139015D01*
X216666Y139001D01*
X216791Y138960D01*
X216943Y138932D01*
X217110Y138890D01*
X217290Y138849D01*
X217484Y138793D01*
X217692Y138752D01*
X217914Y138696D01*
X218399Y138572D01*
X218926Y138447D01*
X219495Y138294D01*
X220119Y138141D01*
X220771Y137961D01*
X221464Y137781D01*
X222172Y137587D01*
X222920Y137379D01*
X223683Y137157D01*
X223697Y137143D01*
X223739Y137129D01*
X223808Y137087D01*
X223877Y137032D01*
X223961Y136949D01*
X224016Y136852D01*
X224072Y136741D01*
X224085Y136602D01*
Y136533D01*
X224072Y136450D01*
X224044Y136353D01*
X223988Y136242D01*
X223933Y136131D01*
X223836Y136033D01*
X223711Y135964D01*
X223697D01*
X223683Y135950D01*
X223642Y135936D01*
X223586Y135923D01*
X223447Y135867D01*
X223253Y135798D01*
X223018Y135715D01*
X222754Y135631D01*
X222477Y135520D01*
X222158Y135423D01*
X221520Y135188D01*
X221201Y135077D01*
X220882Y134952D01*
X220577Y134855D01*
X220299Y134744D01*
X220050Y134661D01*
X219828Y134577D01*
X219842D01*
X219869Y134564D01*
X219925Y134536D01*
X220008Y134508D01*
X220105Y134480D01*
X220244Y134425D01*
X220410Y134369D01*
X220618Y134300D01*
X220854Y134217D01*
X221131Y134120D01*
X221450Y134009D01*
X221811Y133898D01*
X222213Y133759D01*
X222671Y133607D01*
X223170Y133454D01*
X223725Y133274D01*
X223739Y133260D01*
X223780Y133246D01*
X223836Y133204D01*
X223905Y133135D01*
X223974Y133052D01*
X224030Y132955D01*
X224072Y132816D01*
X224085Y132663D01*
Y132594D01*
X224072Y132525D01*
X224044Y132428D01*
X223988Y132331D01*
X223933Y132247D01*
X223836Y132178D01*
X223711Y132123D01*
X223697D01*
X223669Y132109D01*
X223614Y132095D01*
X223531Y132081D01*
X223434Y132067D01*
X223323Y132039D01*
X223184Y131998D01*
X223031Y131970D01*
X222865Y131929D01*
X222671Y131887D01*
X222477Y131831D01*
X222255Y131776D01*
X221783Y131665D01*
X221270Y131540D01*
X220715Y131388D01*
X220133Y131235D01*
X219509Y131069D01*
X218871Y130888D01*
X217581Y130500D01*
X216929Y130292D01*
X216278Y130084D01*
X216264D01*
X216236Y130070D01*
X216180Y130056D01*
X216125D01*
X215972Y130042D01*
X215820Y130056D01*
X215806D01*
X215778Y130070D01*
X215723Y130084D01*
X215667Y130098D01*
X215612Y130140D01*
X215543Y130181D01*
X215473Y130250D01*
X215418Y130334D01*
Y130347D01*
X215404Y130375D01*
X215390Y130417D01*
X215376Y130458D01*
X215348Y130597D01*
Y130750D01*
X215362Y130805D01*
X215376Y130875D01*
X215418Y130972D01*
X215487Y131069D01*
X215584Y131166D01*
X215709Y131249D01*
X215889Y131332D01*
X215917Y131346D01*
X215986Y131360D01*
X216111Y131402D01*
X216278Y131457D01*
X216486Y131512D01*
X216721Y131582D01*
X216999Y131665D01*
X217304Y131762D01*
X217623Y131859D01*
X217983Y131970D01*
X218344Y132081D01*
X218732Y132192D01*
X219550Y132442D01*
X220383Y132691D01*
X220355Y132705D01*
X220285Y132719D01*
X220175Y132761D01*
X220022Y132802D01*
X219828Y132858D01*
X219592Y132927D01*
X219342Y132996D01*
X219051Y133080D01*
X218746Y133163D01*
X218413Y133260D01*
X218053Y133357D01*
X217692Y133454D01*
X216929Y133662D01*
X216139Y133856D01*
X216125D01*
X216111Y133870D01*
X216070D01*
X216014Y133884D01*
X215889Y133939D01*
X215737Y134009D01*
X215598Y134092D01*
X215473Y134217D01*
X215418Y134286D01*
X215376Y134355D01*
X215362Y134439D01*
X215348Y134536D01*
Y134564D01*
X215362Y134619D01*
X215390Y134702D01*
X215445Y134799D01*
X215543Y134910D01*
X215681Y135021D01*
X215764Y135077D01*
X215861Y135132D01*
X215986Y135188D01*
X216125Y135229D01*
X216153Y135243D01*
X216208Y135257D01*
X216319Y135285D01*
X216472Y135326D01*
X216652Y135382D01*
X216874Y135451D01*
X217137Y135534D01*
X217415Y135618D01*
X217720Y135715D01*
X218053Y135812D01*
X218413Y135923D01*
X218788Y136047D01*
X219176Y136172D01*
X219592Y136297D01*
X220438Y136574D01*
X220410Y136588D01*
X220341Y136602D01*
X220216Y136644D01*
X220050Y136685D01*
X219842Y136741D01*
X219592Y136810D01*
X219315Y136893D01*
X218996Y136977D01*
X218663Y137060D01*
X218302Y137157D01*
X217928Y137268D01*
X217526Y137365D01*
X217110Y137476D01*
X216694Y137587D01*
X215820Y137809D01*
X215806D01*
X215751Y137836D01*
X215681Y137878D01*
X215598Y137920D01*
X215515Y138003D01*
X215445Y138100D01*
X215376Y138211D01*
X215348Y138363D01*
Y138405D01*
X215334Y138461D01*
Y138516D01*
X215362Y138668D01*
X215376Y138752D01*
X215418Y138835D01*
Y138849D01*
X215445Y138890D01*
X215487Y138932D01*
X215543Y139001D01*
X215626Y139057D01*
X215723Y139099D01*
X215861Y139126D01*
X216028D01*
X216042D01*
X216070D01*
X216125Y139112D01*
D02*
G37*
G36*
X221575Y129391D02*
X221658Y129377D01*
X221769Y129363D01*
X221880Y129335D01*
X222158Y129280D01*
X222449Y129169D01*
X222768Y129016D01*
X222920Y128919D01*
X223073Y128822D01*
X223212Y128697D01*
X223350Y128559D01*
X223364Y128545D01*
X223378Y128531D01*
X223406Y128489D01*
X223461Y128420D01*
X223503Y128350D01*
X223558Y128253D01*
X223628Y128156D01*
X223683Y128032D01*
X223753Y127893D01*
X223822Y127740D01*
X223877Y127574D01*
X223933Y127407D01*
X224030Y127005D01*
X224058Y126783D01*
X224072Y126547D01*
Y126048D01*
X224058Y125813D01*
X224030Y125563D01*
X224002Y125313D01*
X223961Y125064D01*
Y125050D01*
X223947Y125008D01*
X223919Y124939D01*
X223891Y124856D01*
X223850Y124731D01*
X223780Y124606D01*
X223711Y124467D01*
X223614Y124301D01*
X223600Y124287D01*
X223558Y124232D01*
X223503Y124148D01*
X223420Y124051D01*
X223323Y123954D01*
X223212Y123843D01*
X223087Y123746D01*
X222948Y123677D01*
X222934D01*
X222893Y123663D01*
X222823Y123649D01*
X222726D01*
X222629Y123663D01*
X222518Y123691D01*
X222393Y123732D01*
X222269Y123815D01*
X222255Y123829D01*
X222241Y123843D01*
X222172Y123926D01*
X222088Y124065D01*
X222033Y124232D01*
Y124245D01*
X222019Y124273D01*
Y124329D01*
X222033Y124398D01*
X222047Y124481D01*
X222075Y124578D01*
X222130Y124675D01*
X222213Y124772D01*
X222227Y124786D01*
X222255Y124814D01*
X222296Y124856D01*
X222352Y124925D01*
X222421Y125008D01*
X222477Y125091D01*
X222602Y125313D01*
X222615Y125341D01*
X222643Y125410D01*
X222685Y125521D01*
X222726Y125660D01*
X222768Y125840D01*
X222810Y126034D01*
X222837Y126270D01*
Y126534D01*
X222823Y126617D01*
X222810Y126728D01*
X222782Y126880D01*
X222726Y127047D01*
X222671Y127227D01*
X222588Y127394D01*
X222477Y127560D01*
X222463Y127588D01*
X222393Y127643D01*
X222310Y127726D01*
X222185Y127823D01*
X222047Y127921D01*
X221866Y128004D01*
X221672Y128073D01*
X221464Y128101D01*
X221450D01*
X221437D01*
X221353D01*
X221242D01*
X221104Y128073D01*
X220951Y128032D01*
X220799Y127976D01*
X220660Y127893D01*
X220535Y127768D01*
X220521Y127754D01*
X220494Y127712D01*
X220480Y127671D01*
X220452Y127615D01*
X220424Y127560D01*
X220396Y127477D01*
X220369Y127366D01*
X220341Y127255D01*
X220327Y127102D01*
X220299Y126950D01*
X220285Y126756D01*
X220258Y126534D01*
Y126298D01*
X220244Y126021D01*
Y125965D01*
X220230Y125910D01*
X220216Y125826D01*
X220202Y125729D01*
X220175Y125618D01*
X220105Y125369D01*
X220008Y125091D01*
X219869Y124786D01*
X219675Y124509D01*
X219550Y124384D01*
X219426Y124259D01*
X219398Y124232D01*
X219329Y124176D01*
X219204Y124107D01*
X219037Y124010D01*
X218829Y123926D01*
X218594Y123843D01*
X218330Y123788D01*
X218025Y123774D01*
X218011D01*
X217969D01*
X217900D01*
X217803Y123788D01*
X217692D01*
X217567Y123802D01*
X217276Y123857D01*
X216957Y123954D01*
X216791Y124010D01*
X216624Y124079D01*
X216458Y124176D01*
X216305Y124273D01*
X216153Y124398D01*
X216014Y124537D01*
X216000Y124551D01*
X215986Y124578D01*
X215958Y124620D01*
X215917Y124675D01*
X215861Y124745D01*
X215806Y124842D01*
X215751Y124953D01*
X215681Y125064D01*
X215626Y125202D01*
X215570Y125355D01*
X215515Y125521D01*
X215459Y125702D01*
X215390Y126104D01*
X215362Y126312D01*
Y126769D01*
X215376Y126894D01*
X215390Y127019D01*
X215418Y127324D01*
X215473Y127657D01*
X215543Y127990D01*
X215653Y128309D01*
X215723Y128461D01*
X215792Y128586D01*
X215806Y128600D01*
X215834Y128656D01*
X215889Y128739D01*
X215972Y128850D01*
X216070Y128947D01*
X216194Y129072D01*
X216333Y129169D01*
X216486Y129266D01*
X216499D01*
X216555Y129280D01*
X216638Y129293D01*
X216735D01*
X216860D01*
X216985Y129280D01*
X217110Y129238D01*
X217234Y129183D01*
X217248Y129169D01*
X217262Y129141D01*
X217304Y129099D01*
X217332Y129044D01*
X217415Y128877D01*
X217429Y128780D01*
X217442Y128683D01*
Y128628D01*
X217429Y128572D01*
X217415Y128503D01*
X217387Y128420D01*
X217345Y128337D01*
X217290Y128267D01*
X217221Y128198D01*
X217207Y128184D01*
X217179Y128170D01*
X217124Y128115D01*
X217068Y128059D01*
X216915Y127907D01*
X216763Y127712D01*
X216749Y127699D01*
X216721Y127643D01*
X216694Y127546D01*
X216652Y127421D01*
X216610Y127255D01*
X216583Y127061D01*
X216555Y126839D01*
Y126506D01*
X216569Y126451D01*
X216583Y126298D01*
X216624Y126118D01*
X216680Y125910D01*
X216763Y125702D01*
X216860Y125507D01*
X216999Y125327D01*
X217013Y125313D01*
X217068Y125272D01*
X217165Y125216D01*
X217276Y125147D01*
X217415Y125091D01*
X217581Y125036D01*
X217761Y124994D01*
X217956Y124980D01*
X217969D01*
X217983D01*
X218067Y125008D01*
X218191Y125036D01*
X218330Y125077D01*
X218483Y125133D01*
X218621Y125202D01*
X218746Y125286D01*
X218843Y125396D01*
X218857Y125410D01*
X218885Y125466D01*
X218926Y125563D01*
X218940Y125618D01*
X218968Y125702D01*
X218996Y125799D01*
X219010Y125910D01*
X219037Y126034D01*
X219051Y126173D01*
X219065Y126326D01*
Y127116D01*
X219079Y127213D01*
Y127310D01*
X219107Y127574D01*
X219162Y127851D01*
X219245Y128128D01*
X219342Y128406D01*
X219495Y128642D01*
Y128656D01*
X219523Y128669D01*
X219550Y128711D01*
X219592Y128766D01*
X219661Y128822D01*
X219731Y128891D01*
X219814Y128961D01*
X219925Y129030D01*
X220050Y129099D01*
X220188Y129169D01*
X220355Y129238D01*
X220535Y129293D01*
X220743Y129335D01*
X220951Y129377D01*
X221201Y129404D01*
X221464D01*
X221478D01*
X221520D01*
X221575Y129391D01*
D02*
G37*
G36*
X268289Y113625D02*
X268400Y113611D01*
X268664Y113583D01*
X268955Y113514D01*
X269260Y113403D01*
X269551Y113250D01*
X269690Y113167D01*
X269829Y113056D01*
X269842Y113042D01*
X269870Y113014D01*
X269926Y112959D01*
X269981Y112876D01*
X270064Y112779D01*
X270134Y112668D01*
X270217Y112529D01*
X270300Y112376D01*
X270369Y112210D01*
X270425Y112016D01*
X270467Y111808D01*
X270494Y111586D01*
Y111336D01*
X270480Y111087D01*
X270425Y110823D01*
X270342Y110532D01*
Y110518D01*
X270328Y110504D01*
X270314Y110463D01*
X270273Y110407D01*
X270245Y110324D01*
X270189Y110227D01*
X270120Y110116D01*
X270051Y109991D01*
X269953Y109839D01*
X269856Y109672D01*
X269732Y109478D01*
X269593Y109256D01*
X269440Y109034D01*
X269274Y108771D01*
X269080Y108493D01*
X268872Y108188D01*
Y108174D01*
X268844Y108147D01*
X268816Y108105D01*
X268775Y108050D01*
X268733Y107966D01*
X268664Y107869D01*
X268594Y107758D01*
X268511Y107620D01*
X268414Y107481D01*
X268303Y107328D01*
X268178Y107148D01*
X268053Y106968D01*
X267762Y106552D01*
X267429Y106094D01*
X268983Y106080D01*
X269912D01*
X270037Y106066D01*
X270161Y106025D01*
X270300Y105969D01*
X270397Y105872D01*
X270480Y105734D01*
X270494Y105637D01*
Y105539D01*
Y105512D01*
X270480Y105456D01*
X270453Y105359D01*
X270397Y105248D01*
X270328Y105137D01*
X270203Y105040D01*
X270051Y104957D01*
X269953Y104929D01*
X269842Y104915D01*
X266112D01*
X266070Y104929D01*
X266015Y104957D01*
X265959Y104999D01*
X265890Y105054D01*
X265835Y105137D01*
X265779Y105234D01*
X265751Y105359D01*
Y105373D01*
X265737Y105428D01*
Y105526D01*
X265751Y105650D01*
X265793Y105803D01*
X265876Y105997D01*
X265932Y106094D01*
X266001Y106205D01*
X266084Y106330D01*
X266181Y106455D01*
X266195Y106469D01*
X266209Y106496D01*
X266251Y106552D01*
X266306Y106621D01*
X266362Y106704D01*
X266431Y106801D01*
X266597Y107023D01*
X266778Y107301D01*
X266986Y107578D01*
X267180Y107883D01*
X267374Y108174D01*
X267388Y108188D01*
X267402Y108216D01*
X267429Y108258D01*
X267471Y108327D01*
X267526Y108410D01*
X267582Y108493D01*
X267721Y108701D01*
X267873Y108937D01*
X268040Y109187D01*
X268192Y109423D01*
X268345Y109644D01*
X268359Y109658D01*
X268372Y109686D01*
X268414Y109741D01*
X268470Y109811D01*
X268525Y109908D01*
X268594Y110005D01*
X268747Y110227D01*
X268899Y110463D01*
X269052Y110712D01*
X269177Y110934D01*
X269219Y111031D01*
X269260Y111115D01*
Y111128D01*
Y111142D01*
X269274Y111212D01*
X269288Y111322D01*
Y111475D01*
X269260Y111628D01*
X269205Y111808D01*
X269107Y111988D01*
X269052Y112085D01*
X268969Y112169D01*
X268955Y112182D01*
X268886Y112224D01*
X268789Y112293D01*
X268664Y112349D01*
X268483Y112404D01*
X268289Y112460D01*
X268067Y112474D01*
X267804Y112460D01*
X267776D01*
X267693Y112446D01*
X267582Y112390D01*
X267443Y112307D01*
X267360Y112252D01*
X267277Y112182D01*
X267208Y112085D01*
X267124Y111974D01*
X267055Y111849D01*
X266986Y111711D01*
X266916Y111544D01*
X266861Y111350D01*
X266847Y111336D01*
X266819Y111281D01*
X266778Y111212D01*
X266708Y111142D01*
X266611Y111059D01*
X266500Y111004D01*
X266375Y110962D01*
X266223Y110948D01*
X266195Y110962D01*
X266140Y110976D01*
X266070Y111017D01*
X265973Y111073D01*
X265876Y111142D01*
X265793Y111239D01*
X265737Y111350D01*
X265710Y111489D01*
Y111503D01*
Y111544D01*
Y111614D01*
Y111711D01*
X265724Y111822D01*
X265751Y111947D01*
X265779Y112085D01*
X265835Y112238D01*
X265848Y112252D01*
X265862Y112307D01*
X265904Y112390D01*
X265973Y112501D01*
X266056Y112626D01*
X266167Y112765D01*
X266306Y112931D01*
X266486Y113084D01*
X266514Y113112D01*
X266597Y113167D01*
X266722Y113250D01*
X266889Y113347D01*
X267111Y113444D01*
X267374Y113541D01*
X267665Y113597D01*
X267998Y113639D01*
X268192D01*
X268289Y113625D01*
D02*
G37*
G36*
X262159D02*
X262284D01*
X262409Y113611D01*
X262562Y113583D01*
X262728Y113569D01*
X263075Y113500D01*
X263435Y113389D01*
X263782Y113236D01*
X263948Y113153D01*
X264101Y113042D01*
X264115D01*
X264129Y113014D01*
X264170Y112973D01*
X264212Y112931D01*
X264267Y112862D01*
X264323Y112793D01*
X264392Y112696D01*
X264462Y112585D01*
X264531Y112460D01*
X264586Y112321D01*
X264656Y112169D01*
X264711Y112002D01*
X264753Y111808D01*
X264794Y111614D01*
X264822Y111392D01*
X264836Y111156D01*
Y111031D01*
Y111017D01*
Y110948D01*
X264822Y110865D01*
X264808Y110740D01*
X264781Y110588D01*
X264739Y110421D01*
X264683Y110241D01*
X264614Y110047D01*
X264517Y109853D01*
X264406Y109658D01*
X264281Y109464D01*
X264115Y109270D01*
X263921Y109104D01*
X263699Y108937D01*
X263435Y108812D01*
X263144Y108701D01*
X263158Y108687D01*
X263186Y108632D01*
X263241Y108549D01*
X263311Y108438D01*
X263380Y108299D01*
X263477Y108133D01*
X263588Y107952D01*
X263699Y107758D01*
X263824Y107536D01*
X263948Y107315D01*
X264212Y106829D01*
X264475Y106344D01*
X264711Y105844D01*
X264725Y105831D01*
X264739Y105775D01*
X264753Y105706D01*
X264781Y105609D01*
X264794Y105498D01*
X264781Y105387D01*
X264753Y105248D01*
X264697Y105123D01*
X264683Y105110D01*
X264656Y105082D01*
X264614Y105054D01*
X264559Y105012D01*
X264475Y104971D01*
X264392Y104929D01*
X264281Y104902D01*
X264115D01*
X264046Y104929D01*
X263962Y104957D01*
X263865Y104999D01*
X263768Y105068D01*
X263671Y105165D01*
X263588Y105290D01*
X263574Y105304D01*
X263546Y105359D01*
X263505Y105428D01*
X263449Y105539D01*
X263380Y105664D01*
X263297Y105831D01*
X263186Y106011D01*
X263075Y106205D01*
X262950Y106441D01*
X262825Y106677D01*
X262673Y106940D01*
X262520Y107218D01*
X262367Y107509D01*
X262201Y107814D01*
X261840Y108452D01*
X259705D01*
Y105553D01*
Y105539D01*
Y105512D01*
X259691Y105456D01*
X259677Y105387D01*
X259622Y105234D01*
X259580Y105165D01*
X259511Y105082D01*
X259497Y105068D01*
X259483Y105054D01*
X259427Y105026D01*
X259372Y104999D01*
X259219Y104929D01*
X259136Y104915D01*
X259025Y104902D01*
X258984D01*
X258928Y104915D01*
X258873Y104929D01*
X258720Y104985D01*
X258637Y105026D01*
X258554Y105082D01*
X258540Y105096D01*
X258526Y105123D01*
X258484Y105165D01*
X258457Y105220D01*
X258373Y105359D01*
X258360Y105456D01*
X258346Y105553D01*
Y112959D01*
Y112973D01*
Y113001D01*
X258360Y113056D01*
X258373Y113125D01*
X258401Y113195D01*
X258429Y113278D01*
X258484Y113361D01*
X258554Y113431D01*
X258568Y113444D01*
X258595Y113458D01*
X258637Y113500D01*
X258692Y113541D01*
X258845Y113611D01*
X258928Y113625D01*
X259025Y113639D01*
X262076D01*
X262159Y113625D01*
D02*
G37*
G36*
X-3723Y130972D02*
X-3584Y130931D01*
X-3446Y130847D01*
X-3432Y130834D01*
X-3418Y130820D01*
X-3390Y130778D01*
X-3349Y130723D01*
X-3307Y130653D01*
X-3279Y130556D01*
X-3265Y130459D01*
X-3252Y130334D01*
Y130265D01*
X-3265Y130196D01*
X-3279Y130112D01*
X-3335Y129918D01*
X-3376Y129835D01*
X-3446Y129766D01*
X-3473Y129752D01*
X-3543Y129710D01*
X-3668Y129669D01*
X-3834Y129641D01*
X-10158D01*
X-9603Y128739D01*
Y128726D01*
X-9575Y128698D01*
X-9562Y128656D01*
X-9534Y128601D01*
X-9492Y128448D01*
Y128365D01*
X-9506Y128268D01*
Y128254D01*
X-9520Y128226D01*
X-9534Y128171D01*
X-9562Y128115D01*
X-9589Y128060D01*
X-9645Y127991D01*
X-9700Y127921D01*
X-9783Y127866D01*
X-9797D01*
X-9825Y127838D01*
X-9867Y127824D01*
X-9922Y127796D01*
X-10075Y127755D01*
X-10172D01*
X-10269Y127769D01*
X-10283D01*
X-10310Y127782D01*
X-10352Y127796D01*
X-10408Y127824D01*
X-10477Y127852D01*
X-10546Y127907D01*
X-10616Y127963D01*
X-10671Y128046D01*
X-11864Y129918D01*
Y129932D01*
X-11878Y129946D01*
X-11933Y130029D01*
X-11975Y130154D01*
X-11989Y130320D01*
Y130362D01*
X-11975Y130417D01*
X-11961Y130473D01*
X-11905Y130625D01*
X-11864Y130709D01*
X-11794Y130792D01*
X-11781Y130806D01*
X-11753Y130820D01*
X-11711Y130847D01*
X-11656Y130889D01*
X-11503Y130958D01*
X-11420Y130972D01*
X-11323Y130986D01*
X-3862D01*
X-3848D01*
X-3820D01*
X-3778D01*
X-3723Y130972D01*
D02*
G37*
G36*
X-9215Y126950D02*
X-9090Y126937D01*
X-8938Y126909D01*
X-8771Y126867D01*
X-8591Y126812D01*
X-8397Y126742D01*
X-8202Y126645D01*
X-8008Y126534D01*
X-7814Y126410D01*
X-7620Y126243D01*
X-7454Y126049D01*
X-7287Y125827D01*
X-7162Y125564D01*
X-7051Y125272D01*
X-7038Y125286D01*
X-6982Y125314D01*
X-6899Y125369D01*
X-6788Y125439D01*
X-6649Y125508D01*
X-6483Y125605D01*
X-6302Y125716D01*
X-6108Y125827D01*
X-5886Y125952D01*
X-5665Y126077D01*
X-5179Y126340D01*
X-4694Y126604D01*
X-4195Y126840D01*
X-4181Y126853D01*
X-4125Y126867D01*
X-4056Y126881D01*
X-3959Y126909D01*
X-3848Y126923D01*
X-3737Y126909D01*
X-3598Y126881D01*
X-3473Y126826D01*
X-3460Y126812D01*
X-3432Y126784D01*
X-3404Y126742D01*
X-3362Y126687D01*
X-3321Y126604D01*
X-3279Y126521D01*
X-3252Y126410D01*
Y126243D01*
X-3279Y126174D01*
X-3307Y126091D01*
X-3349Y125993D01*
X-3418Y125896D01*
X-3515Y125799D01*
X-3640Y125716D01*
X-3654Y125702D01*
X-3709Y125674D01*
X-3778Y125633D01*
X-3889Y125577D01*
X-4014Y125508D01*
X-4181Y125425D01*
X-4361Y125314D01*
X-4555Y125203D01*
X-4791Y125078D01*
X-5027Y124953D01*
X-5290Y124801D01*
X-5567Y124648D01*
X-5859Y124496D01*
X-6164Y124329D01*
X-6802Y123969D01*
Y121833D01*
X-3903D01*
X-3889D01*
X-3862D01*
X-3806Y121819D01*
X-3737Y121805D01*
X-3584Y121750D01*
X-3515Y121708D01*
X-3432Y121639D01*
X-3418Y121625D01*
X-3404Y121611D01*
X-3376Y121556D01*
X-3349Y121500D01*
X-3279Y121348D01*
X-3265Y121264D01*
X-3252Y121153D01*
Y121112D01*
X-3265Y121056D01*
X-3279Y121001D01*
X-3335Y120848D01*
X-3376Y120765D01*
X-3432Y120682D01*
X-3446Y120668D01*
X-3473Y120654D01*
X-3515Y120613D01*
X-3570Y120585D01*
X-3709Y120502D01*
X-3806Y120488D01*
X-3903Y120474D01*
X-11309D01*
X-11323D01*
X-11351D01*
X-11406Y120488D01*
X-11475Y120502D01*
X-11545Y120529D01*
X-11628Y120557D01*
X-11711Y120613D01*
X-11781Y120682D01*
X-11794Y120696D01*
X-11808Y120723D01*
X-11850Y120765D01*
X-11891Y120821D01*
X-11961Y120973D01*
X-11975Y121056D01*
X-11989Y121153D01*
Y124205D01*
X-11975Y124288D01*
Y124412D01*
X-11961Y124537D01*
X-11933Y124690D01*
X-11919Y124856D01*
X-11850Y125203D01*
X-11739Y125564D01*
X-11586Y125910D01*
X-11503Y126077D01*
X-11392Y126229D01*
Y126243D01*
X-11365Y126257D01*
X-11323Y126299D01*
X-11281Y126340D01*
X-11212Y126396D01*
X-11143Y126451D01*
X-11046Y126521D01*
X-10934Y126590D01*
X-10810Y126659D01*
X-10671Y126715D01*
X-10518Y126784D01*
X-10352Y126840D01*
X-10158Y126881D01*
X-9964Y126923D01*
X-9742Y126950D01*
X-9506Y126964D01*
X-9381D01*
X-9367D01*
X-9298D01*
X-9215Y126950D01*
D02*
G37*
G36*
X333272Y100923D02*
X333355Y100909D01*
X333452Y100896D01*
X333702Y100840D01*
X333965Y100757D01*
X334257Y100618D01*
X334395Y100535D01*
X334534Y100424D01*
X334673Y100313D01*
X334797Y100174D01*
X334811Y100147D01*
X334867Y100063D01*
X334936Y99925D01*
X335019Y99744D01*
X335103Y99522D01*
X335172Y99273D01*
X335227Y98968D01*
X335241Y98649D01*
Y98635D01*
Y98580D01*
Y98496D01*
X335227Y98399D01*
X335213Y98274D01*
X335186Y98136D01*
X335144Y97969D01*
X335103Y97803D01*
X335047Y97636D01*
X334964Y97456D01*
X334867Y97290D01*
X334756Y97123D01*
X334617Y96971D01*
X334451Y96818D01*
X334257Y96693D01*
X334049Y96582D01*
X334062D01*
X334104Y96555D01*
X334173Y96527D01*
X334270Y96485D01*
X334367Y96430D01*
X334492Y96361D01*
X334617Y96263D01*
X334742Y96166D01*
X334867Y96041D01*
X334991Y95903D01*
X335103Y95736D01*
X335213Y95570D01*
X335297Y95362D01*
X335352Y95140D01*
X335394Y94904D01*
X335408Y94641D01*
Y94627D01*
Y94599D01*
Y94544D01*
Y94460D01*
X335394Y94377D01*
X335380Y94280D01*
X335338Y94031D01*
X335269Y93767D01*
X335158Y93490D01*
X334991Y93212D01*
X334894Y93088D01*
X334784Y92963D01*
X334770Y92949D01*
X334756Y92935D01*
X334714Y92893D01*
X334645Y92852D01*
X334576Y92796D01*
X334492Y92727D01*
X334381Y92658D01*
X334270Y92588D01*
X334007Y92450D01*
X333688Y92325D01*
X333327Y92242D01*
X333133Y92228D01*
X332925Y92214D01*
X332883D01*
X332828Y92228D01*
X332745Y92242D01*
X332662Y92255D01*
X332551Y92283D01*
X332301Y92339D01*
X332038Y92450D01*
X331746Y92588D01*
X331608Y92685D01*
X331469Y92796D01*
X331344Y92907D01*
X331219Y93046D01*
X331205Y93060D01*
X331178Y93101D01*
X331136Y93171D01*
X331081Y93254D01*
X331025Y93365D01*
X330970Y93476D01*
X330928Y93615D01*
X330900Y93753D01*
Y93767D01*
Y93795D01*
X330914Y93850D01*
X330928Y93906D01*
X330984Y94058D01*
X331025Y94128D01*
X331081Y94183D01*
X331095Y94197D01*
X331108Y94211D01*
X331192Y94266D01*
X331316Y94322D01*
X331400Y94350D01*
X331552D01*
X331635Y94336D01*
X331732Y94308D01*
X331843Y94266D01*
X331940Y94197D01*
X332038Y94100D01*
X332107Y93975D01*
X332121Y93947D01*
X332176Y93878D01*
X332259Y93781D01*
X332356Y93670D01*
X332495Y93559D01*
X332648Y93462D01*
X332828Y93406D01*
X332925Y93379D01*
X333092D01*
X333175Y93393D01*
X333272Y93420D01*
X333383Y93448D01*
X333508Y93504D01*
X333619Y93573D01*
X333743Y93670D01*
X333757Y93698D01*
X333813Y93753D01*
X333882Y93864D01*
X333965Y94003D01*
X334035Y94169D01*
X334090Y94363D01*
X334104Y94585D01*
X334090Y94710D01*
X334076Y94835D01*
Y94849D01*
X334062Y94890D01*
X334035Y94932D01*
X333993Y95015D01*
X333896Y95182D01*
X333771Y95390D01*
X333591Y95584D01*
X333480Y95681D01*
X333369Y95764D01*
X333258Y95820D01*
X333119Y95875D01*
X332981Y95903D01*
X332800D01*
X332731Y95917D01*
X332648Y95944D01*
X332537Y96000D01*
X332440Y96083D01*
X332343Y96194D01*
X332287Y96333D01*
X332259Y96430D01*
Y96527D01*
Y96541D01*
Y96555D01*
Y96638D01*
X332273Y96763D01*
X332301Y96901D01*
X332384Y97040D01*
X332440Y97109D01*
X332495Y97165D01*
X332578Y97220D01*
X332676Y97276D01*
X332786Y97304D01*
X332925Y97331D01*
X332967D01*
X333022Y97345D01*
X333092Y97359D01*
X333258Y97401D01*
X333355Y97442D01*
X333452Y97498D01*
X333549Y97567D01*
X333632Y97664D01*
X333730Y97761D01*
X333799Y97900D01*
X333868Y98039D01*
X333924Y98219D01*
X333951Y98413D01*
X333965Y98649D01*
Y98663D01*
Y98690D01*
Y98732D01*
Y98787D01*
X333937Y98940D01*
X333896Y99134D01*
X333813Y99328D01*
X333688Y99509D01*
X333605Y99592D01*
X333521Y99675D01*
X333410Y99731D01*
X333286Y99786D01*
X333244D01*
X333203Y99800D01*
X333147D01*
X332994Y99786D01*
X332800Y99758D01*
X332592Y99689D01*
X332495Y99647D01*
X332384Y99578D01*
X332287Y99495D01*
X332190Y99398D01*
X332107Y99273D01*
X332024Y99134D01*
X332010Y99107D01*
X331982Y99051D01*
X331913Y98968D01*
X331829Y98871D01*
X331719Y98787D01*
X331580Y98732D01*
X331400Y98704D01*
X331302D01*
X331205Y98732D01*
X331192Y98746D01*
X331136Y98760D01*
X331067Y98815D01*
X330984Y98885D01*
X330900Y98982D01*
X330845Y99107D01*
X330817Y99273D01*
Y99467D01*
Y99481D01*
X330831Y99522D01*
X330859Y99578D01*
X330886Y99661D01*
X330928Y99758D01*
X330997Y99869D01*
X331067Y99980D01*
X331164Y100105D01*
X331178Y100119D01*
X331192Y100147D01*
X331219Y100188D01*
X331275Y100244D01*
X331344Y100313D01*
X331413Y100382D01*
X331511Y100466D01*
X331622Y100549D01*
X331746Y100618D01*
X331885Y100701D01*
X332038Y100771D01*
X332218Y100826D01*
X332412Y100882D01*
X332620Y100923D01*
X332842Y100937D01*
X333189D01*
X333272Y100923D01*
D02*
G37*
G36*
X328917D02*
X328987Y100909D01*
X329139Y100854D01*
X329222Y100812D01*
X329292Y100743D01*
X329305Y100729D01*
X329319Y100701D01*
X329361Y100660D01*
X329403Y100604D01*
X329472Y100452D01*
X329486Y100368D01*
X329500Y100271D01*
Y95320D01*
Y95307D01*
Y95279D01*
Y95237D01*
Y95182D01*
X329486Y95112D01*
Y95029D01*
X329458Y94821D01*
X329416Y94572D01*
X329347Y94308D01*
X329250Y94017D01*
X329125Y93712D01*
X328973Y93406D01*
X328778Y93115D01*
X328543Y92852D01*
X328251Y92602D01*
X328085Y92491D01*
X327919Y92394D01*
X327724Y92311D01*
X327517Y92242D01*
X327295Y92186D01*
X327073Y92144D01*
X326809Y92117D01*
X326546Y92103D01*
X326379D01*
X326254Y92117D01*
X326102D01*
X325936Y92144D01*
X325741Y92158D01*
X325533Y92186D01*
X325505D01*
X325450Y92214D01*
X325367Y92242D01*
X325270Y92297D01*
X325159Y92366D01*
X325076Y92477D01*
X325020Y92616D01*
X324992Y92782D01*
Y92796D01*
Y92810D01*
X325006Y92879D01*
X325020Y92991D01*
X325076Y93115D01*
X325145Y93226D01*
X325256Y93337D01*
X325409Y93406D01*
X325505Y93434D01*
X325616D01*
X326005Y93393D01*
X326046D01*
X326102Y93379D01*
X326171D01*
X326352Y93365D01*
X326546Y93351D01*
X326629D01*
X326684Y93365D01*
X326851Y93379D01*
X327031Y93406D01*
X327239Y93462D01*
X327447Y93545D01*
X327641Y93656D01*
X327794Y93809D01*
X327808Y93836D01*
X327849Y93892D01*
X327905Y94003D01*
X327974Y94169D01*
X328044Y94377D01*
X328099Y94641D01*
X328127Y94780D01*
X328140Y94946D01*
X328154Y95126D01*
Y95320D01*
Y100271D01*
Y100285D01*
Y100313D01*
X328168Y100368D01*
X328182Y100424D01*
X328238Y100576D01*
X328279Y100660D01*
X328349Y100743D01*
X328362Y100757D01*
X328390Y100771D01*
X328432Y100798D01*
X328487Y100840D01*
X328640Y100909D01*
X328723Y100923D01*
X328820Y100937D01*
X328862D01*
X328917Y100923D01*
D02*
G37*
G36*
X62106Y99653D02*
X62176Y99639D01*
X62328Y99584D01*
X62411Y99542D01*
X62481Y99473D01*
X62495Y99459D01*
X62508Y99431D01*
X62550Y99390D01*
X62592Y99334D01*
X62661Y99182D01*
X62675Y99099D01*
X62689Y99001D01*
Y94050D01*
Y94037D01*
Y94009D01*
Y93967D01*
Y93912D01*
X62675Y93842D01*
Y93759D01*
X62647Y93551D01*
X62606Y93301D01*
X62536Y93038D01*
X62439Y92747D01*
X62314Y92442D01*
X62162Y92136D01*
X61968Y91845D01*
X61732Y91582D01*
X61441Y91332D01*
X61274Y91221D01*
X61108Y91124D01*
X60914Y91041D01*
X60705Y90972D01*
X60484Y90916D01*
X60262Y90875D01*
X59998Y90847D01*
X59735Y90833D01*
X59568D01*
X59443Y90847D01*
X59291D01*
X59124Y90875D01*
X58930Y90888D01*
X58722Y90916D01*
X58695D01*
X58639Y90944D01*
X58556Y90972D01*
X58459Y91027D01*
X58348Y91096D01*
X58265Y91207D01*
X58209Y91346D01*
X58182Y91512D01*
Y91526D01*
Y91540D01*
X58195Y91609D01*
X58209Y91721D01*
X58265Y91845D01*
X58334Y91956D01*
X58445Y92067D01*
X58597Y92136D01*
X58695Y92164D01*
X58805D01*
X59194Y92123D01*
X59236D01*
X59291Y92109D01*
X59360D01*
X59541Y92095D01*
X59735Y92081D01*
X59818D01*
X59873Y92095D01*
X60040Y92109D01*
X60220Y92136D01*
X60428Y92192D01*
X60636Y92275D01*
X60830Y92386D01*
X60983Y92539D01*
X60997Y92566D01*
X61038Y92622D01*
X61094Y92733D01*
X61163Y92899D01*
X61233Y93107D01*
X61288Y93371D01*
X61316Y93510D01*
X61330Y93676D01*
X61343Y93856D01*
Y94050D01*
Y99001D01*
Y99015D01*
Y99043D01*
X61357Y99099D01*
X61371Y99154D01*
X61427Y99306D01*
X61468Y99390D01*
X61538Y99473D01*
X61551Y99487D01*
X61579Y99501D01*
X61621Y99528D01*
X61676Y99570D01*
X61829Y99639D01*
X61912Y99653D01*
X62009Y99667D01*
X62051D01*
X62106Y99653D01*
D02*
G37*
G36*
X66613D02*
X66724Y99639D01*
X66988Y99612D01*
X67279Y99542D01*
X67584Y99431D01*
X67875Y99279D01*
X68014Y99196D01*
X68153Y99085D01*
X68167Y99071D01*
X68194Y99043D01*
X68250Y98988D01*
X68305Y98904D01*
X68389Y98807D01*
X68458Y98696D01*
X68541Y98558D01*
X68624Y98405D01*
X68694Y98239D01*
X68749Y98045D01*
X68791Y97837D01*
X68818Y97615D01*
Y97365D01*
X68805Y97115D01*
X68749Y96852D01*
X68666Y96561D01*
Y96547D01*
X68652Y96533D01*
X68638Y96491D01*
X68597Y96436D01*
X68569Y96353D01*
X68513Y96256D01*
X68444Y96145D01*
X68375Y96020D01*
X68278Y95867D01*
X68181Y95701D01*
X68056Y95507D01*
X67917Y95285D01*
X67765Y95063D01*
X67598Y94799D01*
X67404Y94522D01*
X67196Y94217D01*
Y94203D01*
X67168Y94175D01*
X67140Y94134D01*
X67099Y94078D01*
X67057Y93995D01*
X66988Y93898D01*
X66919Y93787D01*
X66835Y93648D01*
X66738Y93510D01*
X66627Y93357D01*
X66502Y93177D01*
X66378Y92996D01*
X66087Y92580D01*
X65754Y92123D01*
X67307Y92109D01*
X68236D01*
X68361Y92095D01*
X68486Y92053D01*
X68624Y91998D01*
X68721Y91901D01*
X68805Y91762D01*
X68818Y91665D01*
Y91568D01*
Y91540D01*
X68805Y91485D01*
X68777Y91388D01*
X68721Y91277D01*
X68652Y91166D01*
X68527Y91069D01*
X68375Y90985D01*
X68278Y90958D01*
X68167Y90944D01*
X64436D01*
X64394Y90958D01*
X64339Y90985D01*
X64284Y91027D01*
X64214Y91082D01*
X64159Y91166D01*
X64103Y91263D01*
X64075Y91388D01*
Y91402D01*
X64062Y91457D01*
Y91554D01*
X64075Y91679D01*
X64117Y91831D01*
X64200Y92026D01*
X64256Y92123D01*
X64325Y92234D01*
X64408Y92358D01*
X64506Y92483D01*
X64519Y92497D01*
X64533Y92525D01*
X64575Y92580D01*
X64630Y92650D01*
X64686Y92733D01*
X64755Y92830D01*
X64921Y93052D01*
X65102Y93329D01*
X65310Y93607D01*
X65504Y93912D01*
X65698Y94203D01*
X65712Y94217D01*
X65726Y94244D01*
X65754Y94286D01*
X65795Y94355D01*
X65851Y94439D01*
X65906Y94522D01*
X66045Y94730D01*
X66197Y94966D01*
X66364Y95215D01*
X66516Y95451D01*
X66669Y95673D01*
X66683Y95687D01*
X66697Y95715D01*
X66738Y95770D01*
X66794Y95839D01*
X66849Y95936D01*
X66919Y96034D01*
X67071Y96256D01*
X67224Y96491D01*
X67376Y96741D01*
X67501Y96963D01*
X67543Y97060D01*
X67584Y97143D01*
Y97157D01*
Y97171D01*
X67598Y97240D01*
X67612Y97351D01*
Y97504D01*
X67584Y97656D01*
X67529Y97837D01*
X67432Y98017D01*
X67376Y98114D01*
X67293Y98197D01*
X67279Y98211D01*
X67210Y98252D01*
X67113Y98322D01*
X66988Y98377D01*
X66808Y98433D01*
X66613Y98488D01*
X66392Y98502D01*
X66128Y98488D01*
X66100D01*
X66017Y98474D01*
X65906Y98419D01*
X65767Y98336D01*
X65684Y98280D01*
X65601Y98211D01*
X65532Y98114D01*
X65448Y98003D01*
X65379Y97878D01*
X65310Y97739D01*
X65241Y97573D01*
X65185Y97379D01*
X65171Y97365D01*
X65143Y97310D01*
X65102Y97240D01*
X65033Y97171D01*
X64935Y97088D01*
X64824Y97032D01*
X64700Y96990D01*
X64547Y96977D01*
X64519Y96990D01*
X64464Y97004D01*
X64394Y97046D01*
X64297Y97101D01*
X64200Y97171D01*
X64117Y97268D01*
X64062Y97379D01*
X64034Y97517D01*
Y97531D01*
Y97573D01*
Y97642D01*
Y97739D01*
X64048Y97850D01*
X64075Y97975D01*
X64103Y98114D01*
X64159Y98266D01*
X64173Y98280D01*
X64187Y98336D01*
X64228Y98419D01*
X64297Y98530D01*
X64381Y98655D01*
X64492Y98793D01*
X64630Y98960D01*
X64811Y99112D01*
X64838Y99140D01*
X64921Y99196D01*
X65046Y99279D01*
X65213Y99376D01*
X65435Y99473D01*
X65698Y99570D01*
X65989Y99626D01*
X66322Y99667D01*
X66516D01*
X66613Y99653D01*
D02*
G37*
G36*
X22712Y221274D02*
X22782Y221260D01*
X22934Y221218D01*
X23017Y221163D01*
X23087Y221108D01*
X23101Y221094D01*
X23114Y221080D01*
X23156Y221038D01*
X23184Y220983D01*
X23267Y220844D01*
X23281Y220761D01*
X23295Y220664D01*
Y220206D01*
X23919D01*
X23933D01*
X23974D01*
X24030Y220192D01*
X24099Y220178D01*
X24265Y220123D01*
X24349Y220081D01*
X24432Y220012D01*
X24446Y219998D01*
X24460Y219984D01*
X24529Y219901D01*
X24598Y219804D01*
X24626Y219748D01*
Y219665D01*
X24612Y219610D01*
X24598Y219554D01*
X24571Y219485D01*
X24543Y219402D01*
X24487Y219319D01*
X24418Y219249D01*
X24404Y219235D01*
X24376Y219221D01*
X24335Y219194D01*
X24265Y219152D01*
X24113Y219083D01*
X24016Y219069D01*
X23905Y219055D01*
X23281D01*
X23295Y216739D01*
Y216697D01*
X23281Y216656D01*
X23267Y216586D01*
X23212Y216448D01*
X23170Y216378D01*
X23101Y216309D01*
X23087Y216295D01*
X23073Y216281D01*
X23031Y216254D01*
X22976Y216226D01*
X22906Y216184D01*
X22823Y216157D01*
X22726Y216143D01*
X22615Y216129D01*
X22587D01*
X22518Y216157D01*
X22407Y216212D01*
X22338Y216254D01*
X22269Y216323D01*
X16360Y218639D01*
X16347D01*
X16319D01*
X16263Y218653D01*
X16208Y218681D01*
X16139Y218708D01*
X16069Y218750D01*
X16014Y218819D01*
X15972Y218902D01*
Y218916D01*
X15958Y218944D01*
X15944Y219000D01*
X15931Y219055D01*
Y219221D01*
X15944Y219319D01*
X15972Y219416D01*
Y219429D01*
X16000Y219457D01*
X16028Y219499D01*
X16069Y219554D01*
X16125Y219610D01*
X16194Y219665D01*
X16277Y219721D01*
X16374Y219762D01*
X16388D01*
X16416Y219776D01*
X16472Y219790D01*
X16555Y219804D01*
X16735D01*
X16832Y219790D01*
X16943Y219762D01*
X21936Y217793D01*
X21922Y219055D01*
X20521D01*
X20507D01*
X20466D01*
X20424Y219069D01*
X20355Y219083D01*
X20188Y219138D01*
X20105Y219180D01*
X20022Y219249D01*
X20008Y219263D01*
X19994Y219291D01*
X19966Y219319D01*
X19925Y219374D01*
X19855Y219527D01*
X19842Y219610D01*
X19828Y219707D01*
Y219735D01*
X19855Y219790D01*
X19883Y219832D01*
X19911Y219887D01*
X19966Y219943D01*
X20036Y220012D01*
X20050Y220026D01*
X20063Y220040D01*
X20119Y220068D01*
X20174Y220109D01*
X20244Y220151D01*
X20327Y220178D01*
X20424Y220192D01*
X20535Y220206D01*
X21936D01*
Y220705D01*
X21950Y220761D01*
X21963Y220816D01*
X21991Y220886D01*
X22019Y220969D01*
X22074Y221038D01*
X22144Y221108D01*
X22157Y221122D01*
X22171Y221135D01*
X22213Y221163D01*
X22269Y221205D01*
X22421Y221260D01*
X22518Y221274D01*
X22615Y221288D01*
X22629D01*
X22657D01*
X22712Y221274D01*
D02*
G37*
G36*
X21728Y215005D02*
X21811D01*
X22019Y214978D01*
X22269Y214936D01*
X22532Y214867D01*
X22823Y214770D01*
X23128Y214645D01*
X23433Y214492D01*
X23725Y214298D01*
X23988Y214062D01*
X24238Y213771D01*
X24349Y213605D01*
X24446Y213438D01*
X24529Y213244D01*
X24598Y213036D01*
X24654Y212814D01*
X24695Y212592D01*
X24723Y212329D01*
X24737Y212065D01*
Y211899D01*
X24723Y211774D01*
Y211622D01*
X24695Y211455D01*
X24682Y211261D01*
X24654Y211053D01*
Y211025D01*
X24626Y210970D01*
X24598Y210887D01*
X24543Y210790D01*
X24474Y210679D01*
X24363Y210595D01*
X24224Y210540D01*
X24058Y210512D01*
X24044D01*
X24030D01*
X23960Y210526D01*
X23849Y210540D01*
X23725Y210595D01*
X23614Y210665D01*
X23503Y210776D01*
X23433Y210928D01*
X23406Y211025D01*
Y211136D01*
X23447Y211525D01*
Y211566D01*
X23461Y211622D01*
Y211691D01*
X23475Y211871D01*
X23489Y212065D01*
Y212149D01*
X23475Y212204D01*
X23461Y212370D01*
X23433Y212551D01*
X23378Y212759D01*
X23295Y212967D01*
X23184Y213161D01*
X23031Y213314D01*
X23003Y213327D01*
X22948Y213369D01*
X22837Y213424D01*
X22671Y213494D01*
X22463Y213563D01*
X22199Y213619D01*
X22060Y213646D01*
X21894Y213660D01*
X21714Y213674D01*
X21520D01*
X16568D01*
X16555D01*
X16527D01*
X16472Y213688D01*
X16416Y213702D01*
X16263Y213757D01*
X16180Y213799D01*
X16097Y213868D01*
X16083Y213882D01*
X16069Y213910D01*
X16042Y213951D01*
X16000Y214007D01*
X15931Y214160D01*
X15917Y214243D01*
X15903Y214340D01*
Y214381D01*
X15917Y214437D01*
X15931Y214506D01*
X15986Y214659D01*
X16028Y214742D01*
X16097Y214811D01*
X16111Y214825D01*
X16139Y214839D01*
X16180Y214881D01*
X16236Y214922D01*
X16388Y214992D01*
X16472Y215005D01*
X16568Y215019D01*
X21520D01*
X21533D01*
X21561D01*
X21603D01*
X21658D01*
X21728Y215005D01*
D02*
G37*
G36*
X370710Y102145D02*
X370807D01*
X371029Y102117D01*
X371279Y102089D01*
X371542Y102048D01*
X371778Y101992D01*
X372000Y101909D01*
X372014D01*
X372028Y101895D01*
X372111Y101853D01*
X372222Y101784D01*
X372361Y101687D01*
X372499Y101576D01*
X372652Y101451D01*
X372777Y101299D01*
X372888Y101132D01*
X372901Y101118D01*
X372929Y101077D01*
X372957Y101007D01*
X372985Y100924D01*
X372999Y100813D01*
Y100702D01*
X372957Y100577D01*
X372888Y100439D01*
X372874Y100425D01*
X372832Y100383D01*
X372763Y100342D01*
X372680Y100286D01*
X372569Y100245D01*
X372444Y100217D01*
X372305D01*
X372153Y100259D01*
X371903Y100397D01*
X371889Y100411D01*
X371847Y100453D01*
X371778Y100508D01*
X371695Y100577D01*
X371584Y100647D01*
X371459Y100730D01*
X371320Y100799D01*
X371168Y100855D01*
X371140D01*
X371071Y100869D01*
X370946Y100897D01*
X370793D01*
X370613Y100910D01*
X370419Y100897D01*
X370197Y100869D01*
X369961Y100813D01*
X369948D01*
X369920Y100799D01*
X369864Y100786D01*
X369809Y100744D01*
X369726Y100702D01*
X369642Y100647D01*
X369559Y100577D01*
X369462Y100494D01*
X369379Y100397D01*
X369282Y100272D01*
X369212Y100134D01*
X369143Y99967D01*
X369074Y99787D01*
X369046Y99579D01*
X369018Y99357D01*
Y99094D01*
X369032Y96680D01*
Y96653D01*
Y96583D01*
Y96473D01*
Y96306D01*
X369060Y96126D01*
X369102Y95904D01*
X369157Y95654D01*
X369240Y95377D01*
X369254Y95363D01*
X369282Y95321D01*
X369324Y95252D01*
X369379Y95169D01*
X369462Y95072D01*
X369573Y94989D01*
X369698Y94919D01*
X369837Y94850D01*
X369851D01*
X369864Y94836D01*
X369948Y94808D01*
X370059Y94781D01*
X370211Y94739D01*
X370405Y94697D01*
X370599Y94670D01*
X370821Y94642D01*
X371043Y94656D01*
X371057D01*
X371113Y94670D01*
X371196Y94697D01*
X371293Y94725D01*
X371418Y94767D01*
X371542Y94822D01*
X371667Y94892D01*
X371806Y94975D01*
X372153Y95224D01*
X372166Y95238D01*
X372222Y95252D01*
X372305Y95266D01*
X372416Y95280D01*
X372527D01*
X372666Y95252D01*
X372818Y95183D01*
X372957Y95086D01*
X372971Y95072D01*
X372999Y95016D01*
X373040Y94933D01*
X373068Y94822D01*
X373082Y94684D01*
X373068Y94545D01*
X373013Y94392D01*
X372971Y94309D01*
X372915Y94226D01*
X372901Y94212D01*
X372832Y94157D01*
X372749Y94073D01*
X372624Y93990D01*
X372472Y93879D01*
X372291Y93768D01*
X372083Y93671D01*
X371861Y93574D01*
X371834Y93560D01*
X371750Y93546D01*
X371612Y93518D01*
X371432Y93477D01*
X371196Y93449D01*
X370918Y93421D01*
X370197D01*
X370114Y93435D01*
X370003Y93449D01*
X369837Y93491D01*
X369656Y93546D01*
X369448Y93630D01*
X369212Y93740D01*
X368991Y93879D01*
X368755Y94059D01*
X368533Y94267D01*
X368325Y94531D01*
X368145Y94836D01*
X368061Y95016D01*
X367992Y95197D01*
X367923Y95391D01*
X367867Y95613D01*
X367826Y95848D01*
X367798Y96084D01*
X367770Y96348D01*
Y96625D01*
X367756Y99052D01*
Y99066D01*
Y99094D01*
Y99135D01*
Y99191D01*
X367770Y99343D01*
X367784Y99537D01*
X367826Y99773D01*
X367881Y100037D01*
X367964Y100314D01*
X368075Y100605D01*
X368214Y100897D01*
X368380Y101174D01*
X368602Y101437D01*
X368866Y101673D01*
X369185Y101867D01*
X369351Y101951D01*
X369545Y102020D01*
X369753Y102075D01*
X369975Y102131D01*
X370211Y102145D01*
X370461Y102158D01*
X370627D01*
X370710Y102145D01*
D02*
G37*
G36*
X377034Y102117D02*
X377131Y102089D01*
X377145D01*
X377173Y102062D01*
X377215Y102034D01*
X377270Y101992D01*
X377326Y101937D01*
X377381Y101867D01*
X377436Y101784D01*
X377478Y101687D01*
Y101673D01*
X377492Y101645D01*
X377506Y101590D01*
X377520Y101507D01*
Y101326D01*
X377506Y101229D01*
X377478Y101118D01*
X375509Y96126D01*
X376771Y96140D01*
Y97540D01*
Y97554D01*
Y97596D01*
X376785Y97637D01*
X376799Y97707D01*
X376854Y97873D01*
X376896Y97956D01*
X376965Y98040D01*
X376979Y98054D01*
X377007Y98067D01*
X377034Y98095D01*
X377090Y98137D01*
X377242Y98206D01*
X377326Y98220D01*
X377423Y98234D01*
X377450D01*
X377506Y98206D01*
X377547Y98178D01*
X377603Y98151D01*
X377658Y98095D01*
X377728Y98026D01*
X377742Y98012D01*
X377756Y97998D01*
X377783Y97943D01*
X377825Y97887D01*
X377866Y97818D01*
X377894Y97734D01*
X377908Y97637D01*
X377922Y97527D01*
Y96126D01*
X378421D01*
X378477Y96112D01*
X378532Y96098D01*
X378601Y96070D01*
X378685Y96043D01*
X378754Y95987D01*
X378823Y95918D01*
X378837Y95904D01*
X378851Y95890D01*
X378879Y95848D01*
X378920Y95793D01*
X378976Y95640D01*
X378990Y95543D01*
X379004Y95446D01*
Y95432D01*
Y95405D01*
X378990Y95349D01*
X378976Y95280D01*
X378934Y95127D01*
X378879Y95044D01*
X378823Y94975D01*
X378810Y94961D01*
X378796Y94947D01*
X378754Y94905D01*
X378699Y94878D01*
X378560Y94794D01*
X378477Y94781D01*
X378380Y94767D01*
X377922D01*
Y94143D01*
Y94129D01*
Y94087D01*
X377908Y94032D01*
X377894Y93962D01*
X377839Y93796D01*
X377797Y93713D01*
X377728Y93630D01*
X377714Y93616D01*
X377700Y93602D01*
X377617Y93532D01*
X377520Y93463D01*
X377464Y93435D01*
X377381D01*
X377326Y93449D01*
X377270Y93463D01*
X377201Y93491D01*
X377118Y93518D01*
X377034Y93574D01*
X376965Y93643D01*
X376951Y93657D01*
X376937Y93685D01*
X376909Y93727D01*
X376868Y93796D01*
X376799Y93948D01*
X376785Y94045D01*
X376771Y94157D01*
Y94781D01*
X374455Y94767D01*
X374413D01*
X374372Y94781D01*
X374302Y94794D01*
X374164Y94850D01*
X374094Y94892D01*
X374025Y94961D01*
X374011Y94975D01*
X373997Y94989D01*
X373969Y95030D01*
X373942Y95086D01*
X373900Y95155D01*
X373872Y95238D01*
X373858Y95335D01*
X373845Y95446D01*
Y95474D01*
X373872Y95543D01*
X373928Y95654D01*
X373969Y95724D01*
X374039Y95793D01*
X376355Y101701D01*
Y101715D01*
Y101742D01*
X376369Y101798D01*
X376396Y101853D01*
X376424Y101923D01*
X376466Y101992D01*
X376535Y102048D01*
X376618Y102089D01*
X376632D01*
X376660Y102103D01*
X376715Y102117D01*
X376771Y102131D01*
X376937D01*
X377034Y102117D01*
D02*
G37*
G36*
X401260Y102145D02*
X401357D01*
X401579Y102117D01*
X401828Y102089D01*
X402092Y102048D01*
X402327Y101992D01*
X402549Y101909D01*
X402563D01*
X402577Y101895D01*
X402660Y101853D01*
X402771Y101784D01*
X402910Y101687D01*
X403049Y101576D01*
X403201Y101451D01*
X403326Y101299D01*
X403437Y101132D01*
X403451Y101118D01*
X403479Y101077D01*
X403506Y101007D01*
X403534Y100924D01*
X403548Y100813D01*
Y100702D01*
X403506Y100577D01*
X403437Y100439D01*
X403423Y100425D01*
X403382Y100383D01*
X403312Y100342D01*
X403229Y100286D01*
X403118Y100245D01*
X402993Y100217D01*
X402854D01*
X402702Y100259D01*
X402452Y100397D01*
X402439Y100411D01*
X402397Y100453D01*
X402327Y100508D01*
X402244Y100577D01*
X402133Y100647D01*
X402009Y100730D01*
X401870Y100799D01*
X401717Y100855D01*
X401690D01*
X401620Y100869D01*
X401495Y100897D01*
X401343D01*
X401163Y100910D01*
X400968Y100897D01*
X400746Y100869D01*
X400511Y100813D01*
X400497D01*
X400469Y100799D01*
X400414Y100786D01*
X400358Y100744D01*
X400275Y100702D01*
X400192Y100647D01*
X400109Y100577D01*
X400011Y100494D01*
X399928Y100397D01*
X399831Y100272D01*
X399762Y100134D01*
X399692Y99967D01*
X399623Y99787D01*
X399595Y99579D01*
X399568Y99357D01*
Y99094D01*
X399582Y96680D01*
Y96653D01*
Y96583D01*
Y96473D01*
Y96306D01*
X399609Y96126D01*
X399651Y95904D01*
X399706Y95654D01*
X399790Y95377D01*
X399804Y95363D01*
X399831Y95321D01*
X399873Y95252D01*
X399928Y95169D01*
X400011Y95072D01*
X400122Y94989D01*
X400247Y94919D01*
X400386Y94850D01*
X400400D01*
X400414Y94836D01*
X400497Y94808D01*
X400608Y94781D01*
X400760Y94739D01*
X400955Y94697D01*
X401149Y94670D01*
X401371Y94642D01*
X401592Y94656D01*
X401606D01*
X401662Y94670D01*
X401745Y94697D01*
X401842Y94725D01*
X401967Y94767D01*
X402092Y94822D01*
X402217Y94892D01*
X402355Y94975D01*
X402702Y95224D01*
X402716Y95238D01*
X402771Y95252D01*
X402854Y95266D01*
X402966Y95280D01*
X403076D01*
X403215Y95252D01*
X403368Y95183D01*
X403506Y95086D01*
X403520Y95072D01*
X403548Y95016D01*
X403590Y94933D01*
X403617Y94822D01*
X403631Y94684D01*
X403617Y94545D01*
X403562Y94392D01*
X403520Y94309D01*
X403465Y94226D01*
X403451Y94212D01*
X403382Y94157D01*
X403298Y94073D01*
X403173Y93990D01*
X403021Y93879D01*
X402841Y93768D01*
X402633Y93671D01*
X402411Y93574D01*
X402383Y93560D01*
X402300Y93546D01*
X402161Y93518D01*
X401981Y93477D01*
X401745Y93449D01*
X401468Y93421D01*
X400746D01*
X400663Y93435D01*
X400552Y93449D01*
X400386Y93491D01*
X400206Y93546D01*
X399998Y93630D01*
X399762Y93740D01*
X399540Y93879D01*
X399304Y94059D01*
X399082Y94267D01*
X398874Y94531D01*
X398694Y94836D01*
X398611Y95016D01*
X398541Y95197D01*
X398472Y95391D01*
X398417Y95613D01*
X398375Y95848D01*
X398347Y96084D01*
X398320Y96348D01*
Y96625D01*
X398306Y99052D01*
Y99066D01*
Y99094D01*
Y99135D01*
Y99191D01*
X398320Y99343D01*
X398333Y99537D01*
X398375Y99773D01*
X398430Y100037D01*
X398514Y100314D01*
X398625Y100605D01*
X398763Y100897D01*
X398930Y101174D01*
X399152Y101437D01*
X399415Y101673D01*
X399734Y101867D01*
X399901Y101951D01*
X400095Y102020D01*
X400303Y102075D01*
X400525Y102131D01*
X400760Y102145D01*
X401010Y102158D01*
X401176D01*
X401260Y102145D01*
D02*
G37*
G36*
X407209D02*
X407320Y102131D01*
X407584Y102103D01*
X407875Y102034D01*
X408180Y101923D01*
X408471Y101770D01*
X408610Y101687D01*
X408749Y101576D01*
X408763Y101562D01*
X408790Y101535D01*
X408846Y101479D01*
X408901Y101396D01*
X408984Y101299D01*
X409054Y101188D01*
X409137Y101049D01*
X409220Y100897D01*
X409290Y100730D01*
X409345Y100536D01*
X409387Y100328D01*
X409414Y100106D01*
Y99856D01*
X409400Y99607D01*
X409345Y99343D01*
X409262Y99052D01*
Y99038D01*
X409248Y99024D01*
X409234Y98983D01*
X409192Y98927D01*
X409165Y98844D01*
X409109Y98747D01*
X409040Y98636D01*
X408970Y98511D01*
X408873Y98359D01*
X408776Y98192D01*
X408652Y97998D01*
X408513Y97776D01*
X408360Y97554D01*
X408194Y97291D01*
X408000Y97013D01*
X407792Y96708D01*
Y96694D01*
X407764Y96667D01*
X407736Y96625D01*
X407695Y96570D01*
X407653Y96486D01*
X407584Y96389D01*
X407514Y96278D01*
X407431Y96140D01*
X407334Y96001D01*
X407223Y95848D01*
X407098Y95668D01*
X406973Y95488D01*
X406682Y95072D01*
X406349Y94614D01*
X407903Y94600D01*
X408832D01*
X408957Y94586D01*
X409081Y94545D01*
X409220Y94489D01*
X409317Y94392D01*
X409400Y94254D01*
X409414Y94157D01*
Y94059D01*
Y94032D01*
X409400Y93976D01*
X409373Y93879D01*
X409317Y93768D01*
X409248Y93657D01*
X409123Y93560D01*
X408970Y93477D01*
X408873Y93449D01*
X408763Y93435D01*
X405032D01*
X404990Y93449D01*
X404935Y93477D01*
X404879Y93518D01*
X404810Y93574D01*
X404754Y93657D01*
X404699Y93754D01*
X404671Y93879D01*
Y93893D01*
X404657Y93948D01*
Y94045D01*
X404671Y94170D01*
X404713Y94323D01*
X404796Y94517D01*
X404852Y94614D01*
X404921Y94725D01*
X405004Y94850D01*
X405101Y94975D01*
X405115Y94989D01*
X405129Y95016D01*
X405171Y95072D01*
X405226Y95141D01*
X405281Y95224D01*
X405351Y95321D01*
X405517Y95543D01*
X405698Y95821D01*
X405906Y96098D01*
X406100Y96403D01*
X406294Y96694D01*
X406308Y96708D01*
X406322Y96736D01*
X406349Y96778D01*
X406391Y96847D01*
X406446Y96930D01*
X406502Y97013D01*
X406641Y97221D01*
X406793Y97457D01*
X406960Y97707D01*
X407112Y97943D01*
X407265Y98164D01*
X407279Y98178D01*
X407292Y98206D01*
X407334Y98261D01*
X407389Y98331D01*
X407445Y98428D01*
X407514Y98525D01*
X407667Y98747D01*
X407819Y98983D01*
X407972Y99232D01*
X408097Y99454D01*
X408138Y99551D01*
X408180Y99635D01*
Y99648D01*
Y99662D01*
X408194Y99732D01*
X408208Y99843D01*
Y99995D01*
X408180Y100148D01*
X408125Y100328D01*
X408027Y100508D01*
X407972Y100605D01*
X407889Y100688D01*
X407875Y100702D01*
X407806Y100744D01*
X407709Y100813D01*
X407584Y100869D01*
X407403Y100924D01*
X407209Y100980D01*
X406987Y100994D01*
X406724Y100980D01*
X406696D01*
X406613Y100966D01*
X406502Y100910D01*
X406363Y100827D01*
X406280Y100772D01*
X406197Y100702D01*
X406128Y100605D01*
X406044Y100494D01*
X405975Y100370D01*
X405906Y100231D01*
X405836Y100064D01*
X405781Y99870D01*
X405767Y99856D01*
X405739Y99801D01*
X405698Y99732D01*
X405628Y99662D01*
X405531Y99579D01*
X405420Y99524D01*
X405295Y99482D01*
X405143Y99468D01*
X405115Y99482D01*
X405060Y99496D01*
X404990Y99537D01*
X404893Y99593D01*
X404796Y99662D01*
X404713Y99759D01*
X404657Y99870D01*
X404630Y100009D01*
Y100023D01*
Y100064D01*
Y100134D01*
Y100231D01*
X404644Y100342D01*
X404671Y100467D01*
X404699Y100605D01*
X404754Y100758D01*
X404768Y100772D01*
X404782Y100827D01*
X404824Y100910D01*
X404893Y101021D01*
X404976Y101146D01*
X405087Y101285D01*
X405226Y101451D01*
X405406Y101604D01*
X405434Y101631D01*
X405517Y101687D01*
X405642Y101770D01*
X405808Y101867D01*
X406030Y101964D01*
X406294Y102062D01*
X406585Y102117D01*
X406918Y102158D01*
X407112D01*
X407209Y102145D01*
D02*
G37*
G36*
X87681Y177075D02*
X87778D01*
X88000Y177047D01*
X88249Y177019D01*
X88513Y176978D01*
X88749Y176922D01*
X88970Y176839D01*
X88984D01*
X88998Y176825D01*
X89081Y176783D01*
X89192Y176714D01*
X89331Y176617D01*
X89470Y176506D01*
X89622Y176381D01*
X89747Y176229D01*
X89858Y176062D01*
X89872Y176048D01*
X89900Y176007D01*
X89927Y175938D01*
X89955Y175854D01*
X89969Y175743D01*
Y175632D01*
X89927Y175508D01*
X89858Y175369D01*
X89844Y175355D01*
X89803Y175313D01*
X89733Y175272D01*
X89650Y175216D01*
X89539Y175175D01*
X89414Y175147D01*
X89276D01*
X89123Y175189D01*
X88873Y175327D01*
X88859Y175341D01*
X88818Y175383D01*
X88749Y175438D01*
X88665Y175508D01*
X88554Y175577D01*
X88429Y175660D01*
X88291Y175729D01*
X88138Y175785D01*
X88111D01*
X88041Y175799D01*
X87916Y175826D01*
X87764D01*
X87584Y175840D01*
X87389Y175826D01*
X87168Y175799D01*
X86932Y175743D01*
X86918D01*
X86890Y175729D01*
X86835Y175716D01*
X86779Y175674D01*
X86696Y175632D01*
X86613Y175577D01*
X86530Y175508D01*
X86433Y175424D01*
X86349Y175327D01*
X86252Y175202D01*
X86183Y175064D01*
X86114Y174897D01*
X86044Y174717D01*
X86016Y174509D01*
X85989Y174287D01*
Y174024D01*
X86003Y171611D01*
Y171583D01*
Y171513D01*
Y171402D01*
Y171236D01*
X86030Y171056D01*
X86072Y170834D01*
X86127Y170584D01*
X86211Y170307D01*
X86224Y170293D01*
X86252Y170251D01*
X86294Y170182D01*
X86349Y170099D01*
X86433Y170002D01*
X86543Y169919D01*
X86668Y169849D01*
X86807Y169780D01*
X86821D01*
X86835Y169766D01*
X86918Y169738D01*
X87029Y169711D01*
X87181Y169669D01*
X87375Y169627D01*
X87570Y169600D01*
X87792Y169572D01*
X88013Y169586D01*
X88027D01*
X88083Y169600D01*
X88166Y169627D01*
X88263Y169655D01*
X88388Y169697D01*
X88513Y169752D01*
X88638Y169821D01*
X88776Y169905D01*
X89123Y170154D01*
X89137Y170168D01*
X89192Y170182D01*
X89276Y170196D01*
X89386Y170210D01*
X89497D01*
X89636Y170182D01*
X89789Y170113D01*
X89927Y170016D01*
X89941Y170002D01*
X89969Y169946D01*
X90010Y169863D01*
X90038Y169752D01*
X90052Y169613D01*
X90038Y169475D01*
X89983Y169322D01*
X89941Y169239D01*
X89886Y169156D01*
X89872Y169142D01*
X89803Y169086D01*
X89719Y169003D01*
X89594Y168920D01*
X89442Y168809D01*
X89262Y168698D01*
X89054Y168601D01*
X88832Y168504D01*
X88804Y168490D01*
X88721Y168476D01*
X88582Y168449D01*
X88402Y168407D01*
X88166Y168379D01*
X87889Y168351D01*
X87168D01*
X87084Y168365D01*
X86973Y168379D01*
X86807Y168421D01*
X86627Y168476D01*
X86419Y168559D01*
X86183Y168670D01*
X85961Y168809D01*
X85725Y168989D01*
X85503Y169197D01*
X85295Y169461D01*
X85115Y169766D01*
X85032Y169946D01*
X84962Y170127D01*
X84893Y170321D01*
X84838Y170543D01*
X84796Y170778D01*
X84768Y171014D01*
X84740Y171278D01*
Y171555D01*
X84727Y173982D01*
Y173996D01*
Y174024D01*
Y174065D01*
Y174121D01*
X84740Y174273D01*
X84754Y174467D01*
X84796Y174703D01*
X84852Y174967D01*
X84935Y175244D01*
X85046Y175535D01*
X85184Y175826D01*
X85351Y176104D01*
X85573Y176367D01*
X85836Y176603D01*
X86155Y176797D01*
X86321Y176880D01*
X86516Y176950D01*
X86724Y177005D01*
X86946Y177061D01*
X87181Y177075D01*
X87431Y177089D01*
X87597D01*
X87681Y177075D01*
D02*
G37*
G36*
X93478D02*
X93561Y177061D01*
X93658Y177047D01*
X93907Y176992D01*
X94171Y176908D01*
X94462Y176770D01*
X94601Y176686D01*
X94740Y176575D01*
X94878Y176465D01*
X95003Y176326D01*
X95017Y176298D01*
X95072Y176215D01*
X95142Y176076D01*
X95225Y175896D01*
X95308Y175674D01*
X95378Y175424D01*
X95433Y175119D01*
X95447Y174800D01*
Y174786D01*
Y174731D01*
Y174648D01*
X95433Y174551D01*
X95419Y174426D01*
X95392Y174287D01*
X95350Y174121D01*
X95308Y173954D01*
X95253Y173788D01*
X95170Y173608D01*
X95072Y173441D01*
X94962Y173275D01*
X94823Y173122D01*
X94656Y172970D01*
X94462Y172845D01*
X94254Y172734D01*
X94268D01*
X94310Y172706D01*
X94379Y172678D01*
X94476Y172637D01*
X94573Y172581D01*
X94698Y172512D01*
X94823Y172415D01*
X94948Y172318D01*
X95072Y172193D01*
X95197Y172054D01*
X95308Y171888D01*
X95419Y171721D01*
X95502Y171513D01*
X95558Y171292D01*
X95599Y171056D01*
X95613Y170792D01*
Y170778D01*
Y170751D01*
Y170695D01*
Y170612D01*
X95599Y170529D01*
X95586Y170432D01*
X95544Y170182D01*
X95475Y169919D01*
X95364Y169641D01*
X95197Y169364D01*
X95100Y169239D01*
X94989Y169114D01*
X94975Y169100D01*
X94962Y169086D01*
X94920Y169045D01*
X94851Y169003D01*
X94781Y168948D01*
X94698Y168878D01*
X94587Y168809D01*
X94476Y168740D01*
X94213Y168601D01*
X93894Y168476D01*
X93533Y168393D01*
X93339Y168379D01*
X93131Y168365D01*
X93089D01*
X93034Y168379D01*
X92951Y168393D01*
X92867Y168407D01*
X92757Y168435D01*
X92507Y168490D01*
X92243Y168601D01*
X91952Y168740D01*
X91813Y168837D01*
X91675Y168948D01*
X91550Y169059D01*
X91425Y169197D01*
X91411Y169211D01*
X91383Y169253D01*
X91342Y169322D01*
X91286Y169405D01*
X91231Y169516D01*
X91175Y169627D01*
X91134Y169766D01*
X91106Y169905D01*
Y169919D01*
Y169946D01*
X91120Y170002D01*
X91134Y170057D01*
X91189Y170210D01*
X91231Y170279D01*
X91286Y170335D01*
X91300Y170348D01*
X91314Y170362D01*
X91397Y170418D01*
X91522Y170473D01*
X91605Y170501D01*
X91758D01*
X91841Y170487D01*
X91938Y170459D01*
X92049Y170418D01*
X92146Y170348D01*
X92243Y170251D01*
X92313Y170127D01*
X92326Y170099D01*
X92382Y170030D01*
X92465Y169932D01*
X92562Y169821D01*
X92701Y169711D01*
X92853Y169613D01*
X93034Y169558D01*
X93131Y169530D01*
X93297D01*
X93380Y169544D01*
X93478Y169572D01*
X93589Y169600D01*
X93713Y169655D01*
X93824Y169724D01*
X93949Y169821D01*
X93963Y169849D01*
X94018Y169905D01*
X94088Y170016D01*
X94171Y170154D01*
X94240Y170321D01*
X94296Y170515D01*
X94310Y170737D01*
X94296Y170862D01*
X94282Y170986D01*
Y171000D01*
X94268Y171042D01*
X94240Y171084D01*
X94199Y171167D01*
X94102Y171333D01*
X93977Y171541D01*
X93797Y171735D01*
X93686Y171832D01*
X93575Y171916D01*
X93464Y171971D01*
X93325Y172027D01*
X93186Y172054D01*
X93006D01*
X92937Y172068D01*
X92853Y172096D01*
X92743Y172151D01*
X92646Y172235D01*
X92548Y172346D01*
X92493Y172484D01*
X92465Y172581D01*
Y172678D01*
Y172692D01*
Y172706D01*
Y172789D01*
X92479Y172914D01*
X92507Y173053D01*
X92590Y173192D01*
X92646Y173261D01*
X92701Y173316D01*
X92784Y173372D01*
X92881Y173427D01*
X92992Y173455D01*
X93131Y173483D01*
X93173D01*
X93228Y173497D01*
X93297Y173510D01*
X93464Y173552D01*
X93561Y173594D01*
X93658Y173649D01*
X93755Y173718D01*
X93838Y173816D01*
X93935Y173913D01*
X94005Y174051D01*
X94074Y174190D01*
X94129Y174370D01*
X94157Y174564D01*
X94171Y174800D01*
Y174814D01*
Y174842D01*
Y174883D01*
Y174939D01*
X94143Y175091D01*
X94102Y175286D01*
X94018Y175480D01*
X93894Y175660D01*
X93811Y175743D01*
X93727Y175826D01*
X93616Y175882D01*
X93491Y175938D01*
X93450D01*
X93408Y175951D01*
X93353D01*
X93200Y175938D01*
X93006Y175910D01*
X92798Y175840D01*
X92701Y175799D01*
X92590Y175729D01*
X92493Y175646D01*
X92396Y175549D01*
X92313Y175424D01*
X92229Y175286D01*
X92216Y175258D01*
X92188Y175202D01*
X92119Y175119D01*
X92035Y175022D01*
X91924Y174939D01*
X91786Y174883D01*
X91605Y174856D01*
X91508D01*
X91411Y174883D01*
X91397Y174897D01*
X91342Y174911D01*
X91272Y174967D01*
X91189Y175036D01*
X91106Y175133D01*
X91051Y175258D01*
X91023Y175424D01*
Y175618D01*
Y175632D01*
X91037Y175674D01*
X91065Y175729D01*
X91092Y175813D01*
X91134Y175910D01*
X91203Y176021D01*
X91272Y176132D01*
X91370Y176256D01*
X91383Y176270D01*
X91397Y176298D01*
X91425Y176340D01*
X91481Y176395D01*
X91550Y176465D01*
X91619Y176534D01*
X91716Y176617D01*
X91827Y176700D01*
X91952Y176770D01*
X92091Y176853D01*
X92243Y176922D01*
X92424Y176978D01*
X92618Y177033D01*
X92826Y177075D01*
X93048Y177089D01*
X93394D01*
X93478Y177075D01*
D02*
G37*
G36*
X84578Y112305D02*
X84675D01*
X84897Y112277D01*
X85147Y112249D01*
X85410Y112208D01*
X85646Y112152D01*
X85868Y112069D01*
X85882D01*
X85895Y112055D01*
X85979Y112013D01*
X86090Y111944D01*
X86228Y111847D01*
X86367Y111736D01*
X86519Y111611D01*
X86644Y111459D01*
X86755Y111292D01*
X86769Y111278D01*
X86797Y111237D01*
X86825Y111167D01*
X86852Y111084D01*
X86866Y110973D01*
Y110862D01*
X86825Y110737D01*
X86755Y110599D01*
X86741Y110585D01*
X86700Y110543D01*
X86630Y110502D01*
X86547Y110446D01*
X86436Y110405D01*
X86312Y110377D01*
X86173D01*
X86020Y110419D01*
X85771Y110557D01*
X85757Y110571D01*
X85715Y110613D01*
X85646Y110668D01*
X85563Y110737D01*
X85452Y110807D01*
X85327Y110890D01*
X85188Y110959D01*
X85036Y111015D01*
X85008D01*
X84938Y111029D01*
X84814Y111056D01*
X84661D01*
X84481Y111070D01*
X84287Y111056D01*
X84065Y111029D01*
X83829Y110973D01*
X83815D01*
X83787Y110959D01*
X83732Y110946D01*
X83677Y110904D01*
X83593Y110862D01*
X83510Y110807D01*
X83427Y110737D01*
X83330Y110654D01*
X83246Y110557D01*
X83149Y110432D01*
X83080Y110294D01*
X83011Y110127D01*
X82941Y109947D01*
X82914Y109739D01*
X82886Y109517D01*
Y109254D01*
X82900Y106840D01*
Y106813D01*
Y106743D01*
Y106632D01*
Y106466D01*
X82928Y106286D01*
X82969Y106064D01*
X83025Y105814D01*
X83108Y105537D01*
X83122Y105523D01*
X83149Y105481D01*
X83191Y105412D01*
X83246Y105329D01*
X83330Y105232D01*
X83441Y105149D01*
X83566Y105079D01*
X83704Y105010D01*
X83718D01*
X83732Y104996D01*
X83815Y104968D01*
X83926Y104941D01*
X84079Y104899D01*
X84273Y104857D01*
X84467Y104830D01*
X84689Y104802D01*
X84911Y104816D01*
X84925D01*
X84980Y104830D01*
X85063Y104857D01*
X85160Y104885D01*
X85285Y104927D01*
X85410Y104982D01*
X85535Y105051D01*
X85674Y105135D01*
X86020Y105384D01*
X86034Y105398D01*
X86090Y105412D01*
X86173Y105426D01*
X86284Y105440D01*
X86395D01*
X86533Y105412D01*
X86686Y105343D01*
X86825Y105246D01*
X86839Y105232D01*
X86866Y105176D01*
X86908Y105093D01*
X86936Y104982D01*
X86949Y104844D01*
X86936Y104705D01*
X86880Y104552D01*
X86839Y104469D01*
X86783Y104386D01*
X86769Y104372D01*
X86700Y104317D01*
X86617Y104233D01*
X86492Y104150D01*
X86339Y104039D01*
X86159Y103928D01*
X85951Y103831D01*
X85729Y103734D01*
X85701Y103720D01*
X85618Y103706D01*
X85479Y103679D01*
X85299Y103637D01*
X85063Y103609D01*
X84786Y103581D01*
X84065D01*
X83982Y103595D01*
X83871Y103609D01*
X83704Y103651D01*
X83524Y103706D01*
X83316Y103790D01*
X83080Y103900D01*
X82858Y104039D01*
X82622Y104219D01*
X82401Y104427D01*
X82192Y104691D01*
X82012Y104996D01*
X81929Y105176D01*
X81860Y105357D01*
X81790Y105551D01*
X81735Y105773D01*
X81693Y106008D01*
X81665Y106244D01*
X81638Y106508D01*
Y106785D01*
X81624Y109212D01*
Y109226D01*
Y109254D01*
Y109295D01*
Y109351D01*
X81638Y109503D01*
X81652Y109697D01*
X81693Y109933D01*
X81749Y110197D01*
X81832Y110474D01*
X81943Y110765D01*
X82082Y111056D01*
X82248Y111334D01*
X82470Y111597D01*
X82733Y111833D01*
X83052Y112027D01*
X83219Y112111D01*
X83413Y112180D01*
X83621Y112235D01*
X83843Y112291D01*
X84079Y112305D01*
X84328Y112318D01*
X84495D01*
X84578Y112305D01*
D02*
G37*
G36*
X90527D02*
X90583Y112291D01*
X90736Y112235D01*
X90819Y112194D01*
X90902Y112124D01*
X90916Y112111D01*
X90930Y112083D01*
X90957Y112041D01*
X90999Y111986D01*
X91068Y111833D01*
X91082Y111750D01*
X91096Y111653D01*
Y104192D01*
Y104178D01*
Y104150D01*
Y104108D01*
X91082Y104053D01*
X91041Y103914D01*
X90957Y103776D01*
X90943Y103762D01*
X90930Y103748D01*
X90888Y103720D01*
X90833Y103679D01*
X90763Y103637D01*
X90666Y103609D01*
X90569Y103595D01*
X90444Y103581D01*
X90375D01*
X90306Y103595D01*
X90222Y103609D01*
X90028Y103665D01*
X89945Y103706D01*
X89876Y103776D01*
X89862Y103803D01*
X89820Y103873D01*
X89779Y103997D01*
X89751Y104164D01*
Y110488D01*
X88849Y109933D01*
X88835D01*
X88808Y109905D01*
X88766Y109892D01*
X88711Y109864D01*
X88558Y109822D01*
X88475D01*
X88378Y109836D01*
X88364D01*
X88336Y109850D01*
X88281Y109864D01*
X88225Y109892D01*
X88170Y109919D01*
X88101Y109975D01*
X88031Y110030D01*
X87976Y110113D01*
Y110127D01*
X87948Y110155D01*
X87934Y110197D01*
X87906Y110252D01*
X87865Y110405D01*
Y110502D01*
X87879Y110599D01*
Y110613D01*
X87893Y110640D01*
X87906Y110682D01*
X87934Y110737D01*
X87962Y110807D01*
X88017Y110876D01*
X88073Y110946D01*
X88156Y111001D01*
X90028Y112194D01*
X90042D01*
X90056Y112208D01*
X90139Y112263D01*
X90264Y112305D01*
X90430Y112318D01*
X90472D01*
X90527Y112305D01*
D02*
G37*
%LPC*%
G36*
X19766Y312421D02*
X19697D01*
X19683D01*
X19641D01*
X19586D01*
X19517Y312407D01*
X19323Y312352D01*
X19225Y312310D01*
X19114Y312255D01*
X19003Y312171D01*
X18906Y312074D01*
X18809Y311950D01*
X18726Y311811D01*
X18643Y311630D01*
X18587Y311436D01*
X18560Y311201D01*
X18546Y310923D01*
Y308704D01*
X20931D01*
Y310993D01*
X20917Y311103D01*
X20903Y311256D01*
X20862Y311436D01*
X20806Y311617D01*
X20723Y311811D01*
X20612Y311991D01*
X20598Y312005D01*
X20557Y312061D01*
X20487Y312130D01*
X20404Y312213D01*
X20279Y312296D01*
X20141Y312366D01*
X19960Y312407D01*
X19766Y312421D01*
D02*
G37*
G36*
X25374Y245566D02*
X23155D01*
Y243180D01*
X25444D01*
X25555Y243194D01*
X25707Y243208D01*
X25887Y243250D01*
X26068Y243305D01*
X26262Y243388D01*
X26442Y243499D01*
X26456Y243513D01*
X26512Y243555D01*
X26581Y243624D01*
X26664Y243707D01*
X26747Y243832D01*
X26817Y243971D01*
X26858Y244151D01*
X26872Y244345D01*
Y244415D01*
Y244428D01*
Y244470D01*
Y244525D01*
X26858Y244595D01*
X26803Y244789D01*
X26761Y244886D01*
X26706Y244997D01*
X26623Y245108D01*
X26525Y245205D01*
X26401Y245302D01*
X26262Y245385D01*
X26082Y245469D01*
X25887Y245524D01*
X25652Y245552D01*
X25374Y245566D01*
D02*
G37*
G36*
X28095Y151586D02*
X25876D01*
Y149200D01*
X28164D01*
X28275Y149214D01*
X28428Y149228D01*
X28608Y149270D01*
X28788Y149325D01*
X28982Y149408D01*
X29162Y149519D01*
X29176Y149533D01*
X29232Y149575D01*
X29301Y149644D01*
X29384Y149727D01*
X29468Y149852D01*
X29537Y149991D01*
X29579Y150171D01*
X29592Y150365D01*
Y150435D01*
Y150448D01*
Y150490D01*
Y150545D01*
X29579Y150615D01*
X29523Y150809D01*
X29481Y150906D01*
X29426Y151017D01*
X29343Y151128D01*
X29246Y151225D01*
X29121Y151322D01*
X28982Y151405D01*
X28802Y151489D01*
X28608Y151544D01*
X28372Y151572D01*
X28095Y151586D01*
D02*
G37*
G36*
X261924Y112266D02*
X259705D01*
Y109880D01*
X261993D01*
X262104Y109894D01*
X262257Y109908D01*
X262437Y109950D01*
X262617Y110005D01*
X262811Y110088D01*
X262992Y110199D01*
X263005Y110213D01*
X263061Y110255D01*
X263130Y110324D01*
X263213Y110407D01*
X263297Y110532D01*
X263366Y110671D01*
X263408Y110851D01*
X263421Y111045D01*
Y111115D01*
Y111128D01*
Y111170D01*
Y111226D01*
X263408Y111295D01*
X263352Y111489D01*
X263311Y111586D01*
X263255Y111697D01*
X263172Y111808D01*
X263075Y111905D01*
X262950Y112002D01*
X262811Y112085D01*
X262631Y112169D01*
X262437Y112224D01*
X262201Y112252D01*
X261924Y112266D01*
D02*
G37*
G36*
X-9395Y125550D02*
X-9464D01*
X-9478D01*
X-9520D01*
X-9575D01*
X-9645Y125536D01*
X-9839Y125480D01*
X-9936Y125439D01*
X-10047Y125383D01*
X-10158Y125300D01*
X-10255Y125203D01*
X-10352Y125078D01*
X-10435Y124939D01*
X-10518Y124759D01*
X-10574Y124565D01*
X-10602Y124329D01*
X-10616Y124052D01*
Y121833D01*
X-8230D01*
Y124121D01*
X-8244Y124232D01*
X-8258Y124385D01*
X-8300Y124565D01*
X-8355Y124745D01*
X-8438Y124939D01*
X-8549Y125120D01*
X-8563Y125134D01*
X-8605Y125189D01*
X-8674Y125259D01*
X-8757Y125342D01*
X-8882Y125425D01*
X-9021Y125494D01*
X-9201Y125536D01*
X-9395Y125550D01*
D02*
G37*
%LPD*%
D10*
X2540Y299720D02*
G03*
X2540Y299720I0J12700D01*
G01*
X26670Y276860D02*
G03*
X26670Y276860I0J-12700D01*
G01*
X299720Y109220D02*
G03*
X299720Y109220I-12700J0D01*
G01*
X27940Y116840D02*
G03*
X27940Y116840I0J12700D01*
G01*
X5080Y121920D02*
G03*
X5080Y121920I0J-12700D01*
G01*
X16510Y25400D02*
Y38100D01*
Y25400D02*
X22860Y31750D01*
X16510Y38100D02*
X22860Y31750D01*
X238760Y25400D02*
Y38100D01*
Y25400D02*
X245110Y31750D01*
X238760Y38100D02*
X245110Y31750D01*
D11*
X168910Y149715D02*
G03*
X168910Y149715I0J-17000D01*
G01*
X362495Y172720D02*
X382561D01*
X362495Y104140D02*
Y172720D01*
Y104140D02*
X382561D01*
Y172720D01*
X125730Y166243D02*
X212090D01*
Y99187D02*
Y166243D01*
X125730Y99187D02*
X212090D01*
X125730D02*
Y166243D01*
X390390Y172970D02*
X410456D01*
X390390Y104390D02*
Y172970D01*
Y104390D02*
X410456D01*
Y172970D01*
X115570Y145034D02*
Y165100D01*
X46990D02*
X115570D01*
X46990Y145034D02*
Y165100D01*
Y145034D02*
X115570D01*
X46990Y115570D02*
Y135636D01*
Y115570D02*
X115570D01*
Y135636D01*
X46990D02*
X115570D01*
D12*
X330200Y133350D02*
G03*
X330200Y168910I0J17780D01*
G01*
X271780D02*
G03*
X271780Y133350I0J-17780D01*
G01*
X11430Y252730D02*
Y265430D01*
X5080Y246380D02*
X11430Y252730D01*
X-13970D02*
X-7620Y246380D01*
X5080Y271780D02*
X11430Y265430D01*
X-7620Y271780D02*
X5080D01*
X-13970Y265430D02*
X-7620Y271780D01*
X-13970Y252730D02*
Y265430D01*
X11430Y151130D02*
Y163830D01*
X5080Y144780D02*
X11430Y151130D01*
X-13970D02*
X-7620Y144780D01*
X5080D01*
Y170180D02*
X11430Y176530D01*
Y189230D01*
X5080Y195580D02*
X11430Y189230D01*
X-7620Y195580D02*
X5080D01*
X-13970Y189230D02*
X-7620Y195580D01*
X-13970Y176530D02*
Y189230D01*
Y176530D02*
X-7620Y170180D01*
X5080D02*
X11430Y163830D01*
X-7620Y170180D02*
X5080D01*
X-13970Y163830D02*
X-7620Y170180D01*
X-13970Y151130D02*
Y163830D01*
X11430Y227330D02*
Y240030D01*
X5080Y220980D02*
X11430Y227330D01*
X-13970D02*
X-7620Y220980D01*
X5080Y195580D02*
X11430Y201930D01*
Y214630D01*
X5080Y220980D02*
X11430Y214630D01*
X-7620Y220980D02*
X5080D01*
X-13970Y214630D02*
X-7620Y220980D01*
X-13970Y201930D02*
Y214630D01*
Y201930D02*
X-7620Y195580D01*
X5080Y246380D02*
X11430Y240030D01*
X-7620Y246380D02*
X5080D01*
X-13970Y240030D02*
X-7620Y246380D01*
X-13970Y227330D02*
Y240030D01*
X-12700Y0D02*
X31750D01*
Y1270D01*
X44450D01*
Y0D02*
Y1270D01*
Y0D02*
X68580D01*
X119380Y12700D02*
X134620D01*
X109220D02*
X119380D01*
X68580Y0D02*
X109220D01*
X12700Y88900D02*
X82550D01*
X12700D02*
Y91440D01*
X0Y88900D02*
Y91440D01*
X12700D01*
X82550Y88900D02*
Y91440D01*
X95250Y88900D02*
X165100D01*
X95250D02*
Y91440D01*
X82550D02*
X95250D01*
X177800Y88900D02*
X190500D01*
X165100D02*
Y91440D01*
X177800D01*
Y88900D02*
Y91440D01*
X0Y12700D02*
X68580D01*
X134620D02*
X177800D01*
X-12700Y0D02*
Y88900D01*
X190500Y0D02*
Y88900D01*
X107950Y0D02*
X190500D01*
X-12700Y88900D02*
X0D01*
Y12700D02*
Y76200D01*
X177800Y12700D02*
Y76200D01*
X0D02*
X177800D01*
X68580Y10160D02*
Y12700D01*
X109220Y10160D02*
Y12700D01*
Y0D02*
Y10160D01*
Y12700D02*
Y20320D01*
X68580Y0D02*
Y10160D01*
Y12700D02*
Y20320D01*
X109220D01*
X209550Y0D02*
X254000D01*
Y1270D01*
X266700D01*
Y0D02*
Y1270D01*
Y0D02*
X290830D01*
X341630Y12700D02*
X356870D01*
X331470D02*
X341630D01*
X290830Y0D02*
X331470D01*
X234950Y88900D02*
X304800D01*
X234950D02*
Y91440D01*
X222250Y88900D02*
Y91440D01*
X234950D01*
X304800Y88900D02*
Y91440D01*
X317500Y88900D02*
X387350D01*
X317500D02*
Y91440D01*
X304800D02*
X317500D01*
X400050Y88900D02*
X412750D01*
X387350D02*
Y91440D01*
X400050D01*
Y88900D02*
Y91440D01*
X222250Y12700D02*
X290830D01*
X356870D02*
X400050D01*
X209550Y0D02*
Y88900D01*
X412750Y0D02*
Y88900D01*
X330200Y0D02*
X412750D01*
X209550Y88900D02*
X222250D01*
Y12700D02*
Y76200D01*
X400050Y12700D02*
Y76200D01*
X222250D02*
X400050D01*
X290830Y10160D02*
Y12700D01*
X331470Y10160D02*
Y12700D01*
Y0D02*
Y10160D01*
Y12700D02*
Y20320D01*
X290830Y0D02*
Y10160D01*
Y12700D02*
Y20320D01*
X331470D01*
X271780Y133350D02*
X330200D01*
X271780Y168910D02*
X330200D01*
D13*
X330200Y128270D02*
G03*
X330200Y173990I0J22860D01*
G01*
X271780D02*
G03*
X271780Y128270I0J-22860D01*
G01*
X271780Y128270D02*
X330200D01*
X273050Y173990D02*
X331470D01*
D14*
X43180Y182880D02*
X414020D01*
Y294640D01*
X43180D02*
X414020D01*
X57490Y222230D02*
Y247630D01*
X43520D02*
X57490D01*
X43180Y182880D02*
Y294640D01*
X43520Y222230D02*
X57490D01*
X149910Y110715D02*
X187960D01*
X149910Y154715D02*
X187960D01*
X168910Y111125D02*
Y121285D01*
X157480Y132715D02*
X168910Y121285D01*
Y132715D02*
Y154305D01*
D15*
X-2540Y10160D02*
X68580D01*
X-2540D02*
Y78740D01*
X180340D01*
Y10160D02*
Y78740D01*
X109220Y10160D02*
X119380D01*
X180340D01*
X219710D02*
X290830D01*
X219710D02*
Y78740D01*
X402590D01*
Y10160D02*
Y78740D01*
X331470Y10160D02*
X341630D01*
X402590D01*
M02*
