G04*
G04 #@! TF.GenerationSoftware,Altium Limited,Altium Designer,21.2.2 (38)*
G04*
G04 Layer_Color=16776960*
%FSLAX44Y44*%
%MOMM*%
G71*
G04*
G04 #@! TF.SameCoordinates,11E53DB6-EA1C-46B5-B3C1-A0E245133AF0*
G04*
G04*
G04 #@! TF.FilePolarity,Positive*
G04*
G01*
G75*
%ADD11C,0.2000*%
G36*
X-1414Y317299D02*
X-1248Y317285D01*
X-901Y317230D01*
X-554Y317147D01*
X-222Y317022D01*
X-69Y316939D01*
X70Y316842D01*
X84Y316828D01*
X111Y316814D01*
X153Y316772D01*
X208Y316717D01*
X264Y316647D01*
X333Y316550D01*
X500Y316342D01*
X666Y316079D01*
X805Y315774D01*
X916Y315413D01*
X957Y315233D01*
X985Y315025D01*
Y314817D01*
Y314803D01*
Y314761D01*
X971Y314706D01*
Y314623D01*
X957Y314526D01*
X930Y314415D01*
X874Y314151D01*
X777Y313860D01*
X624Y313555D01*
X541Y313416D01*
X430Y313277D01*
X319Y313153D01*
X181Y313028D01*
X194Y313014D01*
X236Y312986D01*
X305Y312917D01*
X389Y312834D01*
X472Y312723D01*
X569Y312598D01*
X666Y312445D01*
X763Y312265D01*
X777Y312251D01*
X805Y312182D01*
X846Y312085D01*
X888Y311946D01*
X930Y311780D01*
X971Y311585D01*
X985Y311350D01*
Y311086D01*
Y311031D01*
Y311003D01*
X971Y310934D01*
X957Y310823D01*
X916Y310670D01*
X860Y310504D01*
X791Y310310D01*
X694Y310102D01*
X569Y309880D01*
X416Y309658D01*
X236Y309450D01*
X14Y309256D01*
X-249Y309075D01*
X-568Y308923D01*
X-915Y308798D01*
X-1317Y308715D01*
X-1539Y308687D01*
X-1775Y308673D01*
X-4146D01*
X-4202Y308687D01*
X-4271Y308701D01*
X-4424Y308756D01*
X-4493Y308798D01*
X-4576Y308867D01*
X-4590Y308881D01*
X-4604Y308909D01*
X-4645Y308950D01*
X-4673Y309006D01*
X-4757Y309158D01*
X-4770Y309242D01*
X-4784Y309353D01*
Y316633D01*
Y316647D01*
Y316675D01*
X-4770Y316731D01*
X-4757Y316800D01*
X-4729Y316869D01*
X-4701Y316952D01*
X-4645Y317036D01*
X-4576Y317119D01*
X-4562Y317133D01*
X-4535Y317147D01*
X-4493Y317174D01*
X-4437Y317216D01*
X-4299Y317285D01*
X-4202Y317299D01*
X-4105Y317313D01*
X-1553D01*
X-1414Y317299D01*
D02*
G37*
G36*
X4716Y317355D02*
X4771Y317341D01*
X4924Y317285D01*
X5007Y317244D01*
X5090Y317174D01*
X5104Y317160D01*
X5118Y317133D01*
X5146Y317091D01*
X5187Y317036D01*
X5257Y316883D01*
X5270Y316800D01*
X5284Y316703D01*
Y309242D01*
Y309228D01*
Y309200D01*
Y309158D01*
X5270Y309103D01*
X5229Y308964D01*
X5146Y308826D01*
X5132Y308812D01*
X5118Y308798D01*
X5076Y308770D01*
X5021Y308729D01*
X4951Y308687D01*
X4854Y308659D01*
X4757Y308645D01*
X4632Y308631D01*
X4563D01*
X4494Y308645D01*
X4410Y308659D01*
X4216Y308715D01*
X4133Y308756D01*
X4064Y308826D01*
X4050Y308853D01*
X4008Y308923D01*
X3967Y309048D01*
X3939Y309214D01*
Y315538D01*
X3038Y314983D01*
X3024D01*
X2996Y314956D01*
X2954Y314942D01*
X2899Y314914D01*
X2746Y314872D01*
X2663D01*
X2566Y314886D01*
X2552D01*
X2524Y314900D01*
X2469Y314914D01*
X2413Y314942D01*
X2358Y314969D01*
X2289Y315025D01*
X2219Y315080D01*
X2164Y315163D01*
Y315177D01*
X2136Y315205D01*
X2122Y315247D01*
X2095Y315302D01*
X2053Y315455D01*
Y315552D01*
X2067Y315649D01*
Y315663D01*
X2081Y315690D01*
X2095Y315732D01*
X2122Y315788D01*
X2150Y315857D01*
X2206Y315926D01*
X2261Y315996D01*
X2344Y316051D01*
X4216Y317244D01*
X4230D01*
X4244Y317258D01*
X4327Y317313D01*
X4452Y317355D01*
X4619Y317369D01*
X4660D01*
X4716Y317355D01*
D02*
G37*
%LPC*%
G36*
X-1692Y316065D02*
X-3439D01*
Y313749D01*
X-1539D01*
X-1456Y313763D01*
X-1359D01*
X-1248Y313790D01*
X-1026Y313846D01*
X-901Y313902D01*
X-790Y313957D01*
X-679Y314040D01*
X-582Y314137D01*
X-499Y314248D01*
X-430Y314387D01*
X-388Y314539D01*
X-360Y314720D01*
Y314983D01*
Y314997D01*
Y315025D01*
Y315080D01*
X-374Y315150D01*
X-430Y315330D01*
X-457Y315427D01*
X-513Y315524D01*
X-582Y315621D01*
X-679Y315718D01*
X-776Y315815D01*
X-915Y315898D01*
X-1067Y315968D01*
X-1248Y316023D01*
X-1456Y316051D01*
X-1692Y316065D01*
D02*
G37*
G36*
X-1373Y312293D02*
X-3439D01*
X-3453Y310046D01*
X-1484Y310032D01*
X-1442D01*
X-1387Y310046D01*
X-1317Y310060D01*
X-1137Y310102D01*
X-929Y310185D01*
X-818Y310240D01*
X-721Y310310D01*
X-624Y310393D01*
X-527Y310490D01*
X-443Y310601D01*
X-388Y310739D01*
X-333Y310892D01*
X-305Y311058D01*
Y311128D01*
Y311142D01*
Y311169D01*
Y311211D01*
X-319Y311280D01*
X-333Y311433D01*
X-388Y311613D01*
X-471Y311807D01*
X-610Y311988D01*
X-693Y312085D01*
X-790Y312154D01*
X-901Y312209D01*
X-1040Y312265D01*
X-1081D01*
X-1137Y312279D01*
X-1206D01*
X-1373Y312293D01*
D02*
G37*
%LPD*%
D11*
X-14626Y-1201D02*
X417174D01*
Y328999D01*
X-14626Y-1201D02*
Y328999D01*
X417174D01*
M02*
