G04*
G04 #@! TF.GenerationSoftware,Altium Limited,Altium Designer,21.6.4 (81)*
G04*
G04 Layer_Color=8421504*
%FSLAX44Y44*%
%MOMM*%
G71*
G04*
G04 #@! TF.SameCoordinates,CA9C2751-F2D4-4D48-97C2-B87B39E443D5*
G04*
G04*
G04 #@! TF.FilePolarity,Positive*
G04*
G01*
G75*
%ADD16R,1.0160X1.2000*%
G36*
X482Y286414D02*
X-4598Y281334D01*
X-9678Y286414D01*
Y288954D01*
X482D01*
Y286414D01*
D02*
G37*
G36*
Y276254D02*
X-9678D01*
Y283874D01*
X-4598Y278794D01*
X482Y283874D01*
Y276254D01*
D02*
G37*
G36*
X13382Y286524D02*
X8302Y281444D01*
X3222Y286524D01*
Y289064D01*
X13382D01*
Y286524D01*
D02*
G37*
G36*
Y276364D02*
X3222D01*
Y283984D01*
X8302Y278904D01*
X13382Y283984D01*
Y276364D01*
D02*
G37*
G36*
X27267Y286524D02*
X22187Y281444D01*
X17107Y286524D01*
Y289064D01*
X27267D01*
Y286524D01*
D02*
G37*
G36*
Y276364D02*
X17107D01*
Y283984D01*
X22187Y278904D01*
X27267Y283984D01*
Y276364D01*
D02*
G37*
G36*
X41152Y286396D02*
X36072Y281316D01*
X30992Y286396D01*
Y288936D01*
X41152D01*
Y286396D01*
D02*
G37*
G36*
Y276236D02*
X30992D01*
Y283856D01*
X36072Y278776D01*
X41152Y283856D01*
Y276236D01*
D02*
G37*
D16*
X-4573Y275921D02*
D03*
X-4598Y289921D02*
D03*
X8301Y290032D02*
D03*
X8327Y276032D02*
D03*
X36097Y275903D02*
D03*
X36072Y289904D02*
D03*
X22187Y290032D02*
D03*
X22212Y276032D02*
D03*
M02*
