M48
;Layer_Color=0
;FILE_FORMAT=4:2
METRIC
;TYPE=PLATED
T1F00S00C0.50
T2F00S00C0.60
T3F00S00C0.81
T4F00S00C1.02
T5F00S00C1.10
%
T01
X002552Y001525
X003035
T02
X000381Y001270
Y001524
X000889
Y001270
X003495Y001265
X003493Y001544
X004001
X004003Y001265
T03
X000127Y001080
Y001334
X000508Y001994
X000762
X001016
X001270
X001524
X001778
X002032
X002286
X002540
X002794
X003048
X003302
X003556
Y002756
X003302
X003048
X002794
X002540
X002286
X002032
X001778
X001524
X001270
X001016
X000762
X000508
X002549Y001088
X002803
X003810Y001994
Y002756
T04
X000381Y000318
X000635
X000889
X001143
X001397
Y000572
X001143
X000889
X000635
X000381
X-000002Y001613
Y001867
Y002121
Y002375
Y002629
X002604Y000572
X002858
X003112
X003366
X003620
Y000318
X003366
X003112
X002858
X002604
X002667Y003111
X002413
X002159
X001905
X001651
X001397
X001143
X000889
X000635
X000381
X002921
X003175
X003429
X003683
T05
X001334Y001111
Y001556
X001969
Y001111
M30
