G04*
G04 #@! TF.GenerationSoftware,Altium Limited,Altium Designer,21.6.4 (81)*
G04*
G04 Layer_Color=32896*
%FSLAX44Y44*%
%MOMM*%
G71*
G04*
G04 #@! TF.SameCoordinates,CA9C2751-F2D4-4D48-97C2-B87B39E443D5*
G04*
G04*
G04 #@! TF.FilePolarity,Positive*
G04*
G01*
G75*
%ADD12C,0.1270*%
G36*
X266533Y246278D02*
Y222651D01*
X172444D01*
Y246278D01*
Y266490D01*
X266533D01*
Y246278D01*
D02*
G37*
G36*
X51525Y299969D02*
X51649Y299928D01*
X51733Y299872D01*
X51746Y299858D01*
X51760D01*
X53632Y298666D01*
X53716Y298610D01*
X53771Y298541D01*
X53827Y298471D01*
X53854Y298402D01*
X53882Y298347D01*
X53896Y298305D01*
X53910Y298277D01*
Y298263D01*
X53924Y298166D01*
Y298069D01*
X53882Y297917D01*
X53854Y297861D01*
X53841Y297819D01*
X53813Y297792D01*
Y297778D01*
X53757Y297695D01*
X53688Y297639D01*
X53619Y297584D01*
X53563Y297556D01*
X53508Y297528D01*
X53452Y297514D01*
X53425Y297500D01*
X53411D01*
X53314Y297487D01*
X53230D01*
X53078Y297528D01*
X53022Y297556D01*
X52981Y297570D01*
X52953Y297598D01*
X52939D01*
X52038Y298152D01*
Y291828D01*
X52010Y291662D01*
X51968Y291537D01*
X51927Y291468D01*
X51913Y291440D01*
X51844Y291371D01*
X51760Y291329D01*
X51566Y291274D01*
X51483Y291260D01*
X51414Y291246D01*
X51344D01*
X51219Y291260D01*
X51122Y291274D01*
X51025Y291301D01*
X50956Y291343D01*
X50901Y291385D01*
X50859Y291412D01*
X50845Y291426D01*
X50831Y291440D01*
X50748Y291579D01*
X50706Y291717D01*
X50692Y291773D01*
Y291814D01*
Y291842D01*
Y291856D01*
Y299317D01*
X50706Y299414D01*
X50720Y299498D01*
X50789Y299650D01*
X50831Y299706D01*
X50859Y299747D01*
X50873Y299775D01*
X50887Y299789D01*
X50970Y299858D01*
X51053Y299900D01*
X51206Y299955D01*
X51261Y299969D01*
X51316Y299983D01*
X51358D01*
X51525Y299969D01*
D02*
G37*
G36*
X64630D02*
X64866Y299955D01*
X65088Y299900D01*
X65296Y299844D01*
X65490Y299775D01*
X65656Y299692D01*
X65975Y299498D01*
X66239Y299262D01*
X66461Y298998D01*
X66627Y298721D01*
X66766Y298430D01*
X66877Y298139D01*
X66960Y297861D01*
X67016Y297598D01*
X67057Y297362D01*
X67071Y297168D01*
X67085Y297015D01*
Y296960D01*
Y296918D01*
Y296890D01*
Y296877D01*
X67071Y294450D01*
Y294172D01*
X67043Y293909D01*
X67016Y293673D01*
X66974Y293437D01*
X66919Y293215D01*
X66849Y293021D01*
X66780Y292841D01*
X66697Y292661D01*
X66516Y292355D01*
X66308Y292092D01*
X66086Y291884D01*
X65851Y291704D01*
X65629Y291565D01*
X65393Y291454D01*
X65185Y291371D01*
X65005Y291315D01*
X64838Y291274D01*
X64727Y291260D01*
X64644Y291246D01*
X63923D01*
X63646Y291274D01*
X63410Y291301D01*
X63229Y291343D01*
X63091Y291371D01*
X63008Y291385D01*
X62980Y291399D01*
X62758Y291495D01*
X62550Y291593D01*
X62370Y291704D01*
X62217Y291814D01*
X62092Y291898D01*
X62009Y291981D01*
X61940Y292036D01*
X61926Y292050D01*
X61870Y292134D01*
X61829Y292217D01*
X61773Y292369D01*
X61759Y292508D01*
X61773Y292647D01*
X61801Y292758D01*
X61843Y292841D01*
X61870Y292896D01*
X61884Y292910D01*
X62023Y293007D01*
X62175Y293076D01*
X62314Y293104D01*
X62425D01*
X62536Y293090D01*
X62619Y293076D01*
X62675Y293063D01*
X62689Y293049D01*
X63035Y292799D01*
X63174Y292716D01*
X63299Y292647D01*
X63424Y292591D01*
X63548Y292549D01*
X63646Y292522D01*
X63729Y292494D01*
X63784Y292480D01*
X63798D01*
X64020Y292466D01*
X64242Y292494D01*
X64436Y292522D01*
X64630Y292563D01*
X64783Y292605D01*
X64894Y292633D01*
X64977Y292661D01*
X64991Y292674D01*
X65005D01*
X65143Y292744D01*
X65268Y292813D01*
X65379Y292896D01*
X65462Y292993D01*
X65518Y293076D01*
X65559Y293146D01*
X65587Y293188D01*
X65601Y293201D01*
X65684Y293479D01*
X65740Y293728D01*
X65781Y293950D01*
X65809Y294130D01*
Y294297D01*
Y294408D01*
Y294477D01*
Y294505D01*
X65823Y296918D01*
Y297182D01*
X65795Y297404D01*
X65767Y297612D01*
X65698Y297792D01*
X65629Y297958D01*
X65559Y298097D01*
X65462Y298222D01*
X65379Y298319D01*
X65282Y298402D01*
X65199Y298471D01*
X65116Y298527D01*
X65032Y298568D01*
X64977Y298610D01*
X64921Y298624D01*
X64894Y298638D01*
X64880D01*
X64644Y298693D01*
X64422Y298721D01*
X64228Y298735D01*
X64048Y298721D01*
X63895D01*
X63770Y298693D01*
X63701Y298679D01*
X63673D01*
X63521Y298624D01*
X63382Y298554D01*
X63257Y298471D01*
X63146Y298402D01*
X63063Y298333D01*
X62994Y298277D01*
X62952Y298236D01*
X62938Y298222D01*
X62689Y298083D01*
X62536Y298041D01*
X62397D01*
X62273Y298069D01*
X62162Y298111D01*
X62078Y298166D01*
X62009Y298208D01*
X61967Y298249D01*
X61954Y298263D01*
X61884Y298402D01*
X61843Y298527D01*
Y298638D01*
X61856Y298749D01*
X61884Y298832D01*
X61912Y298901D01*
X61940Y298943D01*
X61954Y298957D01*
X62064Y299123D01*
X62189Y299276D01*
X62342Y299401D01*
X62481Y299512D01*
X62619Y299608D01*
X62730Y299678D01*
X62813Y299720D01*
X62827Y299733D01*
X62841D01*
X63063Y299817D01*
X63299Y299872D01*
X63562Y299914D01*
X63812Y299941D01*
X64034Y299969D01*
X64131D01*
X64214Y299983D01*
X64380D01*
X64630Y299969D01*
D02*
G37*
G36*
X72618D02*
X72716Y299955D01*
X72854Y299886D01*
X72910Y299844D01*
X72951Y299817D01*
X72979Y299803D01*
X72993Y299789D01*
X73062Y299706D01*
X73118Y299622D01*
X73145Y299553D01*
X73173Y299470D01*
X73187Y299414D01*
X73201Y299359D01*
Y299331D01*
Y299317D01*
Y291884D01*
X73187Y291787D01*
X73173Y291704D01*
X73104Y291551D01*
X73062Y291495D01*
X73034Y291468D01*
X73021Y291440D01*
X73007Y291426D01*
X72937Y291371D01*
X72854Y291329D01*
X72702Y291274D01*
X72646Y291260D01*
X72591Y291246D01*
X68860D01*
X68763Y291260D01*
X68666Y291274D01*
X68527Y291343D01*
X68472Y291371D01*
X68430Y291399D01*
X68416Y291412D01*
X68402Y291426D01*
X68333Y291495D01*
X68291Y291579D01*
X68236Y291731D01*
X68222Y291787D01*
X68208Y291842D01*
Y291870D01*
Y291884D01*
X68222Y291981D01*
X68236Y292064D01*
X68305Y292203D01*
X68347Y292258D01*
X68375Y292300D01*
X68389Y292314D01*
X68402Y292328D01*
X68472Y292397D01*
X68555Y292439D01*
X68694Y292494D01*
X68763Y292508D01*
X68818Y292522D01*
X71842D01*
Y299317D01*
X71856Y299414D01*
X71870Y299498D01*
X71939Y299650D01*
X71980Y299706D01*
X72008Y299747D01*
X72022Y299775D01*
X72036Y299789D01*
X72105Y299858D01*
X72189Y299900D01*
X72355Y299955D01*
X72424Y299969D01*
X72466Y299983D01*
X72521D01*
X72618Y299969D01*
D02*
G37*
G36*
X60109D02*
X60206Y299955D01*
X60345Y299886D01*
X60400Y299844D01*
X60442Y299803D01*
X60470Y299789D01*
X60483Y299775D01*
X60553Y299706D01*
X60608Y299622D01*
X60636Y299539D01*
X60664Y299456D01*
X60678Y299387D01*
X60691Y299345D01*
Y299303D01*
Y299290D01*
Y291939D01*
X60678Y291828D01*
X60664Y291745D01*
X60581Y291593D01*
X60553Y291537D01*
X60511Y291495D01*
X60497Y291468D01*
X60483Y291454D01*
X60400Y291385D01*
X60331Y291329D01*
X60248Y291301D01*
X60178Y291274D01*
X60109Y291260D01*
X60054Y291246D01*
X60012D01*
X58597Y291260D01*
X58251Y291287D01*
X57918Y291343D01*
X57627Y291412D01*
X57335Y291509D01*
X57072Y291607D01*
X56836Y291731D01*
X56600Y291870D01*
X56392Y292009D01*
X56212Y292175D01*
X56032Y292341D01*
X55879Y292508D01*
X55740Y292702D01*
X55602Y292882D01*
X55491Y293076D01*
X55297Y293465D01*
X55144Y293839D01*
X55033Y294214D01*
X54964Y294560D01*
X54908Y294866D01*
X54895Y294990D01*
X54881Y295115D01*
Y295226D01*
X54867Y295323D01*
Y295393D01*
Y295448D01*
Y295476D01*
Y295490D01*
Y295864D01*
X54895Y296225D01*
X54936Y296571D01*
X54992Y296877D01*
X55075Y297182D01*
X55172Y297459D01*
X55283Y297709D01*
X55408Y297958D01*
X55546Y298180D01*
X55699Y298388D01*
X55851Y298568D01*
X56018Y298749D01*
X56184Y298901D01*
X56365Y299054D01*
X56725Y299303D01*
X57086Y299498D01*
X57432Y299664D01*
X57765Y299789D01*
X58057Y299872D01*
X58181Y299900D01*
X58306Y299928D01*
X58403Y299941D01*
X58500Y299955D01*
X58570Y299969D01*
X58625Y299983D01*
X60012D01*
X60109Y299969D01*
D02*
G37*
%LPC*%
G36*
X192671Y263962D02*
X192393D01*
D01*
X191088D01*
X192393D01*
X192282Y263934D01*
X192143D01*
X191838Y263823D01*
X191644Y263740D01*
X191477Y263629D01*
X191449Y263601D01*
X191421Y263546D01*
X191366Y263462D01*
X191283Y263324D01*
X191144Y263018D01*
X191116Y262824D01*
X191088Y262630D01*
Y262657D01*
Y247527D01*
X191116Y247416D01*
X191144Y247277D01*
X191255Y246944D01*
X191338Y246777D01*
X191477Y246611D01*
X191505D01*
X191560Y246555D01*
X191644Y246500D01*
X191782Y246444D01*
X192088Y246333D01*
X192282Y246305D01*
X192476Y246278D01*
X192504D01*
X192560Y246305D01*
X192671D01*
X192782Y246333D01*
X193115Y246444D01*
X193476Y246639D01*
X193503Y246666D01*
X193531Y246722D01*
X193587Y246805D01*
X193670Y246944D01*
X193809Y247249D01*
X193837Y247444D01*
X193864Y247638D01*
Y262768D01*
Y262741D01*
X193837Y262852D01*
X193809Y262990D01*
X193753Y263129D01*
X193698Y263296D01*
X193587Y263462D01*
X193448Y263629D01*
X193420Y263657D01*
X193365Y263685D01*
X193281Y263740D01*
X193143Y263823D01*
X192837Y263934D01*
X192671Y263962D01*
D02*
G37*
G36*
X207912Y263962D02*
Y262685D01*
X207884Y262768D01*
X207857Y262907D01*
X207801Y263074D01*
X207745Y263240D01*
X207635Y263407D01*
X207496Y263546D01*
X207468Y263573D01*
X207412Y263601D01*
X207329Y263685D01*
X207218Y263768D01*
X206940Y263907D01*
X206746Y263934D01*
X206552Y263962D01*
X196252D01*
X203776D01*
X203664Y263934D01*
X203526Y263907D01*
X203331Y263879D01*
X203137Y263851D01*
X202887Y263796D01*
X202637Y263740D01*
X202054Y263573D01*
X201388Y263324D01*
X200694Y262990D01*
X199972Y262602D01*
X199250Y262102D01*
X198889Y261797D01*
X198556Y261491D01*
X198223Y261130D01*
X197918Y260770D01*
X197612Y260353D01*
X197335Y259909D01*
X197085Y259409D01*
X196863Y258909D01*
X196668Y258354D01*
X196502Y257743D01*
X196391Y257133D01*
X196308Y256439D01*
X196252Y255717D01*
Y254634D01*
X196280Y254440D01*
Y254218D01*
X196308Y253968D01*
X196335Y253718D01*
X196446Y253107D01*
X196585Y252413D01*
X196807Y251663D01*
X197113Y250914D01*
X197501Y250137D01*
X197723Y249748D01*
X198001Y249387D01*
X198279Y248998D01*
X198584Y248665D01*
X198945Y248332D01*
X199306Y247999D01*
X199722Y247721D01*
X200194Y247444D01*
X200666Y247194D01*
X201194Y246999D01*
X201777Y246805D01*
X202360Y246666D01*
X203026Y246555D01*
X203720Y246500D01*
X206552Y246472D01*
X196252D01*
X207912D01*
Y263962D01*
D02*
G37*
G36*
X248389Y263768D02*
Y262491D01*
X248362Y262602D01*
X248334Y262741D01*
X248223Y263046D01*
X248139Y263213D01*
X248001Y263351D01*
X247973Y263379D01*
X247917Y263407D01*
X247834Y263490D01*
X247723Y263573D01*
X247418Y263712D01*
X247251Y263740D01*
X247057Y263768D01*
X242171D01*
X241976Y263740D01*
X241754D01*
X241255Y263657D01*
X240672Y263546D01*
X240061Y263351D01*
X239422Y263074D01*
X238811Y262713D01*
X238784Y262685D01*
X238756Y262657D01*
X238673Y262574D01*
X238562Y262463D01*
X238451Y262296D01*
X238312Y262130D01*
X238173Y261936D01*
X238034Y261686D01*
X237868Y261436D01*
X237729Y261130D01*
X237618Y260825D01*
X237479Y260464D01*
X237396Y260103D01*
X237312Y259715D01*
X237257Y259270D01*
Y258438D01*
X237285Y258271D01*
X237312Y258077D01*
X237340Y257854D01*
X237451Y257327D01*
X237618Y256716D01*
X237895Y256078D01*
X238062Y255744D01*
X238256Y255439D01*
X238478Y255134D01*
X238756Y254828D01*
X238784D01*
X238811Y254773D01*
X238895Y254745D01*
X239006Y254662D01*
X239145Y254606D01*
X239311Y254523D01*
X239728Y254329D01*
X240255Y254162D01*
X240866Y254023D01*
X241560Y253940D01*
X242337Y253912D01*
X245697D01*
Y247610D01*
Y247582D01*
Y247527D01*
X245724Y247416D01*
X245752Y247277D01*
X245863Y246944D01*
X245946Y246805D01*
X246085Y246639D01*
X246113Y246611D01*
X246141Y246583D01*
X246252Y246528D01*
X246363Y246472D01*
X246668Y246333D01*
X246835Y246305D01*
X247057Y246278D01*
X247140D01*
X247251Y246305D01*
X247362Y246333D01*
X247668Y246444D01*
X247834Y246528D01*
X248001Y246639D01*
X248029Y246666D01*
X248056Y246722D01*
X248112Y246805D01*
X248195Y246916D01*
X248334Y247222D01*
X248362Y247388D01*
X248389Y247610D01*
Y263768D01*
D02*
G37*
G36*
X187868Y263768D02*
Y262491D01*
X187840Y262602D01*
X187812Y262741D01*
X187701Y263046D01*
X187618Y263213D01*
X187479Y263351D01*
X187451Y263379D01*
X187396Y263407D01*
X187313Y263490D01*
X187201Y263573D01*
X186896Y263712D01*
X186730Y263740D01*
X186535Y263768D01*
X181649D01*
X181455Y263740D01*
X181233D01*
X180733Y263657D01*
X180150Y263546D01*
X179539Y263351D01*
X178901Y263074D01*
X178290Y262713D01*
X178262Y262685D01*
X178234Y262657D01*
X178151Y262574D01*
X178040Y262463D01*
X177929Y262296D01*
X177790Y262130D01*
X177651Y261936D01*
X177512Y261686D01*
X177346Y261436D01*
X177207Y261130D01*
X177096Y260825D01*
X176957Y260464D01*
X176874Y260103D01*
X176791Y259715D01*
X176735Y259270D01*
Y258438D01*
X176763Y258271D01*
X176791Y258076D01*
X176818Y257854D01*
X176929Y257327D01*
X177096Y256716D01*
X177374Y256078D01*
X177540Y255744D01*
X177735Y255439D01*
X177957Y255134D01*
X178234Y254828D01*
X178262D01*
X178290Y254773D01*
X178373Y254745D01*
X178484Y254662D01*
X178623Y254606D01*
X178790Y254523D01*
X179206Y254329D01*
X179734Y254162D01*
X180344Y254023D01*
X181038Y253940D01*
X181816Y253912D01*
X185175D01*
Y247610D01*
Y247582D01*
Y247527D01*
X185203Y247416D01*
X185230Y247277D01*
X185341Y246944D01*
X185425Y246805D01*
X185564Y246639D01*
X185591Y246611D01*
X185619Y246583D01*
X185730Y246528D01*
X185841Y246472D01*
X186147Y246333D01*
X186313Y246305D01*
X186535Y246278D01*
X186618D01*
X186730Y246305D01*
X186841Y246333D01*
X187146Y246444D01*
X187313Y246528D01*
X187479Y246639D01*
X187507Y246666D01*
X187535Y246722D01*
X187590Y246805D01*
X187673Y246916D01*
X187812Y247222D01*
X187840Y247388D01*
X187868Y247610D01*
Y263768D01*
D02*
G37*
G36*
X218240Y254634D02*
X211827D01*
X211716Y254606D01*
X211604Y254578D01*
X211299Y254495D01*
X211160Y254384D01*
X211021Y254273D01*
X210994Y254245D01*
X210966Y254218D01*
X210910Y254134D01*
X210855Y254023D01*
X210744Y253746D01*
X210688Y253607D01*
Y253746D01*
Y252191D01*
X219461D01*
X218323D01*
X218406Y252219D01*
X218545Y252246D01*
X218823Y252358D01*
X218962Y252441D01*
X219100Y252552D01*
X219128Y252580D01*
X219156Y252607D01*
X219211Y252691D01*
X219267Y252802D01*
X219406Y253079D01*
X219433Y253246D01*
X219461Y253412D01*
Y253496D01*
X219433Y253579D01*
X219406Y253718D01*
X219295Y253995D01*
X219211Y254134D01*
X219100Y254273D01*
X219072Y254301D01*
X219045Y254329D01*
X218962Y254384D01*
X218850Y254468D01*
X218573Y254578D01*
X218406Y254606D01*
X218240Y254634D01*
D02*
G37*
G36*
X262132Y263990D02*
X254487D01*
X260549D01*
X260410Y263962D01*
X260244Y263934D01*
X260049Y263879D01*
X259855Y263823D01*
X259661Y263712D01*
X259494Y263573D01*
X259466Y263546D01*
X259439Y263490D01*
X259383Y263407D01*
X259300Y263296D01*
X259217Y263129D01*
X259161Y262935D01*
X259133Y262741D01*
X259106Y262491D01*
Y252219D01*
Y252191D01*
Y252080D01*
X259078Y251941D01*
X259050Y251747D01*
X259022Y251525D01*
X258967Y251275D01*
X258883Y251025D01*
X258745Y250747D01*
X258606Y250470D01*
X258439Y250192D01*
X258217Y249942D01*
X257967Y249720D01*
X257662Y249526D01*
X257301Y249387D01*
X256885Y249276D01*
X256413Y249248D01*
X256274D01*
X256135Y249276D01*
X255941Y249304D01*
X255719Y249359D01*
X255469Y249443D01*
X255219Y249526D01*
X254914Y249665D01*
X254636Y249831D01*
X254386Y250026D01*
X254108Y250248D01*
X253886Y250525D01*
X253692Y250858D01*
X253525Y251247D01*
X253414Y251691D01*
X253359Y252191D01*
Y262519D01*
Y262546D01*
Y262630D01*
Y262768D01*
X253331Y262907D01*
X253248Y263240D01*
X253165Y263407D01*
X253053Y263546D01*
X253026Y263573D01*
X252970Y263629D01*
X252887Y263685D01*
X252776Y263768D01*
X252609Y263851D01*
X252387Y263934D01*
X252137Y263962D01*
X251832Y263990D01*
X250361D01*
X251721D01*
X251610Y263962D01*
X251471Y263934D01*
X251138Y263851D01*
X250971Y263740D01*
X250805Y263629D01*
X250777Y263601D01*
X250749Y263546D01*
X250666Y263462D01*
X250583Y263351D01*
X250499Y263185D01*
X250444Y262990D01*
X250388Y262768D01*
X250361Y262519D01*
Y262546D01*
Y246472D01*
Y251913D01*
X250388Y251719D01*
X250416Y251497D01*
X250444Y251247D01*
X250472Y250969D01*
X250527Y250636D01*
X250721Y249970D01*
X250971Y249304D01*
X251138Y248943D01*
X251332Y248637D01*
X251554Y248304D01*
X251804Y248027D01*
X251832Y247999D01*
X251887Y247971D01*
X251999Y247888D01*
X252137Y247777D01*
X252304Y247666D01*
X252526Y247527D01*
X252748Y247388D01*
X253026Y247249D01*
X253359Y247111D01*
X253692Y246972D01*
X254053Y246833D01*
X254442Y246722D01*
X255302Y246528D01*
X255774Y246500D01*
X256274Y246472D01*
X250361D01*
X256551D01*
X256746Y246500D01*
X256996Y246528D01*
X257273Y246555D01*
X257579Y246611D01*
X257912Y246666D01*
X258634Y246861D01*
X259383Y247138D01*
X259744Y247305D01*
X260077Y247527D01*
X260410Y247749D01*
X260716Y248027D01*
X260744Y248054D01*
X260771Y248110D01*
X260855Y248193D01*
X260938Y248332D01*
X261049Y248499D01*
X261188Y248693D01*
X261299Y248943D01*
X261438Y249193D01*
X261576Y249498D01*
X261715Y249803D01*
X261937Y250525D01*
X262076Y251358D01*
X262132Y251802D01*
Y249526D01*
Y262796D01*
X262104Y262935D01*
X261993Y263268D01*
X261910Y263435D01*
X261798Y263601D01*
X261771Y263629D01*
X261715Y263657D01*
X261632Y263740D01*
X261493Y263796D01*
X261327Y263879D01*
X261132Y263934D01*
X260910Y263990D01*
X262132D01*
D02*
G37*
G36*
X228845Y263907D02*
X221599D01*
X228789D01*
X228595Y263879D01*
X228401Y263851D01*
X228040Y263657D01*
X227762Y263435D01*
X227512Y263157D01*
X227318Y262852D01*
X227207Y262630D01*
X227124Y262435D01*
X227096Y262407D01*
Y262380D01*
X226541Y260936D01*
X226013Y259548D01*
X225513Y258188D01*
X225014Y256883D01*
X224542Y255661D01*
X224070Y254468D01*
X223653Y253385D01*
X223265Y252358D01*
X222904Y251414D01*
X222598Y250581D01*
X222432Y250220D01*
X222321Y249859D01*
X222182Y249554D01*
X222071Y249248D01*
X221960Y248998D01*
X221877Y248776D01*
X221793Y248582D01*
X221738Y248415D01*
X221682Y248277D01*
X221654Y248193D01*
X221627Y248138D01*
Y248110D01*
X221599Y247860D01*
Y246444D01*
Y247610D01*
X221627Y247416D01*
X221710Y247222D01*
X221765Y247083D01*
X221849Y246972D01*
X221877Y246916D01*
X221904Y246888D01*
X222071Y246750D01*
X222237Y246639D01*
X222404Y246555D01*
X222570Y246500D01*
X222709Y246472D01*
X222793Y246444D01*
X221599D01*
X222904D01*
X223265Y246500D01*
X223570Y246639D01*
X223792Y246805D01*
X223986Y247027D01*
X224153Y247249D01*
X224236Y247416D01*
X224292Y247555D01*
X224320Y247610D01*
X224458Y248054D01*
X224625Y248499D01*
X224819Y248943D01*
X224986Y249359D01*
X225125Y249720D01*
X225264Y249998D01*
X225319Y250109D01*
X225347Y250192D01*
X225375Y250220D01*
Y250248D01*
X232232D01*
X232454Y249692D01*
X232648Y249193D01*
X232843Y248721D01*
X233009Y248332D01*
X233120Y248027D01*
X233231Y247777D01*
X233287Y247638D01*
X233314Y247582D01*
X233481Y247194D01*
X233703Y246916D01*
X233925Y246722D01*
X234147Y246583D01*
X234370Y246500D01*
X234536Y246472D01*
X234647Y246444D01*
X236007D01*
Y247999D01*
X235980Y248082D01*
Y248110D01*
X234980Y250609D01*
X234009Y253107D01*
X233537Y254329D01*
X233092Y255495D01*
X232648Y256633D01*
X232232Y257716D01*
X231871Y258687D01*
X231510Y259604D01*
X231343Y259992D01*
X231205Y260381D01*
X231066Y260742D01*
X230955Y261075D01*
X230844Y261353D01*
X230733Y261630D01*
X230649Y261852D01*
X230594Y262047D01*
X230538Y262185D01*
X230483Y262296D01*
X230455Y262352D01*
Y262380D01*
X230344Y262657D01*
X230233Y262879D01*
X230094Y263102D01*
X229955Y263268D01*
X229678Y263546D01*
X229400Y263712D01*
X229178Y263823D01*
X228984Y263879D01*
X228845Y263907D01*
D02*
G37*
G36*
X234647Y246444D02*
D01*
X232886D01*
X234647D01*
D02*
G37*
G36*
X207635Y242780D02*
X202665D01*
X202471Y242752D01*
X202249Y242724D01*
X201721Y242669D01*
X201138Y242530D01*
X200527Y242308D01*
X199944Y242002D01*
X199667Y241836D01*
X199389Y241614D01*
X199361Y241586D01*
X199306Y241530D01*
X199195Y241419D01*
X199084Y241253D01*
X198917Y241058D01*
X198778Y240836D01*
X198612Y240559D01*
X198445Y240253D01*
X198306Y239920D01*
X198195Y239531D01*
X198112Y239115D01*
X198057Y238671D01*
Y242780D01*
D01*
Y238171D01*
D01*
X198084Y237671D01*
X198195Y237144D01*
X198362Y236561D01*
Y236533D01*
X198390Y236505D01*
X198417Y236422D01*
X198501Y236311D01*
X198556Y236144D01*
X198667Y235950D01*
X198806Y235728D01*
X198945Y235478D01*
X199139Y235173D01*
X199334Y234840D01*
X199583Y234451D01*
X199861Y234007D01*
X200166Y233563D01*
X200500Y233035D01*
X200888Y232480D01*
X201305Y231869D01*
Y231841D01*
X201360Y231786D01*
X201416Y231702D01*
X201499Y231591D01*
X201582Y231425D01*
X201721Y231231D01*
X201860Y231008D01*
X202027Y230731D01*
X202221Y230453D01*
X202443Y230148D01*
X202693Y229787D01*
X202943Y229426D01*
X203526Y228593D01*
X204192Y227677D01*
X201083Y227649D01*
X199223D01*
X198973Y227621D01*
X198723Y227538D01*
X198445Y227427D01*
X198251Y227233D01*
X198084Y226955D01*
X198057Y226761D01*
Y226511D01*
X198084Y226400D01*
X198140Y226206D01*
X198251Y225984D01*
X198390Y225761D01*
X198640Y225567D01*
X198945Y225401D01*
X199139Y225345D01*
X199361Y225317D01*
X206829D01*
X206913Y225345D01*
X207024Y225401D01*
X207135Y225484D01*
X207274Y225595D01*
X207385Y225761D01*
X207496Y225956D01*
X207551Y226206D01*
Y226233D01*
X207579Y226344D01*
Y226539D01*
X207551Y226789D01*
X207468Y227094D01*
X207301Y227483D01*
X207190Y227677D01*
X207052Y227899D01*
X206885Y228149D01*
X206691Y228399D01*
X206663Y228426D01*
X206635Y228482D01*
X206552Y228593D01*
X206441Y228732D01*
X206330Y228899D01*
X206191Y229093D01*
X205858Y229537D01*
X205497Y230092D01*
X205080Y230648D01*
X204692Y231258D01*
X204303Y231841D01*
X204275Y231869D01*
X204247Y231925D01*
X204192Y232008D01*
X204109Y232147D01*
X203998Y232313D01*
X203887Y232480D01*
X203609Y232896D01*
X203304Y233368D01*
X202970Y233868D01*
X202665Y234340D01*
X202360Y234784D01*
X202332Y234812D01*
X202304Y234867D01*
X202221Y234978D01*
X202110Y235117D01*
X201999Y235312D01*
X201860Y235506D01*
X201555Y235950D01*
X201249Y236422D01*
X200944Y236922D01*
X200694Y237366D01*
X200611Y237560D01*
X200527Y237727D01*
Y237755D01*
Y237782D01*
X200500Y237921D01*
X200472Y238143D01*
Y238449D01*
X200527Y238754D01*
X200638Y239115D01*
X200833Y239476D01*
X200944Y239670D01*
X201110Y239837D01*
X201138Y239865D01*
X201277Y239948D01*
X201471Y240087D01*
X201721Y240198D01*
X202082Y240309D01*
X202471Y240420D01*
X202915Y240448D01*
X203442Y240420D01*
X203498D01*
X203664Y240392D01*
X203887Y240281D01*
X204164Y240114D01*
X204331Y240003D01*
X204497Y239865D01*
X204636Y239670D01*
X204803Y239448D01*
X204942Y239198D01*
X205080Y238921D01*
X205219Y238587D01*
X205330Y238199D01*
X205358Y238171D01*
X205413Y238060D01*
X205497Y237921D01*
X205636Y237782D01*
X205830Y237616D01*
X206052Y237505D01*
X206302Y237421D01*
X206607Y237394D01*
X206663Y237421D01*
X206774Y237449D01*
X206913Y237533D01*
X207107Y237644D01*
X207301Y237782D01*
X207468Y237977D01*
X207579Y238199D01*
X207635Y238477D01*
Y238921D01*
X207607Y239143D01*
X207551Y239393D01*
X207496Y239670D01*
X207385Y239976D01*
X207357Y240003D01*
X207329Y240114D01*
X207246Y240281D01*
X207107Y240503D01*
X206940Y240753D01*
X206718Y241031D01*
X206441Y241364D01*
X206080Y241669D01*
X206024Y241725D01*
X205858Y241836D01*
X205608Y242002D01*
X205275Y242197D01*
X204830Y242391D01*
X204303Y242585D01*
X203720Y242696D01*
X203054Y242780D01*
X207635D01*
D02*
G37*
G36*
X198057Y237782D02*
D01*
D01*
D01*
D02*
G37*
G36*
Y237755D02*
Y237671D01*
D01*
Y237755D01*
D02*
G37*
G36*
Y237644D02*
Y237560D01*
D01*
Y237644D01*
D02*
G37*
G36*
Y237560D02*
D01*
D01*
D01*
D02*
G37*
G36*
D02*
Y237533D01*
D01*
Y237560D01*
D02*
G37*
G36*
Y237533D02*
Y237505D01*
D01*
Y237533D01*
D02*
G37*
G36*
Y237505D02*
Y237449D01*
D01*
Y237505D01*
D02*
G37*
G36*
Y237449D02*
Y237421D01*
D01*
Y237449D01*
D02*
G37*
G36*
Y237421D02*
Y237366D01*
D01*
Y237421D01*
D02*
G37*
G36*
Y237366D02*
Y237310D01*
D01*
Y237366D01*
D02*
G37*
G36*
Y237283D02*
Y237199D01*
D01*
Y237283D01*
D02*
G37*
G36*
Y237199D02*
Y237005D01*
D01*
Y237199D01*
D02*
G37*
G36*
Y236950D02*
Y236922D01*
D01*
Y236950D01*
D02*
G37*
G36*
Y236755D02*
Y236727D01*
D01*
Y236755D01*
D02*
G37*
G36*
Y236589D02*
Y236561D01*
D01*
Y236589D01*
D02*
G37*
G36*
Y236505D02*
Y236422D01*
D01*
Y236505D01*
D02*
G37*
G36*
Y236422D02*
D01*
D01*
D01*
D02*
G37*
G36*
Y236255D02*
Y236200D01*
D01*
Y236255D01*
D02*
G37*
G36*
Y236144D02*
Y236117D01*
D01*
Y236144D01*
D02*
G37*
G36*
Y236033D02*
Y236006D01*
D01*
Y236033D01*
D02*
G37*
G36*
Y235950D02*
Y235895D01*
D01*
Y235950D01*
D02*
G37*
G36*
Y235867D02*
Y235506D01*
D01*
Y235867D01*
D02*
G37*
G36*
Y235450D02*
Y235312D01*
D01*
Y235450D01*
D02*
G37*
G36*
Y235173D02*
Y235117D01*
D01*
Y235173D01*
D02*
G37*
G36*
Y235089D02*
Y234978D01*
D01*
Y235089D01*
D02*
G37*
G36*
Y234867D02*
Y234479D01*
D01*
Y234867D01*
D02*
G37*
G36*
Y234451D02*
Y234007D01*
D01*
Y234451D01*
D02*
G37*
G36*
Y233868D02*
Y233563D01*
D01*
Y233868D01*
D02*
G37*
G36*
Y233535D02*
Y233507D01*
D01*
Y233535D01*
D02*
G37*
G36*
Y233257D02*
Y232896D01*
D01*
Y233257D01*
D02*
G37*
G36*
Y232785D02*
Y232480D01*
D01*
Y232785D01*
D02*
G37*
G36*
Y232008D02*
Y231869D01*
D01*
Y232008D01*
D02*
G37*
G36*
Y231841D02*
Y231702D01*
D01*
Y231841D01*
D02*
G37*
G36*
Y231591D02*
Y231425D01*
D01*
Y231591D01*
D02*
G37*
G36*
Y231425D02*
Y231231D01*
D01*
Y231425D01*
D02*
G37*
G36*
Y231231D02*
Y231008D01*
D01*
Y231231D01*
D02*
G37*
G36*
Y230897D02*
Y230786D01*
D01*
Y230897D01*
D02*
G37*
G36*
Y230620D02*
Y230453D01*
D01*
Y230620D01*
D02*
G37*
G36*
Y230370D02*
Y229537D01*
D01*
Y230370D01*
D02*
G37*
G36*
Y229482D02*
Y229148D01*
D01*
Y229482D01*
D02*
G37*
G36*
Y229093D02*
Y228871D01*
D01*
Y229093D01*
D02*
G37*
G36*
Y228732D02*
D01*
D01*
D01*
D02*
G37*
G36*
Y228593D02*
Y228565D01*
D01*
Y228593D01*
D02*
G37*
G36*
X219545Y237560D02*
X218156D01*
X217990Y237505D01*
X217823Y237449D01*
X217629Y237366D01*
X217435Y237199D01*
X217268Y237005D01*
X217129Y236727D01*
X217101Y236672D01*
X217074Y236505D01*
X216990Y236255D01*
X216879Y235922D01*
X216740Y235506D01*
X216574Y235034D01*
X216407Y234479D01*
X216213Y233896D01*
X216019Y233257D01*
X215797Y232591D01*
X215325Y231231D01*
X214825Y229842D01*
X214603Y229148D01*
X214353Y228510D01*
X214325Y228565D01*
X214297Y228676D01*
X214214Y228871D01*
X214103Y229148D01*
X213992Y229482D01*
X213825Y229898D01*
X213659Y230370D01*
X213465Y230897D01*
X213270Y231480D01*
X213048Y232091D01*
X212798Y232785D01*
X212548Y233507D01*
X212299Y234257D01*
X212021Y235062D01*
X211743Y235867D01*
X211466Y236727D01*
X211438Y236755D01*
X211410Y236866D01*
X211327Y237005D01*
X211216Y237144D01*
X211049Y237310D01*
X210855Y237421D01*
X210605Y237533D01*
X210300Y237560D01*
X216948D01*
X210189D01*
X210078Y237533D01*
X209939Y237505D01*
X209772Y237449D01*
X209606Y237366D01*
X209439Y237255D01*
X209272Y237116D01*
X209245Y237088D01*
X209217Y237033D01*
X209134Y236922D01*
X209078Y236783D01*
X209023Y236616D01*
X208995Y236422D01*
X209023Y236200D01*
X209078Y235950D01*
X209106Y235895D01*
X209161Y235728D01*
X209245Y235450D01*
X209356Y235089D01*
X209522Y234645D01*
X209717Y234118D01*
X209911Y233535D01*
X210133Y232868D01*
X210411Y232174D01*
X210688Y231425D01*
X210966Y230620D01*
X211271Y229815D01*
X211938Y228149D01*
X212632Y226455D01*
X212659Y226400D01*
X212743Y226261D01*
X212854Y226039D01*
X213048Y225817D01*
X213270Y225567D01*
X213576Y225345D01*
X213937Y225206D01*
X214131Y225178D01*
X214353Y225151D01*
X214408D01*
X214547Y225178D01*
X214769Y225234D01*
X215019Y225317D01*
X215325Y225484D01*
X215602Y225706D01*
X215880Y226039D01*
X215991Y226233D01*
X216102Y226455D01*
X216130Y226511D01*
X216185Y226650D01*
X216269Y226900D01*
X216407Y227233D01*
X216574Y227677D01*
X216768Y228149D01*
X216963Y228732D01*
X217212Y229370D01*
X217462Y230037D01*
X217712Y230786D01*
X217990Y231564D01*
X218295Y232397D01*
X218601Y233257D01*
X218878Y234173D01*
X219489Y236006D01*
Y236033D01*
X219517Y236117D01*
Y236255D01*
X219545Y236394D01*
D01*
X219517Y236589D01*
X219489Y236755D01*
X219406Y236950D01*
X219267Y237144D01*
X219239Y237172D01*
X219184Y237199D01*
X219100Y237283D01*
X218989Y237366D01*
X218684Y237505D01*
X218517Y237533D01*
X218295Y237560D01*
X219545D01*
D02*
G37*
G36*
X198057Y228510D02*
Y228482D01*
D01*
Y228510D01*
D02*
G37*
G36*
Y228426D02*
Y227899D01*
D01*
Y228426D01*
D02*
G37*
G36*
Y227677D02*
D01*
D01*
D01*
D02*
G37*
G36*
D02*
Y227621D01*
D01*
Y227677D01*
D02*
G37*
G36*
X230788Y237560D02*
X221155D01*
X225708D01*
X225541Y237533D01*
X225347Y237505D01*
X225097Y237477D01*
X224569Y237366D01*
X223959Y237199D01*
X223348Y236950D01*
X223043Y236783D01*
X222765Y236589D01*
X222487Y236339D01*
X222237Y236089D01*
Y236061D01*
X222182Y236033D01*
X222126Y235950D01*
X222071Y235839D01*
X221987Y235700D01*
X221904Y235561D01*
X221682Y235145D01*
X221488Y234618D01*
X221321Y234007D01*
X221210Y233313D01*
X221155Y232508D01*
Y231369D01*
X221210Y231203D01*
X221266Y231036D01*
X221377Y230842D01*
X221543Y230703D01*
X221793Y230592D01*
X222099Y230536D01*
X228179D01*
Y230009D01*
Y229981D01*
Y229898D01*
X228151Y229759D01*
X228123Y229593D01*
X228095Y229398D01*
X228040Y229148D01*
X227873Y228676D01*
X227734Y228399D01*
X227568Y228177D01*
X227373Y227955D01*
X227151Y227733D01*
X226901Y227566D01*
X226568Y227427D01*
X226235Y227344D01*
X225819Y227316D01*
X225569D01*
X225291Y227344D01*
X224930Y227399D01*
X224486Y227455D01*
X224014Y227566D01*
X223542Y227733D01*
X223043Y227927D01*
X223015D01*
X222959Y227955D01*
X222876Y227982D01*
X222793Y228010D01*
X222515D01*
X222376Y227955D01*
X222237Y227899D01*
X222210D01*
X222182Y227871D01*
X222015Y227760D01*
X221849Y227566D01*
X221765Y227427D01*
X221710Y227260D01*
Y227233D01*
X221682Y227122D01*
X221654Y226955D01*
Y226761D01*
X221710Y226539D01*
X221793Y226317D01*
X221987Y226122D01*
X222237Y225928D01*
X222265D01*
X222321Y225900D01*
X222404Y225845D01*
X222515Y225817D01*
X222682Y225761D01*
X222876Y225678D01*
X223070Y225623D01*
X223320Y225539D01*
X223875Y225401D01*
X224514Y225262D01*
X225208Y225178D01*
X225985Y225151D01*
X221155D01*
X226207D01*
X226402Y225178D01*
X226596Y225206D01*
X226846Y225234D01*
X227373Y225345D01*
X227984Y225511D01*
X228595Y225789D01*
X228900Y225956D01*
X229206Y226150D01*
X229483Y226400D01*
X229733Y226650D01*
Y226677D01*
X229789Y226705D01*
X229816Y226789D01*
X229900Y226900D01*
X229983Y227038D01*
X230066Y227177D01*
X230261Y227594D01*
X230455Y228121D01*
X230622Y228732D01*
X230733Y229426D01*
X230788Y230231D01*
Y232868D01*
Y232702D01*
X230760Y232841D01*
Y233035D01*
X230733Y233257D01*
X230649Y233757D01*
X230511Y234312D01*
X230316Y234923D01*
X230039Y235506D01*
X229650Y236061D01*
X229622Y236089D01*
X229594Y236117D01*
X229511Y236200D01*
X229400Y236283D01*
X229289Y236422D01*
X229122Y236533D01*
X228928Y236672D01*
X228706Y236811D01*
X228456Y236950D01*
X228179Y237088D01*
X227873Y237227D01*
X227540Y237338D01*
X226818Y237505D01*
X226402Y237533D01*
X225958Y237560D01*
X230788D01*
D02*
G37*
G36*
X198057Y227538D02*
Y227233D01*
D01*
Y227538D01*
D02*
G37*
G36*
X234231Y237560D02*
X232176D01*
Y225151D01*
Y236144D01*
X232232Y235784D01*
X232260Y235728D01*
X232287Y235617D01*
X232398Y235450D01*
X232537Y235284D01*
X232731Y235089D01*
X232981Y234978D01*
X233314Y234895D01*
X233509D01*
X233703Y234923D01*
X233731D01*
X233787Y234951D01*
X233870Y234978D01*
X233981Y235006D01*
X234147D01*
X234342Y235034D01*
X234564Y235062D01*
X234980D01*
X235119Y235034D01*
X235424Y234978D01*
X235813Y234840D01*
X236202Y234618D01*
X236396Y234479D01*
X236590Y234312D01*
X236757Y234118D01*
X236924Y233868D01*
X237035Y233590D01*
X237146Y233285D01*
Y226455D01*
Y226428D01*
Y226372D01*
X237174Y226261D01*
X237201Y226150D01*
X237285Y225845D01*
X237396Y225678D01*
X237507Y225511D01*
X237534Y225484D01*
X237590Y225456D01*
X237673Y225401D01*
X237784Y225345D01*
X238090Y225206D01*
X238284Y225178D01*
X238478Y225151D01*
X238562D01*
X238673Y225178D01*
X238784Y225206D01*
X239089Y225317D01*
X239256Y225401D01*
X239394Y225511D01*
X239422Y225539D01*
X239450Y225595D01*
X239506Y225678D01*
X239589Y225789D01*
X239728Y226094D01*
X239755Y226261D01*
X239783Y226455D01*
Y234118D01*
Y234146D01*
Y234257D01*
X239811Y234423D01*
X239866Y234618D01*
X239950Y234840D01*
X240089Y235089D01*
X240255Y235312D01*
X240505Y235506D01*
X240533Y235534D01*
X240560Y235561D01*
X240699Y235728D01*
X240866Y235978D01*
X240894Y236144D01*
X240921Y236311D01*
Y236367D01*
X240894Y236478D01*
X240838Y236672D01*
X240755Y236866D01*
X240588Y237061D01*
X240366Y237255D01*
X240033Y237366D01*
X239839Y237421D01*
X239311D01*
X239200Y237394D01*
X239172D01*
X239145Y237366D01*
X239006Y237338D01*
X238784Y237227D01*
X238534Y237116D01*
X238256Y236922D01*
X237979Y236672D01*
X237729Y236367D01*
X237534Y236006D01*
X237507Y236033D01*
X237479Y236061D01*
X237312Y236255D01*
X237035Y236505D01*
X236674Y236783D01*
X236202Y237061D01*
X235646Y237310D01*
X234980Y237505D01*
X234619Y237533D01*
X234231Y237560D01*
D02*
G37*
G36*
X214353Y225151D02*
D01*
X208995D01*
X214353D01*
D02*
G37*
%LPD*%
G36*
X205136Y249276D02*
X203331D01*
X203193Y249304D01*
X202943Y249331D01*
X202637Y249387D01*
X202304Y249498D01*
X201888Y249637D01*
X201471Y249831D01*
X201055Y250081D01*
X200611Y250386D01*
X200222Y250775D01*
X199833Y251219D01*
X199500Y251775D01*
X199250Y252413D01*
X199056Y253135D01*
X198973Y253551D01*
X198945Y253995D01*
X198917Y254440D01*
X198945Y254939D01*
Y254967D01*
Y254995D01*
Y255078D01*
Y255189D01*
X198973Y255467D01*
X199000Y255856D01*
X199084Y256300D01*
X199167Y256800D01*
X199306Y257327D01*
X199500Y257882D01*
X199722Y258438D01*
X200028Y258993D01*
X200389Y259520D01*
X200805Y259964D01*
X201305Y260381D01*
X201915Y260714D01*
X202249Y260825D01*
X202610Y260936D01*
X202970Y261019D01*
X203387Y261047D01*
X205136D01*
Y249276D01*
D02*
G37*
G36*
X207912Y246472D02*
X206635D01*
X206746Y246500D01*
X206885Y246528D01*
X207024Y246583D01*
X207190Y246639D01*
X207329Y246750D01*
X207496Y246888D01*
X207523Y246916D01*
X207551Y246972D01*
X207635Y247055D01*
X207690Y247166D01*
X207857Y247471D01*
X207884Y247638D01*
X207912Y247860D01*
Y246472D01*
D02*
G37*
G36*
X245697Y256855D02*
X242087D01*
X241726Y256911D01*
X241282Y257049D01*
X241060Y257133D01*
X240866Y257244D01*
X240644Y257410D01*
X240477Y257605D01*
X240311Y257827D01*
X240172Y258077D01*
X240089Y258382D01*
X240033Y258743D01*
Y258909D01*
Y258937D01*
Y258993D01*
X240061Y259104D01*
Y259215D01*
X240172Y259548D01*
X240255Y259715D01*
X240366Y259909D01*
X240505Y260103D01*
X240699Y260298D01*
X240894Y260464D01*
X241171Y260631D01*
X241477Y260770D01*
X241838Y260881D01*
X242254Y260964D01*
X242726Y261019D01*
X245697D01*
Y256855D01*
D02*
G37*
G36*
X185175Y256855D02*
X181566D01*
X181205Y256910D01*
X180761Y257049D01*
X180539Y257133D01*
X180344Y257244D01*
X180122Y257410D01*
X179956Y257605D01*
X179789Y257827D01*
X179650Y258076D01*
X179567Y258382D01*
X179511Y258743D01*
Y258909D01*
Y258937D01*
Y258993D01*
X179539Y259104D01*
Y259215D01*
X179650Y259548D01*
X179734Y259715D01*
X179844Y259909D01*
X179983Y260103D01*
X180178Y260298D01*
X180372Y260464D01*
X180650Y260631D01*
X180955Y260770D01*
X181316Y260881D01*
X181732Y260964D01*
X182204Y261019D01*
X185175D01*
Y256855D01*
D02*
G37*
G36*
X210716Y253246D02*
Y253107D01*
X210827Y252829D01*
X210910Y252691D01*
X211021Y252552D01*
X211049Y252524D01*
X211077Y252496D01*
X211160Y252441D01*
X211271Y252385D01*
X211549Y252246D01*
X211716Y252219D01*
X211910Y252191D01*
X210688D01*
Y253329D01*
X210716Y253246D01*
D02*
G37*
G36*
X231427Y252691D02*
X226263D01*
X228845Y259604D01*
X231427Y252691D01*
D02*
G37*
G36*
X236007Y246444D02*
X234703D01*
X234925Y246472D01*
X235119Y246528D01*
X235286Y246583D01*
X235424Y246666D01*
X235536Y246750D01*
X235619Y246833D01*
X235674Y246861D01*
X235702Y246888D01*
X235841Y247083D01*
X235924Y247305D01*
X235980Y247499D01*
X236007Y247694D01*
Y246444D01*
D02*
G37*
G36*
X226096Y235450D02*
X226263D01*
X226624Y235339D01*
X226818Y235256D01*
X227013Y235173D01*
X227235Y235034D01*
X227429Y234867D01*
X227623Y234645D01*
X227790Y234395D01*
X227929Y234118D01*
X228040Y233757D01*
X228123Y233368D01*
X228151Y232924D01*
Y232563D01*
X223709D01*
Y232924D01*
Y232952D01*
Y233035D01*
Y233174D01*
X223737Y233313D01*
X223764Y233507D01*
X223820Y233729D01*
X223986Y234201D01*
X224097Y234451D01*
X224236Y234673D01*
X224431Y234895D01*
X224625Y235089D01*
X224875Y235256D01*
X225180Y235367D01*
X225513Y235450D01*
X225902Y235478D01*
X225985D01*
X226096Y235450D01*
D02*
G37*
G36*
X233897Y237533D02*
X233703D01*
X233204Y237421D01*
X232954Y237338D01*
X232731Y237227D01*
X232704Y237199D01*
X232621Y237144D01*
X232482Y237033D01*
X232371Y236894D01*
X232260Y236672D01*
X232176Y236422D01*
Y237560D01*
X234064D01*
X233897Y237533D01*
D02*
G37*
%LPC*%
G36*
X59305Y298527D02*
X58431D01*
X58223Y298513D01*
X58043Y298471D01*
X57862Y298416D01*
X57696Y298360D01*
X57391Y298194D01*
X57141Y297986D01*
X56933Y297764D01*
X56753Y297500D01*
X56600Y297223D01*
X56489Y296946D01*
X56392Y296668D01*
X56323Y296405D01*
X56281Y296155D01*
X56240Y295933D01*
X56226Y295739D01*
X56212Y295601D01*
Y295545D01*
Y295504D01*
Y295490D01*
Y295476D01*
X56198Y295226D01*
X56212Y295004D01*
X56226Y294782D01*
X56267Y294574D01*
X56365Y294214D01*
X56489Y293895D01*
X56656Y293617D01*
X56850Y293396D01*
X57044Y293201D01*
X57266Y293049D01*
X57474Y292924D01*
X57682Y292827D01*
X57890Y292758D01*
X58057Y292702D01*
X58209Y292674D01*
X58334Y292661D01*
X58403Y292647D01*
X59305D01*
Y298527D01*
D02*
G37*
%LPD*%
D12*
X19050Y300923D02*
X25400Y307273D01*
X6350Y300923D02*
X19050D01*
X0Y307273D02*
X6350Y300923D01*
X0Y307273D02*
Y319973D01*
X6350Y326323D01*
X19050D01*
X25400Y319973D01*
X387350Y300923D02*
X400050D01*
X406400Y307273D01*
X400050Y326323D02*
X406400Y319973D01*
Y307273D02*
Y319973D01*
X374650Y300923D02*
X381000Y307273D01*
X361950Y300923D02*
X374650D01*
X355600Y307273D02*
X361950Y300923D01*
X355600Y307273D02*
Y319973D01*
X361950Y326323D01*
X374650D01*
X381000Y319973D01*
Y307273D02*
X387350Y300923D01*
X381000Y307273D02*
Y319973D01*
X387350Y326323D01*
X400050D01*
X311150Y300923D02*
X323850D01*
X330200Y307273D01*
X323850Y326323D02*
X330200Y319973D01*
X349250Y300923D02*
X355600Y307273D01*
X336550Y300923D02*
X349250D01*
X330200Y307273D02*
X336550Y300923D01*
X330200Y307273D02*
Y319973D01*
X336550Y326323D01*
X349250D01*
X355600Y319973D01*
X298450Y300923D02*
X304800Y307273D01*
X285750Y300923D02*
X298450D01*
X279400Y307273D02*
X285750Y300923D01*
X279400Y307273D02*
Y319973D01*
X285750Y326323D01*
X298450D01*
X304800Y319973D01*
Y307273D02*
X311150Y300923D01*
X304800Y307273D02*
Y319973D01*
X311150Y326323D01*
X323850D01*
X234950Y300923D02*
X247650D01*
X254000Y307273D01*
X247650Y326323D02*
X254000Y319973D01*
X273050Y300923D02*
X279400Y307273D01*
X260350Y300923D02*
X273050D01*
X254000Y307273D02*
X260350Y300923D01*
X254000Y307273D02*
Y319973D01*
X260350Y326323D01*
X273050D01*
X279400Y319973D01*
X222250Y300923D02*
X228600Y307273D01*
X209550Y300923D02*
X222250D01*
X203200Y307273D02*
X209550Y300923D01*
X203200Y307273D02*
Y319973D01*
X209550Y326323D01*
X222250D01*
X228600Y319973D01*
Y307273D02*
X234950Y300923D01*
X228600Y307273D02*
Y319973D01*
X234950Y326323D01*
X247650D01*
X158750Y300923D02*
X171450D01*
X177800Y307273D01*
X171450Y326323D02*
X177800Y319973D01*
X196850Y300923D02*
X203200Y307273D01*
X184150Y300923D02*
X196850D01*
X177800Y307273D02*
X184150Y300923D01*
X177800Y307273D02*
Y319973D01*
X184150Y326323D01*
X196850D01*
X203200Y319973D01*
X146050Y300923D02*
X152400Y307273D01*
X133350Y300923D02*
X146050D01*
X127000Y307273D02*
X133350Y300923D01*
X127000Y307273D02*
Y319973D01*
X133350Y326323D01*
X146050D01*
X152400Y319973D01*
Y307273D02*
X158750Y300923D01*
X152400Y307273D02*
Y319973D01*
X158750Y326323D01*
X171450D01*
X82550Y300923D02*
X95250D01*
X101600Y307273D01*
X95250Y326323D02*
X101600Y319973D01*
X120650Y300923D02*
X127000Y307273D01*
X107950Y300923D02*
X120650D01*
X101600Y307273D02*
X107950Y300923D01*
X101600Y307273D02*
Y319973D01*
X107950Y326323D01*
X120650D01*
X127000Y319973D01*
X69850Y300923D02*
X76200Y307273D01*
X57150Y300923D02*
X69850D01*
X50800Y307273D02*
X57150Y300923D01*
X50800Y307273D02*
Y319973D01*
X57150Y326323D01*
X69850D01*
X76200Y319973D01*
Y307273D02*
X82550Y300923D01*
X76200Y307273D02*
Y319973D01*
X82550Y326323D01*
X95250D01*
X44450Y300923D02*
X50800Y307273D01*
X31750Y300923D02*
X44450D01*
X25400Y307273D02*
X31750Y300923D01*
X25400Y307273D02*
Y319973D01*
X31750Y326323D01*
X44450D01*
X50800Y319973D01*
M02*
