M48
;Layer_Color=0
;FILE_FORMAT=4:2
METRIC
;TYPE=PLATED
T1F00S00C0.30
T2F00S00C0.50
T3F00S00C0.60
T4F00S00C0.81
T5F00S00C1.02
T6F00S00C1.10
%
T01
X001273Y002551
X001509Y002683
X001974Y002589
X003074Y002131
T02
X002769Y001511
X003251
T03
X000847Y001224
X000853Y001509
X001361
X001355Y001224
X003781Y001137
X004026Y001135
Y001643
X003781Y001645
T04
X000308Y001051
Y001305
X000307Y001588
Y001842
X000282Y002023
Y002277
X000269Y002531
X000015
X000637Y002804
X000891
X001145
X001399
X001653
X001907
X002161
X002415
X002669
X002923
X003177
X003431
Y002042
X003177
X002923
X002669
X002415
X002161
X001907
X001653
X001399
X001145
X000891
X000637
X000592Y001678
Y001424
X000602Y001211
Y000957
X002870Y001092
X003124
X003685Y002042
X003939
Y002804
X003685
T05
X000367Y000308
Y000562
X000621
X000875
X001129
X001383
Y000308
X001129
X000875
X000621
X-000002Y001170
Y001424
Y001678
Y001932
Y002186
X002645Y000555
X002899
X003153
X003407
X003661
Y000301
X003407
X003153
X002899
X002645
X003937Y003136
X003683
X003429
X003175
X002921
X002667
X002413
X002159
X001905
X001651
X001397
X001143
X000889
X000635
X000381
X000127
T06
X001596Y001135
Y001579
X002231
Y001135
M30
