G04*
G04 #@! TF.GenerationSoftware,Altium Limited,Altium Designer,20.1.8 (145)*
G04*
G04 Layer_Physical_Order=2*
G04 Layer_Color=16711680*
%FSLAX44Y44*%
%MOMM*%
G71*
G04*
G04 #@! TF.SameCoordinates,26300AEE-937A-4092-BCD3-584E98E6A38F*
G04*
G04*
G04 #@! TF.FilePolarity,Positive*
G04*
G01*
G75*
G04:AMPARAMS|DCode=16|XSize=1.397mm|YSize=2.794mm|CornerRadius=0mm|HoleSize=0mm|Usage=FLASHONLY|Rotation=0.000|XOffset=0mm|YOffset=0mm|HoleType=Round|Shape=Octagon|*
%AMOCTAGOND16*
4,1,8,-0.3493,1.3970,0.3493,1.3970,0.6985,1.0478,0.6985,-1.0478,0.3493,-1.3970,-0.3493,-1.3970,-0.6985,-1.0478,-0.6985,1.0478,-0.3493,1.3970,0.0*
%
%ADD16OCTAGOND16*%

G04:AMPARAMS|DCode=17|XSize=1.397mm|YSize=2.794mm|CornerRadius=0.3493mm|HoleSize=0mm|Usage=FLASHONLY|Rotation=0.000|XOffset=0mm|YOffset=0mm|HoleType=Round|Shape=RoundedRectangle|*
%AMROUNDEDRECTD17*
21,1,1.3970,2.0955,0,0,0.0*
21,1,0.6985,2.7940,0,0,0.0*
1,1,0.6985,0.3493,-1.0478*
1,1,0.6985,-0.3493,-1.0478*
1,1,0.6985,-0.3493,1.0478*
1,1,0.6985,0.3493,1.0478*
%
%ADD17ROUNDEDRECTD17*%
G04:AMPARAMS|DCode=18|XSize=1.6002mm|YSize=1.6002mm|CornerRadius=0.4001mm|HoleSize=0mm|Usage=FLASHONLY|Rotation=90.000|XOffset=0mm|YOffset=0mm|HoleType=Round|Shape=RoundedRectangle|*
%AMROUNDEDRECTD18*
21,1,1.6002,0.8001,0,0,90.0*
21,1,0.8001,1.6002,0,0,90.0*
1,1,0.8001,0.4001,0.4001*
1,1,0.8001,0.4001,-0.4001*
1,1,0.8001,-0.4001,-0.4001*
1,1,0.8001,-0.4001,0.4001*
%
%ADD18ROUNDEDRECTD18*%
G04:AMPARAMS|DCode=19|XSize=1.6002mm|YSize=1.6002mm|CornerRadius=0mm|HoleSize=0mm|Usage=FLASHONLY|Rotation=90.000|XOffset=0mm|YOffset=0mm|HoleType=Round|Shape=Octagon|*
%AMOCTAGOND19*
4,1,8,0.4001,0.8001,-0.4001,0.8001,-0.8001,0.4001,-0.8001,-0.4001,-0.4001,-0.8001,0.4001,-0.8001,0.8001,-0.4001,0.8001,0.4001,0.4001,0.8001,0.0*
%
%ADD19OCTAGOND19*%

%ADD20C,1.1000*%
G04:AMPARAMS|DCode=21|XSize=1.4mm|YSize=1.4mm|CornerRadius=0.35mm|HoleSize=0mm|Usage=FLASHONLY|Rotation=0.000|XOffset=0mm|YOffset=0mm|HoleType=Round|Shape=RoundedRectangle|*
%AMROUNDEDRECTD21*
21,1,1.4000,0.7000,0,0,0.0*
21,1,0.7000,1.4000,0,0,0.0*
1,1,0.7000,0.3500,-0.3500*
1,1,0.7000,-0.3500,-0.3500*
1,1,0.7000,-0.3500,0.3500*
1,1,0.7000,0.3500,0.3500*
%
%ADD21ROUNDEDRECTD21*%
G04:AMPARAMS|DCode=22|XSize=1.6002mm|YSize=1.6002mm|CornerRadius=0.4001mm|HoleSize=0mm|Usage=FLASHONLY|Rotation=0.000|XOffset=0mm|YOffset=0mm|HoleType=Round|Shape=RoundedRectangle|*
%AMROUNDEDRECTD22*
21,1,1.6002,0.8001,0,0,0.0*
21,1,0.8001,1.6002,0,0,0.0*
1,1,0.8001,0.4001,-0.4001*
1,1,0.8001,-0.4001,-0.4001*
1,1,0.8001,-0.4001,0.4001*
1,1,0.8001,0.4001,0.4001*
%
%ADD22ROUNDEDRECTD22*%
G04:AMPARAMS|DCode=23|XSize=1.6002mm|YSize=1.6002mm|CornerRadius=0mm|HoleSize=0mm|Usage=FLASHONLY|Rotation=0.000|XOffset=0mm|YOffset=0mm|HoleType=Round|Shape=Octagon|*
%AMOCTAGOND23*
4,1,8,0.8001,-0.4001,0.8001,0.4001,0.4001,0.8001,-0.4001,0.8001,-0.8001,0.4001,-0.8001,-0.4001,-0.4001,-0.8001,0.4001,-0.8001,0.8001,-0.4001,0.0*
%
%ADD23OCTAGOND23*%

G04:AMPARAMS|DCode=24|XSize=1.6mm|YSize=1.6mm|CornerRadius=0.4mm|HoleSize=0mm|Usage=FLASHONLY|Rotation=90.000|XOffset=0mm|YOffset=0mm|HoleType=Round|Shape=RoundedRectangle|*
%AMROUNDEDRECTD24*
21,1,1.6000,0.8000,0,0,90.0*
21,1,0.8000,1.6000,0,0,90.0*
1,1,0.8000,0.4000,0.4000*
1,1,0.8000,0.4000,-0.4000*
1,1,0.8000,-0.4000,-0.4000*
1,1,0.8000,-0.4000,0.4000*
%
%ADD24ROUNDEDRECTD24*%
%ADD25C,1.0000*%
G04:AMPARAMS|DCode=26|XSize=1.4mm|YSize=1.4mm|CornerRadius=0.35mm|HoleSize=0mm|Usage=FLASHONLY|Rotation=90.000|XOffset=0mm|YOffset=0mm|HoleType=Round|Shape=RoundedRectangle|*
%AMROUNDEDRECTD26*
21,1,1.4000,0.7000,0,0,90.0*
21,1,0.7000,1.4000,0,0,90.0*
1,1,0.7000,0.3500,0.3500*
1,1,0.7000,0.3500,-0.3500*
1,1,0.7000,-0.3500,-0.3500*
1,1,0.7000,-0.3500,0.3500*
%
%ADD26ROUNDEDRECTD26*%
%ADD27C,0.4000*%
D16*
X50800Y199370D02*
D03*
D17*
X76200D02*
D03*
X101600D02*
D03*
X127000D02*
D03*
X152400D02*
D03*
X177800D02*
D03*
X203200D02*
D03*
X228600D02*
D03*
X254000D02*
D03*
X279400D02*
D03*
X304800D02*
D03*
X330200D02*
D03*
X355600D02*
D03*
X381000D02*
D03*
Y275570D02*
D03*
X355600D02*
D03*
X330200D02*
D03*
X304800D02*
D03*
X279400D02*
D03*
X254000D02*
D03*
X228600D02*
D03*
X203200D02*
D03*
X177800D02*
D03*
X152400D02*
D03*
X127000D02*
D03*
X101600D02*
D03*
X76200D02*
D03*
X50800D02*
D03*
D18*
X-200Y262870D02*
D03*
Y237470D02*
D03*
Y212070D02*
D03*
Y186670D02*
D03*
D19*
Y161270D02*
D03*
D20*
X400050Y154395D02*
D03*
X349250D02*
D03*
X400300Y126500D02*
D03*
X349500D02*
D03*
X88900Y127000D02*
D03*
X38100D02*
D03*
Y152400D02*
D03*
X88900D02*
D03*
D21*
X254850Y108750D02*
D03*
X280250D02*
D03*
D22*
X139700Y57150D02*
D03*
Y31750D02*
D03*
X114300Y57150D02*
D03*
Y31750D02*
D03*
X88900Y57150D02*
D03*
Y31750D02*
D03*
X63500Y57150D02*
D03*
Y31750D02*
D03*
X38100Y57150D02*
D03*
X361950D02*
D03*
Y31750D02*
D03*
X336550Y57150D02*
D03*
Y31750D02*
D03*
X311150Y57150D02*
D03*
Y31750D02*
D03*
X285750Y57150D02*
D03*
Y31750D02*
D03*
X260350Y57150D02*
D03*
X63500Y311123D02*
D03*
X88900D02*
D03*
X114300D02*
D03*
X139700D02*
D03*
X165100D02*
D03*
X190500D02*
D03*
X215900D02*
D03*
X241300D02*
D03*
X266700D02*
D03*
X292100D02*
D03*
X317500D02*
D03*
X342900D02*
D03*
X368300D02*
D03*
D23*
X38100Y31750D02*
D03*
X260350D02*
D03*
X38100Y311123D02*
D03*
D24*
X196850Y111125D02*
D03*
Y155575D02*
D03*
X133350Y111125D02*
D03*
Y155575D02*
D03*
D25*
X255194Y152490D02*
D03*
X303454D02*
D03*
D26*
X12700Y107950D02*
D03*
Y133350D02*
D03*
D27*
X100619Y43469D02*
X171469D01*
X306343Y178343D02*
X358950D01*
X171469Y43469D02*
X306343Y178343D01*
X2080Y118570D02*
Y141330D01*
X36807Y176057D02*
X196850D01*
X2080Y141330D02*
X36807Y176057D01*
X228600Y287309D02*
X237903D01*
X19050Y133350D02*
X29004Y143304D01*
X77155Y322869D02*
X88900Y311123D01*
X49846Y322869D02*
X77155D01*
X38100Y311123D02*
X49846Y322869D01*
X260350Y57150D02*
X283753Y80553D01*
X354353D01*
X400300Y126500D01*
X63500Y152400D02*
X88900D01*
X38100Y127000D02*
X63500Y152400D01*
X-200Y212070D02*
X33637Y245907D01*
X114300D01*
X127000Y258607D01*
Y275570D01*
X88900Y31750D02*
X100619Y43469D01*
X358950Y178343D02*
X366316Y185709D01*
Y218475D01*
X330200Y254590D02*
X366316Y218475D01*
X330200Y254590D02*
Y275570D01*
X228600D02*
Y287309D01*
X237903D02*
X243634Y293040D01*
X260525D01*
X264716Y288849D01*
Y259369D02*
Y288849D01*
X241094Y235747D02*
X264716Y259369D01*
X241094Y147609D02*
Y235747D01*
X220485Y127000D02*
X241094Y147609D01*
X88900Y127000D02*
X220485D01*
X29004Y143304D02*
X38100Y152400D01*
X29004Y122082D02*
Y143304D01*
Y122082D02*
X39960Y111125D01*
X133350D01*
X12700Y133350D02*
X19050D01*
X381000Y275570D02*
Y276942D01*
X359403Y298540D02*
X381000Y276942D01*
X126883Y298540D02*
X359403D01*
X114300Y311123D02*
X126883Y298540D01*
X139700Y57150D02*
X176035D01*
X266748Y147863D01*
Y214458D01*
X304800Y252511D01*
Y275570D01*
X152400Y181899D02*
Y199370D01*
X45205Y181899D02*
X152400D01*
X40434Y186670D02*
X45205Y181899D01*
X-200Y186670D02*
X40434D01*
X228600Y174533D02*
Y199370D01*
X224282Y170215D02*
X228600Y174533D01*
X147990Y170215D02*
X224282D01*
X133350Y155575D02*
X147990Y170215D01*
X2080Y118570D02*
X12700Y107950D01*
X196850Y176057D02*
X203200Y182407D01*
Y199370D01*
Y233207D01*
X226521Y256527D01*
X254000D01*
Y275570D01*
X272600Y126500D02*
X349500D01*
X254850Y108750D02*
X272600Y126500D01*
X112697Y155575D02*
X133350D01*
X109522Y152400D02*
X112697Y155575D01*
X88900Y152400D02*
X109522D01*
X327073Y154395D02*
X349250D01*
X325168Y152490D02*
X327073Y154395D01*
X303454Y152490D02*
X325168D01*
M02*
