G04*
G04 #@! TF.GenerationSoftware,Altium Limited,Altium Designer,20.1.10 (176)*
G04*
G04 Layer_Physical_Order=1*
G04 Layer_Color=255*
%FSLAX44Y44*%
%MOMM*%
G71*
G04*
G04 #@! TF.SameCoordinates,30E8163A-5FEC-489A-BF41-53759A6F2127*
G04*
G04*
G04 #@! TF.FilePolarity,Positive*
G04*
G01*
G75*
G04:AMPARAMS|DCode=16|XSize=1.6002mm|YSize=1.6002mm|CornerRadius=0.4001mm|HoleSize=0mm|Usage=FLASHONLY|Rotation=0.000|XOffset=0mm|YOffset=0mm|HoleType=Round|Shape=RoundedRectangle|*
%AMROUNDEDRECTD16*
21,1,1.6002,0.8001,0,0,0.0*
21,1,0.8001,1.6002,0,0,0.0*
1,1,0.8001,0.4001,-0.4001*
1,1,0.8001,-0.4001,-0.4001*
1,1,0.8001,-0.4001,0.4001*
1,1,0.8001,0.4001,0.4001*
%
%ADD16ROUNDEDRECTD16*%
G04:AMPARAMS|DCode=17|XSize=1.6002mm|YSize=1.6002mm|CornerRadius=0mm|HoleSize=0mm|Usage=FLASHONLY|Rotation=0.000|XOffset=0mm|YOffset=0mm|HoleType=Round|Shape=Octagon|*
%AMOCTAGOND17*
4,1,8,0.8001,-0.4001,0.8001,0.4001,0.4001,0.8001,-0.4001,0.8001,-0.8001,0.4001,-0.8001,-0.4001,-0.4001,-0.8001,0.4001,-0.8001,0.8001,-0.4001,0.0*
%
%ADD17OCTAGOND17*%

G04:AMPARAMS|DCode=18|XSize=1.4mm|YSize=1.4mm|CornerRadius=0mm|HoleSize=0mm|Usage=FLASHONLY|Rotation=270.000|XOffset=0mm|YOffset=0mm|HoleType=Round|Shape=Octagon|*
%AMOCTAGOND18*
4,1,8,-0.3500,-0.7000,0.3500,-0.7000,0.7000,-0.3500,0.7000,0.3500,0.3500,0.7000,-0.3500,0.7000,-0.7000,0.3500,-0.7000,-0.3500,-0.3500,-0.7000,0.0*
%
%ADD18OCTAGOND18*%

G04:AMPARAMS|DCode=19|XSize=1.4mm|YSize=1.4mm|CornerRadius=0.35mm|HoleSize=0mm|Usage=FLASHONLY|Rotation=0.000|XOffset=0mm|YOffset=0mm|HoleType=Round|Shape=RoundedRectangle|*
%AMROUNDEDRECTD19*
21,1,1.4000,0.7000,0,0,0.0*
21,1,0.7000,1.4000,0,0,0.0*
1,1,0.7000,0.3500,-0.3500*
1,1,0.7000,-0.3500,-0.3500*
1,1,0.7000,-0.3500,0.3500*
1,1,0.7000,0.3500,0.3500*
%
%ADD19ROUNDEDRECTD19*%
G04:AMPARAMS|DCode=20|XSize=1.397mm|YSize=2.794mm|CornerRadius=0mm|HoleSize=0mm|Usage=FLASHONLY|Rotation=0.000|XOffset=0mm|YOffset=0mm|HoleType=Round|Shape=Octagon|*
%AMOCTAGOND20*
4,1,8,-0.3493,1.3970,0.3493,1.3970,0.6985,1.0478,0.6985,-1.0478,0.3493,-1.3970,-0.3493,-1.3970,-0.6985,-1.0478,-0.6985,1.0478,-0.3493,1.3970,0.0*
%
%ADD20OCTAGOND20*%

G04:AMPARAMS|DCode=21|XSize=1.397mm|YSize=2.794mm|CornerRadius=0.3493mm|HoleSize=0mm|Usage=FLASHONLY|Rotation=0.000|XOffset=0mm|YOffset=0mm|HoleType=Round|Shape=RoundedRectangle|*
%AMROUNDEDRECTD21*
21,1,1.3970,2.0955,0,0,0.0*
21,1,0.6985,2.7940,0,0,0.0*
1,1,0.6985,0.3493,-1.0478*
1,1,0.6985,-0.3493,-1.0478*
1,1,0.6985,-0.3493,1.0478*
1,1,0.6985,0.3493,1.0478*
%
%ADD21ROUNDEDRECTD21*%
G04:AMPARAMS|DCode=22|XSize=1.6002mm|YSize=1.6002mm|CornerRadius=0.4001mm|HoleSize=0mm|Usage=FLASHONLY|Rotation=90.000|XOffset=0mm|YOffset=0mm|HoleType=Round|Shape=RoundedRectangle|*
%AMROUNDEDRECTD22*
21,1,1.6002,0.8001,0,0,90.0*
21,1,0.8001,1.6002,0,0,90.0*
1,1,0.8001,0.4001,0.4001*
1,1,0.8001,0.4001,-0.4001*
1,1,0.8001,-0.4001,-0.4001*
1,1,0.8001,-0.4001,0.4001*
%
%ADD22ROUNDEDRECTD22*%
G04:AMPARAMS|DCode=23|XSize=1.6002mm|YSize=1.6002mm|CornerRadius=0mm|HoleSize=0mm|Usage=FLASHONLY|Rotation=90.000|XOffset=0mm|YOffset=0mm|HoleType=Round|Shape=Octagon|*
%AMOCTAGOND23*
4,1,8,0.4001,0.8001,-0.4001,0.8001,-0.8001,0.4001,-0.8001,-0.4001,-0.4001,-0.8001,0.4001,-0.8001,0.8001,-0.4001,0.8001,0.4001,0.4001,0.8001,0.0*
%
%ADD23OCTAGOND23*%

%ADD24C,1.1000*%
G04:AMPARAMS|DCode=25|XSize=1.6mm|YSize=1.6mm|CornerRadius=0.4mm|HoleSize=0mm|Usage=FLASHONLY|Rotation=90.000|XOffset=0mm|YOffset=0mm|HoleType=Round|Shape=RoundedRectangle|*
%AMROUNDEDRECTD25*
21,1,1.6000,0.8000,0,0,90.0*
21,1,0.8000,1.6000,0,0,90.0*
1,1,0.8000,0.4000,0.4000*
1,1,0.8000,0.4000,-0.4000*
1,1,0.8000,-0.4000,-0.4000*
1,1,0.8000,-0.4000,0.4000*
%
%ADD25ROUNDEDRECTD25*%
%ADD26C,1.0000*%
G04:AMPARAMS|DCode=27|XSize=1.4mm|YSize=1.4mm|CornerRadius=0.35mm|HoleSize=0mm|Usage=FLASHONLY|Rotation=90.000|XOffset=0mm|YOffset=0mm|HoleType=Round|Shape=RoundedRectangle|*
%AMROUNDEDRECTD27*
21,1,1.4000,0.7000,0,0,90.0*
21,1,0.7000,1.4000,0,0,90.0*
1,1,0.7000,0.3500,0.3500*
1,1,0.7000,0.3500,-0.3500*
1,1,0.7000,-0.3500,-0.3500*
1,1,0.7000,-0.3500,0.3500*
%
%ADD27ROUNDEDRECTD27*%
%ADD28C,0.4000*%
D16*
X368300Y311123D02*
D03*
X342900D02*
D03*
X317500D02*
D03*
X292100D02*
D03*
X266700D02*
D03*
X241300D02*
D03*
X215900D02*
D03*
X190500D02*
D03*
X165100D02*
D03*
X139700D02*
D03*
X114300D02*
D03*
X88900D02*
D03*
X63500D02*
D03*
X139700Y57150D02*
D03*
Y31750D02*
D03*
X114300Y57150D02*
D03*
Y31750D02*
D03*
X88900Y57150D02*
D03*
Y31750D02*
D03*
X63500Y57150D02*
D03*
Y31750D02*
D03*
X38100Y57150D02*
D03*
X361950D02*
D03*
Y31750D02*
D03*
X336550Y57150D02*
D03*
Y31750D02*
D03*
X311150Y57150D02*
D03*
Y31750D02*
D03*
X285750Y57150D02*
D03*
Y31750D02*
D03*
X260350Y57150D02*
D03*
D17*
X38100Y311123D02*
D03*
Y31750D02*
D03*
X260350D02*
D03*
D18*
X2540Y287020D02*
D03*
Y312420D02*
D03*
X26670Y289560D02*
D03*
Y264160D02*
D03*
X27940Y104140D02*
D03*
Y129540D02*
D03*
D19*
X312420Y109220D02*
D03*
X287020D02*
D03*
D20*
X63500Y200660D02*
D03*
D21*
X88900D02*
D03*
X114300D02*
D03*
X139700D02*
D03*
X165100D02*
D03*
X190500D02*
D03*
X215900D02*
D03*
X241300D02*
D03*
X266700D02*
D03*
X292100D02*
D03*
X317500D02*
D03*
X342900D02*
D03*
X368300D02*
D03*
X393700D02*
D03*
Y276860D02*
D03*
X368300D02*
D03*
X342900D02*
D03*
X317500D02*
D03*
X292100D02*
D03*
X266700D02*
D03*
X241300D02*
D03*
X215900D02*
D03*
X190500D02*
D03*
X165100D02*
D03*
X139700D02*
D03*
X114300D02*
D03*
X88900D02*
D03*
X63500D02*
D03*
D22*
X-1270Y259080D02*
D03*
Y233680D02*
D03*
Y208280D02*
D03*
Y182880D02*
D03*
D23*
Y157480D02*
D03*
D24*
X372655Y163830D02*
D03*
Y113030D02*
D03*
X400550Y164080D02*
D03*
Y113280D02*
D03*
X106680Y154940D02*
D03*
X55880D02*
D03*
Y125730D02*
D03*
X106680D02*
D03*
D25*
X200660Y110490D02*
D03*
Y154940D02*
D03*
X137160Y110490D02*
D03*
Y154940D02*
D03*
D26*
X276860Y151130D02*
D03*
X325120D02*
D03*
D27*
X5080Y109220D02*
D03*
Y134620D02*
D03*
D28*
X211821Y230139D02*
X215900Y226060D01*
X203328Y230139D02*
X211821D01*
X215900Y200660D02*
Y226060D01*
X26670Y230139D02*
X203328D01*
Y293865D01*
X26670Y198663D02*
Y230139D01*
Y264160D01*
X190500Y180975D02*
Y200660D01*
X182880Y66040D02*
Y173355D01*
X190500Y180975D01*
X273050Y17583D02*
Y97790D01*
X254337Y116503D02*
X273050Y97790D01*
X254337Y116503D02*
Y232112D01*
X322920Y43520D02*
Y85514D01*
X359314Y121909D02*
Y165751D01*
X322920Y85514D02*
X359314Y121909D01*
X311150Y31750D02*
X322920Y43520D01*
X381318Y187755D02*
Y243810D01*
X359314Y165751D02*
X381318Y187755D01*
X368300Y256829D02*
X381318Y243810D01*
Y261502D02*
X393700Y249120D01*
X368300Y311123D02*
X381318Y298105D01*
Y261502D02*
Y298105D01*
X355229Y243211D02*
Y298795D01*
Y243211D02*
X368300Y230139D01*
Y200660D02*
Y230139D01*
X342900Y311123D02*
X355229Y298795D01*
X317500Y311123D02*
X330714Y297909D01*
Y219831D02*
Y297909D01*
Y219831D02*
X342900Y207645D01*
X254337Y232112D02*
X292100Y269875D01*
X254337Y296208D02*
X266700Y283845D01*
X205672Y296208D02*
X254337D01*
X203328Y293865D02*
X205672Y296208D01*
X215900Y76200D02*
Y200660D01*
X50800Y298707D02*
Y320656D01*
X53143Y296363D02*
X127182D01*
X50800Y298707D02*
X53143Y296363D01*
X27089Y322999D02*
X48457D01*
X50800Y320656D01*
X158917Y247650D02*
X187073D01*
X190500Y251077D02*
Y276860D01*
X187073Y247650D02*
X190500Y251077D01*
X152400Y254167D02*
Y298423D01*
Y254167D02*
X158917Y247650D01*
X139700Y311123D02*
X152400Y298423D01*
X-8626Y275326D02*
X-3897Y270597D01*
X-8626Y301254D02*
X2540Y312420D01*
X-8626Y275326D02*
Y301254D01*
X-3897Y261707D02*
Y270597D01*
Y261707D02*
X-1270Y259080D01*
X2540Y287020D02*
X24130Y308610D01*
Y320040D01*
X27089Y322999D01*
X-1270Y157480D02*
X11430D01*
X16510Y115570D02*
Y152400D01*
X11430Y157480D02*
X16510Y152400D01*
Y115570D02*
X27940Y104140D01*
X43180Y138430D02*
X55880Y125730D01*
X43180Y173355D02*
X63500Y193675D01*
X43180Y138430D02*
Y173355D01*
X71120Y90170D02*
Y139700D01*
X38100Y57150D02*
X71120Y90170D01*
X55880Y154940D02*
X71120Y139700D01*
X161290Y44450D02*
X182880Y66040D01*
X76200Y44450D02*
X161290D01*
X63500Y31750D02*
X76200Y44450D01*
X139700Y31750D02*
X156210Y15240D01*
X270707D02*
X273050Y17583D01*
X156210Y15240D02*
X270707D01*
X292100Y269875D02*
Y276860D01*
X306306Y166484D02*
X309766D01*
X325120Y151130D01*
X292100Y180690D02*
X306306Y166484D01*
X292100Y180690D02*
Y200660D01*
X215900Y251460D02*
Y276860D01*
X241300Y76200D02*
X260350Y57150D01*
X26670Y198663D02*
X27940Y129540D01*
X368300Y256829D02*
Y276860D01*
X266700Y161290D02*
Y200660D01*
X287020Y109220D02*
Y140970D01*
X266700Y161290D02*
X287020Y140970D01*
X325120Y121920D02*
Y151130D01*
X312420Y109220D02*
X325120Y121920D01*
X63500Y193675D02*
Y200660D01*
X2540Y287020D02*
X10462Y279098D01*
X127182Y296363D02*
X139700Y283845D01*
X10462Y220012D02*
Y279098D01*
X266700Y276860D02*
Y283845D01*
X215900Y251460D02*
X241300Y226060D01*
Y76200D02*
Y226060D01*
X215900Y76200D02*
X260350Y31750D01*
X15962Y278852D02*
X26670Y289560D01*
X-1270Y182880D02*
X15962Y200112D01*
Y278852D01*
X393700Y200660D02*
Y249120D01*
X292100Y311123D02*
X307015Y296208D01*
Y259605D02*
X317500Y249120D01*
X307015Y259605D02*
Y296208D01*
X317500Y200660D02*
Y249120D01*
X342900Y200660D02*
Y207645D01*
X139700Y276860D02*
Y283845D01*
X2540Y287020D02*
Y287020D01*
X-1270Y208280D02*
X10462Y220012D01*
X165100Y276860D02*
Y311123D01*
M02*
