G04*
G04 #@! TF.GenerationSoftware,Altium Limited,Altium Designer,21.6.4 (81)*
G04*
G04 Layer_Color=8388736*
%FSLAX44Y44*%
%MOMM*%
G71*
G04*
G04 #@! TF.SameCoordinates,CA9C2751-F2D4-4D48-97C2-B87B39E443D5*
G04*
G04*
G04 #@! TF.FilePolarity,Negative*
G04*
G01*
G75*
%ADD16R,1.0160X1.2000*%
G04:AMPARAMS|DCode=17|XSize=1.4mm|YSize=1.4mm|CornerRadius=0mm|HoleSize=0mm|Usage=FLASHONLY|Rotation=0.000|XOffset=0mm|YOffset=0mm|HoleType=Round|Shape=Octagon|*
%AMOCTAGOND17*
4,1,8,0.7000,-0.3500,0.7000,0.3500,0.3500,0.7000,-0.3500,0.7000,-0.7000,0.3500,-0.7000,-0.3500,-0.3500,-0.7000,0.3500,-0.7000,0.7000,-0.3500,0.0*
%
%ADD17OCTAGOND17*%

G04:AMPARAMS|DCode=18|XSize=1.6002mm|YSize=1.6002mm|CornerRadius=0mm|HoleSize=0mm|Usage=FLASHONLY|Rotation=180.000|XOffset=0mm|YOffset=0mm|HoleType=Round|Shape=Octagon|*
%AMOCTAGOND18*
4,1,8,-0.8001,0.4001,-0.8001,-0.4001,-0.4001,-0.8001,0.4001,-0.8001,0.8001,-0.4001,0.8001,0.4001,0.4001,0.8001,-0.4001,0.8001,-0.8001,0.4001,0.0*
%
%ADD18OCTAGOND18*%

%ADD19R,1.6002X1.6002*%
%ADD20C,1.4000*%
%ADD21C,1.1000*%
G04:AMPARAMS|DCode=22|XSize=1.6002mm|YSize=1.6002mm|CornerRadius=0.4001mm|HoleSize=0mm|Usage=FLASHONLY|Rotation=0.000|XOffset=0mm|YOffset=0mm|HoleType=Round|Shape=RoundedRectangle|*
%AMROUNDEDRECTD22*
21,1,1.6002,0.8001,0,0,0.0*
21,1,0.8001,1.6002,0,0,0.0*
1,1,0.8001,0.4001,-0.4001*
1,1,0.8001,-0.4001,-0.4001*
1,1,0.8001,-0.4001,0.4001*
1,1,0.8001,0.4001,0.4001*
%
%ADD22ROUNDEDRECTD22*%
G04:AMPARAMS|DCode=23|XSize=1.6mm|YSize=1.6mm|CornerRadius=0.4mm|HoleSize=0mm|Usage=FLASHONLY|Rotation=90.000|XOffset=0mm|YOffset=0mm|HoleType=Round|Shape=RoundedRectangle|*
%AMROUNDEDRECTD23*
21,1,1.6000,0.8000,0,0,90.0*
21,1,0.8000,1.6000,0,0,90.0*
1,1,0.8000,0.4000,0.4000*
1,1,0.8000,0.4000,-0.4000*
1,1,0.8000,-0.4000,-0.4000*
1,1,0.8000,-0.4000,0.4000*
%
%ADD23ROUNDEDRECTD23*%
G04:AMPARAMS|DCode=24|XSize=1.6002mm|YSize=1.6002mm|CornerRadius=0.4001mm|HoleSize=0mm|Usage=FLASHONLY|Rotation=90.000|XOffset=0mm|YOffset=0mm|HoleType=Round|Shape=RoundedRectangle|*
%AMROUNDEDRECTD24*
21,1,1.6002,0.8001,0,0,90.0*
21,1,0.8001,1.6002,0,0,90.0*
1,1,0.8001,0.4001,0.4001*
1,1,0.8001,0.4001,-0.4001*
1,1,0.8001,-0.4001,-0.4001*
1,1,0.8001,-0.4001,0.4001*
%
%ADD24ROUNDEDRECTD24*%
G04:AMPARAMS|DCode=25|XSize=1.4mm|YSize=1.4mm|CornerRadius=0mm|HoleSize=0mm|Usage=FLASHONLY|Rotation=270.000|XOffset=0mm|YOffset=0mm|HoleType=Round|Shape=Octagon|*
%AMOCTAGOND25*
4,1,8,-0.3500,-0.7000,0.3500,-0.7000,0.7000,-0.3500,0.7000,0.3500,0.3500,0.7000,-0.3500,0.7000,-0.7000,0.3500,-0.7000,-0.3500,-0.3500,-0.7000,0.0*
%
%ADD25OCTAGOND25*%

%ADD26C,1.0000*%
%ADD27R,1.4000X1.4000*%
G04:AMPARAMS|DCode=28|XSize=1.4mm|YSize=1.4mm|CornerRadius=0.35mm|HoleSize=0mm|Usage=FLASHONLY|Rotation=0.000|XOffset=0mm|YOffset=0mm|HoleType=Round|Shape=RoundedRectangle|*
%AMROUNDEDRECTD28*
21,1,1.4000,0.7000,0,0,0.0*
21,1,0.7000,1.4000,0,0,0.0*
1,1,0.7000,0.3500,-0.3500*
1,1,0.7000,-0.3500,-0.3500*
1,1,0.7000,-0.3500,0.3500*
1,1,0.7000,0.3500,0.3500*
%
%ADD28ROUNDEDRECTD28*%
G04:AMPARAMS|DCode=29|XSize=1.6002mm|YSize=1.6002mm|CornerRadius=0mm|HoleSize=0mm|Usage=FLASHONLY|Rotation=90.000|XOffset=0mm|YOffset=0mm|HoleType=Round|Shape=Octagon|*
%AMOCTAGOND29*
4,1,8,0.4001,0.8001,-0.4001,0.8001,-0.8001,0.4001,-0.8001,-0.4001,-0.4001,-0.8001,0.4001,-0.8001,0.8001,-0.4001,0.8001,0.4001,0.4001,0.8001,0.0*
%
%ADD29OCTAGOND29*%

G04:AMPARAMS|DCode=30|XSize=1.4mm|YSize=1.4mm|CornerRadius=0.35mm|HoleSize=0mm|Usage=FLASHONLY|Rotation=90.000|XOffset=0mm|YOffset=0mm|HoleType=Round|Shape=RoundedRectangle|*
%AMROUNDEDRECTD30*
21,1,1.4000,0.7000,0,0,90.0*
21,1,0.7000,1.4000,0,0,90.0*
1,1,0.7000,0.3500,0.3500*
1,1,0.7000,0.3500,-0.3500*
1,1,0.7000,-0.3500,-0.3500*
1,1,0.7000,-0.3500,0.3500*
%
%ADD30ROUNDEDRECTD30*%
%ADD31C,0.7000*%
G36*
X1498Y286414D02*
X-4598Y280318D01*
X-10694Y286414D01*
Y288954D01*
X1498D01*
Y286414D01*
D02*
G37*
G36*
Y276254D02*
X-10694D01*
Y285906D01*
X-4598Y279810D01*
X1498Y285906D01*
Y276254D01*
D02*
G37*
G36*
X14398Y286524D02*
X8302Y280428D01*
X2206Y286524D01*
Y289064D01*
X14398D01*
Y286524D01*
D02*
G37*
G36*
Y276364D02*
X2206D01*
Y286016D01*
X8302Y279920D01*
X14398Y286016D01*
Y276364D01*
D02*
G37*
G36*
X28283Y286524D02*
X22187Y280428D01*
X16091Y286524D01*
Y289064D01*
X28283D01*
Y286524D01*
D02*
G37*
G36*
Y276364D02*
X16091D01*
Y286016D01*
X22187Y279920D01*
X28283Y286016D01*
Y276364D01*
D02*
G37*
G36*
X42168Y286396D02*
X36072Y280300D01*
X29976Y286396D01*
Y288936D01*
X42168D01*
Y286396D01*
D02*
G37*
G36*
Y276236D02*
X29976D01*
Y285888D01*
X36072Y279792D01*
X42168Y285888D01*
Y276236D01*
D02*
G37*
D16*
X-4573Y275921D02*
D03*
X-4598Y289921D02*
D03*
X8301Y290032D02*
D03*
X8327Y276032D02*
D03*
X36097Y275903D02*
D03*
X36072Y289904D02*
D03*
X22187Y290032D02*
D03*
X22212Y276032D02*
D03*
D17*
X26881Y253099D02*
D03*
X1480D02*
D03*
D18*
X12700Y313623D02*
D03*
X38100D02*
D03*
X63500D02*
D03*
X88900D02*
D03*
X114300D02*
D03*
X139700D02*
D03*
X165100D02*
D03*
X190500D02*
D03*
X215900D02*
D03*
X241300D02*
D03*
X266700D02*
D03*
X292100D02*
D03*
X317500D02*
D03*
X342900D02*
D03*
X368300D02*
D03*
X36672Y30816D02*
D03*
X264510Y30097D02*
D03*
D19*
X393700Y313623D02*
D03*
D20*
X216100Y280420D02*
D03*
X241500Y204220D02*
D03*
X89100D02*
D03*
X114500D02*
D03*
X139900D02*
D03*
X165300D02*
D03*
X190700D02*
D03*
X216100D02*
D03*
X266900D02*
D03*
X292300D02*
D03*
X317700D02*
D03*
X343100D02*
D03*
X368500D02*
D03*
X393900D02*
D03*
Y280420D02*
D03*
X368500D02*
D03*
X343100D02*
D03*
X317700D02*
D03*
X292300D02*
D03*
X266900D02*
D03*
X241500D02*
D03*
X190700D02*
D03*
X165300D02*
D03*
X139900D02*
D03*
X114500D02*
D03*
X89100D02*
D03*
X63700D02*
D03*
D21*
X402590Y164287D02*
D03*
X378099Y164512D02*
D03*
X135467Y122374D02*
D03*
X85274Y150869D02*
D03*
X402590Y113487D02*
D03*
X378099Y113712D02*
D03*
X136074Y150869D02*
D03*
X84667Y122374D02*
D03*
D22*
X264510Y55497D02*
D03*
X36672Y56216D02*
D03*
X138272D02*
D03*
Y30816D02*
D03*
X112872Y56216D02*
D03*
Y30816D02*
D03*
X87472Y56216D02*
D03*
Y30816D02*
D03*
X62072Y56216D02*
D03*
Y30816D02*
D03*
X366110Y55497D02*
D03*
Y30097D02*
D03*
X340710Y55497D02*
D03*
Y30097D02*
D03*
X315310Y55497D02*
D03*
Y30097D02*
D03*
X289910Y55497D02*
D03*
Y30097D02*
D03*
D23*
X159620Y157937D02*
D03*
Y113487D02*
D03*
X223120Y157937D02*
D03*
Y113487D02*
D03*
D24*
X-210Y193244D02*
D03*
Y218644D02*
D03*
Y167844D02*
D03*
Y142444D02*
D03*
D25*
X28171Y202300D02*
D03*
Y227700D02*
D03*
X59204Y167844D02*
D03*
Y142444D02*
D03*
X30710Y184150D02*
D03*
Y158750D02*
D03*
X60159Y95736D02*
D03*
Y121136D02*
D03*
D26*
X325120Y151130D02*
D03*
X276860D02*
D03*
D27*
X63700Y204220D02*
D03*
D28*
X312420Y109220D02*
D03*
X287020D02*
D03*
D29*
X-210Y117044D02*
D03*
D30*
X30782Y105090D02*
D03*
Y130490D02*
D03*
D31*
X197406Y258861D02*
D03*
X127302Y255051D02*
D03*
X307388Y213141D02*
D03*
X150924Y268259D02*
D03*
M02*
