G04*
G04 #@! TF.GenerationSoftware,Altium Limited,Altium Designer,20.1.10 (176)*
G04*
G04 Layer_Color=32896*
%FSLAX44Y44*%
%MOMM*%
G71*
G04*
G04 #@! TF.SameCoordinates,30E8163A-5FEC-489A-BF41-53759A6F2127*
G04*
G04*
G04 #@! TF.FilePolarity,Positive*
G04*
G01*
G75*
%ADD12C,0.1270*%
G36*
X272000Y249962D02*
Y227250D01*
X177911D01*
Y249962D01*
X272000D01*
D02*
G37*
G36*
X394927Y316784D02*
X395010Y316770D01*
X395163Y316701D01*
X395218Y316659D01*
X395260Y316631D01*
X395288Y316618D01*
X395301Y316604D01*
X395371Y316520D01*
X395412Y316437D01*
X395468Y316285D01*
X395482Y316229D01*
X395496Y316174D01*
Y316132D01*
X395482Y315966D01*
X395440Y315841D01*
X395385Y315758D01*
X395371Y315744D01*
Y315730D01*
X394178Y313858D01*
X394123Y313775D01*
X394053Y313719D01*
X393984Y313664D01*
X393915Y313636D01*
X393859Y313608D01*
X393817Y313594D01*
X393790Y313580D01*
X393776D01*
X393679Y313566D01*
X393582D01*
X393429Y313608D01*
X393374Y313636D01*
X393332Y313650D01*
X393304Y313677D01*
X393290D01*
X393207Y313733D01*
X393152Y313802D01*
X393096Y313871D01*
X393069Y313927D01*
X393041Y313983D01*
X393027Y314038D01*
X393013Y314066D01*
Y314080D01*
X392999Y314177D01*
Y314260D01*
X393041Y314412D01*
X393069Y314468D01*
X393082Y314510D01*
X393110Y314537D01*
Y314551D01*
X393665Y315452D01*
X387341D01*
X387174Y315480D01*
X387050Y315522D01*
X386980Y315564D01*
X386953Y315577D01*
X386883Y315647D01*
X386842Y315730D01*
X386786Y315924D01*
X386772Y316007D01*
X386758Y316077D01*
Y316146D01*
X386772Y316271D01*
X386786Y316368D01*
X386814Y316465D01*
X386856Y316534D01*
X386897Y316590D01*
X386925Y316631D01*
X386939Y316645D01*
X386953Y316659D01*
X387091Y316742D01*
X387230Y316784D01*
X387285Y316798D01*
X387327D01*
X387355D01*
X387369D01*
X394830D01*
X394927Y316784D01*
D02*
G37*
G36*
Y312290D02*
X395010Y312277D01*
X395163Y312207D01*
X395218Y312166D01*
X395260Y312124D01*
X395288Y312110D01*
X395301Y312096D01*
X395371Y312027D01*
X395412Y311944D01*
X395468Y311791D01*
X395482Y311722D01*
X395496Y311667D01*
Y311625D01*
X395482Y311528D01*
X395468Y311445D01*
X395398Y311292D01*
X395357Y311236D01*
X395329Y311195D01*
X395315Y311167D01*
X395301Y311153D01*
X395218Y311084D01*
X395135Y311042D01*
X394982Y310987D01*
X394927Y310973D01*
X394871Y310959D01*
X394844D01*
X394830D01*
X389879D01*
X389685D01*
X389504Y310945D01*
X389338Y310931D01*
X389199Y310904D01*
X388936Y310848D01*
X388728Y310779D01*
X388561Y310709D01*
X388450Y310654D01*
X388395Y310613D01*
X388367Y310599D01*
X388215Y310446D01*
X388104Y310252D01*
X388021Y310044D01*
X387965Y309836D01*
X387937Y309655D01*
X387923Y309489D01*
X387910Y309434D01*
Y309350D01*
X387923Y309156D01*
X387937Y308976D01*
Y308907D01*
X387951Y308851D01*
Y308810D01*
X387993Y308421D01*
Y308310D01*
X387965Y308213D01*
X387896Y308061D01*
X387785Y307950D01*
X387674Y307880D01*
X387549Y307825D01*
X387438Y307811D01*
X387369Y307797D01*
X387355D01*
X387341D01*
X387174Y307825D01*
X387036Y307880D01*
X386925Y307964D01*
X386856Y308074D01*
X386800Y308172D01*
X386772Y308255D01*
X386745Y308310D01*
Y308338D01*
X386717Y308546D01*
X386703Y308740D01*
X386675Y308907D01*
Y309059D01*
X386661Y309184D01*
Y309350D01*
X386675Y309614D01*
X386703Y309877D01*
X386745Y310099D01*
X386800Y310321D01*
X386869Y310529D01*
X386953Y310723D01*
X387050Y310890D01*
X387161Y311056D01*
X387410Y311348D01*
X387674Y311583D01*
X387965Y311777D01*
X388270Y311930D01*
X388575Y312055D01*
X388867Y312152D01*
X389130Y312221D01*
X389380Y312263D01*
X389588Y312290D01*
X389671D01*
X389740Y312304D01*
X389796D01*
X389837D01*
X389865D01*
X389879D01*
X394830D01*
X394927Y312290D01*
D02*
G37*
%LPC*%
G36*
X267598Y247462D02*
D01*
Y246269D01*
X267570Y246407D01*
X267460Y246740D01*
X267376Y246907D01*
X267265Y247074D01*
X267237Y247101D01*
X267182Y247129D01*
X267099Y247212D01*
X266960Y247268D01*
X266793Y247351D01*
X266599Y247407D01*
X266377Y247462D01*
X267598D01*
X259954D01*
X266016D01*
X265877Y247435D01*
X265711Y247407D01*
X265516Y247351D01*
X265322Y247296D01*
X265128Y247185D01*
X264961Y247046D01*
X264933Y247018D01*
X264905Y246963D01*
X264850Y246879D01*
X264767Y246768D01*
X264683Y246602D01*
X264628Y246407D01*
X264600Y246213D01*
X264572Y245963D01*
Y235691D01*
Y235663D01*
Y235552D01*
X264545Y235413D01*
X264517Y235219D01*
X264489Y234997D01*
X264433Y234747D01*
X264350Y234497D01*
X264211Y234220D01*
X264072Y233942D01*
X263906Y233664D01*
X263684Y233415D01*
X263434Y233193D01*
X263129Y232998D01*
X262768Y232859D01*
X262351Y232748D01*
X261879Y232721D01*
X261740D01*
X261602Y232748D01*
X261407Y232776D01*
X261185Y232832D01*
X260935Y232915D01*
X260686Y232998D01*
X260380Y233137D01*
X260103Y233304D01*
X259853Y233498D01*
X259575Y233720D01*
X259353Y233998D01*
X259159Y234331D01*
X258992Y234719D01*
X258881Y235164D01*
X258825Y235663D01*
Y245991D01*
Y246019D01*
Y246102D01*
Y246241D01*
X258798Y246380D01*
X258714Y246713D01*
X258631Y246879D01*
X258520Y247018D01*
X258492Y247046D01*
X258437Y247101D01*
X258354Y247157D01*
X258242Y247240D01*
X258076Y247323D01*
X257854Y247407D01*
X257604Y247435D01*
X257299Y247462D01*
X255827D01*
X257188D01*
X257076Y247435D01*
X256938Y247407D01*
X256604Y247323D01*
X256438Y247212D01*
X256271Y247101D01*
X256244Y247074D01*
X256216Y247018D01*
X256133Y246935D01*
X256049Y246824D01*
X255966Y246657D01*
X255910Y246463D01*
X255855Y246241D01*
X255827Y245991D01*
Y235386D01*
X255855Y235191D01*
X255883Y234969D01*
X255910Y234719D01*
X255938Y234442D01*
X255994Y234109D01*
X256188Y233442D01*
X256438Y232776D01*
X256604Y232415D01*
X256799Y232110D01*
X257021Y231777D01*
X257271Y231499D01*
X257299Y231471D01*
X257354Y231444D01*
X257465Y231360D01*
X257604Y231249D01*
X257771Y231138D01*
X257993Y230999D01*
X258215Y230861D01*
X258492Y230722D01*
X258825Y230583D01*
X259159Y230444D01*
X259520Y230305D01*
X259908Y230194D01*
X260769Y230000D01*
X261241Y229972D01*
X261740Y229944D01*
X255827D01*
X262018D01*
X262212Y229972D01*
X262462Y230000D01*
X262740Y230028D01*
X263045Y230083D01*
X263378Y230139D01*
X264100Y230333D01*
X264850Y230611D01*
X265211Y230777D01*
X265544Y230999D01*
X265877Y231221D01*
X266182Y231499D01*
X266210Y231527D01*
X266238Y231582D01*
X266321Y231666D01*
X266404Y231804D01*
X266516Y231971D01*
X266654Y232165D01*
X266765Y232415D01*
X266904Y232665D01*
X267043Y232970D01*
X267182Y233276D01*
X267404Y233998D01*
X267543Y234830D01*
X267598Y235275D01*
Y229944D01*
D01*
D01*
Y247462D01*
D02*
G37*
G36*
X213379Y247435D02*
Y246157D01*
X213351Y246241D01*
X213323Y246380D01*
X213268Y246546D01*
X213212Y246713D01*
X213101Y246879D01*
X212962Y247018D01*
X212934Y247046D01*
X212879Y247074D01*
X212796Y247157D01*
X212685Y247240D01*
X212407Y247379D01*
X212213Y247407D01*
X212018Y247435D01*
X201719D01*
X209242D01*
X209131Y247407D01*
X208992Y247379D01*
X208798Y247351D01*
X208604Y247323D01*
X208354Y247268D01*
X208104Y247212D01*
X207521Y247046D01*
X206855Y246796D01*
X206161Y246463D01*
X205439Y246074D01*
X204717Y245574D01*
X204356Y245269D01*
X204023Y244964D01*
X203690Y244603D01*
X203384Y244242D01*
X203079Y243825D01*
X202801Y243381D01*
X202551Y242882D01*
X202329Y242382D01*
X202135Y241826D01*
X201968Y241216D01*
X201857Y240605D01*
X201774Y239911D01*
X201719Y239189D01*
Y238106D01*
X201746Y237912D01*
Y237690D01*
X201774Y237440D01*
X201802Y237190D01*
X201913Y236579D01*
X202052Y235885D01*
X202274Y235136D01*
X202579Y234386D01*
X202968Y233609D01*
X203190Y233220D01*
X203468Y232859D01*
X203745Y232471D01*
X204051Y232138D01*
X204412Y231804D01*
X204772Y231471D01*
X205189Y231194D01*
X205661Y230916D01*
X206133Y230666D01*
X206660Y230472D01*
X207243Y230278D01*
X207826Y230139D01*
X208493Y230028D01*
X209187Y229972D01*
X212018Y229944D01*
X201719D01*
X213379D01*
Y247435D01*
D02*
G37*
G36*
X198137Y247435D02*
X197860D01*
X197749Y247407D01*
X197610D01*
X197304Y247296D01*
X197110Y247212D01*
X196943Y247101D01*
X196916Y247074D01*
X196888Y247018D01*
X196832Y246935D01*
X196749Y246796D01*
X196610Y246491D01*
X196583Y246296D01*
X196555Y246102D01*
Y246102D01*
Y230999D01*
X196583Y230888D01*
X196610Y230749D01*
X196721Y230416D01*
X196805Y230250D01*
X196943Y230083D01*
X196971D01*
X197027Y230028D01*
X197110Y229972D01*
X197249Y229916D01*
X197554Y229806D01*
X197749Y229778D01*
X197943Y229750D01*
X196555D01*
D01*
X199331D01*
Y246241D01*
Y246213D01*
X199303Y246324D01*
X199275Y246463D01*
X199220Y246602D01*
X199165Y246768D01*
X199053Y246935D01*
X198915Y247101D01*
X198887Y247129D01*
X198831Y247157D01*
X198748Y247212D01*
X198609Y247296D01*
X198304Y247407D01*
X198137Y247435D01*
D02*
G37*
G36*
X253856Y247240D02*
Y245963D01*
X253828Y246074D01*
X253801Y246213D01*
X253689Y246518D01*
X253606Y246685D01*
X253467Y246824D01*
X253440Y246852D01*
X253384Y246879D01*
X253301Y246963D01*
X253190Y247046D01*
X252884Y247185D01*
X252718Y247212D01*
X252523Y247240D01*
X247637D01*
X247443Y247212D01*
X247221D01*
X246721Y247129D01*
X246138Y247018D01*
X245527Y246824D01*
X244889Y246546D01*
X244278Y246185D01*
X244250Y246157D01*
X244223Y246130D01*
X244139Y246046D01*
X244028Y245935D01*
X243917Y245769D01*
X243778Y245602D01*
X243640Y245408D01*
X243501Y245158D01*
X243334Y244908D01*
X243195Y244603D01*
X243084Y244297D01*
X242945Y243937D01*
X242862Y243576D01*
X242779Y243187D01*
X242723Y242743D01*
Y241910D01*
X242751Y241743D01*
X242779Y241549D01*
X242807Y241327D01*
X242918Y240799D01*
X243084Y240189D01*
X243362Y239550D01*
X243528Y239217D01*
X243723Y238911D01*
X243945Y238606D01*
X244223Y238301D01*
X244250D01*
X244278Y238245D01*
X244361Y238218D01*
X244472Y238134D01*
X244611Y238079D01*
X244778Y237995D01*
X245194Y237801D01*
X245722Y237634D01*
X246332Y237496D01*
X247027Y237412D01*
X247804Y237385D01*
X251163D01*
Y231083D01*
Y231055D01*
Y230999D01*
X251191Y230888D01*
X251219Y230749D01*
X251330Y230416D01*
X251413Y230278D01*
X251552Y230111D01*
X251579Y230083D01*
X251607Y230055D01*
X251718Y230000D01*
X251829Y229944D01*
X252135Y229806D01*
X252301Y229778D01*
X252523Y229750D01*
X252607D01*
X252718Y229778D01*
X252829Y229806D01*
X253134Y229917D01*
X253301Y230000D01*
X253467Y230111D01*
X253495Y230139D01*
X253523Y230194D01*
X253578Y230278D01*
X253662Y230389D01*
X253801Y230694D01*
X253828Y230861D01*
X253856Y231083D01*
Y229750D01*
D01*
Y247240D01*
D02*
G37*
G36*
X193334Y247240D02*
Y245963D01*
X193307Y246074D01*
X193279Y246213D01*
X193168Y246518D01*
X193085Y246685D01*
X192946Y246824D01*
X192918Y246852D01*
X192862Y246879D01*
X192779Y246963D01*
X192668Y247046D01*
X192363Y247185D01*
X192196Y247212D01*
X192002Y247240D01*
X187116D01*
X186921Y247212D01*
X186699D01*
X186199Y247129D01*
X185616Y247018D01*
X185006Y246824D01*
X184367Y246546D01*
X183757Y246185D01*
X183729Y246157D01*
X183701Y246130D01*
X183618Y246046D01*
X183507Y245935D01*
X183396Y245769D01*
X183257Y245602D01*
X183118Y245408D01*
X182979Y245158D01*
X182812Y244908D01*
X182674Y244603D01*
X182563Y244297D01*
X182424Y243936D01*
X182341Y243575D01*
X182257Y243187D01*
X182202Y242743D01*
Y241910D01*
X182229Y241743D01*
X182257Y241549D01*
X182285Y241327D01*
X182396Y240799D01*
X182563Y240189D01*
X182840Y239550D01*
X183007Y239217D01*
X183201Y238911D01*
X183423Y238606D01*
X183701Y238301D01*
X183729D01*
X183757Y238245D01*
X183840Y238217D01*
X183951Y238134D01*
X184090Y238079D01*
X184256Y237995D01*
X184673Y237801D01*
X185200Y237634D01*
X185811Y237496D01*
X186505Y237412D01*
X187282Y237385D01*
X190641D01*
Y231082D01*
Y231055D01*
Y230999D01*
X190669Y230888D01*
X190697Y230749D01*
X190808Y230416D01*
X190891Y230277D01*
X191030Y230111D01*
X191058Y230083D01*
X191086Y230055D01*
X191197Y230000D01*
X191308Y229944D01*
X191613Y229806D01*
X191780Y229778D01*
X192002Y229750D01*
X192085D01*
X192196Y229778D01*
X192307Y229806D01*
X192613Y229916D01*
X192779Y230000D01*
X192946Y230111D01*
X192973Y230139D01*
X193001Y230194D01*
X193057Y230277D01*
X193140Y230389D01*
X193279Y230694D01*
X193307Y230860D01*
X193334Y231082D01*
Y229750D01*
D01*
Y247240D01*
D02*
G37*
G36*
X241474Y247379D02*
D01*
Y238245D01*
D01*
Y247379D01*
D02*
G37*
G36*
X224928Y238106D02*
D01*
Y236968D01*
X224900Y237051D01*
X224872Y237190D01*
X224761Y237468D01*
X224678Y237607D01*
X224567Y237745D01*
X224539Y237773D01*
X224511Y237801D01*
X224428Y237857D01*
X224317Y237940D01*
X224039Y238051D01*
X223873Y238079D01*
X223706Y238106D01*
X217293D01*
X217182Y238079D01*
X217071Y238051D01*
X216766Y237968D01*
X216627Y237857D01*
X216488Y237745D01*
X216460Y237718D01*
X216433Y237690D01*
X216377Y237607D01*
X216322Y237496D01*
X216210Y237218D01*
X216155Y237079D01*
Y236802D01*
X216183Y236718D01*
Y236579D01*
X216294Y236302D01*
X216377Y236163D01*
X216488Y236024D01*
X216516Y235996D01*
X216544Y235969D01*
X216627Y235913D01*
X216738Y235858D01*
X217016Y235719D01*
X217182Y235691D01*
X217376Y235663D01*
X216155D01*
D01*
X224928D01*
Y238106D01*
D02*
G37*
G36*
X234311Y247379D02*
X227066D01*
X234256D01*
X234062Y247351D01*
X233867Y247323D01*
X233506Y247129D01*
X233229Y246907D01*
X232979Y246629D01*
X232785Y246324D01*
X232673Y246102D01*
X232590Y245908D01*
X232562Y245880D01*
Y245852D01*
X232007Y244408D01*
X231480Y243020D01*
X230980Y241660D01*
X230480Y240355D01*
X230008Y239134D01*
X229536Y237940D01*
X229120Y236857D01*
X228731Y235830D01*
X228370Y234886D01*
X228065Y234053D01*
X227898Y233692D01*
X227787Y233331D01*
X227649Y233026D01*
X227537Y232721D01*
X227426Y232471D01*
X227343Y232249D01*
X227260Y232054D01*
X227204Y231888D01*
X227149Y231749D01*
X227121Y231666D01*
X227093Y231610D01*
Y231582D01*
X227066Y231332D01*
Y231083D01*
X227093Y230888D01*
X227176Y230694D01*
X227232Y230555D01*
X227315Y230444D01*
X227343Y230389D01*
X227371Y230361D01*
X227537Y230222D01*
X227704Y230111D01*
X227871Y230028D01*
X228037Y229972D01*
X228176Y229944D01*
X228259Y229917D01*
X227066D01*
X228370D01*
X228731Y229972D01*
X229037Y230111D01*
X229259Y230278D01*
X229453Y230500D01*
X229620Y230722D01*
X229703Y230888D01*
X229758Y231027D01*
X229786Y231083D01*
X229925Y231527D01*
X230092Y231971D01*
X230286Y232415D01*
X230452Y232832D01*
X230591Y233193D01*
X230730Y233470D01*
X230786Y233581D01*
X230813Y233664D01*
X230841Y233692D01*
Y233720D01*
X237698D01*
X237920Y233165D01*
X238115Y232665D01*
X238309Y232193D01*
X238476Y231804D01*
X238587Y231499D01*
X238698Y231249D01*
X238753Y231110D01*
X238781Y231055D01*
X238948Y230666D01*
X239170Y230389D01*
X239392Y230194D01*
X239614Y230055D01*
X239836Y229972D01*
X240003Y229944D01*
X240114Y229917D01*
X238352D01*
X241474D01*
Y238245D01*
Y231471D01*
X241446Y231555D01*
Y231582D01*
X240447Y234081D01*
X239475Y236579D01*
X239003Y237801D01*
X238559Y238967D01*
X238115Y240105D01*
X237698Y241188D01*
X237337Y242160D01*
X236977Y243076D01*
X236810Y243465D01*
X236671Y243853D01*
X236532Y244214D01*
X236421Y244547D01*
X236310Y244825D01*
X236199Y245103D01*
X236116Y245325D01*
X236060Y245519D01*
X236005Y245658D01*
X235949Y245769D01*
X235922Y245824D01*
Y245852D01*
X235811Y246130D01*
X235700Y246352D01*
X235561Y246574D01*
X235422Y246740D01*
X235144Y247018D01*
X234867Y247185D01*
X234645Y247296D01*
X234450Y247351D01*
X234311Y247379D01*
D02*
G37*
G36*
X252523Y229750D02*
D01*
X242723D01*
X252523D01*
D02*
G37*
G36*
X192002Y229750D02*
X182202D01*
X192002D01*
D01*
D02*
G37*
%LPD*%
G36*
X210602Y232748D02*
X208798D01*
X208659Y232776D01*
X208409Y232804D01*
X208104Y232859D01*
X207771Y232970D01*
X207354Y233109D01*
X206938Y233304D01*
X206521Y233553D01*
X206077Y233859D01*
X205689Y234247D01*
X205300Y234692D01*
X204967Y235247D01*
X204717Y235885D01*
X204523Y236607D01*
X204439Y237024D01*
X204412Y237468D01*
X204384Y237912D01*
X204412Y238412D01*
Y238440D01*
Y238467D01*
Y238551D01*
Y238662D01*
X204439Y238939D01*
X204467Y239328D01*
X204550Y239772D01*
X204634Y240272D01*
X204772Y240799D01*
X204967Y241355D01*
X205189Y241910D01*
X205494Y242465D01*
X205855Y242993D01*
X206272Y243437D01*
X206771Y243853D01*
X207382Y244186D01*
X207715Y244297D01*
X208076Y244408D01*
X208437Y244492D01*
X208853Y244520D01*
X210602D01*
Y232748D01*
D02*
G37*
G36*
X213379Y229944D02*
X212102D01*
X212213Y229972D01*
X212351Y230000D01*
X212490Y230055D01*
X212657Y230111D01*
X212796Y230222D01*
X212962Y230361D01*
X212990Y230389D01*
X213018Y230444D01*
X213101Y230527D01*
X213157Y230638D01*
X213323Y230944D01*
X213351Y231110D01*
X213379Y231332D01*
Y229944D01*
D02*
G37*
G36*
X199331Y229750D02*
X197971D01*
X198026Y229778D01*
X198137D01*
X198248Y229806D01*
X198582Y229916D01*
X198942Y230111D01*
X198970Y230139D01*
X198998Y230194D01*
X199053Y230277D01*
X199137Y230416D01*
X199275Y230722D01*
X199303Y230916D01*
X199331Y231110D01*
Y229750D01*
D02*
G37*
G36*
X251163Y240327D02*
X247554D01*
X247193Y240383D01*
X246749Y240522D01*
X246527Y240605D01*
X246332Y240716D01*
X246110Y240883D01*
X245944Y241077D01*
X245777Y241299D01*
X245638Y241549D01*
X245555Y241854D01*
X245500Y242215D01*
Y242382D01*
Y242409D01*
Y242465D01*
X245527Y242576D01*
Y242687D01*
X245638Y243020D01*
X245722Y243187D01*
X245833Y243381D01*
X245972Y243576D01*
X246166Y243770D01*
X246360Y243937D01*
X246638Y244103D01*
X246943Y244242D01*
X247304Y244353D01*
X247721Y244436D01*
X248193Y244492D01*
X251163D01*
Y240327D01*
D02*
G37*
G36*
X190641Y240327D02*
X187032D01*
X186672Y240383D01*
X186227Y240522D01*
X186005Y240605D01*
X185811Y240716D01*
X185589Y240883D01*
X185422Y241077D01*
X185256Y241299D01*
X185117Y241549D01*
X185033Y241854D01*
X184978Y242215D01*
Y242382D01*
Y242409D01*
Y242465D01*
X185006Y242576D01*
Y242687D01*
X185117Y243020D01*
X185200Y243187D01*
X185311Y243381D01*
X185450Y243575D01*
X185644Y243770D01*
X185839Y243936D01*
X186116Y244103D01*
X186422Y244242D01*
X186782Y244353D01*
X187199Y244436D01*
X187671Y244492D01*
X190641D01*
Y240327D01*
D02*
G37*
G36*
X224928Y235663D02*
X223790D01*
X223873Y235691D01*
X224012Y235719D01*
X224289Y235830D01*
X224428Y235913D01*
X224567Y236024D01*
X224595Y236052D01*
X224622Y236080D01*
X224678Y236163D01*
X224734Y236274D01*
X224872Y236552D01*
X224900Y236718D01*
X224928Y236885D01*
Y235663D01*
D02*
G37*
G36*
X236893Y236163D02*
X231730D01*
X234311Y243076D01*
X236893Y236163D01*
D02*
G37*
G36*
X241474Y229917D02*
X240169D01*
X240391Y229944D01*
X240586Y230000D01*
X240752Y230055D01*
X240891Y230139D01*
X241002Y230222D01*
X241085Y230305D01*
X241141Y230333D01*
X241169Y230361D01*
X241308Y230555D01*
X241391Y230777D01*
X241446Y230972D01*
X241474Y231166D01*
Y229917D01*
D02*
G37*
D12*
X330200Y304773D02*
X336550Y298423D01*
X330200Y317473D02*
X336550Y323823D01*
Y298423D02*
X349250D01*
X355600Y304773D01*
Y317473D01*
X349250Y323823D02*
X355600Y317473D01*
Y304773D02*
X361950Y298423D01*
X374650D01*
X381000Y304773D01*
Y317473D01*
X374650Y323823D02*
X381000Y317473D01*
X361950Y323823D02*
X374650D01*
X355600Y317473D02*
X361950Y323823D01*
X336550D02*
X349250D01*
X285750Y298423D02*
X298450D01*
X304800Y304773D01*
Y317473D01*
X298450Y323823D02*
X304800Y317473D01*
Y304773D02*
X311150Y298423D01*
X323850D01*
X330200Y304773D01*
Y317473D01*
X323850Y323823D02*
X330200Y317473D01*
X311150Y323823D02*
X323850D01*
X304800Y317473D02*
X311150Y323823D01*
X254000Y304773D02*
X260350Y298423D01*
X273050D01*
X279400Y304773D01*
Y317473D01*
X273050Y323823D02*
X279400Y317473D01*
X260350Y323823D02*
X273050D01*
X254000Y317473D02*
X260350Y323823D01*
X279400Y304773D02*
X285750Y298423D01*
X279400Y317473D02*
X285750Y323823D01*
X298450D01*
X228600Y304773D02*
Y317473D01*
Y304773D02*
X234950Y298423D01*
X247650D01*
X254000Y304773D01*
Y317473D01*
X247650Y323823D02*
X254000Y317473D01*
X234950Y323823D02*
X247650D01*
X228600Y317473D02*
X234950Y323823D01*
X31750D02*
X44450D01*
X25400Y317473D02*
X31750Y323823D01*
X25400Y304773D02*
X31750Y298423D01*
X25400Y304773D02*
Y317473D01*
X50800D02*
X57150Y323823D01*
X69850D01*
X76200Y317473D01*
Y304773D02*
Y317473D01*
X69850Y298423D02*
X76200Y304773D01*
X57150Y298423D02*
X69850D01*
X50800Y304773D02*
X57150Y298423D01*
X44450Y323823D02*
X50800Y317473D01*
Y304773D02*
Y317473D01*
X44450Y298423D02*
X50800Y304773D01*
X31750Y298423D02*
X44450D01*
X107950Y323823D02*
X120650D01*
X101600Y317473D02*
X107950Y323823D01*
X101600Y304773D02*
X107950Y298423D01*
X76200Y317473D02*
X82550Y323823D01*
X95250D01*
X101600Y317473D01*
Y304773D02*
Y317473D01*
X95250Y298423D02*
X101600Y304773D01*
X82550Y298423D02*
X95250D01*
X76200Y304773D02*
X82550Y298423D01*
X127000Y317473D02*
X133350Y323823D01*
X146050D01*
X152400Y317473D01*
Y304773D02*
Y317473D01*
X146050Y298423D02*
X152400Y304773D01*
X133350Y298423D02*
X146050D01*
X127000Y304773D02*
X133350Y298423D01*
X120650Y323823D02*
X127000Y317473D01*
Y304773D02*
Y317473D01*
X120650Y298423D02*
X127000Y304773D01*
X107950Y298423D02*
X120650D01*
X184150Y323823D02*
X196850D01*
X177800Y317473D02*
X184150Y323823D01*
X177800Y304773D02*
X184150Y298423D01*
X152400Y317473D02*
X158750Y323823D01*
X171450D01*
X177800Y317473D01*
Y304773D02*
Y317473D01*
X171450Y298423D02*
X177800Y304773D01*
X158750Y298423D02*
X171450D01*
X152400Y304773D02*
X158750Y298423D01*
X203200Y317473D02*
X209550Y323823D01*
X222250D01*
X228600Y317473D01*
Y304773D02*
Y317473D01*
X222250Y298423D02*
X228600Y304773D01*
X209550Y298423D02*
X222250D01*
X203200Y304773D02*
X209550Y298423D01*
X196850Y323823D02*
X203200Y317473D01*
Y304773D02*
Y317473D01*
X196850Y298423D02*
X203200Y304773D01*
X184150Y298423D02*
X196850D01*
M02*
