M48
;Layer_Color=0
;FILE_FORMAT=4:2
METRIC
;TYPE=PLATED
T1F00S00C0.50
T2F00S00C0.60
T3F00S00C0.81
T4F00S00C1.02
T5F00S00C1.10
%
T01
X002769Y001511
X003251
T02
X000559Y001257
Y001549
X001067
Y001257
X003727Y001130
X004005Y001133
Y001641
X003727Y001638
T03
X000051Y001092
Y001346
X000279Y001295
Y001041
X000635Y002007
X000889
X001143
X001397
X001651
X001905
X002159
X002413
X002667
X002921
X003175
X003429
X003683
Y002769
X003429
X003175
X002921
X002667
X002413
X002159
X001905
X001651
X001397
X001143
X000889
X000635
X000267Y002642
X000025Y002870
X002870Y001092
X003124
X003937Y002007
Y002769
X000267Y002896
X000025Y003124
T04
X000381Y000318
X000635
X000889
X001143
X001397
Y000572
X001143
X000889
X000635
X000381
X-000013Y001575
Y001829
Y002083
Y002337
Y002591
X002604Y000572
X002858
X003112
X003366
X003620
Y000318
X003366
X003112
X002858
X002604
X002667Y003111
X002921
X003175
X003429
X003683
X002413
X002159
X001905
X001651
X001397
X001143
X000889
X000635
X000381
T05
X001372Y001105
Y001549
X002007
Y001105
M30
